<svg xmlns="http://www.w3.org/2000/svg" xmlns:xlink="http://www.w3.org/1999/xlink" viewBox="0 0 250 250" xmlns:v="https://vecta.io/nano"><style><![CDATA[.J{opacity:.5}.K{fill:#ffb1a7}.L{opacity:.4}.M{fill:#fff}]]></style><defs><circle id="A" cx="125" cy="125.7" r="123"/></defs><clipPath id="B"><use xlink:href="#A"/></clipPath><g clip-path="url(#B)"><circle cx="125" cy="125.7" r="123" fill="#d4e0fa"/><path d="M219.8 239.1l-51.5 18.1s-25.2-87.4-29.6-91.1-17.1-6.5-25.2-19.6c-3-4.8-10-11.7-16.5-17.7-.9-.8-1.8-1.7-2.7-2.4l-9.8-8.5c-.4-.4-.5-1-.1-1.5 1.5-1.8 5.8-5.8 12.3-4 8.3 2.4 13.5 5.8 16.2 8.7 0 0 9.1 8.1 11.7 6.6 3.5-2.1-.5-13.5-.5-13.5-4.9-18.7-10.2-39.1-12.9-53.7-.4-2-.7-4.1-.3-6.1s1.7-3.9 3.6-4.2c2.7-.4 4.9 2.5 6.3 5.1 5.4 10 16.6 43.1 18.6 41.7 2.2-1.6-12.1-40.8-14.4-59.8-.3-2.5.8-9.1 4.6-10.1 5.4-1.4 9 8.4 10.3 11.7 6 15.7 16.7 53.1 19 52.4s-6-33.8-8.5-48.1c-.4-2.5-.9-5.1-.4-7.6s2-4.9 4.3-5.3c2.1-.4 4.4.9 5.8 2.8s2.2 4.2 2.9 6.4c4.3 13.5 12.8 49.7 15.6 48.1 2.7-1.6 1.1-21.7 2.2-32.5.3-3.1 2.6-8.4 5.4-8 2.2.3 4.4 3.6 5.1 7.4 1.3 7.7.7 32.6 2.1 40.3 5.1 27.9 6.9 35.8.8 63.1l25.6 81.3z" fill="#ffc0b1"/><g class="J K"><path d="M128.3 109.3c-.1-.3 3.7 1.2 5.8.8.1 0 .2 0 .3-.1 2-.4 4.8-3.2 4.8-2.8 0 1-.3 2.3-.9 3-.9 1.2-2 2.1-3.5 2.4-.1 0-.2 0-.3.1-1.5.3-3.1 0-4.4-.8-.6-.6-1.3-1.6-1.8-2.6zm16.8-5.5c-.2-.3 3.8.8 5.9.2.1 0 .2-.1.3-.1 1.9-.6 4.5-3.6 4.5-3.3.1 1-.1 2.3-.6 3.1-.8 1.3-1.8 2.2-3.3 2.7-.1 0-.2.1-.3.1-1.4.4-3.1.3-4.4-.4-.8-.4-1.6-1.3-2.1-2.3zm18.1-6.3c-.2-.3 3.8.8 5.9.2.1 0 .2-.1.3-.1 1.9-.6 4.5-3.6 4.5-3.3.1 1-.1 2.3-.6 3.1-.8 1.3-1.8 2.2-3.3 2.7-.1 0-.2.1-.3.1-1.4.4-3.1.3-4.4-.4-.9-.5-1.7-1.4-2.1-2.3zm17-3.8c-.1-.3 3.2.7 5 .2.1 0 .2 0 .3-.1 1.6-.5 3.8-3.1 3.8-2.8.1.9-.1 2-.5 2.6-.7 1.1-1.5 1.9-2.8 2.3-.1 0-.2.1-.3.1-1.2.4-2.6.2-3.7-.4-.8-.3-1.4-1-1.8-1.9z"/></g><path d="M136.8 37c.2.6-.1 1.2-.7 1.3h0l-7.6 2.1c-.5.1-1.1-.2-1.2-.8-.7-3.1-1.3-8.2 2.5-9.3 3.6-.9 5.9 3.1 7 6.7z" class="K L"/><path d="M136.1 38.3l-7.6 2.1c.2-1.3 1.5-2.6 3.3-3.1s3.5 0 4.3 1z" class="J M"/><path d="M98.5 123.9h0l-3.1 3.6-2.4-2.1-8.7-7.4c4.1-3.8 10-.5 14.1 3.4a1.85 1.85 0 0 1 .1 2.5z" class="K L"/><path d="M98.5 123.9l-3.1 3.6-2.4-2.2c1.8-1.4 3.9-2 5.5-1.4z" class="J M"/><path d="M161.3 39c.2.6-.1 1.2-.7 1.3h0l-7.6 2.1c-.5.1-1.1-.2-1.2-.8-.7-3.1-1.3-8.2 2.5-9.3 3.5-.9 5.9 3.1 7 6.7z" class="K L"/><path d="M160.6 40.4l-7.6 2.1c.2-1.3 1.5-2.6 3.3-3.1s3.5-.1 4.3 1z" class="J M"/><path d="M189.1 54.5c0 .4-.3.8-.7.8h0l-5.5-.1c-.4 0-.7-.4-.7-.8.1-2.2.6-5.7 3.3-5.7 2.6.1 3.5 3.2 3.6 5.8z" class="K L"/><path d="M188.4 55.3l-5.5-.1c.4-.9 1.5-1.5 2.8-1.4 1.2 0 2.3.6 2.7 1.5z" class="J M"/><path d="M120 58.2c.1.5-.1.9-.6 1h0l-6.2 1.4c-.4.1-.9-.2-.9-.7-.4-2.5-.8-6.6 2.3-7.3 2.9-.5 4.6 2.7 5.4 5.6z" class="K L"/><g class="M"><path d="M119.4 59.3l-6.2 1.4c.2-1.1 1.3-2 2.8-2.3 1.4-.4 2.8 0 3.4.9z" class="J"/><path d="M148.1 97c-2.2.5-2.8 3.1-2.6 5.7.3 3.8 5.9 5.7 8.2 2 2.1-3.5-1.6-8.6-5.6-7.7zm-33 15.5c-.8-.6-1.9-.5-2.7.6-1 1.4-.4 3.7 1.6 3.4 1.7-.1 2.5-2.8 1.1-4zm-7 27.6c-1.2.4-1.9 1.7-1.2 3.3.7 2 3.5 2.9 4.6.8 1-2.1-1.2-4.8-3.4-4.1zm53.6 2.8c5.6-.3 7.2-8.1 6.1-11.2-1.9-5.4-6.4-6.3-12.3-5.9.1 0 .1-.1.1-.1 2.9-2 4.6-5.9 3.7-9.3-.9-3.5-4.7-6.1-8.3-5.4-1.9.4-3.3 1.5-4.5 3-.5.4-1 .8-1.4 1.3.2-4.9-4.1-9.7-9-9.4-8 .4-6.3 8.2-6.5 13.3-1.5-2.8-4.8-4.7-7.9-4.2s-5.8 3.6-5.5 6.7c.3 3.6 3.8 5.9 7.4 7.1-3.3-.5-6.9 1.6-8 4.8-.7 1.1-1.1 2.3-.9 3.6.2 2.5 2 4.4 4.2 5.7l1.5.9a12.59 12.59 0 0 0 1 .3c.3.1.5.2.8.3-3.3-.5-7 1.7-8 5-1.2 3.9 1.1 8.4 4.8 10s8.4.4 11.1-2.6c-.5 2.8-.1 5.9 1.6 8.2s4.8 3.7 7.6 2.9c2.6-.7 4.4-3.1 5.3-5.6.8-2.5.8-5.3.8-8 .7 2.3 7.9 9.4 14.7 4.7 7.2-5.3 6.1-13.1 1.6-16.1zm-40-49.7c-1.9.4-2.5 2.7-2.3 5 .2 3.3 5.2 4.9 7.1 1.7 1.9-3.1-1.3-7.5-4.8-6.7z"/></g><path d="M74.2 99.9c2 1.5 2.1 3.7 5 4.6 1.9.6 5.2-1.3 7.1-1.5a8.46 8.46 0 0 1 6.3 1.7c1.6 1.3 3 4 4.9 4.8 1.8.8 5.8-2.2 10.8-.7 4.8 1.5 6 6.3 6.8 6.7 1.6.8 8.2-2.5 13.2.8 5.1 2.8.9 12.5.2 14.9l-2.9 9s-4.7 11.1-1.3 13.4c2.6 1.7 12.1-5.8 12.1-5.8 2.9-2.7 8.3-5.8 16.7-7.6 6.6-1.5 10.7 2.8 12.1 4.7.3.4.2 1.1-.2 1.5-1.7 1.2-5.7 4.2-10.3 7.8l-2.9 2.3c-6.9 5.5-14.3 12-17.6 16.6-8.9 12.5-21.8 14.6-26.4 18s-32.3 71-32.3 71l-50.8-20.3L46 184.9c1.1-3.4 1.4-7 1-10.6-3.2-25.5 1.5-48.1 13.9-72.9 2.1-4.2 4.8-4.1 7.4-3.8a13.29 13.29 0 0 1 5.9 2.3z" fill="#ffc0b1"/><g class="J K"><path d="M127.3 122.9c.1-.3-3.7 1.2-5.9.7-.1 0-.2 0-.3-.1-2-.4-4.7-3.2-4.7-2.9 0 1 .3 2.3.8 3 .9 1.3 2 2.1 3.5 2.4.1 0 .2 0 .3.1 1.5.3 3.1 0 4.4-.8.7-.5 1.5-1.4 1.9-2.4zm-16.7-5.8c.2-.3-3.8.8-5.9.1-.1 0-.2-.1-.3-.1-1.9-.6-4.4-3.7-4.5-3.4-.1 1 .1 2.4.6 3.1.8 1.3 1.8 2.3 3.3 2.8.1 0 .2.1.3.1 1.4.5 3.1.3 4.4-.4.8-.3 1.6-1.2 2.1-2.2zm-18-6.5c.2-.3-3.8.8-5.9.1-.1 0-.2-.1-.3-.1-1.9-.6-4.4-3.7-4.5-3.4-.1 1 .1 2.4.6 3.1.8 1.3 1.8 2.3 3.3 2.8.1 0 .2.1.3.1 1.4.5 3.1.3 4.4-.4.9-.4 1.6-1.3 2.1-2.2zm-16.9-4c.1-.3-3.2.7-5 .1-.1 0-.2 0-.3-.1-1.6-.5-3.8-3.1-3.8-2.8-.1.9.1 2 .5 2.6.7 1.1 1.5 1.9 2.8 2.3.1 0 .2.1.3.1 1.2.4 2.6.3 3.7-.3.7-.4 1.4-1.1 1.8-1.9z"/></g><path d="M150.4 151.3h0l2.9 3.8 2.5-2 9.1-6.9c-3.9-4-9.9-1.1-14.3 2.6-.7.6-.8 1.7-.2 2.5z" class="K L"/><path d="M150.4 151.3l2.9 3.8c.8-.7 1.8-1.4 2.6-2-1.9-1.7-3.9-2.3-5.5-1.8z" class="J M"/><g fill="none" stroke="#678cff" stroke-width="1.059" stroke-linecap="round" stroke-linejoin="round" stroke-miterlimit="10"><path d="M96.6 152l2.5-8.6 8.1 4.4m-7.8-2.9c5 7.3 5 16.3-.4 21.5-6.2 5.9-17.1 4.5-24.4-3.2-7.3-7.6-8.2-18.6-2-24.5 3.7-3.5 9-4.4 14.2-3"/></g></g></svg>