<svg xmlns="http://www.w3.org/2000/svg" xmlns:xlink="http://www.w3.org/1999/xlink" viewBox="0 0 250 250" xmlns:v="https://vecta.io/nano"><defs><circle id="A" cx="125" cy="124.9" r="121.5"/></defs><clipPath id="B"><use xlink:href="#A"/></clipPath><g clip-path="url(#B)"><circle cx="125" cy="124.9" r="121.5" fill="#d4e0fa"/><path d="M33.7 212.6L.5 169.7s51-34.5 53.1-39.8.9-18.7 10.5-30.1c3.5-4.2 7.9-13 11.4-21 .5-1.1 1-2.2 1.4-3.3 2.3-5.4 4.1-10 4.9-12 .2-.5.8-.8 1.3-.5 2.1 1.1 7.2 4.3 7.4 11.3.3 8.9-1.3 14.9-3.1 18.4 0 0-4.8 11.1-2.5 13.4 3 3 12.4-3.9 12.4-3.9 15.9-9.6 18.6 9.2 20.5 10.9 2.2 1.8 9.8 15.9 11.2 18s7.1 16.2 9.4 18.6c2.2 2.3 19.9 5 13.2 8.4-24.3 12.1-46.5 24.3-73.7 25.1l-44.2 29.4z" fill="#ffaf9f"/><g opacity=".6" fill="#ffb1a7"><path d="M92.6 114.7s-.6 10.9-6.1 22.4c-4 8.5-17.6 21.6-17.6 21.6s16.1-10 21.5-18c7.6-11.4 2.2-26 2.2-26zm3.1-.6s12.1 17.8 15.3 25.2 7.5 21.1 7.5 21.1-13.1-21.5-15.2-26.9l-7.6-19.4zM80 182.8s-11.6-3.3-16.6-9c-5.7-6.4-7.2-11.3-7.2-11.3s1.1 10.9 8.1 16.1c7.9 5.9 15.7 4.2 15.7 4.2z"/></g><g fill="#fff"><path d="M112.8 164.1c-1.8.4-2.4 2.6-2.3 4.8.2 3.2 5 4.8 7 1.7 1.8-2.9-1.3-7.2-4.7-6.5zm-15.6-47.7c-1.1-.9-2.7-.7-3.9.9-1.4 1.9-.5 5.2 2.2 4.8 2.6-.2 3.7-4 1.7-5.7zm-6.8 16.7c-1.7.5-2.6 2.3-1.7 4.6 1.1 2.8 5 4.1 6.5 1.1 1.5-2.9-1.7-6.6-4.8-5.7zm75.4 4c7.8-.4 10.1-11.4 8.5-15.8-2.7-7.6-9-8.9-17.3-8.4l.2-.2c4.1-2.9 6.5-8.3 5.2-13.1-1.3-4.9-6.6-8.6-11.6-7.6-2.6.5-4.7 2.1-6.3 4.2-.8.5-1.4 1.1-2 1.8.3-6.9-5.8-13.6-12.7-13.3-11.3.6-8.9 11.5-9.2 18.8-2.1-4-6.7-6.6-11.1-5.9s-8.1 5-7.7 9.5c.5 5.1 5.4 8.3 10.4 10-4.6-.7-9.7 2.3-11.2 6.8-1 1.5-1.5 3.3-1.3 5.1.3 3.5 2.8 6.1 5.9 8 .7.5 1.3.9 2.1 1.2.4.2.9.3 1.4.4.4.1.7.3 1.1.4-4.7-.7-9.8 2.4-11.3 7-1.7 5.4 1.5 11.8 6.8 14.1s11.8.5 15.6-3.7c-.8 4-.2 8.3 2.2 11.6s6.8 5.2 10.7 4.1c3.6-1 6.3-4.3 7.4-7.9 1.2-3.6 1.2-7.4 1.1-11.2 1.1 3.2 11.2 13.3 20.6 6.7 10.5-7.5 8.8-18.5 2.5-22.6z"/></g><path d="M105.6 111.1c1.6 1.9 3.8 1.8 4.9 4.5.7 1.8-.8 5.2-1 7.1-.2 2.2.6 4.4 2.1 6 1.4 1.5 4.1 2.7 5.1 4.5 1 1.7-1.7 5.8.2 10.7 1.8 4.6 6.6 5.4 7.1 6.2.9 1.5-1.8 8.3 1.8 13 3.1 4.8 12.4 0 14.7-1l8.6-3.6s10.6-5.5 13.1-2.3c1.9 2.4-4.8 12.4-4.8 12.4-2.4 3.1-5.1 8.6-6.3 17.1-.9 6.7 3.6 10.3 5.6 11.5.5.3 1.1.1 1.4-.3l6.9-10.8c.7-1 1.3-2 2-3 4.9-7.2 10.8-15 15-18.6 11.7-9.7 12.7-22.6 15.7-27.3 3-4.8 67.4-37.3 67.4-37.3l-21.9-45.4L186 82.4c-2.5 1.2-5.2 1.7-8 1.5-25.8-1.8-48.2-.2-72 14.1-3.9 2.4-3.6 5.1-3.1 7.6.4 2 1.3 4 2.7 5.5z" fill="#ffc0b1"/><g opacity=".5" fill="#ffb1a7"><path d="M132.2 161.7c-.3.2.9-3.8.2-5.8 0-.1-.1-.2-.1-.3-.6-1.9-3.6-4.4-3.2-4.4 1-.1 2.3.1 3.1.6 1.3.8 2.2 1.8 2.6 3.3 0 .1.1.2.1.3.4 1.4.3 3.1-.4 4.4-.4.6-1.3 1.4-2.3 1.9zm-6.9-16.1c-.3.2.5-3.8-.3-5.8 0-.1-.1-.2-.1-.3-.8-1.8-4-4.1-3.6-4.1 1-.2 2.3-.1 3.1.3 1.4.7 2.4 1.6 3 3 0 .1.1.2.1.3.6 1.4.6 3 0 4.4-.5.8-1.3 1.7-2.2 2.2zm-7.8-17.1c-.3.2.5-3.8-.3-5.8 0-.1-.1-.2-.1-.3-.8-1.8-4-4.1-3.6-4.1 1-.2 2.3-.1 3.1.3 1.4.7 2.4 1.6 3 3 0 .1.1.2.1.3.6 1.4.6 3 0 4.4-.5.8-1.3 1.6-2.2 2.2zm-5.2-16.4c-.3.2.4-3.2-.3-4.9 0-.1-.1-.2-.1-.3-.6-1.6-3.4-3.5-3.1-3.5.8-.1 2-.1 2.6.3 1.2.6 2 1.3 2.5 2.6 0 .1.1.2.1.2.5 1.2.5 2.6 0 3.7-.3.7-1 1.4-1.7 1.9z"/></g><path d="M162 182.2h0l4 2.6-1.7 2.6c-2.8 4.2-5.1 8-6.1 9.5-4.3-3.5-1.8-9.7 1.4-14.2.5-.8 1.6-1 2.4-.5z" opacity=".4" fill="#ffb1a7"/><path d="M162 182.2l4 2.5-1.8 2.7c-1.8-1.6-2.6-3.5-2.2-5.2z" opacity=".5" fill="#fff"/><g fill="none" stroke="#678cff" stroke-width="1.059" stroke-linecap="round" stroke-linejoin="round" stroke-miterlimit="10"><path d="M64.2 137.8l5.2-7.2 6.1 6.8m8.8 25l1.5 8.7-9.2-.4m-7.3-37.1s1.5 25.6 14.7 35.1m53-66.8l-8.8-.9.9 9m11.6 24l6.1 6.3 5.1-7.6M130 103s18.1 18.2 16.5 34.3"/></g></g></svg>