<svg xmlns="http://www.w3.org/2000/svg" xmlns:xlink="http://www.w3.org/1999/xlink" width="722" height="756.57" xmlns:v="https://vecta.io/nano"><defs><linearGradient id="A" x1="635.66" y1="790.49" x2="635.66" y2="501.25" gradientUnits="userSpaceOnUse"><stop offset="0" stop-color="gray" stop-opacity=".25"/><stop offset=".54" stop-color="gray" stop-opacity=".12"/><stop offset="1" stop-color="gray" stop-opacity=".1"/></linearGradient><linearGradient id="B" x1="457.35" y1="294.82" x2="457.35" y2="145.48" xlink:href="#A"/><linearGradient id="C" x1="352.53" y1="581.95" x2="352.53" y2="-.01" xlink:href="#A"/><linearGradient id="D" x1="771.89" y1="599.9" x2="771.89" y2="322.64" xlink:href="#A"/><linearGradient id="E" x1="444.95" y1="755.13" x2="444.95" y2="686.13" xlink:href="#A"/><linearGradient id="F" x1="432.88" y1="501.18" x2="432.88" y2="377.78" xlink:href="#A"/><linearGradient id="G" x1="428.08" y1="603.47" x2="428.08" y2="493.94" xlink:href="#A"/><linearGradient id="H" x1="352.52" y1="380.93" x2="352.52" y2="201.04" xlink:href="#A"/><linearGradient id="I" x1="442.06" y1="399.64" x2="442.06" y2="262.61" xlink:href="#A"/></defs><g fill="none" stroke="#3ad29f" stroke-width="2" stroke-dasharray="12"><circle cx="361" cy="395.57" r="297"/><circle cx="361" cy="395.57" r="360"/></g><path d="M840.94,582.47a81.21,81.21,0,0,0-161-15.14l-249.59-6.77,2.74,42.88s-35.59,82.12,151.46,104v83H800.79v-138A81.16,81.16,0,0,0,840.94,582.47Z" transform="translate(-239 -72.21)" fill="url(#A)"/><path d="M202.66 533.03s-34.08 78.64 145.05 99.62v79.52h207.1v-210.6L200 491.96z" fill="#be7c5e"/><path d="M545.16,277.07h0A38.18,38.18,0,0,1,492.66,289L381.47,215.73a38.18,38.18,0,0,1-11.93-52.5h0A38.18,38.18,0,0,1,422,151.3l111.19,73.27A38.18,38.18,0,0,1,545.16,277.07Z" transform="translate(-239 -72.21)" fill="url(#B)"/><g fill="#be7c5e"><path d="M300 200.86h0c-10.45 16.488-32.252 21.443-48.8 11.1L147.8 143.8c-16.488-10.45-21.443-32.252-11.1-48.8h0c10.45-16.488 32.252-21.443 48.8-11.1l103.37 68.12c16.52 10.444 21.486 32.278 11.1 48.84z"/><circle cx="515.49" cy="512.94" r="77.77"/></g><rect x="191.32" width="322.42" height="581.96" rx="12.25" fill="url(#C)"/><rect x="195.67" y="7.87" width="313.7" height="566.24" rx="13.64" fill="#fff"/><path d="M431.33 22.07c-1.875 12.408-12.52 21.593-25.07 21.63H297.92c-12.545-.042-23.185-9.226-25.06-21.63h-57.4a11.91 11.91 0 0 0-11.92 11.91v514a11.91 11.91 0 0 0 11.91 11.92H489.6a11.91 11.91 0 0 0 11.92-11.91V34a11.91 11.91 0 0 0-11.91-11.92z" fill="#4e6a99"/><g fill="#dbdbdb"><rect x="318.01" y="28.84" width="69.91" height="4.37" rx="2"/><circle cx="402.77" cy="30.59" r="2.62"/></g><path d="M804.76,598.87h0c-22.57,5.22-38.06-9.5-43.28-32.06L709.62,374.24a42.24,42.24,0,0,1,31.55-50.51h0a42.24,42.24,0,0,1,50.51,31.55L834,552.82C839.22,575.39,827.32,593.65,804.76,598.87Z" transform="translate(-239 -72.21)" fill="url(#D)"/><rect x="739.86" y="329.79" width="70.78" height="282.61" rx="35.39" transform="matrix(.974331 -.225121 .225121 .974331 -325.18 114.47)" fill="#be7c5e"/><path fill="url(#E)" d="M296.93 686.15h296v69h-296z"/><path fill="#4d8af0" d="M304.93 694.15h280v54h-280z"/><g transform="translate(-239 -72.21)"><path d="M502,483.65h0a37.72,37.72,0,0,1-51.87,11.79l-74.57-48.25a37.72,37.72,0,0,1-11.79-51.87h0a37.72,37.72,0,0,1,51.87-11.79l74.57,48.25A37.72,37.72,0,0,1,502,483.65Z" fill="url(#F)"/><path d="M483.28,585.78h0a38.06,38.06,0,0,1-52.34,11.9L384.75,564a38.06,38.06,0,0,1-11.9-52.34h0a38.06,38.06,0,0,1,52.34-11.9l46.19,33.69A38.06,38.06,0,0,1,483.28,585.78Z" fill="url(#G)"/></g><circle cx="352.52" cy="290.99" r="89.94" fill="url(#H)" opacity=".5"/><circle cx="352.52" cy="290.99" r="84.65" fill="#69f0ae"/><path fill="#fff" d="M315.78 279.7l31.74 29.1 44.97-66.13 15.88 13.23-60.85 79.36L302.55 285l13.23-5.3z"/><path d="M240.55 511.06h0c-10.45 16.488-32.252 21.443-48.8 11.1l-43.08-31.36c-16.488-10.45-21.443-32.252-11.1-48.8h0c10.45-16.488 32.252-21.443 48.8-11.1l43.07 31.42c16.455 10.443 21.4 32.2 11.1 48.74zM258.9 408.8h0c-10.45 16.488-32.252 21.443-48.8 11.1l-70.16-45.4c-16.488-10.45-21.443-32.252-11.1-48.8h0c10.45-16.488 32.252-21.443 48.8-11.1L247.8 360c16.488 10.45 21.443 32.252 11.1 48.8z" fill="#be7c5e"/><path d="M521.28,382h0a37.9,37.9,0,0,1-52.11,11.84l-94.5-61.53a37.9,37.9,0,0,1-11.84-52.11h0a37.9,37.9,0,0,1,52.11-11.84l94.5,61.53A37.9,37.9,0,0,1,521.28,382Z" transform="translate(-239 -72.21)" fill="url(#I)"/><path d="M277.26 306.6h0c-10.45 16.488-32.252 21.443-48.8 11.1l-88.5-57.63c-16.488-10.45-21.443-32.252-11.1-48.8h0c10.45-16.488 32.252-21.443 48.8-11.1l88.5 57.63c16.492 10.446 21.45 32.25 11.1 48.8z" fill="#be7c5e"/></svg>