<svg xmlns="http://www.w3.org/2000/svg" viewBox="0 0 946 662.8" xmlns:v="https://vecta.io/nano"><linearGradient id="A" gradientUnits="userSpaceOnUse" x1="141.844" y1="200.185" x2="141.844" y2="152.302"><stop offset="0" stop-color="gray" stop-opacity=".25"/><stop offset=".54" stop-color="gray" stop-opacity=".12"/><stop offset="1" stop-color="gray" stop-opacity=".1"/></linearGradient><path d="M137.1 164.8l2.6 3.8 6.1-4.1 3.9 7.4-5.3 3.6 12.9 19-8.4 5.7-12.9-19-3.8 2.6-4.7-6.8 3.8-2.6-2.6-3.8s-5.6-6.8.4-12.5l8.4-5.7 4.1 6.1-3.8 2.6c-1.2.8-1.5 2.5-.7 3.7z" fill="url(#A)"/><path d="M139 162.1l2.6 3.8 6.1-4.1 3.9 7.4-5.3 3.6 12.9 19-8.4 5.7-12.9-19-3.9 2.5-4.7-6.8 3.8-2.6-2.6-3.8s-5.6-6.8.4-12.5l8.4-5.7 4.1 6.1-3.8 2.6c-1.1.8-1.4 2.5-.6 3.8z" fill="#3b5998"/><linearGradient id="B" gradientUnits="userSpaceOnUse" x1="313.428" y1="109.456" x2="313.428" y2="71.719"><stop offset="0" stop-color="gray" stop-opacity=".25"/><stop offset=".54" stop-color="gray" stop-opacity=".12"/><stop offset="1" stop-color="gray" stop-opacity=".1"/></linearGradient><path d="M331.8 78.2l4.6-.9-4.6 4.6c-.1.9-.1 1.8 0 2.8-8.8 37.9-41.4 21.2-41.4 21.2 11.9.3 12.9-4.6 12.9-4.6-6.9-1-8.3-5.5-8.3-5.5 1.3.7 2.9.3 3.7-.9-7.5-1.9-6.4-9.2-6.4-9.2 1.3 1 2.9 1.6 4.5 1.7-.8-1-7.8-9.4-3.6-13.7 0 0 5.2 9.2 18.7 10l.9-.2c-.2-.7-.2-1.3-.2-2 0-5.3 4.3-9.7 9.7-9.7 6.4 0 7.8 3.7 7.8 3.7l4.6-2.8c-.1-.1-.6 4.5-2.9 5.5z" fill="url(#B)"/><path d="M333.7 75.4l4.6-.9-4.6 4.6c-.1.9-.1 1.8 0 2.8-8.8 37.9-41.4 21.2-41.4 21.2 11.9.3 12.9-4.6 12.9-4.6-6.9-1-8.3-5.5-8.3-5.5 1.3.7 2.9.3 3.7-.9-7.5-1.9-6.4-9.2-6.4-9.2 1.3 1 2.9 1.6 4.5 1.7-.8-1-7.8-9.4-3.6-13.7 0 0 5.2 9.2 18.7 10l.9-.2c-.2-.7-.2-1.3-.2-2 0-5.3 4.3-9.7 9.7-9.7 6.4 0 7.8 3.7 7.8 3.7l4.6-2.8c-.2 0-.6 4.6-2.9 5.5z" fill="#00aced"/><linearGradient id="C" gradientUnits="userSpaceOnUse" x1="643.593" y1="117.772" x2="643.593" y2="64.714"><stop offset="0" stop-color="gray" stop-opacity=".25"/><stop offset=".54" stop-color="gray" stop-opacity=".12"/><stop offset="1" stop-color="gray" stop-opacity=".1"/></linearGradient><path d="M653.8 115.2l5-17.3s.1-3.9-3.4-4.7-4.8-.6-6.9.8l-5.3 18.2-8.8-2.6 8-27.4 8.8 2.6-1.2 4.1s4.6-4.8 10.4-2.6c5.4 2 8.5 6.5 7.3 13.9l.2.1-5.2 17.7-8.9-2.8zm-21-39.7c-2.9-.9-4.6-3.9-3.8-6.8.9-2.9 3.9-4.6 6.8-3.8 2.9.9 4.6 3.9 3.8 6.8-.8 3-3.9 4.7-6.8 3.8h0zm-4.6 32.2l-8.8-2.6 8-27.4 8.8 2.6-8 27.4z" fill="url(#C)"/><path d="M655.6 112.5l5-17.3s.1-3.9-3.4-4.7-4.8-.6-6.9.8l-5.3 18.2-8.8-2.6 8-27.4L653 82l-1.2 4.1s4.6-4.8 10.4-2.6c5.4 2 8.5 6.5 7.3 13.9l.2.1-5.2 17.7-8.9-2.7zm-21-39.7c-2.9-.9-4.6-3.9-3.8-6.8.9-2.9 3.9-4.6 6.8-3.8 2.9.9 4.6 3.9 3.8 6.8-.8 3-3.9 4.6-6.8 3.8h0zM630 105l-8.8-2.6 8-27.4 8.8 2.6-8 27.4z" fill="#0077b5"/><linearGradient id="D" gradientUnits="userSpaceOnUse" x1="446.873" y1="72.187" x2="491.048" y2="72.187"><stop offset="0" stop-color="gray" stop-opacity=".25"/><stop offset=".54" stop-color="gray" stop-opacity=".12"/><stop offset="1" stop-color="gray" stop-opacity=".1"/></linearGradient><path d="M489.7 72.6h-6v6c0 .8-.6 1.4-1.4 1.4h-.9c-.8 0-1.4-.6-1.4-1.4v-6h-6c-.8 0-1.4-.6-1.4-1.4v-.9c0-.8.6-1.4 1.4-1.4h6v-6c0-.8.6-1.4 1.4-1.4h.9c.8 0 1.4.6 1.4 1.4v6h6c.8 0 1.4.6 1.4 1.4v.9c-.1.8-.7 1.4-1.4 1.4zm-20.8-16.1c1.2 1.6 1.9 3.6 1.9 5.6-.1 3.9-2.6 7.4-6.3 8.8.3.9 1.2 1.9 3.5 3.6 4.4 3.2 4.6 9.2 4.6 9.2h0v.5c0 4.8-5.8 8.7-12.9 8.7s-12.9-4-12.9-8.7c0-4.6 5.2-8.4 12-8.7v-3.8c-5.2-.6-9.2-4.7-9.2-9.6 0-5.3 4.7-9.7 10.6-9.7h.5l12-.9c1.4-.1.9 1.8.9 1.8l-4.7 3.2zm-15.6 27.2c0 3 3.1 5.5 6.9 5.5s6.9-2.5 6.9-5.5-3.1-5.5-6.9-5.5-6.9 2.4-6.9 5.5zm11.2-22.6c-.7-3.5-3.3-6-5.7-5.5s-3.7 3.8-2.9 7.3 3.3 6 5.7 5.5 3.7-3.7 2.9-7.3z" fill="url(#D)"/><path d="M491.5 69.9h-6v6c0 .8-.6 1.4-1.4 1.4h-.9c-.8 0-1.4-.6-1.4-1.4v-6h-6c-.8 0-1.4-.6-1.4-1.4v-.9c0-.8.6-1.4 1.4-1.4h6v-6c0-.8.6-1.4 1.4-1.4h.9c.8 0 1.4.6 1.4 1.4v6h6c.8 0 1.4.6 1.4 1.4v.9c0 .8-.6 1.4-1.4 1.4zm-20.8-16.2c1.2 1.6 1.9 3.6 1.9 5.6-.1 3.9-2.6 7.4-6.3 8.8.3.9 1.2 1.9 3.5 3.6 4.4 3.2 4.6 9.2 4.6 9.2h0v.5c0 4.8-5.8 8.7-12.9 8.7s-12.9-4-12.9-8.7c0-4.6 5.2-8.4 12-8.7v-3.8c-5.2-.6-9.2-4.7-9.2-9.6 0-5.3 4.7-9.7 10.6-9.7h.5l12-.9c1.4-.1.9 1.8.9 1.8l-4.7 3.2zm-15.5 27.2c0 3 3.1 5.5 6.9 5.5s6.9-2.5 6.9-5.5-3.1-5.5-6.9-5.5-6.9 2.5-6.9 5.5zm11.2-22.5c-.7-3.5-3.3-6-5.7-5.5s-3.7 3.8-2.9 7.3c.7 3.5 3.3 6 5.7 5.5 2.3-.5 3.6-3.7 2.9-7.3z" fill="#d34836"/><linearGradient id="E" gradientUnits="userSpaceOnUse" x1="473" y1="662.82" x2="473" y2="623.18"><stop offset="0" stop-color="gray" stop-opacity=".25"/><stop offset=".54" stop-color="gray" stop-opacity=".12"/><stop offset="1" stop-color="gray" stop-opacity=".1"/></linearGradient><path d="M0 623.2h946v39.6H0z" fill="url(#E)"/><path d="M3.2 623.2h938.5v33.2H3.2z" fill="#f5f5f5"/><path d="M548.8 495.2s12.5 84.5 86.4 112.7H335.9c73.9-28.2 86.4-112.7 86.4-112.7h126.5z" fill="#e0e0e0"/><linearGradient id="F" gradientUnits="userSpaceOnUse" x1="485.466" y1="625.745" x2="485.466" y2="607.891"><stop offset="0" stop-color="gray" stop-opacity=".25"/><stop offset=".54" stop-color="gray" stop-opacity=".12"/><stop offset="1" stop-color="gray" stop-opacity=".1"/></linearGradient><path d="M334.4 607.9h302.1v17.9H334.4z" fill="url(#F)"/><path d="M335.9 607.9h299.2v13.8H335.9z" fill="#f5f5f5"/><linearGradient id="G" gradientUnits="userSpaceOnUse" x1="485.544" y1="525.956" x2="485.544" y2="191.359"><stop offset="0" stop-color="gray" stop-opacity=".25"/><stop offset=".54" stop-color="gray" stop-opacity=".12"/><stop offset="1" stop-color="gray" stop-opacity=".1"/></linearGradient><path d="M728.9 191.4H242.2c-5.4 0-9.8 4.5-9.8 9.9v286.5c0 21.1 16.7 38.1 37.3 38.1h431.6c20.6 0 37.3-17.1 37.3-38.1V201.3c.1-5.4-4.3-9.9-9.7-9.9z" fill="url(#G)"/><path d="M248.5 199.4h474.2a9.86 9.86 0 0 1 9.9 9.9h0v263.4h-494V209.3a9.86 9.86 0 0 1 9.9-9.9z" fill="#fff"/><path d="M694.7 517.7H276.5c-20.9 0-37.9-17-37.9-37.9h0v-7.2h494v7.2c-.1 21-17 37.9-37.9 37.9z" fill="#f5f5f5"/><path d="M263 221.5h447v220.6H263z" fill="#aab8cc"/><linearGradient id="H" gradientUnits="userSpaceOnUse" x1="179.905" y1="624.199" x2="179.905" y2="534.469"><stop offset="0" stop-color="gray" stop-opacity=".25"/><stop offset=".54" stop-color="gray" stop-opacity=".12"/><stop offset="1" stop-color="gray" stop-opacity=".1"/></linearGradient><path d="M214.2 624.2h-68.6c-2.3 0-4.1-1.9-4.1-4.1v-85.6h76.9v85.6c0 2.2-1.9 4.1-4.2 4.1z" fill="url(#H)"/><linearGradient id="I" gradientUnits="userSpaceOnUse" x1="142.684" y1="601.522" x2="142.684" y2="543.359"><stop offset="0" stop-color="gray" stop-opacity=".25"/><stop offset=".54" stop-color="gray" stop-opacity=".12"/><stop offset="1" stop-color="gray" stop-opacity=".1"/></linearGradient><path d="M142.7 601.5c-12.6 0-22.9-13-22.9-29.1s10.3-29.1 22.9-29.1 22.9 13 22.9 29.1-10.3 29.1-22.9 29.1zm0-52.9c-9.8 0-17.8 10.7-17.8 23.8s8 23.8 17.8 23.8 17.8-10.7 17.8-23.8-8-23.8-17.8-23.8z" fill="url(#I)"/><g fill="#aab8cc"><path d="M143.4 599.1c-12.2 0-22.2-12.2-22.2-27.1s9.9-27.1 22.2-27.1 22.2 12.2 22.2 27.1-9.9 27.1-22.2 27.1zm0-49.3c-9.5 0-17.3 9.9-17.3 22.2s7.7 22.2 17.3 22.2c9.5 0 17.2-10 17.2-22.2s-7.7-22.3-17.2-22.2h0z"/><path d="M143.2 535.5h73.5v81.6c0 2.3-1.9 4.1-4.1 4.1h-65.2c-2.3 0-4.1-1.9-4.1-4.1l-.1-81.6z"/></g><linearGradient id="J" gradientUnits="userSpaceOnUse" x1="809.238" y1="125.412" x2="809.238" y2="194.453"><stop offset="0" stop-color="#ffd600"/><stop offset=".5" stop-color="#ff0100"/><stop offset="1" stop-color="#d800b9"/></linearGradient><path d="M838.4 172c2.1-2.3 3.3-4.2 4.1-6 .9-1.9 1.3-4 1.3-6.1s-.4-4.2-1.3-6.1c-.8-1.8-2-3.7-4.1-6s-2.8-3-8.4-8.7c-5.6-5.6-6.4-6.3-8.7-8.4s-4.2-3.3-6-4.1c-1.9-.9-4-1.3-6.1-1.3s-4.2.4-6.1 1.3c-1.8.8-3.7 2-6 4.1s-3 2.8-8.7 8.4c-5.6 5.6-6.3 6.4-8.4 8.7s-3.3 4.2-4.1 6c-.9 1.9-1.3 4-1.3 6.1s.4 4.2 1.3 6.1c.8 1.8 2 3.7 4.1 6s2.8 3 8.4 8.7 6.4 6.3 8.7 8.4 4.2 3.3 6 4.1c3.9 1.7 8.3 1.7 12.1 0 1.8-.8 3.7-2 6-4.1s3-2.8 8.7-8.4l8.5-8.7zm-20.7 13.2c-2.1 1.9-3.6 2.7-4.6 3.1a9.87 9.87 0 0 1-7.9 0c-1-.4-2.5-1.2-4.6-3.1-2.3-2.1-3-2.7-8.5-8.3l-8.3-8.5c-1.9-2.1-2.7-3.6-3.1-4.6-.6-1.2-.9-2.6-.8-3.9 0-1.4.3-2.7.8-3.9.4-1 1.2-2.5 3.1-4.6 2.1-2.3 2.7-3 8.3-8.5l8.5-8.3c2.1-1.9 3.6-2.7 4.6-3.1 1.2-.6 2.6-.9 3.9-.8 1.4 0 2.7.3 3.9.8 1 .4 2.5 1.2 4.6 3.1 2.3 2.1 3 2.7 8.5 8.3h0l8.3 8.5c1.9 2.1 2.7 3.6 3.1 4.6.6 1.2.9 2.6.8 3.9 0 1.4-.3 2.7-.8 3.9-.4 1-1.2 2.5-3.1 4.6-2.1 2.3-2.7 3-8.3 8.5-5.4 5.6-6.1 6.2-8.4 8.3z" fill="url(#J)"/><linearGradient id="K" gradientUnits="userSpaceOnUse" x1="809.237" y1="144.87" x2="809.237" y2="174.996"><stop offset="0" stop-color="#ff6400"/><stop offset=".5" stop-color="#ff0100"/><stop offset="1" stop-color="#fd0056"/></linearGradient><path d="M819.9 149.3a15.03 15.03 0 1 0-21.3 21.3 15.03 15.03 0 1 0 21.3-21.3zm-17.6 17.6a9.78 9.78 0 0 1 0-13.8 9.78 9.78 0 0 1 13.8 0 9.78 9.78 0 0 1 0 13.8 9.78 9.78 0 0 1-13.8 0z" fill="url(#K)"/><linearGradient id="L" gradientUnits="userSpaceOnUse" x1="827.857" y1="159.934" x2="834.897" y2="159.934"><stop offset="0" stop-color="#f30072"/><stop offset="1" stop-color="#e50097"/></linearGradient><path d="M833.9 162.4a3.5 3.5 0 1 1-5-5 3.5 3.5 0 0 1 5 0c1.3 1.4 1.3 3.7 0 5z" fill="url(#L)"/></svg>