<svg xmlns="http://www.w3.org/2000/svg" xmlns:xlink="http://www.w3.org/1999/xlink" viewBox="0 0 250 250" xmlns:v="https://vecta.io/nano"><circle cx="125.2" cy="124.2" r="120.8" fill="#d4e0fa"/><defs><circle id="A" cx="125.2" cy="124.2" r="120.8"/><path id="B" d="M159 98.9l3.2 6.3c2.5 4.6.3 8.4-4.7 9.7-.3.1-16.9 4.6-16.9 4.6-7.3 1-14.1-6.3-14.1-13.7"/></defs><clipPath id="C"><use xlink:href="#A"/></clipPath><g clip-path="url(#C)"><path d="M189.7-2.1l-.7 58.8c0 3.2-.6 6.5-1.8 9.5l-2.8 7.4-58.8 11.3c-2.6.4-5.4.1-7.8-.9l-25-12.5L89.7-.3" fill="#a5b7ff"/><path d="M116.6 104.9l6.6 24.7c.4 1.4 1.8 2.3 3.3 1.9l19.4-4.8c1.5-.4 2.4-2 1.9-3.5l-5.4-16.1" fill="#d4e0fa"/><use xlink:href="#B" fill="#a5b7ff"/><use xlink:href="#B" opacity=".4" fill="#8e9edc"/><path d="M184.4 72.8v15.7c0 3.8-2.7 7.1-6.4 7.8l-48.4 10.5c-4.1.8-8.4.3-12.2-1.5L99 95.1c-3.7-1.7-6.1-5.5-6.1-9.6V70.7L118 82.6c2.6 1.1 5.5 1.4 8.2 1l58.2-10.8z" fill="#a5b7ff"/><path d="M123.5-19.9v88.3c0 5.3 4.8 9.4 10.1 8.5l43.1-7.1c2.9-.5 5.3-2.5 6.4-5.2l1.1-2.8c.8-2 1.2-4.1 1.1-6.3l-1.7-70.7-60.1-4.7z" opacity=".4" fill="#8e9edc"/></g><defs><circle id="D" cx="125.2" cy="124.2" r="120.8"/></defs><clipPath id="E"><use xlink:href="#D"/></clipPath><g clip-path="url(#E)"><path d="M236.3 186.9l-28.5 41.8s-40.8-11.5-47.5-10.5c-6.8 1-16.8 11.7-34.5 10.2-6.5-.6-21.5-3.1-31.9-1.8-1.5.2-2.9.4-4.3.5l-15.4 2.2c-.7.1-1.3-.2-1.3-.7-.2-2 .1-7.2 7.2-10.6 9-4.4 16.3-6.1 21-6.4 0 0 14.5-1.8 15.4-4.5 1.3-3.6-11.6-7-11.6-7-5.5-1.9-15.6-3.7-22.9-4.9-5.7-.9-11.2-3-16.1-6.1-5.3-3.4-12.2-7.6-16.4-9.4-2-.9-4-1.7-5.3-3.1s-1.8-3.3-.4-4.7c2-2.1 6.2-2 9.6-1.5 2.9.4 9.6 3.4 14.9 5.9 5 2.4 10.4 3.8 15.8 4 8.3.4 19.4.8 19.6 0 .2-.9-13.2-3.1-21.7-4.4-4.5-.7-8.8-2.1-12.9-4.2l-27.2-14c-2.3-1.2-6.8-5.5-4.4-8.7 3.4-4.5 14.7-1.6 18.4-.7 4.4 1.1 13.6 5.6 19.7 8.8 4.3 2.2 8.9 3.7 13.7 4.3 9.7 1.3 25.6 3.3 26.1 2.4.5-.8-10.4-3.4-18.2-5.2-5.1-1.1-9.9-3.2-14.2-6.2-5-3.4-11.5-7.6-14.7-9-2.5-1.1-5-2.2-6.6-3.8-1.7-1.7-2.3-4.1-.7-5.9 1.5-1.7 4.5-2.5 7.2-2.4 2.7 0 5.3.8 7.8 1.5 3.4 1 10.6 5.1 16 8.3 4.7 2.8 9.9 4.6 15.3 5.4 8.8 1.3 21.3 2.9 21.7 1.8s-6.3-2.9-11.4-4.1c-3.9-.9-7.7-2.5-11.2-4.5-4.6-2.6-10.5-6.1-12.4-7.3-2.6-1.7-5.8-5.8-3.3-7.7 1.9-1.5 6.7-1.6 10.6-.4 2.2.7 7.4 3.3 11.7 5.4 4.2 2.1 8.6 3.6 13.2 4.2 5.3.8 12.2 1.9 14.4 2.8 27.4 11.7 42.6 20 59.9 39.1l35.8 11.1z" fill="#ffc0b1"/><g opacity=".6" fill="#ffb1a7"><path d="M120.7 197.5s11.7-4.7 27-6.2c11.2-1.1 33.2 2.4 33.2 2.4s-20.1-6.8-31.8-6.9c-16.6 0-28.4 10.7-28.4 10.7zm-2.6-2s11.1-17 16.8-22.8 17.3-15.3 17.3-15.3-14.3 19.5-18.7 23.5l-15.4 14.6zm81-21s3.6 9.8.7 16.1c-3.2 7.1-7.4 10.5-7.4 10.5s10.6-5.9 11.8-13.4c1.4-8.5-5.1-13.2-5.1-13.2z"/></g></g><path d="M136.5 175.7c-1.8-.8-2.9-3.1-2.3-5-2.5 1.3-5.8.8-7.8-1.3-1.9-2-2.3-5.4-.9-7.8s4.5-3.7 7.3-3.1c-1.5-2.6-.7-6.3 1.7-8.2s6-1.9 8.5-.3c1.3.8 2.4 2.1 2.7 3.7.2 1.3-.1 2.6-.7 3.7 1.5-1 3.5-.6 5.1.1 1.9.8 3.7 2 4.8 3.8 1 1.8 1.1 4.2-.1 5.8-1.3 1.6-4 2-5.4.5 2 1.5 3.1 4.3 2.4 6.7s-3.1 4.3-5.6 4.2-4.3-4-4.3-4-3.6 2-5.4 1.2zm5.1-36.4c-1.3 1-3.2.8-4.4-.3-1.2-1-1.6-2.8-1.2-4.3-.9 1.4-2.8 1.9-4.3 1.3-1.5-.7-2.4-2.5-1.9-4.1.4-1.6 2.1-2.7 3.7-2.5-1.4-.9-2-2.7-1.5-4.2s2.2-2.6 3.8-2.5 3 1.5 3.3 3.1c.6-1.8 2.4-3.2 4.3-3.2s3.8 1.4 4.2 3.3-.7 4-2.5 4.6c1.5-.6 3.4.6 3.6 2.2.3 1.6-1 3.2-2.5 3.7-1.5.4-3.1-.2-4.2-1.2.9 1.1 1.1 2.9-.4 4.1zm12.1 10.7c-.9-2.1-.2-4.8 1.7-6-1.1.2-2.2-.6-2.8-1.6-.5-1-.6-2.2-.5-3.3.2-2 .9-4 2.4-5.4s3.7-2 5.6-1.2c2.2.9 3.2 3.4 4 5.6.9-2.3 3.8-3.5 6.2-2.9s4.2 2.8 5 5.1c.6 1.9.4 4.3-1.1 5.6-1.8 1.5-4.2.8-6.1.4-.8 6.1-11.4 10.6-14.4 3.7z" fill="#fff"/></svg>