<svg xmlns="http://www.w3.org/2000/svg" xmlns:xlink="http://www.w3.org/1999/xlink" viewBox="0 0 804.7 525.1" xmlns:v="https://vecta.io/nano"><style><![CDATA[.N{fill:#2f2e41}.O{stroke:#3f3d56}.P{stroke-miterlimit:10}.Q{fill:none}.R{stroke-width:2}.S{enable-background:new}.T{fill:#4e6a99}.U{fill:#ffb9b9}.V{fill:#3f3d56}.W{fill:#9f616a}.X{fill:#d0cde1}.Y{fill:#57b894}]]></style><g fill="#f2f2f2"><circle cx="374.8" cy="254.5" r="213.8"/><ellipse cx="189.6" cy="484.4" rx="84.8" ry="13.6"/><ellipse cx="603.5" cy="463.2" rx="131.3" ry="21"/></g><path d="M574.3 261.3s1.1 3.7-5.2 7.1-8.2 16-.7 19.7 9.7 8.6 6 11.9c-3.7 3.4-10.4 12.3-1.5 14.5s10.1 6.7 7.5 8.6 6-3.4 6-3.4 1.5 8.9 9.3 6.7 29.8-44.7 18.6-50.7c-11.3-5.8-40-14.4-40-14.4z" class="N"/><use xlink:href="#B" class="U"/><use xlink:href="#B" opacity=".1" class="S"/><path d="M593.6 465.4l22.2 7.7 15.5 1-1-13.6-31.9-9.4z" class="U"/><path d="M622.1 462.5s0 13.5 1.9 13.5 28-2.9 35.7 0 19.3-7.7 13.5-13.5-15.3-14.5-21.2-12.6-30.1 6.8-30.1 6.8v5.8zm-71-12.6s-11.6 23.2-3.9 25.1 16.4-1 17.4-1.9c1-1 14.5-4.8 16.4-2.9s1.9-7.7 1.9-7.7l-31.8-12.6z" fill="#575a89"/><use xlink:href="#C" class="N"/><use xlink:href="#C" opacity=".2" class="S"/><circle cx="595.5" cy="281.8" r="22.2" class="U"/><path d="M560.8 316.6l19.3-3.9s4.8 15.5 20.3 12.6 19.3-12.6 19.3-12.6 11.6 4.8 12.6 4.8 13.5 4.8 13.5 7.7-14.5 31.9-14.5 31.9l1.9 52.2-71.5-1.9 4.8-51.2-5.7-39.6z" class="T"/><path d="M550.1 341.7s-5.8 51.2-1.9 55.1 19.3 14.5 19.3 14.5v-11.6l-7.7-14.5 7.7-33.8-17.4-9.7zm100-1.4l-3.4 54.6c0 1.9-8.7 8.7-11.6 8.7s-4.8-4.8-4.8-4.8l6.8-7.7-4.8-39.6 17.8-11.2z" class="U"/><path d="M640.9 414.2s43.5-24.2 44.4 0c1 24.2-22.2 33.8-22.2 33.8s-59.9 18-62.3 11.4-7.2-17.2-3.4-18.2c3.9-1 8.7-2.9 10.6-1s26.1-14.5 26.1-14.5l6.8-11.5z" class="N"/><path d="M661.2 411.3s-8.7 3.9-11.6 6.8-15.5 7.7-15.5 7.7" opacity=".2" stroke="#000" class="P Q R S"/><path d="M566.6 318.5l-5.8-1.9s-21.3 22.2-14.5 28 10.6 7.7 12.6 9.7c1.9 1.9 11.6 2.9 11.6 2.9l-3.9-38.7zm70.5 4.9l8.7 1.9s6.8 14.5 8.7 16.4-2.9 1-5.8 4.8-5.8 10.6-11.6 10.6-13.5-9.7-13.5-9.7l13.5-24z" class="T"/><path d="M562.7 422.9s-36.7-26.1-49.3-6.8 54.1 45.4 63.8 49.3l18.4 7.7s8.7-21.3 8.7-25.1c0-3.9-6.8-3.9-8.7-3.9s-10.6-1.9-12.6-4.8-20.3-16.4-20.3-16.4z" class="N"/><path d="M542.4 416.1s9.7 7.7 18.4 9.7c8.7 1.9 11.6 6.8 11.6 6.8" opacity=".2" stroke="#000" class="P Q R S"/><path d="M556 379.8l.8 40.9c.1 2.8 2.4 5.1 5.2 5l76.1-.9c2.7 0 4.9-2.1 5.1-4.8l2.3-40c.2-2.8-2-5.2-4.8-5.4h-79.5c-2.9 0-5.2 2.3-5.2 5.2 0-.1 0-.1 0 0z" fill="#575a89"/><g class="N"><path d="M596.7 253.9s1.2 4.1-5.8 7.8-9.1 17.7-.8 21.9c8.3 4.1 10.7 9.5 6.6 13.2s-11.6 13.6-1.7 16.1 11.1 7.4 8.3 9.5c-2.9 2.1 6.6-3.7 6.6-3.7s1.7 9.9 10.3 7.4 17.3-47.5 7.7-59.1c-9-10.7-31.2-13.1-31.2-13.1z"/><path d="M594.1 249.7c0-6 18.1-1.7 25.8 6.7 5.4 5.8 13.5 14.6 6.7 20.8s11.7 14.3 16.7 16.8 14.8 10 5.9 15.1-8.7 10.2-5.4 11.4-7.4-1.8-7.4-1.8 1.1 10-7.9 9.9c-9 0-34.9-49.6-28.7-63.3 5.8-12.9-5.7-15.6-5.7-15.6z"/><path d="M598 248.3c-24.2-1.5-26.6 16.8-26.6 16.8.2 10.5 16.9 5.4 21.5 7L617 255c-5.5-4-12.1-6.3-19-6.7z"/></g><path d="M591.1 364.5S569.4 262.8 433.6 189" class="O P Q R"/><path d="M439.2 186.8l.3 1.2-5.5 1.3 1.7 5.4-1.1.3-2.1-6.5z" class="V"/><path d="M144 468.4c0 12.9-7.7 17.4-17.1 17.4h-.7c-.4 0-.9 0-1.3-.1-8.5-.6-15.1-5.3-15.1-17.3 0-12.4 15.8-28 17-29.2h0l.1-.1s17.1 16.4 17.1 29.3z" class="T"/><path d="M126.3 483.8l6.3-8.7-6.3 9.7v1c-.4 0-.9 0-1.3-.1l.7-13 .1-1.2-6.3-9.7 6.3 8.8v.3l.5-9.7-5.4-10 5.4 8.3.5-20.2-.1 15.9 5.4-6.3-5.4 7.7-.1 8.7 5-8.4-5 9.6-.1 4.8 7.3-11.6-7.3 13.3-.2 10.8z" class="V"/><g class="N"><path d="M225.6 465.1l3.7-2.7s2.4 13.5-.3 15.6c-2.7 2-12.8 5.4-12.8 9.5s-23 9.5-23.6 3.4c-.7-6.1 2-9.5 2-9.5s10.8-10.8 12.2-12.8 4.7-6.1 4.7-6.1l14.1 2.6z"/><path d="M171.5 296.9l.3 1.7.7 4 10.6 70c-.7 2-5.4 9.5 0 11.5.5.2 1.1.8 1.7 1.8 1.2 2.2 2.1 4.4 2.9 6.7 3.2 9.3 6.7 24.3 8.7 34.7.9 4.6 1.5 8.2 1.6 10.1.1.4.1.9 0 1.3-.7 2.7 4.1 12.2 6.1 14.9s5.4 5.4 4.7 8.1 16.9 10.1 18.9 5.4 2-7.4 2.7-8.8 1.4-10.8-2-12.2-1.4-25-4.7-29.7c-1.1-1.6-2.9-6.9-4.7-13.3l-2.1-7.9c-2.9-11-5.4-22-5.4-22l.7-79-37.2-4.7-1 2.1-1.9 4.2-.6 1.1zm-2 129.7s-5.4-5.4-8.1 0-5.4 26.3-10.1 31.1c-4.7 4.7-10.8 28.4-4.1 29.7 6.8 1.4 14.2-2 14.9-6.1s14.9-25 14.9-27-9.5-9.5-9.5-9.5l2-18.2z"/><path d="M252.6 259.7l-10.8 86.5c-2 7.4-12.8 35.8-16.2 40.5s-25 43.2-27.7 45.3c-2.7 2-8.1 7.4-8.1 7.4s-10.1 10.1-11.5 12.2c-1.4 2-12.8-4.1-13.5-8.1-.7-4.1.7-10.8 1.4-13.5s-1.4-6.8.7-8.8S179 409 179 404.3s17.6-32.4 24.3-38.5c6.8-6.1 5.4-16.2 5.4-16.2v-41.2l-37.2-11.5s2-32.4 6.8-32.4c4.7 0 66.9-10.9 74.3-4.8z"/></g><g class="W"><circle cx="197.9" cy="124.6" r="22.3"/><path d="M205.3 142.2s2.7 10.1 6.1 12.8-8.8 14.2-8.8 14.2l-23 1.4-4.1-12.8s7.4-14.9 5.4-24.3c-1.9-9.6 24.4 8.7 24.4 8.7z"/></g><path d="M214.8 153.7s-6.1.7-7.4 2.7c-1.4 2-10.8 8.1-18.2 6.8-7.4-1.4-12.2-3.4-13.5-2.7s-4.1 14.9-4.1 14.9L179 197l-1.4 59.4-2 16.2s-4.1-5.4 12.2-2 37.2-2.7 43.9-3.4 18.2-2.7 18.9-6.8-2-18.9-2-18.9l-10.8-45.3-6.8-24.3-16.2-18.2z" class="T"/><path d="M208.4 150.6s5.7-3 7.7-.3 27.7 6.8 27.7 8.8 5.4 56.7 4.1 61.5 2.7 10.1 2.7 10.1l4.7 20.3s12.8 38.5 7.4 39.9-10.1 0-12.2 0-1.4-25.7-6.8-32.4c-5.4-6.8-12.8-23.6-14.2-27s-18.2-50-17.6-55.4c.9-5.5-3.5-25.5-3.5-25.5zm-28.1 3.1s-5.4 0-6.1 1.4-7.4 10.1-10.1 12.2S152 178 152 180s19.6 16.9 19.6 16.9 8.1 39.9 4.1 53.4c-4.1 13.5-10.1 45.9-7.4 48 2.7 2 8.8 2.7 8.8 0s4.1-31.8 7.4-37.8 13.5-44.6 9.5-55.4c-4.2-10.9-13.7-51.4-13.7-51.4z" class="X"/><path d="M269.5 220.5s.7 20.9-6.8 31.8c-7.4 10.8-12.2 23-12.2 23s-12.2-3.4-14.2-7.4c-2-4.1-14.9-.7-14.9-2s15.5-8.1 16.9-9.5 6.1-1.4 8.8-4.1 3.4-8.8 3.4-8.8l2.7-17.6 16.3-5.4z" class="W"/><path d="M213.2 110.9c1.7-.2 3.5-.3 5-1.1 3.4-1.8 4.3-7 1.7-9.9-.7-.7-1.5-1.4-2.4-1.9l-5.1-3.5c-2.3-1.5-4.6-3.1-7.2-3.8-2.4-.7-4.9-.6-7.4-.4-4.8.3-9.7.9-14.2 2.6s-8.8 4.4-11.5 8.4c-4.3 6.3-4.4 14.8-2 22 2.4 7.3 6.9 13.6 11.4 19.8l2.3-11.3c.2-1 .5-2.1 1.3-2.7 2.1-1.5 4.6 1.6 7.2 1.5 1.6 0 3-1.4 3.7-2.9.6-1.5.7-3.2.8-4.9.3-3.5 1.5-8.3 4.8-10.2 3.1-1.9 8.2-1.4 11.6-1.7z" class="N"/><path d="M212 297.4s-2.3 66-3.6 68 0-68.2 0-68.2l3.6.2z" opacity=".1" class="S"/><path d="M238.4 159.1h5.4s23 31.1 20.3 33.1 0 7.4 0 7.4l5.4 10.1s6.8 6.1 4.7 7.4c-2 1.4-4.7 6.8-4.7 6.8s-13.5-2-17.6 6.1l-8.8-11.1-4.7-59.8z" class="X"/><path d="M221.833 176.725l18.578-7.672 14.276 34.57-18.578 7.672z" class="N"/><ellipse transform="matrix(.9243 -.3817 .3817 .9243 -53.0423 104.439)" cx="236.8" cy="185.9" rx="4" ry="3.7" class="T"/><path d="M224.9 213.1s-48.6 40.5-56.7 27.7 8.8-23.6 8.8-23.6 14.9.7 31.8-10.1l16.9-7.4s15.4-22 20.7-13.6c5.1 8.3-9.1 22.8-21.5 27z" class="W"/><path d="M159.4 177.3L152 180v20.3l-2.7 4.1s.7 8.1 2.7 10.1 6.1 1.4 4.7 6.1c-.8 3.1-1 6.3-.7 9.5 0 0 12.2 15.5 12.8 13.5s10.1-27 11.5-27-13.5-39.2-13.5-39.2h-7.4z" class="X"/><path d="M248.2 279.7s7-6.8 3.5-7.1-15.7-7.1-17.7-3.7c-2 3.3 14.2 10.8 14.2 10.8z" class="N"/><ellipse cx="381.1" cy="145.6" rx="9.7" ry="5.2" class="Y"/><g class="Q R O"><g class="P"><path d="M418.3,162.8c-22-8.3-43.9-8.3-65.9,0v-26.9c21.5-6.5,44.4-6.5,65.9,0V162.8z"/><path d="M409.1 157.3c-15.9-6-31.7-6-47.6 0v-19.4a82.11 82.11 0 0 1 47.6 0v19.4z"/></g><ellipse cx="384.5" cy="143.3" rx="9.7" ry="5.2"/></g><ellipse transform="matrix(.9798 -.2 .2 .9798 -27.7837 81.0254)" cx="387.2" cy="178" rx="9.7" ry="5.2" class="Y"/><g class="Q R O"><g class="P"><path d="M427.1 187.4c-23.2-3.7-44.7.7-64.6 13.2l-5.4-26.4c19.8-10.7 42.2-15.2 64.6-13.2l5.4 26.4z"/><path d="M417 183.8c-16.7-2.7-32.3.5-46.6 9.5l-3.9-19.1c14.3-7.7 30.5-11 46.6-9.5l3.9 19.1z"/></g><ellipse transform="matrix(.9798 -.2 .2 .9798 -27.1381 81.5484)" cx="390.1" cy="175.1" rx="9.7" ry="5.2"/></g><ellipse transform="matrix(.069419 -.9976 .9976 .069419 148.8305 579.7715)" cx="385.2" cy="210.1" rx="5.2" ry="9.7" class="Y"/><g class="Q R O"><g class="P"><path d="M421.2 229.9c-21.3-9.8-43.3-11.3-65.8-4.6l1.9-26.9c21.9-5 44.8-3.4 65.8 4.6l-1.9 26.9z"/><path d="M412.4 223.7c-15.4-7.1-31.2-8.2-47.5-3.3l1.3-19.4c15.8-3.6 32.3-2.4 47.5 3.3l-1.3 19.4z"/></g><ellipse transform="matrix(.069419 -.9976 .9976 .069419 154.2153 581.4467)" cx="388.8" cy="208.1" rx="5.2" ry="9.7"/><path d="M342.6 163.5s-42.1-5.8-72.2 11.9" class="P"/></g><path d="M271.4 169.4l1.1.3-1.7 5.4 5.5 1.3-.3 1.2-6.7-1.6z" class="V"/><defs ><path id="B" d="M587.8 297.3s3.9 13.5-2.9 14.5c-4.2.7-8.2 2.3-11.6 4.8l12.6 16.4h23.2l14.5-14.5s-19.3-14.5-15.5-23.2c3.9-8.7-20.3 2-20.3 2z"/><path id="C" d="M560.8 418s-18.4 25.1-4.8 31.9c13.5 6.8 78.3 6.8 83.1 0s6.8-28 0-29.9c-6.8-2-78.3-2-78.3-2z"/></defs></svg>