<svg xmlns="http://www.w3.org/2000/svg" xmlns:xlink="http://www.w3.org/1999/xlink" viewBox="0 0 190.1 92.9" xmlns:v="https://vecta.io/nano"><g fill="#aab8cc"><use xlink:href="#B"/><path d="M34.2 41.7c-.2.1-.6 0-.4.3.2.2.4.3.6.3s.4-.1.4-.2-.4-.5-.6-.4z"/><use xlink:href="#C"/><path d="M40.7 41.8c-.2 0-.3 0-.3.1s.2.2.5.2c.2 0 .4-.1.4-.2-.1-.1-.4-.2-.6-.1zm-4.4-.1c-.2 0-.3.1-.2.2s.1.1.3.1.3-.3-.1-.3zm41.1-11.9c-.2.1-.3.5-.5.8s-.4.7-.9.8-1.1 1.1-1.2 1.5c0 .4.1.9-.1 1.2-.3.3-1 1-1.4 1s-.6.4-.7.6a.9.9 0 0 1-.6.6c-.2.1-.2.9-.5 1.1s-.5.8-.7 1.2c-.2.5-.6.7-.6 1.1s.5.4.5.8c0 .3-.2.4-.2.6s.2.3.2.7-.2.8-.3 1.1-.2.8-.3.9c-.1.2-.3.2-.3.4s.4.3.4.4c0 .2.2.4.4.4.3 0 1-.2 1.1 0s-1.5.1-1.5.3 0 .5.2.7.6.4.8.7.4.5.6.7.5.6.5.8-.1.4.1.7.3.5.6.6c.4.2 1 .8 1.2 1 .3.2.8.9 1.4.9.5 0 1.1-.6 1.6-.5.6 0 1.1 0 1.4.2s.4.1.6-.1c.2-.1 1.4-.7 1.7-.7s1.2-.3 1.5-.2c.4 0 .8.3.9.5 0 .2.2.9.5 1 .3 0 .5-.2.8-.1s.7-.2.8-.1c.1.2.3.3.5.4s.2 1.1.1 1.3v.5c.1.1 0 .4-.1.6-.1.3-.2.5-.3.7s.2.5.3.9c.2.4 1 1.2 1.3 1.5s.4.9.5 1.2.7 1.4.6 1.7c-.1.2-.3.3-.2.5s.5.8.5 1.3-.7 1.2-.8 1.8c-.1.5-.4 1.4-.4 2s0 1 .4 1.5c.5.6.6 1.6.9 2s.3 2 .4 2.5.2 1.4.9 2.1.3 1.1.8 1.9c.6.8 0 .8 0 1.1s.2.5.3.8c0 .3.4.2.7.4s.6-.2.9-.2.5-.2 1-.3.7.1 1.1.1.6-.2 1-.2 1.6-1.2 1.9-1.6 1.1-1.8 1.4-1.8.6-1 .6-1.4c0-.3-.3-.6-.1-.7.2-.2 1.7-.8 1.7-1s-.1-.3 0-.5 0-1.4-.1-1.7c-.1-.2-.5-.7-.3-.9s.9-.6 1-.8c.2-.2.5-.6.8-.7s1.6-.8 1.8-1.5c.2-.6.1-2 0-2.3s0-.5 0-.8-.5-.6-.5-1-.3-.6-.1-.9c.2-.4 0-.6 0-.7s-.5-.6-.3-1.1.5-.8.6-1.1.2-.8.6-1.1.7-.7.9-1.1 1.1-1.3 1.7-1.7 1.8-1.9 1.9-2.3l.8-1.8c.2-.3.6-1 .6-1.4s.2-1.4 0-1.4-.8.5-1.1.5-1 0-1.2.1c-.2.2-.4.2-.6.2-.2-.1-.7.3-.9.3s-.8-.7-.9-.7-.4-.2-.3-.3.4-.3.1-.6-1.3-1.5-1.6-1.6c-.2-.1-.7-.2-.8-.7 0-.4-.4-1.4-.5-1.5-.2-.1-.8-.6-.8-1s0-1-.1-1.2c-.1-.3-.2-.4-.3-.6-.2-.2-.6-.5-.7-1s-.9-1.8-1-2.1c-.1-.2-.4-1-.7-1.2-.3-.3-.4-.8-.3-.9s.7 1.3 1 1.3c.3-.1.2-1.3.4-1.3s-.2 1 .1 1.2c.3.1.9 1.1 1 1.4.2.3.3.4.4.8s.5.4.6.5.5 1 .6 1.5a1.1 1.1 0 0 0 .6 1c.2.1.6.6.9 1.2s.8 1 .9 1.3c.1.2 0 1 .2 1.3.1.3.3 1.4.5 1.4.2.1.8.1 1-.2s.9-.4 1.2-.5c.2 0 .8-.2 1-.4s.9-.6 1.2-.6c.3-.1.6-.1.7-.5s.5-.6.7-.6 1-.1 1.1-.4.5-.5.7-.6.2-.4.3-.5c.2 0 .3-.2.3-.5s0-.7.3-.7.7-.8.7-1.1-.4-.7-.6-.9-.9-.2-1-.3c-.2-.2-.6-.8-.6-1.1s.1-.5 0-.5-.5.8-.7 1-.5.5-.8.5c-.4 0-1 .1-1.1-.1s0-.3-.1-.7c0-.4-.1-.6-.2-.5-.1 0-.2.6-.4.5s-.3-.4-.3-.6c.1-.2-.3-.6-.5-.8s-.7-.8-.7-.9c0-.2-.4-.5-.2-.7s.4-.3.5-.5.2.3.4.3.3-.1.4.1c.1.3.6 1.2.8 1.3s.6.3.9.6.6.3 1 .4c.3.1.6-.3.9-.4s.5 0 .6.3c0 .3.3.7.7.8.4 0 .7.2 1 .2s.5.1.7.1c.3 0 1.2 0 1.4-.1s.5-.1.8-.1.6-.1.8-.1.3.5.5.5.2.6.5.6.3.2.5.3c.2.2.5.4.7.4s.4-.4.5-.3c.1.2-.2.5-.5.5s-.4 0-.3.2.9.9 1.1.9c.3 0 .7-.2.7-.5 0-.2-.1-.6.1-.6s.4.3.3.4 0 .3.1.6c.1.2-.2.4-.2.6s.4 1.3.5 1.7c.1.3.2.9.3 1.2.2.3.7 1.1.8 1.7s.9 1.7.9 2c.1.3.2 1 .6 1.4.4.3.4.2.6 0s.6-1.2 1-1.3-.2-1 0-1.3.2-1.2.1-1.4-.2-.9.2-1.1.8-.3.9-.6.3-.4.6-.6c.2-.2.9-1.1 1-1.4s.6-.2.8-.5c.1-.3.1-.7.3-.8s.5-.3.6-.1c.1.1.3-.1.5-.2s.3.1.5 0 .3-.3.4-.4c.2-.1.4 0 .5.2 0 .2.2.6.3.8s1.1.9 1.2 1.1-.1.3 0 .4.4.1.5.4a5.99 5.99 0 0 1 .2 1.2c-.1.2 0 .5.2.6.2 0 .3-.2.4-.2s.4 0 .5-.2c.1-.1.4-.2.4-.3 0-.2.1-.3.1-.3.1.1.5.9.6 1.3 0 .5.4 1 .5 1.3.1.2.2 1.2.2 1.4 0 .3.1 1.1 0 1.4s.3.9.5 1.1c.2.3.8.9.8 1.2s.3 1.3.5 1.7c.2.3.7.9 1 1 .3.2.6.4.9.4s.2-.4 0-.6c-.2-.1-.4-.7-.4-1.1s0-.9-.3-1.1c-.3-.3-.8-.6-.8-.8 0-.1-.5-.1-.7-.4s-.3-1.2-.5-1.4-.4-.4-.4-.7.4-.9.4-1.2.1-1 .3-1.1c.2 0 .2.6.4.6s.7.2.8.4a3.04 3.04 0 0 1 .5.7c.1.2.3.4.4.4s.3.2.6.2c.2 0-.1.3 0 .5s0 .6.2.6.4-.4.5-.5.3-.1.3-.3 0-.5.3-.5c.2 0 .3 0 .5-.1s.7-.4.7-.6 0-1.2-.1-1.5-.3-1.1-.7-1.5l-1.4-1.3c0-.2-.5-.6-.5-1 0-.3.3-1 .6-1.1a3.04 3.04 0 0 0 .7-.5c.2-.2.7.1.8.1s0 .3.1.4c.1.2.2.4.3.4s0-.4.1-.7.8-.4 1-.4a.55.55 0 0 0 .5-.3c0-.2 0-.8.2-.8s.1.7.2.7.3-.2.6-.3c.2-.1.5 0 .9-.2s.6-.9 1-1.1.5-.8.4-1 0-.4.2-.5c.2-.2.2-.7.4-.9s0-.5 0-.9c0-.3-.1-.6-.3-.6-.3.1-.4 0-.4-.1s.6-.3.6-.5-.3-.5-.6-.5c-.2 0-.7-.1-.7-.2s.8.1.9 0-.4-.3-.6-.6c-.2-.4-.5-.9-.8-1-.2-.1-.5-.3-.5-.5a1.8 1.8 0 0 1 .4-.9c.2-.2.8-.3.9-.5 0-.2-.3-.2-.5-.2s-.4-.2-.7-.2-.4.5-.6.5-.3-.6-.6-.6-.9-.3-.9-.5.6-.3.7-.5.4-.3.4-.5.4-.6.6-.4c.2.1.3.4.2.7-.1.2.3.3.2.5s.1.3.2.2.4-.6.8-.7c.4 0 1 .1 1 .3s-.1.8.2 1c.3.1.7 0 .9.1s.4.5.3.6.3.6.3.7a5.39 5.39 0 0 0 .3 1c.1.2.6-.3.9-.3s.5-.2.5-.7-.2-.3-.4-.7c-.3-.4-.9-1.1-1.2-1.2s-.6-.3-.6-.5c.1-.3.6-.6.6-.8 0-.3-.2-.6-.1-.8 0-.1.4-.3.5-.5 0-.2.1-.4.3-.4s.4.4.7.3c.4-.1.7-.4.8-.8l.4-1.4c.1-.3-.2-.5-.2-.7s.2-.4.2-.6.1-.3-.1-.8c-.3-.5-.7-.9-.8-1.3s-.6-1.1-1.1-1.5c-.5-.3-1-.6-1.2-.6s-.2.5-.3.6c-.2 0-.4-.7-.6-.6-.2 0-.1.4-.3.3s-.5-.4-.8-.4-.5-.1-.2-.5.4-.6.4-.9.4-.5.4-.8.1-.8.4-.9c.3 0 1.2 0 1.3.1.2.1.3 0 .6-.1s.7 0 1-.2.7.2.9.2.7.3 1 .3.9 0 1-.1 0-.2-.3-.2-.5-.3-.5-.5 0-.9.3-.9h.9c.2 0 .4 0 .6.2s.3.3.5.4c.3.1.3-.6.5-.6s-.4-.4-.2-.6c.2-.1.4 0 .5.3.2.3.8.6.5.8a1.8 1.8 0 0 0-.4.9c0 .3.2.5-.1.8-.2.2-.5.2-.4.4.1.3.1.5.1.7 0 .3 1.8 1.9 2.1 2.1a3.17 3.17 0 0 1 .6.5c.2.2.6.9.9.9s.4-.3.4-.5-.4-.6-.4-.7.4-.1.4-.3-.5-.4-.3-.6c.1-.2.2-.2.3-.2.1.1.2 0 .3-.2 0-.2-.8-.4-.8-.7-.1-.3.2-.2.3-.2.1.1.2-.1.2-.2s-.3-.1-.5-.2-.4-.6-.5-.7c-.2 0-.3.1-.5.1s-.4-.3-.4-.5-.2-.6-.3-.7 0-.2.2-.2.5 0 .6-.2.2.2.4.2.2-.3.4-.3.4-.1.6-.1.6.2.7.3.2.1.3.1 0-.3.1-.5.3-.5.6-.7.5-.5.6-.4c.2 0 .8.2 1 .2s0-.2-.2-.3l-1.1-.6c-.2-.1-.8-.3-1-.3s-1.1-.3-1-.4c.1-.2.5.2 1 .2s.6-.1.6-.3-.4-.3-.6-.4c-.1-.1-.1-.3 0-.3.2 0 .4.2.5.3.1 0 .3.2.5.2s.8 0 1.3.2 1.3.5 1.6.5c.2 0 .5.1.6 0 0-.1-.3-.3-.5-.4s-.6-.3-.5-.4.7.2.7 0c0-.1-.2-.4-.4-.4s-1.8-.5-1.8-.3c-.1.2.4.3.2.3s-1-.5-1.4-.7-2.6-.8-2.9-.8-2.2-.5-2.7-.5-2.8-.3-2.8-.1.9.4.9.6-.5 0-.8-.1-.6-.3-.9-.3-1.2.1-1.5.1c-.4 0-.9-.1-1-.1s-.6.2-.9 0-.9-.7-1.3-.7-1.6-.2-1.9-.1c-.4.1-.4.1-.9.1-.4 0-1.5-.3-1.7-.3-.2-.1-.6-.4-.9-.4s-.7-.2-.9-.1-.1.3-.4.3c-.2 0-.4-.3-.6-.4s-.8-.1-1.1-.1c-.2 0-1 0-1 .2s.5.3.4.4c-.2.1-.6.1-.8 0s-1-.1-1.2 0-.7 0-.9-.1-.4-.2-.4 0c0 .1.3.4.1.5-.1 0-1.5-.4-1.7-.6-.3-.2-.8-.8-1-.8s-.7-.1-.8 0-.6 0-.8-.1-.6-.1-.6 0 .3.4.1.4-1.4-.2-1.7-.2c-.2 0-.6-.4-.8-.3s-1.2-.1-1.4 0-.4.1-.6 0-.4-.3-.6-.3-1.2.5-1.4.5-.7.2-.7 0 1-.7 1.2-.8.6-.1.6-.3-.6-.5-.9-.6c-.3 0-.7-.3-1-.3s-1 .2-1.4.2-.8-.4-1-.4-.7-.3-.9-.3c-.2.1-.7.3-.7.4s.5.2.3.2c-.1.1-.5.2-.8.2-.2 0-.9-.1-1.2-.1s-.8.1-1 .2-.7.1-.9.1-.9.2-.9.4.4.5.3.6-2.3-.1-2.4.1c-.1.3.1.3.2.4s.5.2.7.2.6.2.6.3-.5.1-.6 0c-.2 0-.8-.3-1-.3s-.5 0-.5.1.1.2 0 .2c-.2 0-.5 0-.5.1s1.2.3 1.2.4-1.3-.2-1.5-.2-.3-.5-.4-.6-.2 0-.2.1-.4.2-.4.4.8.4.8.5-.1.9.3.9.9-.1 1.1-.1c.3.1.7.2.9.4.1.2.2.5.1.5s-.3-.3-.5-.4c-.1-.1-.6-.3-.8-.3s-.4.1-.4.2.4.3.4.5-.2.5-.5.6c-.2 0-.2.4-.4.4s-.4-.1-.7-.1c-.2 0-.7-.1-.7-.2s.9.1 1.1-.3.3-.6.3-.8-.3-.1-.4-.2c-.2-.1-.4-.5-.4-.7-.1-.1-.1-.5-.3-.5s-.5-.2-.4-.4c.1-.1.2-.3.1-.4s-.5-.3-.8-.2c-.4 0-.9 0-.9.3-.1.3-.1.4-.3.6s.1.2.2.4c0 .1 0 .4.2.5l.6.3c.2.1.5.1.5.3s0 .3-.2.3-1-.4-1.3-.5-1.1-.4-1.5-.4h-1.1c-.2-.1-.6-.4-.7-.3s.1.2.2.2.7.2.8.4.1.4-.1.4c-.1 0-.2.2-.4.1-.1-.1-.2-.4-.4-.4s-.3.2-.6.2c-.2 0-.3-.1-.5-.1s-.5.3-.6.3c-.2 0-.4-.1-.4-.3s-.4-.1-.5 0-.5.2-.7.2-.5.4-.8.4-.3.4-.5.5c-.1.1-.8 0-.9-.1-.1-.2-.1-.4.1-.4.3 0 .3 0 .3-.1s-.3-.2-.5-.2-.6-.1-.7.2c0 .2 0 .5.2.7.2.1.2.5 0 .5-.2.1-.5-.2-.7-.2s-.5.3-.7.4c-.1.1-.3.3-.2.4s.4.4.2.4-.9 0-1.1-.2-.3-.2-.4-.1 0 .2.1.3c.1 0 .4.1.4.3s-.2.1-.4.1-.5-.3-.6-.3-.6-.3-.6-.5.1-.3-.1-.4c-.3.1-.9-.2-.6-.2s1.6.5 2.3.4 1-.3 1.1-.6c0-.2-.6-.6-.8-.6s-1.6-.7-2.2-.7c0 0-.3-.1-.6 0s-.2 0-.4-.2h-.8c-.2 0-.7.1-.6-.1 0-.2.4-.2.4-.4s-.8-.1-.9-.2-.2.3-.3.2c-.2 0-.1-.3-.2-.3s-.2.3-.3.3-.3-.2-.3-.2c-.1 0-.3.4-.4.4s.1-.4-.1-.4-.6.5-.9.5c-.2 0-.8.1-1.1.1-.3.1-.5 0-.8 0s-.3.3-.5.3-.6.3-.8.2c-.2 0-.6.1-.6.3s.3.1.1.3l-1 1.1c-.1.2-.3.7-.7.9s-.6.7-1 .7-1.2.7-1.4.8c-.2 0-.5.3-.3.4s0 .4.1.5c.2.1.3 0 .5.1s-.5.2-.5.4c.1.1.4.2.3.3s-.4.2-.4.3.5.5.9.5.7-.3.9-.5.6-.3.6-.5.3.1.3.3.1.4.3.8.5.6.5.9.1.6.4.6.3-.5.6-.5.8 0 .8-.3c.1-.3.1-.7.1-.9s0-.3.3-.4c.3-.2.7-.3.7-.6s-.6-.4-.7-.5-.3-.4-.1-.6c.1-.2 0-.6.3-.8s.9-.5 1.1-.6.3-.3.4-.6c0-.3.1-.4.3-.5s.7-.1.9-.1.5.1.5.2.1.1-.2.3c-.2.2-.6.7-.8.7-.2.1-.7.1-.7.4 0 .2.2.5.2.8s0 .7.3.8c.2 0 .4.2.6.3s.4 0 .8 0c.3-.1.9-.3 1.2-.3s.5-.3.6-.2.2.5.4.5c.3 0-.4.3-.7.3s-1.7 0-1.8.1c0 .2-.3 0-.2.2 0 .2.3.3.4.4.1.2 0 .2.1.4 0 .2-.1.5-.4.5s-.5-.6-.7-.6-.5.5-.5.9.1.5-.1.7c-.2.1-.4.6-.6.6s-.6-.4-.8-.4-1.2.5-1.4.5-.6-.3-1-.2c-.3 0-.8.4-1.1.3s-.8-.4-.7-.7.6-.6.6-.9-.3-.2-.2-.5-.3-.2-.5 0-.6.4-.6.7c0 .2.3.4.3.7s.7.9.5 1-.5-.3-.6-.2-.1.2-.4.1c-.2-.1-.5.2-.7.2s-.9.5-1.1.8-.3.5-.6.6-.6.3-1.1.9-1.3.3-1.4.2-.2.2-.1.4-.4.4-.6.3-.9-.1-.9.2.5.5.7.5.5.1.6.4.2.4.4.6.3.5.2.5-.3.1-.3.3 0 1.1-.3 1.1-2-.3-2.4-.3-1 0-1.2.2-.4.1-.4.3.2.4.2.6c0 .1-.1.5-.1.7 0 .1-.1.9-.3 1.1s-.3.4-.2.5.3.4.3.6-.1.5.1.5.6-.1.8-.1c.2.1.4.2.4.3s.1.5.3.5.5-.4.9-.4c.3 0 1.2 0 1.3-.2s.3-.3.5-.4.3-.5.5-.6.2-.3.1-.3c-.1-.1-.2-.4-.1-.6s.4-.7.9-.9c.5-.3 1-.2 1-.5s-.1-.7.2-.9c.2-.2.9-.2 1-.1.2.1.4.2.7.2s.4-.5.7-.5.3-.4.5-.4c.3 0 .8.2.8.4s.1.6.4.8.8.9 1.1.9c.4 0 .6.4.8.4.2.1.3.4.5.4s.4.4.4.6c-.1.2-.3.7-.3.8.1.1.2.1.3-.1s.2-.5.4-.5c.2-.1.2-.2 0-.3-.1-.1-.4-.4-.2-.6s.4-.2.5-.1.2.4.4.3c.1-.1.1-.3-.1-.4s-.7-.5-.9-.5-.3-.2-.2-.4c.1-.1-.6 0-.8-.2-.3-.2-.5-1.1-.7-1.1-.1 0-.4 0-.5-.1s-.3-.4-.2-.6c.1-.1-.1-.4.1-.5s.5-.3.6-.1.2.4.4.4.3.1.5.4c.1.2.3.6.4.6s.5.3.7.3.4.3.6.3c.2.1.7.4.7.6s-.2.7-.1.8.3.6.5.7.4.3.5.5.5.3.8.3.7.4.9.3.2-.4-.1-.5c-.2-.1-.4-.3-.4-.5s-.4-.7-.3-.8.3.2.5.2.2-.5.5-.5.7-.1.8.1.5.2.7.1.3-.3.7-.2.5.3.2.3c-.2 0-1.4.1-1.4.3 0 .3.4.3.5.7 0 .4.2.7.2.9s.3.5.5.5.4.5.8.5.5-.3.7-.4c.3-.1.9.5 1.2.5s.7-.2.8-.3c.2-.1.3-.1.5-.1s.5-.2.5-.1-.1.3-.1.5c0 .1.2.8.2 1-.1.2-.2.5-.3.8-.1.2-.2.7-.2.9-.1.2-.2.7-.5.7s-.8 0-1-.2c-.2-.1-.5-.2-.7-.2s-.7.5-1 .4c-.2 0-1.2-.4-1.4-.4s-.9.1-1-.1-.8-.3-1-.4-.5-.5-.8-.5-1.2.5-1.2.7c0 .3.2.6.1.7s-.3.5-.5.5c-.3 0-.7-.6-1-.6s-1-.1-1.1-.5-.6-.6-.9-.7c-.3 0-.4-.2-.6 0s-.4 0-.5 0c-.2-.1-.5-.6-.7-.6s-.4-.2-.3-.4.4-.3.4-.5-.3-.5-.2-.7c0-.2.2-.3.2-.4 0-.2-.2-.1-.3 0s-.2-.2-.4-.2-.4.2-.7.2-.7-.2-.8-.2-.5 0-.6.1-.5.1-.7.1c-.2-.1-.9 0-1.1.1s-.8 0-1.1.2c-.2.1-.6.5-.8.5s-.4.5-.8.5c-.4-.1-.5-.2-.8-.2s-.5.1-.7 0c0 0-.1-.2-.4-.2zM30.6 7c-.3 0-.6.1-.9.1s-.3-.1-.4-.2-.4-.1-.2-.3 1-.4 1.3-.6c.2-.2.5-.1.6-.4.2-.3.4-.2.6-.2s.9-.1 1.1 0 .3.3.5.2c.2 0 .8-.1 1 0s.3.4.1.4-1.1.1-1.4.2c-.2.1-1.6.4-1.7.6-.4 0-.6.2-.6.2z"/><use xlink:href="#D"/><path d="M38.4 5.7c-.3 0-.7 0-.6.1.2.2.2.4.4.4.1 0 .8-.4.2-.5zm.8 2.3c-.2 0-.4.3-.7.3-.2 0-.2 0-.2.1s.5.2.7.3.6 0 .6-.1c.1-.2.5-.5-.4-.6z"/><use xlink:href="#E"/><use xlink:href="#F"/><use xlink:href="#G"/><use xlink:href="#H"/><path d="M42.9 12.1c-.3 0-.7.1-.7.2-.1.1 0 .2.2.2.1 0 1.1-.5.5-.4zm1.2.2c-.1-.1-.6.3-.5.4.1.2.7-.2.5-.4zm1.2-.7c-.1 0-.2.1-.2.2s.1.1.2.1.2-.2 0-.3z"/><use xlink:href="#I"/><path d="M36.6 4.3c-.3 0-.4.3-.7.3s-.9.1-.9.3c0 .1.5.1.6.1.2 0 .8-.1.6 0-.1.1-.8.1-.7.3 0 .1.9.1 1.3 0s.7-.2 1-.2.6.1.9.1.5-.3.8-.3.3-.3.2-.3-.5.1-.7.1.4-.5.1-.5-.5.4-.9.4-.8.1-1.1 0c-.1-.2-.2-.3-.5-.3zm3.2-1.1c-.3 0-.7.2-1.1.3-.4 0-.7.4-.4.4s.8-.2 1-.2c.2-.2 1.4-.5.5-.5z"/><use xlink:href="#J"/><path d="M43.5 3.6c-.2 0-.3-.2-.6-.2h-.6c-.2-.1.1-.4.5-.4s.5.1.8.1c.4-.1.5.2.4.3-.1 0-.2.2-.5.2zm.6 1.2c-.3 0-.8.1-.8.3 0 .1 0 .2.3.2.2 0 .5-.1.6-.2 0-.1.2-.3-.1-.3zm.8-.8c-.3 0-.9 0-.8.1.1.2.3.2.5.2.3 0 .4.1.5-.1.2-.1 0-.2-.2-.2zm.2-.4c-.3 0-.5-.2-.4-.3 0-.2.2-.2.4-.2s.5.1.6.2-.1.3-.6.3zm.6.7c-.3 0-.5.1-.5.3-.1.2-.3.3-.4.4s0 .2.2.2.9-.1 1 0 .6.2.8.1c.2 0 .5-.2.7-.1s.4.1.5 0 .2.1.4.1.8-.2 1-.2.5-.2.5-.3-.3-.2-.5-.2-.9.1-1.2.1-.8.1-1 0-.6-.1-.9-.2.3-.3.1-.3c-.2.1-.7.1-.7.1z"/><use xlink:href="#K"/><path d="M46.2 6.6c.1.2-.4.1-.4.2 0 .2 0 .4-.2.4s-1.1.1-1.2.1c-.2 0-.9-.2-.9 0s.4.3.5.3c.2 0 .5 0 .6.1.2.1.7.1.9.1.3 0 .5-.1.7-.1.2.1.5.1.7.1s.5 0 .6-.1c0-.1.2-.5.3-.4.2.1.5.5.7.8s.3.4.5.4c.1 0 .5.2.4.4 0 .2-.4.4-.3.6.2.2.3-.1.5-.1s.5.1.6.2.6.4.7.3.4-.3.5-.3c.2.1.4.3.5.5s.2.5.4.5.2-.4.6-.5c.4 0 1-.2.9-.6-.1-.3-.3-.1-.6-.2s-.5-.4-1-.5c-.5-.2-.7-.4-.6-.6.2-.2.7-.2.6-.6s-.1-.3-.4-.4-.9 0-.7-.1c.2-.2 0-.3-.3-.3-.3-.1-.7.1-.6-.2s.2-.5 0-.7-.5-.3-.8-.3c-.4 0-.7 0-.7.2s.6.4.5.5c-.2.1-.3.3-.5.2s-.8.1-.8-.1c0-.1.5-.3.5-.5 0-.3-.2-.3-.4-.3-.3 0-.7.1-.8.2-.2.1-.1.3-.4.3s-.6.4-.6.5zm2 2.2c-.3 0-.8.2-.8.4 0 .1-.1.3.2.3s.7-.3.8-.4c.1-.2 0-.3-.2-.3z"/><path d="M49 9.7c-.2 0-.9.2-.9.4s.1.4-.1.4-.7.1-.9.1-.7-.1-.9 0-.6.3-.6.4.5.2.7.1.8-.3 1-.2.5.2.6.4.2.1.2.4c0 .2 0 .4.3.5l1.1.4c.2.1.6.1.7 0s-.2-.3-.3-.5-.4-.5-.2-.5c.2-.1.5.3.8.4s.4.2.7.1c.3-.2.4-.4.3-.7s-.5-.6-.5-.8-.4-.5-.5-.5-.8.3-.9.1c-.2-.2-.3-.5-.6-.5zm60.9 53c-.2 0-.1.6-.3.8-.2.1-.5.2-.5.4s0 .4-.1.6c-.1.1-.4.5-.6.5s-.4.4-.6.4-.6 0-.7.2c-.2.2-.4.6-.5.8s.1.7.1 1 .2.6 0 .8c-.2.3-.7 1.1-.7 1.3s.2.7.2 1 .2 1.1.5 1.1c.3.1.5.2.8 0s.5-.1.6-.3c.2-.2.5-1.4.7-1.9.1-.5 1.1-2.8 1.1-3.1s.1-.5.2-.5 0-.3-.1-.6c0-.2.1-.4.3-.3.1.1.2.1.2-.2s-.1-.5-.1-.8-.1-.8-.2-1c-.1 0-.1-.2-.3-.2zm18.7-14.9c-.2 0-.2.7-.2.9v.7c0 .2 0 1 .5 1 .4 0 .7-.4.7-.7s-.5-1.3-.6-1.5c-.1-.3-.2-.5-.4-.4z"/><use xlink:href="#L"/><path d="M144.5 58.4c-.2 0-.6.3-.6.5 0 .1.4.1.5.2s.3.4.6.4c.2 0 1.4.1 1.5.2s.7.3 1 .3.7.1.9 0 .4.2.6.2.3.2.3 0 0-.6-.3-.6c-.2 0-.7-.1-.8-.3 0-.2-.5-.5-.7-.5s-.6.2-.8.2-.8-.1-1.1-.4-.7-.3-.8-.3c0 .2-.1.1-.3.1zm4.3.6c-.2 0-.5 0-.5.1s.1.2.3.2.5-.3.2-.3zm1 .9c-.2 0-.4 0-.4.1s.1.2.3.2c.2.1.3-.3.1-.3zm.4.4c0 .1.1.1.1.1.1 0 .2-.2.1-.3 0-.1-.2 0-.2.2zm.5-.1c-.1 0-.1.1-.1.2 0 0 0 .1.1.1h.4s.1 0 .1-.1v-.2s-.1-.1-.2-.1c0 .1-.2.1-.3.1zm.6-.2h0c0 .1.1.1.1.2h.1c.1 0 .1.1.1.1s.1.1.2.1c.2 0 .1-.3 0-.4h-.5z"/><use xlink:href="#M"/><use xlink:href="#N"/><path d="M155.5 60c-.1 0-.2 0-.2.1s.1.2.2.2c0 0 .1 0 .1-.1v-.1c0-.1-.1-.1-.1-.1"/><use xlink:href="#O"/><path d="M144.1 55.5c-.1 0-.1.1-.1.1l.1.1c.1 0 .1.1.2.1h.1c.1 0 .1-.1.1-.1v-.2h-.4z"/><path d="M144.4 56.1c-.1 0-.1 0-.1.1v.2c0 .1.1.1.2.1h.2s.1 0 .1-.1h0v-.2c-.1-.1-.3-.1-.4-.1zm.8.1c0 .1 0 .2.1.3s.2.1.3.1.2-.1.2-.2 0-.1-.1-.2c-.3-.1-.5-.2-.5 0zm5.8-6.5c-.3.1-.9.7-1 1-.1.2-.2.6-.4.6-.1-.1-.5-.1-.7.2s-.4.9-.8.9-.7.9-.9 1-.6-.2-.8-.2-.4.4-.4.7.3.7.3.9.4.5.4.8.2.8.4.8.4-.1.6.1.4.2.6.2.2-.2.4-.1.6 0 .7.1.2.4.4.4.9-.7.9-1-.1-.5.1-.7.6-.4.6-.6c-.1-.2 0-.9.2-.9.1 0 .4.1.5 0 .2-.1-.2-.6-.4-.7s0-.4-.1-.5-.4-.6-.3-.8.1-.3.3-.4-.1-.3.2-.4.5.1.5-.2-.3-.3-.6-.4-.5-.1-.4-.3c0-.3-.1-.6-.3-.5z"/><use xlink:href="#P"/><use xlink:href="#Q"/><path d="M61 1.7c-.5 0-.8.4-1.2.4-.5 0-.9.2-1.2.2s-1.1.1-1.1.2.8-.1.7.1-.5.2-.9.3l-1.5.3c-.3 0-1.3 0-1.3.2s.6.3.8.3 1-.2 1.1 0c0 .2 0 .3-.4.3s-1.4-.1-1.4.1.9 0 .9.2c0 .1.2.2.6.1.4 0 1.6-.1 2 0 .3.2 1.1.4 1.1.7s.1.7.1.9c-.1.2-.6.6-.5.8-.1.2.2.2.4 0s.5-.2.6-.1.5.5.4.6-.1.3-.3.3-.8-.4-1-.3c-.1.1-.5 0-.4.2.1.1.4.1.7.2s.9 0 .9.2-.6.7-.9.8-.7-.2-.7.1-.2.4-.4.5c-.2.2-.4.4-.3.6s.1.4.1.8c-.1.4-.1.6 0 .8.2.2.2.4.2.5-.1.1 0 .4.1.5s.2.3.3.4c.1.2.2.3.5.3.2 0 .7-.3.8-.2.2.1.2.5.4.5s.4.1.7-.2.7-.8.7-1 .3-.5.4-.5.7-.2.7-.4.2-.4.3-.6c.2-.2.5-.5.8-.5s.5-.3.8-.4.1.2.4.2.7-.3 1-.3.9-.7 1.1-.7.3-.5.5-.5c.1 0 .3.3.6.3s1-.3 1.4-.3c.5 0 1.8-.4 2-.7s-.6-.2-.9-.2c-.4 0-.8-.1-.7-.3s.8 0 .8-.2-.5-.4-.2-.4c.3-.1.9.1 1 .4s.2.5.5.4.3-.3.5-.5-.2-.5-.5-.5-1.1-.2-1.1-.4.4 0 .5-.1.4-.1.7-.2c.2-.1.7 0 .8-.2s.5-.4.8-.5.3-.4.5-.4-.3-.5-.2-.6c.1 0 1.1.2 1.1-.1s-1.4-.1-1.3-.4c.1-.2.9-.4 1.1-.7.1-.3.1-.6.5-.7.4 0 1.5-.3 1.8-.3.4-.1.5-.2.5-.3s-.8-.1-1.1 0-1.4.2-1.7.2c-.3-.1-1.1.4-1.2.3s1-.6 1-.7c0-.2-.9-.1-1.2-.2-.1-.2-.4-.3-.8-.3h-2.1c-.4 0-1.7.2-2.1.3h-1.7c-.3 0-1 .3-1.3.2s-1.2-.2-1.2 0-.2.3-.4.2c-.1-.2-.6 0-.7 0s-1-.1-1.3-.1-.2.2-.5.2c-.2 0-.5-.1-.5-.1zM13.8 17.6c-.3 0-.5.1-.5.4s-.2.7 0 .7.3-.5.5-.6c.2 0 .5-.6 0-.5z"/><use xlink:href="#R"/><path d="M59.2 59c0-.4-.2-1.2-.6-1.2-.4-.1-.8 0-1.5-.8-.8-.8-1.6-.6-1.8-.5 0 0-.4 0-.8-.3s-1 .3-1.1.4.1-.4-.1-.7c-.2-.4-1.2-.9-1.4-.9s-.7-.2-.8.1-.3.8-.6.8-.2-.3-.1-.4.6-.4.6-.8-.5-.4-.8-.3c-.3 0-.6.1-.6.4s-.1.5-.5.5c-.3 0-.1-.5 0-.7s.8-.4.9-.9 0-.6-.3-.8c-.2-.2-.5-1-.5-1.3s-.6-.6-1.1-.9c-.6-.3-2-.2-2.4-.4-.3-.2-.5-.5-.8-.5s.2-.3-.2-.7-1.1-.5-1.5-.5c-.3 0 .4-.5.3-.7-.1-.3-.5-.2-.9-.3-.3-.1-.3-.5-.6-.5s-.9.5-1.2.4c-.4 0-.7-.5-.9-.5s-.2.2-.5.2-.5-.1-.6-.4-.6-.3-.8-.2c-.3.1-1.1.3-1 .7.2.3.2 1 0 1-.3 0-.4-.6-.3-.8s.1-.4 0-.8.6-.3.6-.6-.3-.3-.5-.2c-.2.2-.7.8-1 .8s-.7.2-.9.1-.3 1-.7 1.2-.5 1.2-.7.8-.4-.9-.8-.9c-.3-.1-.7-.1-1.1.2s-.9.3-1.3-.2-.7-.8-.7-1.3c0-.4.2-.8.3-1.3 0-.5.3-.5.3-1.1s-.9-.7-1.1-.7-1.2.1-1.5.1-.6 0-.6-.2c0-.3.5-.2.5-.7s.4-.7.5-1 .2-1.1.5-1.3c.2-.2.3-.2.3-.5s-.9-.2-1.3-.1c-.3.1-1 .2-1 .7-.1.5-.6 1.3-1 1.3s-1.1 0-1.3.2c-.2.1-.3.2-.4.1-.1-.2-.5-.3-.8-.3s-.8-2.1-.7-2.4c0-.3.3-1.2.4-1.6s.5-.8.5-1.3a1.49 1.49 0 0 1 .3-1c.2-.3.8-.6 1.1-.7s.7-.4.9-.6c.2-.1.7-.1.8 0 .2.1.5 0 .6-.1s.5.4.7.4c.2-.1.6-.1.7 0 .2.1.1-.2 0-.4-.2-.2.1-.5.5-.5s.6.2.8.1c.3-.1.8-.1 1 .1s.4.2.5.2.5-.2.7.1c.3.4.3.8.1 1.1-.1.2 0 .9.2 1 .2.2.3 1 .6 1 .4 0 .6-.6.5-1.1 0-.5-.1-1.3-.1-1.6s-.1-.7-.1-1.2c0-.4.9-1.2 1.1-1.3.2 0 .9-.8 1.3-.8s.7-.6 1.1-.6.2-.4.4-.4.3-.2.2-.3c-.1-.2.1-.2.2-.3s0-.4-.2-.5c-.1-.1 0-.3.1-.4s.2-.5.1-.6.3-.2.4.1-.3.6-.2.7.5-.3.5-.5.3-.5.5-.7c.3-.1.7-.8.9-1.1.1-.3 1.2-.3 1.3-.4.1-.2.4-.1.6-.1.3 0 .4-.1.4-.3s-.3-.3-.1-.7c.3-.3.8-.8 1.2-.9s1.2-.3 1.3-.4.6-.3.8-.3.5-.2.5 0-.6.3-.8.5-.3.5-.1.6.9-.6 1.3-.6.8-.2 1.1-.3.8-.3 1-.4c.2-.2.4-.3.2-.4-.1-.1.1-.3 0-.4s-.5.3-.7.5-.3.3-.6.3-1.1-.2-1.1-.5.2-.8.4-.9 0-.3.1-.4c.2-.1.3-.2.3-.4s-.9-.3-1.3-.1c-.3.2-1.1.3-1.9.9s-1 .5-.7.2 1-.8 1.3-1 1-.3 1.2-.5.4-.5.8-.5h1.9c.1 0 .3.2.6.2s1.3-.5 1.3-.5l1.2-.4c.4 0 .8-.6.9-.8.1-.3.1-.6-.1-.7s-.4-.4-.7-.2c-.2.1-.9.5-1 .3s1.3-.4 1.4-.6c0-.2-.7-.3-.9-.3-.2-.1-.7-.9-.6-1s.3-.2.3-.4c-.1-.2 0-.4-.1-.4-.2-.1-.2-.3-.1-.4s-.1-.2-.2-.4.1-.6-.2-.6c-.2 0-1 .9-1.2 1-.2 0-.8.3-1 .3s-.7.2-.7.1.7-.2.7-.4c-.1-.3-.7 0-.7-.1s.4-.4.4-.5c0-.2.2-.4.3-.6s0-.4-.2-.4-.6-.2-.8-.6-1.2-.1-1.5-.2c-.2-.1-.7-.2-.9.1-.3.3-.2.6-.4.8s-.1.7-.3.8-.9.4-.8.7.3.3.3.7-.8 1.3-1.7 1.5-.7.2-.8.5c0 .3-.2 1.1-.3 1.3-.2.3-.5.7-.6.5s-.4 0-.4.2-.1-.1-.2-.1-.4.1-.2 0c.2-.2.2-.4.1-.5s-.3-.2-.2-.3c0-.1-.1-.4.1-.6s.3-.4.3-.6.4-.3.4-.4-1.2-.3-1.4-.2-.1-.1-.1-.2-.6-.2-.8-.5-1-.6-1.3-.5-.7.2-.7.1.4-.3.4-.7c0-.5-.3-.4-.4-.3s-.2-.1-.1-.3.9-1 1.3-1.2 1.5-1 1.9-1.1c.4 0 .7-.1.7-.3s-1-.3-.9-.5c0-.1 1 .3 1.3.2s.3-.2.9-.2 1-.4 1.2-.6c.2-.1-.1-.2-.3-.2s-.8-.2-.7-.4.4.1.6.2.5.2.6.1.7-.4.7-.5-.1-.2.1-.2.3 0 .5.2.3.4.5.4 0-.4.3-.4 1.3-.4 1.4-.6c0-.2.1-.8.4-.8.4 0 .3-.3.1-.4.2-.2-.7-.4-.8-.2s-.1.4-.3.6c-.2.1-1 .6-1.2.7-.1.1-.6.3-.6.1s0-.5.2-.6c.3-.1.3-.3.2-.4s-.4-.1-.6.1-.3.4-.5.4.3-.4.2-.6-.5-.4-.9-.1-1.2.8-1.5.8-.8.9-1 .7c-.3-.2.3-.6.3-.8-.1-.2-.3-.3-.5-.1-.1.1.1.4-.1.4s-1-.1-1.2-.1c-.3 0-.7.2-1 0-.4-.1-.5-.4-.9-.4s-1.2.2-1.3.4-.2.5-.4.6c-.2 0-.3-.4-.4-.5-.2-.1-.8-.1-1.1 0s-1.3.1-1.3-.1.8-.2.8-.4-.6-.2-1.2-.2c-.5-.1-1-.5-1.5-.5-.6 0-.8.3-1.1.3s.3-.3.3-.4c-.1-.1-.7.4-.9.4s-.2-.7-.3-.7c-.2 0-.6.4-.8.4s-.5-.2-.8-.2-.4.4-.6.4H24c-.1 0-.2.3-.3.2-.1 0-.4-.3-.6-.3s-.3.4-.5.4-.9 0-1-.2c-.1-.1-.7-.3-1-.3-.2 0-.4-.4-.8-.4-.3 0-.5.1-1.2 0-.8-.1-1.8 0-2-.2s-1.1-.3-1.4-.3c-.2 0-1.2.2-1.8.2s-.7.4-1.5.4-1.6.8-2.1.8-1.2.1-1.4.2 0 .2.1.3.1.3 0 .4.7 0 .7.1.1.2.3.2-.2.3-.5.2-.5.3-.9.2c-.4 0-.4-.4-.7-.4s-1.1.4-1.4.4-.8.1-.8.2.5.1.5.2-.6.2-.6.4 1.4.1 1.6 0c.3-.1 1-.3 1-.1s-1.1.9-1.5.8c-.4 0-.8.2-1.1.2-.2 0-.3-.2-.4-.2s-.7.5-1 .5-1.2.5-1.2.7.6.2.6.3-.3.1-.6.1c-.2 0-.4.1-.4.2s.3.3.7.2.7-.5.8-.5c.2 0-.5.6-.7.7s-.8.5-.7.6.7-.1.8-.2c.2-.1.2.3.4.3.3 0 .4-.3.6-.3s0 .3.1.3c.2 0 .5-.4.6-.3s-1.1.7-1.3.8-2.8 1-2.7 1.2 1-.1 1.2-.2 1.8-.7 2-.9.7-.2 1-.3c.3 0 1.2-.4 1.3-.6 0-.1-.4-.2-.4-.3.1-.1.7-.3 1-.3s1.1-.4 1.5-.6a3.26 3.26 0 0 1 1.4-.4c.4 0 0 .3-.1.3S8 13.9 8 14.1s1-.1 1.2-.2.9-.2 1.1-.4.6-.5.9-.4c.3 0 .6.7 1 .7s1.3 0 1.6.3.3.8.7.8c.2 0-.1.5-.3.7s-.5.5-.2.7c.2.2.5 0 .5.2s0 .6.3.3.5-.6.5-.2c0 .3.1.5.1.7-.1.1-.1.2-.1.2h0c-.2.2-.4.2-.3.4.1.3.5-.1.5.1s-.3.4-.3.5c.1.2.3.1.5.1.2-.1.4-.3.4-.2.1.1-.6.6-1 .7s.5.7.8.7.5.3.5.7-.3 1.3-.6 1.4c-.2.1-.2-.1-.1-.4.1-.2-.8-.3-.9 0s-.2 1-.5 1.3c-.2.3-1.3 1.7-1.6 1.9-.3.3-.2.9-.4 1.2s-.6.8-.6 1-.2.6-.1.9.4.3.4.5-.3.3-.3.4c0 .2.2.2.1.4s0 .5.1.8c.2.3 0 .4-.1.6 0 .2.4.3.7.3.3.1.9.5.8.9s-.1.6 0 1.1c.1.6.1 1 .3 1.2.3.2.6.8.4.9-.1.2-.2.2-.4.2-.2-.1-.3-.4-.4-.4s.1.7.4.8.3.3.6.3.5.5.5.6-.3.7-.2.8c.1.2.9.7.9.9s.4.3.5 0-.2-.6-.4-.7-.3-.4-.3-.9c0-.4-.1-.8-.3-1.2-.2-.3-.3-1-.4-1.2-.2-.2-.4-.8-.4-1.1.1-.3 0-1 .3-.9.2.1.8.3.8.6s-.1 1.2.1 1.4.7.9.7 1.1.6.6.5.7c-.2.1-.2.3 0 .5s1.5 1.7 1.5 2.1.2.8.2.9c-.1.1-.4.5-.3.7 0 .3.9 1.1 1.1 1.2l.8.3c.2.1.8.6 1.1.7s.9.4 1.1.5.7.3 1 .2.7-.4 1-.3 1.3 1.6 1.7 1.6c.5 0 1.1.5 1.5.5s.8-.1.8.2.4.8.6 1c.2.1.3.4.3.6s.1.5.6.7.8.6 1 .7.9.3 1 .5.2.4.5.3 0-.5.2-.6c.2-.2.4-.5.7-.4.3 0 .6.4.5.6s0 .5.3.8c.2.3.1 1.1.1 1.4s.3.8.1 1.1-.7.5-.8.8-.1.7-.5.8-.4.6-.6.9c-.1.3-.4.7-.3 1 .1.4.1.6.4.4s.4.2.2.5-.8.6-.8 1 .3.7.2.9c-.1.3.4.3.6.5s1.3 2.4 1.6 2.8 1.1 1.6 1.1 1.9.3 1 .8 1.3l1.6.9c.4.2 1.1 1 1.4 1 .3.1.3 1.5.4 1.7s.1 2 .1 2.3.3 2.7.1 3c-.1.3.2.7.2 1 0 .2-.2.4-.2.5 0 .2.5.9.5 1.3s0 2.9-.2 3.1-.2.2 0 .5.6.9.6 1.1-.2.5-.2.7.2.7.5.7.7.1.7.7.3 1 .4 1.4.3 1.3.1 1.2c-.3 0-.8-.2-.8 0s.8.3.8.5c.1.2.3.4.3.7 0 .4-.1.6.2.7.3.2.5.4.6.7.2.3.5.7.8.7s.3.8.6.9.5.1.7 0 0 .4.1.4.8.2 1.2.4 2.1.7 2.2.3-.2-.2-.7-.4-1.9-1.5-2-1.8c-.1-.4-.4-.7-.1-.9s0-.6.3-.9.4-.5.4-1c0-.4-1-.2-1.1-.5-.1-.4-.3-.8 0-.9.4-.1.5-.1.5-.6s.3-.6.1-.9-.9-1.1-.7-1.4c.1-.3.7.4 1.1.3s.5-.5.3-1c-.6.1-.5.2-.1.1.3 0 1.7-.2 1.9-.8.2-.7.3-.8 0-1s-.3-.8-.7-.9-.7-.6-.4-.5c.4.1.8.5 1.2.5h.1s.8.1.9 0 .7-.9.8-1.2.5-1.1.9-1.5c.4-.3.1-1 .7-1.8.7-.7-.7-1.4.3-2.4.9-.9.9-.9 1.2-.7 0 0 .5-.6.9-.6h1.2s.1-.4.5-.5-.1-.8.6-1.7c0 0 .1-.5 0-.9-.1-.5.3-.3.3-1.6 0-1.2-.2-1.8 0-2.2.2-.3.4.1.5-.2s.3-1 1.1-1.8c.9-.7.8-1.8.7-2.2z"/><use xlink:href="#S"/><path d="M52.5 22c-.3 0-.2.1-.2.3.1.2 0 .2.2.2.2-.1.4-.6 0-.5zm-4.7-1.6c-.2-.1-.4-.1-.4 0s.2.4.4.4.1.1.3.1c.3 0 .3-.1.2-.2s-.4-.2-.5-.3zM71.7 9.9c-.2.1-.7.3-.7.4s.6 0 .6.2c0 .1-.5.2-.2.4s.4.4.3.5.4.1.6.2c.2.2.9.1 1.1 0s1.1-.5 1.4-.5.7-.3.7-.5c0-.3-.5-.4-.5-.5 0-.2-.3 0-.4-.1s-.3.1-.5.1-.6.2-.7.2c-.1-.1-.4-.2-.5-.1s-.2.2-.3.2-.4.3-.5.2c-.1 0-.2-.2-.1-.4 0-.2-.1-.4-.3-.3zm7.7 4.8c-.3 0-.8.3-.8.6s-.2.4-.1.6.3.1.3.5c0 .3-.2.6 0 .6s.8-.2.8 0-.1.3 0 .5c.1.3.1.5-.3.5-.3 0-.3.2-.3.4s-.6.4-.5.6.2.1.5.2.6-.2.7-.1-.6.2-.9.4-.5.4-.4.6c.1.1.6 0 .7-.2.1-.1.6-.2.9-.2h1.1c.4 0 .5-.2.5-.3s-.1-.3.1-.5.4-.4.1-.5-.7 0-.7-.3-.2-.6-.4-.8c-.2-.1-.4-.2-.4-.5s-.6-.3-.6-.6.5-.5.5-.8-.3-.3-.5-.3-.6.1-.5 0c.1-.2.4-.3.4-.5.2-.1-.2.1-.2.1z"/><use xlink:href="#T"/><path d="M86.6 16.7h0l-.2.1c0 .1.1.2.2.2s.2 0 .2-.1c-.1-.1-.1-.2-.2-.2m.6-.1h0c-.2.1-.2.2-.1.2.1.1.2.1.3 0h.1l.2-.2v-.1c-.2-.2-.4 0-.5.1z"/><use xlink:href="#U"/><use xlink:href="#V"/><path d="M88.6 28.3c-.4 0-.5-.1-.7 0s-.3.3 0 .4.5.2.7.3c.1.1.2.1.4.1s.2-.2.2-.5c0-.2.1-.5-.1-.5-.2.2-.5.2-.5.2zm-6.4-1.1c0 .1 0 .2.1.2h.2l.1-.1c0-.1 0-.1-.1-.2 0 0-.3 0-.3.1z"/><use xlink:href="#W"/><path d="M94.8 30.1c-.2.1-.5 0-.6 0s-.2.1-.1.2c0 .1.5 0 .6.1s.4.1.6.1c.2-.1.2-.2 0-.2-.3-.1-.2-.3-.5-.2zm5.1 0c-.2 0-.3.2-.5.2s-.3 0-.3.1.2.2.2.3.2.1.3 0l.2-.2c.2-.2.4-.5.1-.4zm53.9 35.5c-.2.1-.4.4-.5.5s0 .6-.2.7-.4.6-.7.8c-.2.1-1.1.4-1.4.5-.4 0-.7.4-.9.4s-.3-.1-.5-.1c-.1 0-.8.6-1.1.7-.3.2-.5.6-.6.5s0-.3-.1-.3-.2.9-.3 1-.3.5-.3.7.4 1 .2 1.1c-.1.2-.3.2-.3 0-.1-.2-.1-.3-.2-.3s-.1.4 0 .7c.1.2.2.8.2 1s.2 1.2.1 1.3c-.1.2-.1.3-.1.4s.1 1.1 0 1.3-.2.7-.5.7-.3.1-.3.3c0 .1.3.3.4.4 0 .1.4.3.7.3s.8-.2 1.1-.4.6-.4.8-.4.5-.2.7-.2.6.2.9.2.6-.3.8-.4.7-.5.9-.5.6-.2.9-.2 1-.3 1.2-.4.6-.1.9-.1c.4 0 .8.1 1 .2.3.1.9.1 1 .3.1.1-.1.3-.1.4s.3.1.3.4c0 .2-.1.5-.1.7s.1.3.2.3.6-.7.8-.7.5-.4.6-.4l.3-.3c.1.1-.2.5-.4.6-.1.1-.3.5-.5.6s-.4.3-.4.3c0 .1.4.1.4 0 .1-.1.4-.6.5-.6.1.1.1.4 0 .5-.1.2-.4.5-.5.5s-.5-.1-.6 0-.1.2-.1.2c.1.1.2.1.4 0 .1-.1.6-.2.7-.3.2-.1.4 0 .4.1s0 .6-.1.8c-.2.2-.1.6 0 .7s.3.3.5.3.5.1.6.2.3.2.4.1c.2-.1.5-.6.7-.6.3 0 .2.4.4.5.1.2.2.1.4.1.1-.1.9-.6 1.2-.6s.6-.1.9-.1.4-.3.6-.5c.1-.2.7-1 .9-1.2.3-.2.6-.8.8-.9.2-.2.4-.6.7-.7s.7-.5.8-.7c.2-.2.7-1.1.8-1.3s.6-.8.6-1.1 0-.8.1-1.1c.1-.2.1-.4.1-.6s-.2-.5-.3-.8-.6-.7-.6-1c0-.2 0-.6-.1-.6s-.2.2-.3.1c-.2-.1-.2-.9-.2-1s-.2-.2-.2-.5c0-.2-.3-.2-.5-.4s-.7-.7-.7-.9v-.5c.1-.2-.3-.8-.2-1s0-.5 0-.7-.3-.7-.5-.6c-.2 0-.2.2-.3.2s-.2-.7-.1-.9-.1-.6-.2-.8-.1-.8-.3-.8-.4.5-.5.7c-.1.3-.1.7-.3 1-.1.3-.2 1.3-.2 1.5l-.5 1.1c-.1.1-.3.4-.5.4-.3 0-.6-.6-.8-.6s-.8-.6-1-.6c-.1 0-.5-.4-.6-.5s-.1-.2 0-.4.3-.5.3-.6c0-.2.2-.2.3-.4s.2-.3.2-.5-.1-.1-.3-.1-.3-.2-.4-.2-.4.2-.5.1-.7-.3-.9-.4-.5-.3-.5-.2.3.2.2.4c-.1.1.1.3-.2.3s-.6-.2-.7-.1c-.1 0-.4.2-.5.4s-.6.8-.7 1 .2.4.1.5-.2.2-.3.2-.3-.3-.4-.2-.3.5-.4.4 0-.4-.1-.6c-.1-.3-.5-.5-.8-.3s-.6.2-.7.5-.1.3-.4.4 0 .5-.2.6c-.2 0-.4-.2-.5-.1s0 .4-.1.6c-.2.2-.3.2-.3 0 .7-.2.7-.5.6-.4zm5.2-3.5c-.2 0-.6.1-.5.3 0 .1.3 0 .4.1.1 0 .4-.1.4-.3-.1-.2-.3-.1-.3-.1z"/><use xlink:href="#X"/><use xlink:href="#Y"/><use xlink:href="#Z"/><path d="M187.5 65.6c-.2.1-.7.2-.6.4.1.1.4 0 .6-.1.2-.2.5-.5 0-.3zm-1 .7c-.2 0-.5.2-.5.3s0 .3.3.3.5 0 .6-.2c0-.3-.3-.5-.4-.4zm-8.6 1.9c-.2.2 0 .5.2.7.1.2.6.7.8.7s.1-.2-.1-.3c-.2-.2-.7-1.3-.9-1.1zm-32.1-27.5c-.3 0-.6.2-.7.4-.1.1-.2.2-.1.5.1.2.2.4.5.4s.6-.3.6-.5c.1-.2.2-.4.1-.6-.1-.3-.3-.2-.4-.2zm6.2-3.6c-.2 0-.6.4-.6.7s-.2.6 0 .8c.1.2.2.5.4.5s.2-.3.3-.4c0-.2.2-1.6-.1-1.6z"/><use xlink:href="#a"/><use xlink:href="#b"/><path d="M158.6 26.3c-.2.1-.3.2-.1.5.2.2.5.6.5.9s-.2.8-.3 1-.5.6-.6.4-.3-.3-.3-.2.2.4.1.6.1.6-.1.7c-.2 0-.5-.1-.6-.1-.2 0-1 0-1.1.1s-.1.3-.3.5c-.2.1-.4.2-.4.4 0 .1.2.2.5.2.2-.1.5-.2.7-.3.3 0 .6-.3.9-.3s.3 0 .3.2.1.5.2.6.4.1.5 0c0-.1.3-.3.2-.4s-.3-.5-.1-.5c.1 0 .4.3.7.3s.3-.3.5-.3.4-.4.4-.3 0 .3.2.3.3-.4.1-.6-.3-.3-.3-.7-.4-.6-.4-.8c.1-.2.3-.6.1-.9-.2-.4-.4-.5-.7-.8-.1-.5-.3-.6-.6-.5z"/><path d="M156.8 31.2c.1-.1.3-.2.5-.2s.3.2.3.4-.1.2-.3.1c-.2 0-.1.4-.3.4s-.5-.2-.5-.4.1-.3.3-.3z"/><use xlink:href="#c"/><use xlink:href="#d"/><path d="M152.8 45.1c-.2 0-.4.1-.3.3.2.2.2.3.4.4s.2.1.2-.1-.1-.6-.3-.6zm1.1-.5c-.2 0-.3 0-.3.2s.2-.1.4.2.2.5.4.5.3 0 .3-.2-.1-.3-.2-.3c-.3-.1-.5-.4-.6-.4z"/><path d="M155.2 45.8c-.3 0-.2.1 0 .3s.3.3.3.4c0 .2.1.2.2.2s-.1-.3-.1-.5-.2-.4-.4-.4zm-.7.3s0 .1.1.1l.1.1v-.1c0-.2-.1-.4-.3-.4-.1 0-.1.1-.1.1.1.2.2.2.2.2z"/><use xlink:href="#e"/><use xlink:href="#f"/><use xlink:href="#g"/><path d="M155 47.5c-.1 0-.1.1-.1.2s.1.1.2.1h.1v-.1c0-.1-.1-.1-.2-.2m-3.2 0l.1.1s.1 0 .1-.1c.1-.1.5-.4.2-.4-.2 0-.5.2-.4.4z"/><use xlink:href="#h"/><use xlink:href="#i"/><path d="M155.1 48.8c0 .1-.1.1-.1.2v.2l.1.1v.6c.2.2.3.3.5.4.1.1.2.1.4.1.1 0 .1-.2.1-.3s-.1-.2-.1-.3-.1-.2 0-.2c0-.1.1-.2.2-.1.1 0 .1.1.2.1 0 .1.1.1.2.1s.1-.1.1-.1c.1-.2 0-.5-.1-.7 0-.1-.1-.2-.2-.3 0-.1-.1-.2 0-.3V48c0-.1-.1-.2-.2-.2s-.1.1-.2.1c-.1.1-.3.2-.4.4-.3.1-.4.3-.5.5zm-1.5 4.7c-.2.1-.4.3-.6.3s-.3.3-.3.5.1.2.2 0c.1-.1.4-.3.6-.3.2.1.3 0 .5 0 .2.1.4-.1.6 0s.1.2.4.2.7-.3.8-.4.3-.4.1-.5-.3.4-.6.4-1.1 0-1.3-.1-.2-.2-.4-.1z"/><use xlink:href="#j"/><path d="M154.6 57.6s0-.1 0 0c0-.1 0-.1 0 0-.2 0-.3.1-.4.3v.2c0 .1.1.1.1.1.1 0 .1 0 .2-.1s-.1-.3.1-.5z"/><use xlink:href="#k"/><use xlink:href="#l"/><use xlink:href="#m"/><path d="M157.6 55.4c0-.1-.1-.1-.2-.1h-.2c-.1.1 0 .2 0 .2 0 .1.1.1.2.1h.1s.1 0 .1-.1v-.1"/><path d="M157.8 53.5c0-.1 0-.1.1-.1 0 0 .1-.1.2 0 .1 0 .1.1.1.2-.1.3-.3.4-.4.7-.1.2 0 .4 0 .6 0 .1 0 .2-.1.2-.1.1-.2.1-.2.1-.1 0-.2-.2-.1-.3 0-.1.1-.2.1-.3s.1-.2 0-.4-.1-.5 0-.8c0 0 0-.1.1-.1h.1s0 .1.1.2h0s-.1 0 0 0zm0-.8c-.1.1-.1.1-.1.2v.2h.1c.1 0 .1-.1.2-.2 0-.1.1-.2 0-.2-.1-.1-.2 0-.2 0zm1.3 1.7c-.1 0-.1.1-.1.2s.1.1.1.1h.2c.1 0 .2 0 .2-.1.2-.2-.3-.3-.4-.2z"/><use xlink:href="#n"/><use xlink:href="#o"/><use xlink:href="#p"/><path d="M156.3 59.6s-.1 0 0 0c-.1.1-.1.2-.1.2l.1.1h.1c.1 0 .4-.1.2-.2 0-.2-.2-.2-.3-.1z"/><use xlink:href="#q"/><path d="M170.9 58.1c-.3.1-1-.1-1 .1s.4.4.7.4 1-.5 1.2-.5.2-.4.3-.5-.2-.6-.3-.4-.2.6-.4.7c-.1.1 0 .1-.5.2zm1.7-.9c0-.1-.1-.1-.1-.1-.1 0-.1.1-.1.1v.4c0 .1.1.1.1.1.1 0 .1-.1.1-.2.1-.2.1-.2 0-.3"/><use xlink:href="#r"/><path d="M174.8 59h0c-.1 0-.1 0-.2.1 0 .1 0 .2.1.3s.2.1.3.1c.4.1-.1-.4-.2-.5z"/><path d="M174.9 59.8h0c-.1 0-.1 0-.1.1v.1c.1.2.3.4.5.4h.1s.1 0 .1-.1v-.2l-.6-.3zm1.1-.2s-.1-.1-.2 0c-.1 0-.1.1-.1.1 0 .1 0 .1.1.1.2.2.4.3.6.3h.1V60c-.1-.1-.3-.3-.5-.4zm1.1.6c-.1 0-.1 0-.1.1v.2c0 .1.1.1.1.2l.4.4s.1 0 .1-.1v-.1c-.1-.2-.2-.7-.5-.7z"/><use xlink:href="#s"/><path d="M177.4 61.6c0 .1.1.1.2.2.1 0 .2 0 .2.1.3 0 0-.3-.1-.4-.1-.2-.4-.1-.3.1zM180 65c0 .1.1.2.1.2h.2c.1-.1.1-.4 0-.5s-.3.2-.3.3zm.3.6v.2c.2.2.4 0 .4-.2-.1-.2-.4-.2-.4 0zm-92.1-63c-.3 0-.6.2-.7.1-.2 0-.7-.2-.7 0s0 .4.3.5c.2.1.6.2.7.2s.3-.3.4-.1c.1.1 0 .2-.1.5s.4.2.5.3.4-.2.7-.5c.3-.2.6-.5.8-.5.2.1.3.5.6.5s.6.3.9.1 0-.4-.4-.4S90.1 3 90 3c-.1-.1-.6-.1-.8-.3-.3-.2-.5.1-.6.1-.2-.1-.2-.2-.4-.2z"/><use xlink:href="#t"/><path d="M100.5 2.2c-.1.1-.1.1-.1.2s.1.2.1.2c.1 0 .2-.1.2-.1l.2-.2c.1 0 .2 0 .3-.1.1-.2-.1-.3-.2-.2-.1 0-.4.1-.5.2z"/><use xlink:href="#u"/><path d="M103.6 8.2c-.1-.1-.2-.1-.3-.1s-.1.2-.1.3.1.2.2.3c.1 0 .1 0 .2-.1s.2-.1.3-.2c.1 0 .2-.1.1-.2h-.4zm5.6-4.2c-.4.1-.8.4-1.3.4-.4 0-1.4 0-1.7.1s-1 .4-1 .6-.1.4-.2.5c-.2.1-.4.2-.5.5s-.7.5-.5.7 1 .2 1.1.3.6.3.9.3.8.1.8-.1c0-.1-1.2-.2-1.2-.8s.7-1.1.9-1.2.9-.6 1.4-.6c.4 0 1.7-.2 1.8-.5 0-.3-.3-.3-.5-.2z"/><use xlink:href="#v"/><path d="M117.8 1.9c-.3.1-.9.2-.8.5s.3.1.7.1c.3 0 1 .1 1-.2 0-.2-.4-.5-.9-.4zm2.1.6c-.3 0-.4.2-.6.2s-.4-.2-.6-.2-.6.2-.6.3c.1.1.6.2.8.2.3 0 .7.2 1 .2s.5 0 .5-.2c.1-.2-.1-.5-.5-.5zm1.5 1c-.2 0-.4-.3-.3-.4.1-.2.4-.3.6-.2s.4.1.5.1c.2 0 .6.1.7.2s-.1.2-.3.2c-.3 0-.5-.1-.6 0-.2 0-.3.1-.6.1z"/><use xlink:href="#w"/><use xlink:href="#x"/><use xlink:href="#y"/><use xlink:href="#z"/><use xlink:href="#AA"/><use xlink:href="#B" x="-1" y="-1"/><path d="M33.2 40.7c-.2.1-.6 0-.4.3.2.2.4.3.6.3s.4-.1.4-.2-.4-.5-.6-.4z"/><use xlink:href="#C" x="-1" y="-1"/><path d="M39.7 40.8c-.2 0-.3 0-.3.1s.2.2.5.2c.2 0 .4-.1.4-.2-.1-.1-.4-.2-.6-.1zm-4.4-.1c-.2 0-.3.1-.2.2s.1.1.3.1.3-.3-.1-.3zm41.1-11.9c-.2.1-.3.5-.5.8s-.4.7-.9.8-1.1 1.1-1.2 1.5c0 .4.1.9-.1 1.2-.3.3-1 1-1.4 1s-.6.4-.7.6a.9.9 0 0 1-.6.6c-.2.1-.2.9-.5 1.1s-.5.8-.7 1.2c-.2.5-.6.7-.6 1.1s.5.4.5.8-.2.4-.2.6.2.3.2.7-.2.8-.3 1.1-.2.8-.3.9c-.1.2-.3.2-.3.4s.4.3.4.4c0 .2.2.4.4.4.3 0 1-.2 1.1 0s-1.5.1-1.5.3c-.1.2 0 .5.2.7s.6.4.8.7.4.5.6.7.5.6.5.8-.1.4.1.7.3.5.6.6c.4.2 1 .8 1.2 1 .3.2.8.9 1.4.9.5 0 1.1-.6 1.6-.5.6 0 1.1 0 1.4.2s.4.1.6-.1c.2-.1 1.4-.7 1.7-.7s1.2-.3 1.5-.2c.4 0 .8.3.9.5 0 .2.2.9.5 1 .3 0 .5-.2.8-.1s.7-.2.8-.1c.1.2.3.3.5.4s.2 1.1.1 1.3v.5c.1.1 0 .4-.1.6-.1.3-.2.5-.3.7s.2.5.3.9c.2.4 1 1.2 1.3 1.5s.4.9.5 1.2.7 1.4.6 1.7c-.1.2-.3.3-.2.5s.5.8.5 1.3-.7 1.2-.8 1.8c-.1.5-.4 1.4-.4 2s0 1 .4 1.5c.5.6.6 1.6.9 2s.3 2 .4 2.5.2 1.4.9 2.1.3 1.1.8 1.9c.6.8 0 .8 0 1.1s.2.5.3.8c0 .3.4.2.7.4s.6-.2.9-.2.5-.2 1-.3.7.1 1.1.1.6-.2 1-.2 1.6-1.2 1.9-1.6 1.1-1.8 1.4-1.8.6-1 .6-1.4c0-.3-.3-.6-.1-.7.2-.2 1.7-.8 1.7-1s-.1-.3 0-.5 0-1.4-.1-1.7c-.1-.2-.5-.7-.3-.9s.9-.6 1-.8c.2-.2.5-.6.8-.7s1.6-.8 1.8-1.5c.2-.6.1-2 0-2.3s0-.5 0-.8-.5-.6-.5-1-.3-.6-.1-.9c.2-.4 0-.6 0-.7s-.5-.6-.3-1.1.5-.8.6-1.1.2-.8.6-1.1.7-.7.9-1.1 1.1-1.3 1.7-1.7 1.8-1.9 1.9-2.3l.8-1.8c.2-.3.6-1 .6-1.4s.2-1.4 0-1.4-.8.5-1.1.5-1 0-1.2.1c-.2.2-.4.2-.6.2-.2-.1-.7.3-.9.3s-.8-.7-.9-.7-.4-.2-.3-.3.4-.3.1-.6-1.3-1.5-1.6-1.6c-.2-.1-.7-.2-.8-.7 0-.4-.4-1.4-.5-1.5-.2-.1-.8-.6-.8-1s0-1-.1-1.2c-.1-.3-.2-.4-.3-.6-.2-.2-.6-.5-.7-1s-.9-1.8-1-2.1c-.1-.2-.4-1-.7-1.2-.3-.3-.4-.8-.3-.9s.7 1.3 1 1.3c.3-.1.2-1.3.4-1.3s-.2 1 .1 1.2c.3.1.9 1.1 1 1.4.2.3.3.4.4.8s.5.4.6.5.5 1 .6 1.5a1.1 1.1 0 0 0 .6 1c.2.1.6.6.9 1.2s.8 1 .9 1.3c.1.2 0 1 .2 1.3.1.3.3 1.4.5 1.4.2.1.8.1 1-.2s.9-.4 1.2-.5c.2 0 .8-.2 1-.4s.9-.6 1.2-.6c.3-.1.6-.1.7-.5s.5-.6.7-.6 1-.1 1.1-.4.5-.5.7-.6.2-.4.3-.5c.2 0 .3-.2.3-.5s0-.7.3-.7.7-.8.7-1.1-.4-.7-.6-.9-.9-.2-1-.3c-.2-.2-.6-.8-.6-1.1s.1-.5 0-.5-.5.8-.7 1-.5.5-.8.5c-.4 0-1 .1-1.1-.1s0-.3-.1-.7c0-.4-.1-.6-.2-.5-.1 0-.2.6-.4.5s-.3-.4-.3-.6c.1-.2-.3-.6-.5-.8s-.7-.8-.7-.9c0-.2-.4-.5-.2-.7s.4-.3.5-.5.2.3.4.3c.1 0 .3-.1.4.1.1.3.6 1.2.8 1.3s.6.3.9.6.6.3 1 .4c.3.1.6-.3.9-.4s.5 0 .6.3c0 .3.3.7.7.8.4 0 .7.2 1 .2s.5.1.7.1c.3 0 1.2 0 1.4-.1s.5-.1.8-.1.6-.1.8-.1.3.5.5.5.2.6.5.6.3.2.5.3c.2.2.5.4.7.4s.4-.4.5-.3c.1.2-.2.5-.5.5s-.4 0-.3.2.9.9 1.1.9c.3 0 .7-.2.7-.5 0-.2-.1-.6.1-.6s.4.3.3.4 0 .3.1.6c.1.2-.2.4-.2.6s.4 1.3.5 1.7c.1.3.2.9.3 1.2.2.3.7 1.1.8 1.7s.9 1.7.9 2c.1.3.2 1 .6 1.4.4.3.4.2.6 0s.6-1.2 1-1.3-.2-1 0-1.3.2-1.2.1-1.4-.2-.9.2-1.1.8-.3.9-.6.3-.4.6-.6c.2-.2.9-1.1 1-1.4s.6-.2.8-.5c.1-.3.1-.7.3-.8s.5-.3.6-.1c.1.1.3-.1.5-.2s.3.1.5 0 .3-.3.4-.4c.2-.1.4 0 .5.2s.2.6.3.8 1.1.9 1.2 1.1-.1.3 0 .4.4.1.5.4a5.99 5.99 0 0 1 .2 1.2c-.1.2 0 .5.2.6.2 0 .3-.2.4-.2s.4 0 .5-.2c.1-.1.4-.2.4-.3 0-.2.1-.3.1-.3.1.1.5.9.6 1.3 0 .5.4 1 .5 1.3.1.2.2 1.2.2 1.4 0 .3.1 1.1 0 1.4s.3.9.5 1.1c.2.3.8.9.8 1.2s.3 1.3.5 1.7c.2.3.7.9 1 1 .3.2.6.4.9.4s.2-.4 0-.6c-.2-.1-.4-.7-.4-1.1s0-.9-.3-1.1c-.3-.3-.8-.6-.8-.8 0-.1-.5-.1-.7-.4s-.3-1.2-.5-1.4-.4-.4-.4-.7.3-.9.4-1.2c0-.3.1-1 .3-1.1.2 0 .2.6.4.6s.7.2.8.4.4.5.5.7.3.4.4.4c.2 0 .3.2.6.2.2 0-.1.3 0 .5s0 .6.2.6c.1 0 .4-.4.5-.5s.3-.1.4-.3c0-.2 0-.5.3-.5s.3 0 .5-.1.7-.4.7-.6 0-1.2-.1-1.5-.3-1.1-.7-1.5l-1.4-1.3c0-.2-.5-.6-.5-1 0-.3.3-1 .6-1.1a3.04 3.04 0 0 0 .7-.5c.2-.2.7.1.8.1s0 .3.1.4c.1.2.2.4.3.4s0-.4.1-.7.8-.4 1-.4a.55.55 0 0 0 .5-.3c0-.2 0-.8.2-.8s.1.7.2.7.3-.2.6-.3c.2-.1.5 0 .9-.2.3-.2.6-.9 1-1.1s.5-.8.4-1 0-.4.2-.5c.2-.2.2-.7.4-.9s0-.5 0-.9c0-.3-.1-.6-.3-.6-.3.1-.4 0-.4-.1s.6-.3.6-.5-.3-.5-.6-.5c-.2 0-.7-.1-.7-.2s.8.1.9 0-.4-.3-.6-.6c-.2-.4-.5-.9-.8-1-.2-.1-.5-.3-.5-.5 0-.3.2-.7.4-.9s.8-.3.9-.5c0-.2-.3-.2-.5-.2s-.4-.2-.7-.2c-.2 0-.4.5-.6.5s-.3-.6-.6-.6-.9-.3-.9-.5.6-.3.7-.5.4-.3.4-.5.4-.6.6-.4c.2.1.3.4.2.7-.1.2.3.3.2.5s.1.3.2.2.4-.6.8-.7c.4 0 1 .1 1 .3s-.1.8.2 1c.3.1.7 0 .9.1s.4.5.3.6.3.6.3.7a5.39 5.39 0 0 0 .3 1c.1.2.6-.3.9-.3s.5-.2.5-.7-.2-.3-.4-.7c-.3-.4-.9-1.1-1.2-1.2s-.6-.3-.6-.5c.1-.3.6-.6.6-.8 0-.3-.2-.6-.1-.8 0-.1.4-.3.5-.5 0-.2.1-.4.3-.4s.4.4.7.3c.4-.1.7-.4.8-.8l.4-1.4c.1-.3-.2-.5-.2-.7s.2-.4.2-.6.1-.3-.1-.8c-.3-.5-.7-.9-.8-1.3s-.6-1.1-1.1-1.5c-.5-.3-1-.6-1.2-.6s-.2.5-.3.6c-.2 0-.4-.7-.6-.6-.2 0-.1.4-.3.3s-.5-.4-.8-.4-.5-.1-.2-.5.4-.6.4-.9.4-.5.4-.8.1-.8.4-.9c.3 0 1.2 0 1.3.1s.3 0 .6-.1.7 0 1-.2.7.2.9.2.7.3 1 .3.9 0 1-.1 0-.2-.3-.2-.5-.3-.5-.5 0-.9.3-.9h.9c.2 0 .4 0 .6.2s.3.3.5.4c.3.1.3-.6.5-.6s-.4-.4-.2-.6c.2-.1.4 0 .5.3.2.3.8.6.5.8a1.8 1.8 0 0 0-.4.9c0 .3.2.5-.1.8-.2.2-.5.2-.4.4.1.3.1.5.1.7 0 .3 1.8 1.9 2.1 2.1a3.17 3.17 0 0 1 .6.5c.2.2.6.9.9.9s.4-.3.4-.5-.4-.6-.4-.7.4-.1.4-.3-.5-.4-.3-.6c.1-.2.2-.2.3-.2.1.1.2 0 .3-.2 0-.2-.8-.4-.8-.7-.1-.3.2-.2.3-.2.1.1.2-.1.2-.2s-.3-.1-.5-.2-.4-.6-.5-.7c-.2 0-.3.1-.5.1s-.4-.3-.4-.5-.2-.6-.3-.7 0-.2.2-.2.5 0 .6-.2.2.2.4.2.2-.3.4-.3.4-.1.6-.1.6.2.7.3.2.1.3.1 0-.3.1-.5.3-.5.6-.7.5-.5.6-.4c.2 0 .8.2 1 .2s0-.2-.2-.3l-1.1-.6c-.2-.1-.8-.3-1-.3s-1.1-.3-1-.4c.1-.2.5.2 1 .2s.6-.1.6-.3-.4-.3-.6-.4c-.1-.1-.1-.3 0-.3.2 0 .4.2.5.3.1 0 .3.2.5.2s.8 0 1.3.2 1.3.5 1.6.5c.2 0 .5.1.6 0 0-.1-.3-.3-.5-.4s-.6-.3-.5-.4.7.2.7 0-.2-.4-.4-.4-1.8-.5-1.8-.3c-.1.2.4.3.2.3s-1-.5-1.4-.7-2.6-.8-2.9-.8-2.2-.5-2.7-.5-2.8-.3-2.8-.1.9.4.9.6-.5 0-.8-.1-.6-.3-.9-.3-1.2.1-1.5.1c-.4 0-.9-.1-1-.1s-.6.2-.9 0-.9-.7-1.3-.7-1.6-.2-1.9-.1c-.4.1-.4.1-.9.1-.4 0-1.5-.3-1.7-.3-.2-.1-.6-.4-.9-.4s-.7-.2-.9-.1-.1.3-.4.3c-.2 0-.4-.3-.6-.4s-.8-.1-1.1-.1c-.2 0-1 0-1 .2s.5.3.4.4c-.2.1-.6.1-.8 0s-1-.1-1.2 0-.7 0-.9-.1-.4-.2-.4 0c0 .1.3.4.1.5-.1 0-1.5-.4-1.7-.6-.3-.2-.8-.8-1-.8s-.7-.1-.8 0-.6 0-.8-.1-.6-.1-.6 0 .3.4.1.4-1.4-.2-1.7-.2c-.2 0-.6-.4-.8-.3s-1.2-.1-1.4 0-.4.1-.6 0-.4-.3-.6-.3-1.2.5-1.4.5-.7.2-.7 0 1-.7 1.2-.8.6-.1.6-.3-.6-.5-.9-.6c-.3 0-.7-.3-1-.3s-1 .2-1.4.2-.8-.4-1-.4-.7-.3-.9-.3c-.2.1-.7.3-.7.4s.5.2.3.2c-.1.1-.5.2-.8.2-.2 0-.9-.1-1.2-.1s-.8.1-1 .2-.7.1-.9.1-.9.2-.9.4.4.5.3.6-2.3-.1-2.4.1c-.1.3.1.3.2.4s.5.2.7.2.6.2.6.3-.5.1-.6 0c-.2 0-.8-.3-1-.3s-.5 0-.5.1.1.2 0 .2c-.2 0-.5 0-.5.1s1.2.3 1.2.4-1.3-.2-1.5-.2-.3-.5-.4-.6-.2 0-.2.1c0 .2-.4.2-.4.4s.8.4.8.5-.1.9.3.9.9-.1 1.1-.1c.3.1.7.2.9.4.1.2.2.5.1.5s-.3-.3-.5-.4c-.1-.1-.6-.3-.8-.3s-.4.1-.4.2.4.3.4.5-.2.5-.5.6c-.2 0-.2.4-.4.4s-.4-.1-.7-.1c-.2 0-.7-.1-.7-.2s.9.1 1.1-.3.3-.6.3-.8-.3-.1-.4-.2c-.2-.1-.4-.5-.4-.7-.1-.1-.1-.5-.3-.5s-.5-.2-.4-.4c.1-.1.2-.3.1-.4s-.5-.3-.8-.2c-.4 0-.9 0-.9.3-.1.3-.1.4-.3.6s.1.2.2.4c0 .1 0 .4.2.5l.6.3c.2.1.5.1.5.3s0 .3-.2.3-1-.4-1.3-.5-1.1-.4-1.5-.4h-1.1c-.2-.1-.6-.4-.7-.3s.1.2.2.2.7.2.8.4.1.4-.1.4c-.1 0-.2.2-.4.1-.1-.1-.2-.4-.4-.4s-.3.2-.6.2c-.2 0-.3-.1-.5-.1s-.5.3-.6.3c-.2 0-.4-.1-.4-.3s-.4-.1-.5 0-.5.2-.7.2-.5.4-.8.4-.3.4-.5.5c-.1.1-.8 0-.9-.1-.1-.2-.1-.4.1-.4.3 0 .3 0 .3-.1s-.3-.2-.5-.2-.6-.1-.7.2c0 .2 0 .5.2.7.2.1.2.5 0 .5-.2.1-.5-.2-.7-.2s-.5.3-.7.4c-.1.1-.3.3-.2.4s.4.4.2.4-.9 0-1.1-.2-.3-.2-.4-.1 0 .2.1.3c.1 0 .4.1.4.3s-.2.1-.4.1-.5-.3-.6-.3-.6-.3-.6-.5.1-.3-.1-.4c-.4.1-1-.2-.7-.2s1.6.5 2.3.4 1-.3 1.1-.6c0-.2-.6-.6-.8-.6s-1.6-.7-2.2-.7c0 0-.3-.1-.6 0s-.2 0-.4-.2h-.8c-.2 0-.7.1-.6-.1 0-.2.4-.2.4-.4s-.8-.1-.9-.2-.2.3-.3.2c-.2 0-.1-.3-.2-.3s-.2.3-.3.3-.3-.2-.3-.2c-.1 0-.3.4-.4.4s.1-.4-.1-.4-.6.5-.9.5c-.2 0-.8.1-1.1.1-.3.1-.5 0-.8 0s-.1.3-.3.3-.6.3-.8.2c-.2 0-.6.1-.6.3s.3.1.1.3l-1 1.1c-.1.2-.3.7-.7.9s-.6.7-1 .7-1.2.7-1.4.8c-.2 0-.5.3-.3.4s0 .4.1.5c.2.1.3 0 .5.1s-.5.2-.5.4c.1.1.4.2.3.3s-.4.2-.4.3.5.5.9.5.7-.3.9-.5.6-.3.6-.5.3.1.3.3.1.4.3.8c.1.4.5.6.5.9s.1.6.4.6.3-.5.6-.5.8 0 .8-.3c.1-.3.1-.7.1-.9s0-.3.3-.4c.3-.2.7-.3.7-.6s-.6-.4-.7-.5-.3-.4-.1-.6c.1-.2 0-.6.3-.8s.9-.5 1.1-.6.3-.3.4-.6c0-.3.1-.4.3-.5s.7-.1.9-.1.5.1.5.2.1.1-.2.3c-.2.2-.6.7-.8.7-.2.1-.7.1-.7.4 0 .2.2.5.2.8s0 .7.3.8c.2 0 .4.2.6.3s.4 0 .8 0c.3-.1.9-.3 1.2-.3s.5-.3.6-.2.2.5.4.5c.3 0-.4.3-.7.3s-1.7 0-1.8.1c0 .2-.3 0-.2.2 0 .2.3.3.4.4.1.2 0 .2.1.4 0 .2-.1.5-.4.5s-.5-.6-.7-.6-.5.5-.5.9.1.5-.1.7c-.2.1-.4.6-.6.6s-.6-.4-.8-.4-1.2.5-1.4.5-.6-.3-1-.2c-.3 0-.8.4-1.1.3s-.8-.4-.7-.7.6-.6.6-.9-.3-.2-.2-.5c.1-.2-.3-.2-.5 0s-.6.4-.6.7c0 .2.3.4.3.7s.7.9.5 1-.5-.3-.6-.2-.1.2-.4.1c-.2-.1-.5.2-.7.2s-.9.5-1.1.8-.3.5-.6.6-.6.3-1.1.9-1.3.3-1.4.2-.2.2-.1.4-.4.4-.6.3-.9-.1-.9.2.5.5.7.5.5.1.6.4.2.4.4.6.3.5.2.5-.3.1-.3.3 0 1.1-.3 1.1c-.2 0-2-.3-2.4-.3s-1 0-1.2.2-.4.1-.4.3.2.4.2.6c0 .1-.1.5-.1.7 0 .1-.1.9-.3 1.1s-.3.4-.2.5.3.4.3.6-.1.5.1.5.6-.1.8-.1c.2.1.4.2.4.3s.1.5.3.5.5-.4.9-.4c.3 0 1.2 0 1.3-.2s.3-.3.5-.4.3-.5.5-.6.2-.3.1-.3c-.1-.1-.2-.4-.1-.6s.4-.7.9-.9c.5-.3 1-.2 1-.5s-.1-.7.2-.9.9-.2 1-.1c.2.1.4.2.7.2s.4-.5.7-.5.3-.4.5-.4c.3 0 .8.2.8.4s.1.6.4.8.8.9 1.1.9c.4 0 .6.4.8.4.2.1.3.4.5.4s.4.4.4.6c-.1.2-.3.7-.3.8.1.1.2.1.3-.1s.2-.5.4-.5c.2-.1.2-.2 0-.3-.1-.1-.4-.4-.2-.6s.4-.2.5-.1.2.4.4.3c.1-.1.1-.3-.1-.4s-.7-.5-.9-.5-.3-.2-.2-.4c.1-.1-.6 0-.8-.2-.3-.2-.5-1.1-.7-1.1-.1 0-.4 0-.5-.1s-.3-.4-.2-.6c.1-.1-.1-.4.1-.5s.5-.3.6-.1.2.4.4.4.3.1.5.4c.1.2.3.6.4.6s.5.3.7.3.4.3.6.3c.2.1.7.4.7.6s-.2.7-.1.8.3.6.5.7.4.3.5.5.5.3.8.3.7.4.9.3.2-.4-.1-.5c-.2-.1-.4-.3-.4-.5s-.4-.7-.3-.8.3.2.5.2.2-.5.5-.5.7-.1.8.1.5.2.7.1.3-.3.7-.2.5.3.2.3c-.2 0-1.4.1-1.4.3 0 .3.4.3.5.7 0 .4.2.7.2.9s.3.5.5.5.4.5.8.5.5-.3.7-.4c.3-.1.9.5 1.2.5s.7-.2.8-.3c.2-.1.3-.1.5-.1s.5-.2.5-.1-.1.3-.1.5c0 .1.2.8.2 1-.1.2-.2.5-.3.8-.1.2-.2.7-.2.9-.1.2-.2.7-.5.7s-.8 0-1-.2c-.2-.1-.5-.2-.7-.2s-.7.5-1 .4c-.2 0-1.2-.4-1.4-.4s-.9.1-1-.1-.8-.3-1-.4-.5-.5-.8-.5-1.2.5-1.2.7c0 .3.2.6.1.7s-.3.5-.5.5c-.3 0-.7-.6-1-.6s-1-.1-1.1-.5-.6-.6-.9-.7c-.3 0-.4-.2-.6 0s-.4 0-.5 0c-.2-.1-.5-.6-.7-.6s-.4-.2-.3-.4.4-.3.4-.5-.3-.5-.2-.7c0-.2.2-.3.2-.4 0-.2-.2-.1-.3 0s-.2-.2-.4-.2-.4.2-.7.2-.7-.2-.8-.2-.5 0-.6.1-.5.1-.7.1c-.2-.1-.9 0-1.1.1s-.8 0-1.1.2c-.2.1-.6.5-.8.5s-.4.5-.8.5c-.4-.1-.5-.2-.8-.2s-.5.1-.7 0c-.2 0-.3-.2-.6-.2zM29.6 6c-.3 0-.6.1-.9.1s-.3-.1-.4-.2-.4-.1-.2-.3 1-.4 1.3-.6c.2-.2.5-.1.6-.4.2-.3.4-.2.6-.2s.9-.1 1.1 0 .3.3.5.2c.2 0 .8-.1 1 0s.3.4.1.4-1.3.1-1.5.1c-.2.1-1.6.4-1.7.6-.3.1-.5.3-.5.3z"/><use xlink:href="#D" x="-1" y="-1"/><path d="M37.4 4.7c-.3 0-.7 0-.6.1.2.2.2.4.4.4.1 0 .8-.4.2-.5zm.8 2.3c-.2 0-.4.3-.7.3-.2 0-.2 0-.2.1s.5.2.7.3.6 0 .6-.1c.1-.2.5-.5-.4-.6z"/><use xlink:href="#E" x="-1" y="-1"/><use xlink:href="#F" x="-1" y="-1"/><use xlink:href="#G" x="-1" y="-1"/><use xlink:href="#H" x="-1" y="-1"/><path d="M41.9 11.1c-.3 0-.7.1-.7.2-.1.1 0 .2.2.2.1 0 1.1-.5.5-.4zm1.2.2c-.1-.1-.6.3-.5.4.1.2.7-.2.5-.4zm1.2-.7c-.1 0-.2.1-.2.2s.1.1.2.1.2-.2 0-.3z"/><use xlink:href="#I" x="-1" y="-1"/><path d="M35.6 3.3c-.3 0-.4.3-.7.3s-.9.1-.9.3c0 .1.5.1.6.1.2 0 .8-.1.6 0-.1.1-.8.1-.7.3 0 .1.9.1 1.3 0s.7-.2 1-.2.6.1.9.1c.4 0 .5-.3.8-.3s.3-.3.2-.3-.5.1-.7.1.4-.5.1-.5-.5.4-.9.4-.8.1-1.1 0c-.1-.2-.2-.3-.5-.3zm3.2-1.1c-.3 0-.7.2-1.1.3-.4 0-.7.4-.4.4s.8-.2 1-.2c.2-.2 1.4-.5.5-.5z"/><use xlink:href="#J" x="-1" y="-1"/><path d="M42.5 2.6c-.2 0-.3-.2-.6-.2h-.6c-.2-.1.1-.4.5-.4s.5.1.8.1c.4-.1.5.2.4.3-.1 0-.2.2-.5.2zm.6 1.2c-.3 0-.8.1-.8.3 0 .1 0 .2.3.2.2 0 .5-.1.6-.2 0-.1.2-.3-.1-.3zm.8-.8c-.3 0-.9 0-.8.1.1.2.3.2.5.2.3 0 .4.1.5-.1.2-.1 0-.2-.2-.2zm.2-.4c-.3 0-.5-.2-.4-.3 0-.2.2-.2.4-.2s.5.1.6.2-.1.3-.6.3zm.6.7c-.3 0-.5.1-.5.3-.1.2-.3.3-.4.4s0 .2.2.2.9-.1 1 0 .6.1.8.1.5-.2.7-.1.4.1.5 0 .2.1.4.1.8-.2 1-.2.5-.2.5-.3-.3-.2-.5-.2-.9.1-1.2.1-.8.1-1 0-.6-.1-.9-.2.3-.3.1-.3-.7.1-.7.1z"/><use xlink:href="#K" x="-1" y="-1"/><path d="M45.2 5.6c.1.2-.4.1-.4.2 0 .2 0 .4-.2.4s-1.1.1-1.2.1c-.2 0-.9-.2-.9 0s.4.3.5.3c.2 0 .5 0 .6.1.2.1.7.1.9.1.3 0 .5-.1.7-.1.2.1.5.1.7.1s.5 0 .6-.1c0-.1.2-.5.3-.4.2.1.5.5.7.8.2.2.3.4.5.4.1 0 .5.2.4.4 0 .2-.4.4-.3.6.2.2.3-.1.5-.1s.5.1.6.2.6.4.7.3.4-.3.5-.3c.2.1.4.3.5.5s.2.5.4.5.2-.4.6-.5c.4 0 1-.2.9-.6-.1-.3-.3-.1-.6-.2s-.5-.4-1-.5c-.5-.2-.7-.4-.6-.6.2-.2.7-.2.6-.6s-.1-.3-.4-.4-.9 0-.7-.1c.2-.2 0-.3-.3-.3-.3-.1-.7.1-.6-.2s.2-.5 0-.7-.5-.3-.8-.3-.7 0-.7.2.6.4.5.5c-.2.1-.3.3-.5.2s-.8.1-.8-.1c0-.1.5-.3.5-.5 0-.3-.2-.3-.4-.3-.3 0-.7.1-.8.2-.2.1-.1.3-.4.3-.4.2-.6.4-.6.5zm2 2.2c-.3 0-.8.2-.8.4 0 .1-.1.3.2.3s.7-.3.8-.4c.1-.2 0-.3-.2-.3z"/><path d="M48 8.7c-.2 0-.9.2-.9.4s.1.4-.1.4-.7.1-.9.1-.7-.1-.9 0-.6.3-.6.4.5.2.7.1.8-.3 1-.2.5.2.6.4.2.1.2.4 0 .4.3.5l1.1.4c.2.1.6.1.7 0s-.2-.3-.3-.5-.4-.5-.2-.5c.2-.1.5.3.8.4s.4.2.7.1c.3-.2.4-.4.3-.7s-.5-.6-.5-.8-.4-.5-.5-.5-.8.3-.9.1c-.2-.2-.3-.5-.6-.5zm60.9 53c-.2 0-.1.6-.3.8-.2.1-.5.2-.5.4s0 .4-.1.6c-.1.1-.4.5-.6.5s-.4.4-.6.4-.6 0-.7.2c-.2.2-.4.6-.5.8s.1.7.1 1 .2.6 0 .8c-.2.3-.7 1.1-.7 1.3s.2.7.2 1 .2 1.1.5 1.1c.3.1.5.2.8 0s.5-.1.6-.3c.2-.2.5-1.4.7-1.9l1.1-3.1c0-.3.1-.5.2-.5s0-.3-.1-.6c0-.2.1-.4.3-.3.1.1.2.1.2-.2s-.1-.5-.1-.8-.1-.8-.2-1c-.1 0-.1-.2-.3-.2zm18.7-14.9c-.2 0-.2.7-.2.9v.7c0 .2 0 1 .5 1 .4 0 .7-.4.7-.7s-.5-1.3-.6-1.5c-.1-.3-.2-.5-.4-.4z"/><use xlink:href="#L" x="-1" y="-1"/><path d="M143.5 57.4c-.2 0-.6.3-.6.5 0 .1.4.1.5.2s.3.4.6.4c.2 0 1.4.1 1.5.2.2.1.7.3 1 .3s.7.1.9 0 .4.2.6.2.3.2.3 0 0-.6-.3-.6c-.2 0-.7-.1-.8-.3 0-.2-.5-.5-.7-.5s-.6.2-.8.2-.8-.1-1.1-.4-.7-.3-.8-.3c0 .2-.1.1-.3.1zm4.3.6c-.2 0-.5 0-.5.1s.1.2.3.2c.3 0 .5-.3.2-.3zm1 .9c-.2 0-.4 0-.4.1s.1.2.3.2.3-.3.1-.3zm.4.4c0 .1.1.1.1.1.1 0 .2-.2.1-.3 0-.1-.2 0-.2.2zm.5-.1c-.1 0-.1.1-.1.2 0 0 0 .1.1.1h.4s.1 0 .1-.1v-.2s-.1-.1-.2-.1c0 .1-.2.1-.3.1zm.6-.2h0c0 .1.1.1.1.2s.1 0 .1 0c.1 0 .1.1.1.1s.1.1.2.1c.2 0 .1-.3 0-.4h-.5z"/><use xlink:href="#M" x="-1" y="-1"/><use xlink:href="#N" x="-1" y="-1"/><path d="M154.5 59c-.1 0-.2 0-.2.1s.1.2.2.2c0 0 .1 0 .1-.1v-.1c0-.1-.1-.1-.1-.1"/><use xlink:href="#O" x="-1" y="-1"/><path d="M143.1 54.5c-.1 0-.1.1-.1.1l.1.1c.1 0 .1.1.2.1h.1c.1 0 .1-.1.1-.1v-.2h-.4z"/><path d="M143.4 55.1c-.1 0-.1 0-.1.1v.2c0 .1.1.1.2.1h.2s.1 0 .1-.1h0v-.2c-.1-.1-.3-.1-.4-.1zm.8.1c0 .1 0 .2.1.3s.2.1.3.1.2-.1.2-.2 0-.1-.1-.2c-.3-.1-.5-.2-.5 0zm5.8-6.5c-.3.1-.9.7-1 1-.1.2-.2.6-.4.6-.1-.1-.5-.1-.7.2s-.4.9-.8.9c-.3 0-.7.9-.9 1s-.6-.2-.8-.2-.4.4-.4.7.3.7.3.9.4.5.4.8.2.8.4.8.4-.1.6.1.4.2.6.2c.1 0 .2-.2.4-.1s.6 0 .7.1.2.4.4.4.9-.7.9-1-.1-.5.1-.7.6-.4.6-.6c-.1-.2 0-.9.2-.9.1 0 .4.1.5 0 .2-.1-.2-.6-.4-.7s0-.4-.1-.5-.4-.6-.3-.8.1-.3.3-.4-.1-.3.2-.4.5.1.5-.2-.3-.3-.6-.4-.5-.1-.4-.3c0-.3-.1-.6-.3-.5z"/><use xlink:href="#P" x="-1" y="-1"/><use xlink:href="#Q" x="-1" y="-1"/><path d="M60 .7c-.5 0-.8.4-1.2.4-.5 0-.9.2-1.2.2s-1.1.1-1.1.2.8-.1.7.1-.5.2-.9.3l-1.5.3c-.3 0-1.3 0-1.3.2s.6.3.8.3 1-.2 1.1 0c0 .2 0 .3-.4.3s-1.4-.1-1.4.1.9 0 .9.2c0 .1.2.2.6.1.4 0 1.6-.1 2 0 .3.2 1.1.4 1.1.7s.1.7.1.9c-.1.2-.6.6-.5.8-.1.2.2.2.4 0s.5-.2.6-.1.5.5.4.6-.1.3-.3.3-.8-.4-1-.3c-.1.1-.5 0-.4.2.1.1.4.1.7.2s.9 0 .9.2-.6.7-.9.8-.7-.2-.7.1-.2.4-.4.5c-.2.2-.4.4-.3.6s.1.4.1.8c-.1.4-.1.6 0 .8.2.2.2.4.2.5-.1.1 0 .4.1.5s.2.3.3.4c.1.2.2.3.5.3.2 0 .7-.3.8-.2.2.1.2.5.4.5s.4.1.7-.2.7-.8.7-1 .3-.5.4-.5c.2 0 .7-.2.7-.4s.2-.4.3-.6c.2-.2.5-.5.8-.5s.5-.3.8-.4.1.2.4.2c.2 0 .7-.3 1-.3s.9-.7 1.1-.7.3-.5.5-.5c.1 0 .3.3.6.3s1-.3 1.4-.3c.5 0 1.8-.4 2-.7s-.5-.2-.9-.2-.8-.1-.7-.3.8 0 .8-.2-.5-.4-.2-.4c.3-.1.9.1 1 .4s.2.5.5.4.3-.3.5-.5-.2-.5-.5-.5-1.1-.2-1.1-.4.4 0 .5-.1.4-.1.7-.2c.2-.1.7 0 .8-.2s.5-.4.8-.5.3-.4.5-.4-.3-.5-.2-.6c.1 0 1.1.2 1.1-.1s-1.4-.1-1.3-.4c.1-.2.9-.4 1.1-.7.1-.3.1-.6.5-.7.4 0 1.5-.3 1.8-.3.4-.1.5-.2.5-.3s-.8-.1-1.1 0-1.4.2-1.7.2c-.3-.1-1.1.4-1.2.3s1-.6 1-.7-.9-.1-1.2-.2c-.1-.2-.4-.3-.8-.3h-2.2c-.4 0-1.7.2-2.1.3h-1.7c-.3 0-1 .3-1.3.2s-1.2-.2-1.2 0c0 .1-.3.4-.4.2s-.6 0-.7 0-1-.1-1.3-.1-.2.2-.5.2c-.1 0-.4-.1-.4-.1zM12.8 16.6c-.3 0-.5.1-.5.4s-.2.7 0 .7.3-.5.5-.6c.2 0 .5-.6 0-.5z"/><use xlink:href="#R" x="-1" y="-1"/><path d="M58.2 58c0-.4-.2-1.2-.6-1.2-.4-.1-.8 0-1.5-.8-.8-.8-1.6-.6-1.8-.5 0 0-.4 0-.8-.3s-1 .3-1.1.4.1-.4-.1-.7c-.2-.4-1.2-.9-1.4-.9s-.7-.2-.8.1-.3.8-.6.8-.2-.3-.1-.4.6-.4.6-.8-.5-.4-.8-.3c-.3 0-.6.1-.6.4s-.1.5-.5.5c-.3 0-.1-.5 0-.7s.8-.4.9-.9 0-.6-.3-.8c-.2-.2-.5-1-.5-1.3s-.6-.6-1.1-.9c-.6-.3-2-.2-2.4-.4-.3-.2-.5-.5-.8-.5s.2-.3-.2-.7-1.1-.5-1.5-.5.4-.5.3-.7c-.1-.3-.5-.2-.9-.3-.3-.1-.3-.5-.6-.5s-.9.5-1.2.4c-.4 0-.7-.5-.9-.5s-.2.2-.5.2-.5-.1-.6-.4-.6-.3-.8-.2c-.3.1-1.1.3-1 .7.2.3.2 1 0 1-.3 0-.4-.6-.3-.8s.1-.4 0-.8.6-.3.6-.6c-.1-.3-.3-.3-.5-.2-.2.2-.7.8-1 .8s-.7.2-.9.1-.3 1-.7 1.2-.5 1.2-.7.8-.4-.9-.8-.9c-.3-.1-.7-.1-1.1.2s-.9.3-1.3-.2-.7-.8-.7-1.3c0-.4.2-.8.3-1.3 0-.5.3-.5.3-1.1s-.9-.7-1.1-.7-1.2.1-1.5.1-.6 0-.6-.2c0-.3.5-.2.5-.7s.4-.7.5-1 .2-1.1.5-1.3c.2-.2.3-.2.3-.5s-.9-.2-1.3-.1c-.3.1-1 .2-1 .7-.1.5-.6 1.3-1 1.3s-1.1 0-1.3.2c-.2.1-.3.2-.4.1-.1-.2-.5-.3-.8-.3s-.8-2.1-.7-2.4c0-.3.3-1.2.4-1.6s.5-.8.5-1.3a1.49 1.49 0 0 1 .3-1c.2-.3.8-.6 1.1-.7s.7-.4.9-.6c.2-.1.7-.1.8 0 .2.1.5 0 .6-.1s.5.4.7.4c.2-.1.6-.1.7 0 .2.1.1-.2 0-.4-.2-.2.1-.5.5-.5s.6.2.8.1c.3-.1.8-.1 1 .1s.4.2.5.2.5-.2.7.1c.3.4.3.8.1 1.1-.1.2 0 .9.2 1 .2.2.3 1 .6 1s.6-.6.5-1.1c0-.5-.1-1.3-.1-1.6s-.1-.7-.1-1.2c0-.4.9-1.2 1.1-1.3.2 0 .9-.8 1.3-.8s.7-.6 1.1-.6c.3 0 .2-.4.4-.4s.3-.2.2-.3c-.1-.2.1-.2.2-.3s0-.4-.2-.5c-.1-.1 0-.3.1-.4s.2-.5.1-.6.3-.2.4.1-.3.6-.2.7.5-.3.5-.5.3-.5.5-.7c.3-.1.7-.8.9-1.1.1-.3 1.2-.3 1.3-.4.1-.2.4-.1.6-.1.3 0 .4-.1.4-.3s-.3-.3-.1-.7c.3-.3.8-.8 1.2-.9s1.2-.3 1.3-.4.6-.3.8-.3.5-.2.5 0-.6.3-.8.5-.3.5-.1.6.9-.6 1.3-.6.8-.2 1.1-.3.8-.3 1-.4c.2-.2.4-.3.2-.4-.1-.1.1-.3 0-.4s-.5.3-.7.5-.3.3-.6.3-1.1-.2-1.1-.5.2-.8.4-.9 0-.3.1-.4c.2-.1.3-.2.3-.4s-.9-.3-1.3-.1c-.3.2-1.1.3-1.9.9s-1 .5-.7.2 1-.8 1.3-1 1-.3 1.2-.5.4-.5.8-.5h1.9c.1 0 .3.2.6.2s1.3-.5 1.3-.5l1.2-.4c.4 0 .8-.6.9-.8.1-.3.1-.6-.1-.7s-.4-.4-.7-.2c-.2.1-.9.5-1 .3s1.3-.4 1.4-.6c0-.2-.7-.3-.9-.3-.2-.1-.7-.9-.6-1s.3-.2.3-.4c-.1-.2 0-.4-.1-.4-.2-.1-.2-.3-.1-.4s-.1-.2-.2-.4.1-.6-.2-.6c-.2 0-1 .9-1.2 1-.2 0-.8.3-1 .3s-.7.2-.7.1.7-.2.7-.4c-.1-.3-.7 0-.7-.1s.4-.4.4-.5c0-.2.2-.4.3-.6s0-.4-.2-.4-.6-.2-.8-.6-1.2-.1-1.5-.2c-.2-.1-.7-.2-.9.1-.3.3-.2.6-.4.8s-.1.7-.3.8-.9.4-.8.7.3.3.3.7-.8 1.3-1.7 1.5-.7.2-.8.5c0 .3-.2 1.1-.3 1.3-.2.3-.5.7-.6.5s-.4 0-.4.2-.1-.1-.2-.1-.4.1-.2 0c.2-.2.2-.4.1-.5s-.3-.2-.2-.3c0-.1-.1-.4.1-.6s.3-.4.3-.6.4-.3.4-.4-1.2-.3-1.4-.2-.1-.1-.1-.2-.6-.2-.8-.5-1-.6-1.3-.5-.7.2-.7.1.4-.3.4-.7c0-.5-.3-.4-.4-.3s-.2-.1-.1-.3.9-1 1.3-1.2 1.5-1 1.9-1.1c.4 0 .7-.1.7-.3s-1-.3-.9-.5c0-.1 1 .3 1.3.2s.3-.2.9-.2 1-.4 1.2-.6c.2-.1-.1-.2-.3-.2s-.8-.2-.7-.4.4.1.6.2.5.2.6.1.7-.4.7-.5-.1-.2.1-.2.3 0 .5.2.3.4.5.4 0-.4.3-.4 1.3-.4 1.4-.6c0-.2.1-.8.4-.8.4 0 .3-.3.1-.4.2-.2-.7-.4-.8-.2-.1.1-.1.4-.3.6-.2.1-1 .6-1.2.7-.1.1-.6.3-.6.1s0-.5.2-.6c.3-.1.3-.3.2-.4s-.4-.1-.6.1-.3.4-.5.4.3-.4.2-.6-.5-.4-.9-.1-1.2.8-1.5.8-.8.9-1 .7c-.3-.2.3-.6.3-.8-.1-.2-.3-.3-.5-.1-.1.1.1.4-.1.4s-1-.1-1.2-.1c-.3 0-.7.2-1 0-.4-.1-.5-.4-.9-.4s-1.2.2-1.3.4c-.2.2-.2.5-.4.6-.2 0-.3-.4-.4-.5-.2-.1-.8-.1-1.1 0s-1.3.1-1.3-.1.8-.2.8-.4-.6-.2-1.2-.2c-.5-.1-1-.5-1.5-.5-.6 0-.8.3-1.1.3s.3-.3.3-.4c-.1-.1-.7.4-.9.4s-.2-.7-.3-.7c-.2 0-.6.4-.8.4-.3 0-.5-.2-.8-.2s-.4.4-.6.4H23c-.1 0-.2.3-.3.2-.1 0-.4-.3-.6-.3s-.3.4-.5.4-.9 0-1-.2c-.1-.1-.7-.3-1-.3-.2 0-.4-.4-.8-.4s-.5.1-1.2 0c-.8-.1-1.8 0-2-.2s-1.1-.3-1.4-.3c-.2 0-1.2.2-1.8.2s-.7.4-1.5.4c-.7 0-1.6.8-2.1.8-.6-.1-1.2.1-1.4.2s0 .2.1.3.1.3 0 .4.7 0 .7.1.1.2.3.2-.2.3-.5.2-.5.3-.9.3-.4-.4-.7-.4-1.1.4-1.4.4-.8.1-.8.2.5.1.5.2-.6.2-.6.4 1.4.1 1.6 0c.3-.1 1-.3 1-.1s-1.1.9-1.5.8c-.4 0-.8.2-1.1.2s-.3-.2-.4-.2-.7.5-1 .5-1.2.5-1.2.7c0 .1.6.2.6.3s-.3.1-.6.1c-.2 0-.4.1-.4.2s.3.3.7.2.7-.5.8-.5c.2 0-.5.6-.7.7s-.8.5-.7.6.7-.1.8-.2c.2-.1.2.3.4.3.3 0 .4-.3.6-.3s0 .3.1.3c.2 0 .5-.4.6-.3s-1.1.7-1.3.8-2.8 1-2.7 1.2 1-.1 1.2-.2 1.8-.7 2-.9.7-.2 1-.3c.3 0 1.2-.4 1.3-.6 0-.1-.4-.2-.4-.3.1-.1.7-.3 1-.3s1.1-.4 1.5-.6c.6.1 1.2-.1 1.7-.1.4 0 0 .3-.1.3s-1.8.6-1.8.9c0 .2 1-.1 1.2-.2s.9-.2 1.1-.4.6-.5.9-.4c.3 0 .6.7 1 .7s1.3 0 1.6.3.3.8.7.8c.2 0-.1.5-.3.7s-.5.5-.2.7c.2.2.5 0 .5.2s0 .6.3.3.5-.6.5-.2c0 .3.1.5.1.7-.1.1-.1.2-.1.2h0c-.2.2-.4.2-.3.4.1.3.5-.1.5.1s-.3.4-.3.5c.1.2.3.1.5.1.2-.1.4-.3.4-.2.1.1-.6.6-1 .7s.5.7.8.7.5.3.5.7-.3 1.3-.6 1.4c-.2.1-.2-.1-.1-.4.1-.2-.8-.3-.9 0s-.2 1-.5 1.3c-.2.3-1.3 1.7-1.6 1.9-.3.3-.2.9-.4 1.2s-.6.8-.6 1-.2.6-.1.9.4.3.4.5-.3.3-.3.4c0 .2.2.2.1.4s0 .5.1.8c.2.3 0 .4-.1.6 0 .2.4.3.7.3.3.1.9.5.8.9s-.1.6 0 1.1c.1.6.1 1 .3 1.2.3.2.6.8.4.9-.1.2-.2.2-.4.2-.2-.1-.3-.4-.4-.4s.1.7.4.8.3.3.6.3.5.5.5.6-.3.7-.2.8c.1.2.9.7.9.9s.4.3.5 0-.2-.6-.4-.7-.3-.4-.3-.9c0-.4-.1-.8-.3-1.2-.2-.3-.3-1-.4-1.2-.2-.2-.4-.8-.4-1.1s0-1 .3-.9c.2.1.8.3.8.6s-.1 1.2.1 1.4.7.9.7 1.1.6.6.5.7c-.2.1-.2.3 0 .5s1.5 1.7 1.5 2.1.2.8.2.9c-.1.1-.4.5-.3.7 0 .3.9 1.1 1.1 1.2s.6.2.8.3.8.6 1.1.7.9.4 1.1.5.7.3 1 .2.7-.4 1-.3 1.3 1.6 1.7 1.6c.5 0 1.1.5 1.5.5s.8-.1.8.2.4.8.6 1c.2.1.3.4.3.6s.1.5.6.7.8.6 1 .7.9.3 1 .5.2.4.5.3 0-.5.2-.6c.2-.2.4-.5.7-.4.3 0 .6.4.5.6s0 .5.3.8c.2.3.1 1.1.1 1.4s.3.8.1 1.1-.7.5-.8.8-.1.7-.5.8-.4.6-.6.9c-.1.3-.4.7-.3 1s.1.6.4.4.4.2.2.5-.8.6-.8 1 .3.7.2.9c-.1.3.4.3.6.5s1.3 2.4 1.6 2.8 1.1 1.6 1.1 1.9.3 1 .8 1.3l1.6.9c.4.2 1.1 1 1.4 1 .3.1.3 1.5.4 1.7s.1 2 .1 2.3.3 2.7.1 3c-.1.3.2.7.2 1 0 .2-.2.4-.2.5 0 .2.5.9.5 1.3s0 2.9-.2 3.1-.2.2 0 .5.6.9.6 1.1-.2.5-.2.7.2.7.5.7.7.1.7.7.3 1 .4 1.4.3 1.3.1 1.2c-.3 0-.8-.2-.8 0s.8.3.8.5c.1.2.3.4.3.7 0 .4-.1.6.2.7.3.2.5.4.6.7.2.3.5.7.8.7s.3.8.6.9.5.1.7 0 0 .4.1.4.8.2 1.2.4 2.1.7 2.2.3-.2-.2-.7-.4-1.9-1.5-2-1.8c-.1-.4-.4-.7-.1-.9s0-.6.3-.9.4-.5.4-1c0-.4-1-.2-1.1-.5-.1-.4-.3-.8 0-.9.4-.1.5-.1.5-.6s.3-.6.1-.9c-.2-.4-.9-1.1-.7-1.4.1-.3.7.4 1.1.3s.5-.5.3-1c-.7 0-.6.1-.2 0 .3 0 1.7-.2 1.9-.8.2-.7.3-.8 0-1s-.3-.8-.7-.9-.7-.6-.4-.5c.4.1.8.5 1.2.5h.1s.8.1.9 0 .7-.9.8-1.2.5-1.1.9-1.5c.4-.3.1-1 .7-1.8.7-.7-.7-1.4.3-2.4.9-.9.9-.9 1.2-.7 0 0 .5-.6.9-.6h1.2s.1-.4.5-.5-.1-.8.6-1.7c0 0 .1-.5 0-.9-.1-.5.3-.3.3-1.6 0-1.2-.2-1.8 0-2.2.2-.3.4.1.5-.2s.3-1 1.1-1.8c.9-.7.8-1.8.7-2.2z"/><use xlink:href="#S" x="-1" y="-1"/><path d="M51.5 21c-.3 0-.2.1-.2.3.1.2 0 .2.2.2.2-.1.4-.6 0-.5zm-4.7-1.6c-.2-.1-.4-.1-.4 0s.2.4.4.4.1.1.3.1c.3 0 .3-.1.2-.2s-.4-.2-.5-.3zM70.7 8.9c-.2.1-.8.3-.7.4 0 .1.6 0 .6.2 0 .1-.5.2-.2.4s.4.4.3.5.4.1.6.2c.2.2.9.1 1.1 0s1.1-.5 1.4-.5.7-.3.7-.5c0-.3-.5-.4-.5-.5 0-.2-.3 0-.4-.1s-.3.1-.5.1c-.1 0-.6.2-.7.2-.1-.2-.4-.3-.5-.2s-.2.2-.3.2-.4.3-.5.2c-.1 0-.2-.2-.1-.4 0-.1-.1-.3-.3-.2zm7.7 4.8c-.3 0-.8.3-.8.6s-.2.4-.1.6.3.1.3.5c0 .3-.2.6 0 .6s.8-.2.8 0-.1.3 0 .5c.1.3.1.5-.3.5s-.3.2-.3.4-.6.4-.5.6.2.1.5.2.6-.2.7-.1-.6.2-.9.4-.5.4-.4.6c.1.1.6 0 .7-.2.1-.1.6-.2.9-.2h1.1c.4 0 .5-.2.5-.3s-.1-.3.1-.5.4-.4.1-.5-.7 0-.7-.3-.2-.6-.4-.8c-.2-.1-.4-.2-.4-.5s-.6-.3-.6-.6.5-.5.5-.8-.3-.3-.5-.3-.6.1-.5 0 .4-.3.4-.5c.2-.1-.2.1-.2.1z"/><use xlink:href="#T" x="-1" y="-1"/><path d="M85.6 15.7h0l-.2.1c0 .1.1.2.2.2s.2 0 .2-.1c-.1-.1-.1-.2-.2-.2m.6-.1h0c-.2.1-.2.2-.1.2.1.1.2.1.3 0h.1l.2-.2v-.1c-.2-.2-.4 0-.5.1z"/><use xlink:href="#U" x="-1" y="-1"/><use xlink:href="#V" x="-1" y="-1"/><path d="M87.6 27.3c-.4 0-.5-.1-.7 0s-.3.3 0 .4.5.2.7.3c.1.1.2.1.4.1s.2-.2.2-.5.1-.5-.1-.5c-.2.2-.5.2-.5.2zm-6.4-1.1c0 .1 0 .2.1.2h.2l.1-.1c0-.1 0-.1-.1-.2 0 0-.3 0-.3.1z"/><use xlink:href="#W" x="-1" y="-1"/><path d="M93.8 29.1c-.2.1-.5 0-.6 0s-.2.1-.1.2c0 .1.5 0 .6.1s.4.1.6.1c.2-.1.2-.2 0-.2-.3-.1-.2-.3-.5-.2zm5.1 0c-.2 0-.3.2-.5.2s-.3 0-.3.1.2.2.2.3.2.1.3 0l.2-.2c.2-.2.4-.5.1-.4zm53.9 35.5c-.2.1-.4.4-.5.5s0 .6-.2.7-.4.6-.7.8c-.2.1-1.1.4-1.4.5s-.7.4-.9.4-.3-.1-.5-.1c-.1 0-.8.6-1.1.7-.3.2-.5.6-.6.5s0-.3-.1-.3-.2.9-.3 1-.3.5-.3.7.4 1 .2 1.1c-.1.2-.3.2-.3 0-.1-.2-.1-.3-.2-.3s-.1.4 0 .7c.1.2.2.8.2 1s.2 1.2.1 1.3c-.1.2-.1.3-.1.4s.1 1.1 0 1.3-.2.7-.5.7-.3.1-.3.3c0 .1.3.3.4.4 0 .1.4.3.7.3s.8-.2 1.1-.4.6-.4.8-.4c.3 0 .5-.2.7-.2s.6.2.9.2.6-.3.8-.4.7-.5.9-.5.6-.2.9-.2 1-.3 1.2-.4.6-.1.9-.1c.4 0 .8.1 1 .2.3.1.9.1 1 .3.1.1-.1.3-.1.4s.3.1.3.4c0 .2-.1.5-.1.7s.1.3.2.3.6-.7.8-.7.5-.4.6-.4l.3-.3c.1.1-.2.5-.4.6-.1.1-.3.5-.5.6s-.4.3-.4.3c0 .1.4.1.4 0 .1-.1.4-.6.5-.6.1.1.1.4 0 .5-.1.2-.4.5-.5.5-.2 0-.5-.1-.6 0s-.1.2-.1.2c.1.1.2.1.4 0s.6-.2.7-.3c.2-.1.4 0 .4.1s0 .6-.1.8c-.2.2-.1.6 0 .7s.3.3.5.3.5.1.6.2.3.2.4.1c.2-.1.5-.6.7-.6.3 0 .2.4.4.5.1.2.2.1.4.1.1-.1.9-.6 1.2-.6s.6-.1.9-.1.4-.3.6-.5c.1-.2.7-1 .9-1.2.3-.2.6-.8.8-.9.2-.2.4-.6.7-.7s.7-.5.8-.7c.2-.2.7-1.1.8-1.3s.6-.8.6-1.1 0-.8.1-1.1c.1-.2.1-.4.1-.6s-.2-.5-.3-.8-.6-.7-.6-1c0-.2 0-.6-.1-.6s-.2.2-.3.1c-.2-.1-.2-.9-.2-1s-.2-.2-.2-.5c0-.2-.3-.2-.5-.4s-.7-.7-.7-.9v-.5c.1-.2-.3-.8-.2-1s0-.5 0-.7-.3-.7-.5-.6c-.2 0-.2.2-.3.2s-.2-.7-.1-.9-.1-.6-.2-.8-.1-.8-.3-.8-.4.5-.5.7c-.1.3-.1.7-.3 1-.1.3-.2 1.3-.2 1.5l-.5 1.1c-.1.1-.3.4-.5.4-.3 0-.6-.6-.8-.6s-.8-.6-1-.6c-.1 0-.5-.4-.6-.5s-.1-.2 0-.4.3-.5.3-.6.2-.2.3-.4.2-.3.2-.5-.1-.1-.3-.1-.3-.2-.4-.2-.4.2-.5.1-.7-.3-.9-.4-.5-.3-.5-.2.3.2.2.4c-.1.1.1.3-.2.3s-.6-.2-.7-.1c-.1 0-.4.2-.5.4s-.6.8-.7 1 .2.4.1.5-.2.2-.3.2-.3-.3-.4-.2-.3.5-.4.4 0-.4-.1-.6c-.1-.3-.5-.5-.8-.3s-.6.2-.7.5-.1.3-.4.4 0 .5-.2.6c-.2 0-.4-.2-.5-.1s0 .4-.1.6c-.2.2-.3.2-.3 0 .7-.2.7-.5.6-.4zm5.2-3.5c-.2 0-.6.1-.5.3 0 .1.3 0 .4.1.1 0 .4-.1.4-.3s-.3-.1-.3-.1z"/><use xlink:href="#X" x="-1" y="-1"/><use xlink:href="#Y" x="-1" y="-1"/><use xlink:href="#Z" x="-1" y="-1"/><path d="M186.5 64.6c-.2.1-.7.2-.6.4.1.1.4 0 .6-.1.2-.2.5-.5 0-.3zm-1 .7c-.2 0-.5.2-.5.3s0 .3.3.3.5 0 .6-.2c0-.3-.3-.5-.4-.4zm-8.6 1.9c-.2.2 0 .5.2.7.1.2.6.7.8.7s.1-.2-.1-.3c-.2-.2-.7-1.3-.9-1.1zm-32.1-27.5c-.3 0-.6.2-.7.4s-.2.2-.1.5c.1.2.2.4.5.4s.6-.3.6-.5c.1-.2.2-.4.1-.6-.1-.3-.3-.2-.4-.2zm6.2-3.6c-.2 0-.6.4-.6.7s-.2.6 0 .8c.1.2.2.5.4.5s.2-.3.3-.4c0-.2.2-1.6-.1-1.6z"/><use xlink:href="#a" x="-1" y="-1"/><use xlink:href="#b" x="-1" y="-1"/><path d="M157.6 25.3c-.2.1-.3.2-.1.5.2.2.5.6.5.9s-.2.8-.3 1-.5.6-.6.4-.3-.3-.3-.2.2.4.1.6.1.6-.1.7c-.2 0-.5-.1-.6-.1-.2 0-1 0-1.1.1s-.1.3-.3.5c-.2.1-.4.2-.4.4s.2.2.5.2c.2-.1.5-.2.7-.3.3 0 .6-.3.9-.3s.3 0 .3.2.1.5.2.6.4.1.5 0 .3-.3.2-.4c-.1-.2-.3-.5-.1-.5.1 0 .4.3.7.3s.3-.3.5-.3.4-.4.4-.3 0 .3.2.3.3-.4.1-.6-.3-.3-.3-.7-.4-.6-.4-.8c.1-.2.3-.6.1-.9-.2-.4-.4-.5-.7-.8-.1-.5-.3-.6-.6-.5z"/><path d="M155.8 30.2c.1-.1.3-.2.5-.2s.3.2.3.4-.1.2-.3.1-.1.4-.3.4-.5-.2-.5-.4.1-.3.3-.3z"/><use xlink:href="#c" x="-1" y="-1"/><use xlink:href="#d" x="-1" y="-1"/><path d="M151.8 44.1c-.2 0-.4.1-.3.3.2.2.2.3.4.4s.2.1.2-.1-.1-.6-.3-.6zm1.1-.5c-.2 0-.3 0-.3.2.1.2.2-.1.4.2s.2.5.4.5.3 0 .3-.2-.1-.3-.2-.3c-.3-.1-.5-.4-.6-.4z"/><path d="M154.2 44.8c-.3 0-.2.1 0 .3s.3.3.3.4c0 .2.1.2.2.2s-.1-.3-.1-.5-.2-.4-.4-.4zm-.7.3s0 .1.1.1l.1.1v-.1c0-.2-.1-.4-.3-.4-.1 0-.1.1-.1.1.1.2.2.2.2.2z"/><use xlink:href="#e" x="-1" y="-1"/><use xlink:href="#f" x="-1" y="-1"/><use xlink:href="#g" x="-1" y="-1"/><path d="M154 46.5c-.1 0-.1.1-.1.2s.1.1.2.1h.1v-.1c0-.1-.1-.1-.2-.2m-3.2 0l.1.1s.1 0 .1-.1c.1-.1.5-.4.2-.4-.2 0-.5.2-.4.4z"/><use xlink:href="#h" x="-1" y="-1"/><use xlink:href="#i" x="-1" y="-1"/><path d="M154.1 47.8c0 .1-.1.1-.1.2v.2l.1.1v.6c.2.2.3.3.5.4.1.1.2.1.4.1.1 0 .1-.2.1-.3s-.1-.2-.1-.3-.1-.2 0-.2c0-.1.1-.2.2-.1.1 0 .1.1.2.1 0 .1.1.1.2.1s.1-.1.1-.1c.1-.2 0-.5-.1-.7 0-.1-.1-.2-.2-.3 0-.1-.1-.2 0-.3V47c0-.1-.1-.2-.2-.2s-.1.1-.2.1c-.1.1-.3.2-.4.4-.3.1-.4.3-.5.5zm-1.5 4.7c-.2.1-.4.3-.6.3s-.3.3-.3.5c0 .1.1.2.2 0 .1-.1.4-.3.6-.3.2.1.3 0 .5 0 .2.1.4-.1.6 0s.1.2.4.2.7-.3.8-.4.3-.4.1-.5-.3.4-.6.4-1.1 0-1.3-.1-.2-.2-.4-.1z"/><use xlink:href="#j" x="-1" y="-1"/><path d="M153.6 56.6s0-.1 0 0c0-.1 0-.1 0 0-.2 0-.3.1-.4.3v.2c0 .1.1.1.1.1.1 0 .1 0 .2-.1s-.1-.3.1-.5z"/><use xlink:href="#k" x="-1" y="-1"/><use xlink:href="#l" x="-1" y="-1"/><use xlink:href="#m" x="-1" y="-1"/><path d="M156.6 54.4c0-.1-.1-.1-.2-.1h-.2c-.1.1 0 .2 0 .2 0 .1.1.1.2.1h.1s.1 0 .1-.1v-.1"/><path d="M156.8 52.5c0-.1 0-.1.1-.1 0 0 .1-.1.2 0 .1 0 .1.1.1.2-.1.3-.3.4-.4.7-.1.2 0 .4 0 .6 0 .1 0 .2-.1.2-.1.1-.2.1-.2.1-.1 0-.2-.2-.1-.3 0-.1.1-.2.1-.3s.1-.2 0-.4-.1-.5 0-.8c0 0 0-.1.1-.1h.1c0 0 0 .1.1.2h0c-.2 0-.1 0 0 0z"/><path d="M156.8 51.7c-.1.1-.1.1-.1.2v.2h.1c.1 0 .1-.1.2-.2 0-.1.1-.2 0-.2-.1-.1-.2 0-.2 0zm1.3 1.7c-.1 0-.1.1-.1.2s.1.1.1.1h.2c.1 0 .2 0 .2-.1.2-.2-.3-.3-.4-.2z"/><use xlink:href="#n" x="-1" y="-1"/><use xlink:href="#o" x="-1" y="-1"/><use xlink:href="#p" x="-1" y="-1"/><path d="M155.3 58.6s-.1 0 0 0c-.1.1-.1.2-.1.2l.1.1h.1c.1 0 .4-.1.2-.2 0-.2-.2-.2-.3-.1z"/><use xlink:href="#q" x="-1" y="-1"/><path d="M169.9 57.1c-.3.1-1-.1-1 .1s.4.4.7.4 1-.5 1.2-.5.2-.4.3-.5-.2-.6-.3-.4-.2.6-.4.7 0 .1-.5.2zm1.7-.9c0-.1-.1-.1-.1-.1-.1 0-.1.1-.1.1v.4c0 .1.1.1.1.1.1 0 .1-.1.1-.2.1-.2.1-.2 0-.3"/><use xlink:href="#r" x="-1" y="-1"/><path d="M173.8 58h0c-.1 0-.1 0-.2.1 0 .1 0 .2.1.3s.2.1.3.1c.4.1-.1-.4-.2-.5z"/><path d="M173.9 58.8h0c-.1 0-.1 0-.1.1v.1c.1.2.3.4.5.4h.1s.1 0 .1-.1v-.2l-.6-.3zm1.1-.2s-.1-.1-.2 0c-.1 0-.1.1-.1.1 0 .1 0 .1.1.1.2.2.4.3.6.3h.1V59c-.1-.1-.3-.3-.5-.4zm1.1.6c-.1 0-.1 0-.1.1v.2c0 .1.1.1.1.2l.4.4s.1 0 .1-.1v-.1c-.1-.2-.2-.7-.5-.7z"/><use xlink:href="#s" x="-1" y="-1"/><path d="M176.4 60.6c0 .1.1.1.2.2s.2 0 .2.1c.3 0 0-.3-.1-.4-.1-.2-.4-.1-.3.1zM179 64c0 .1.1.2.1.2h.2c.1-.1.1-.4 0-.5s-.3.2-.3.3zm.3.6v.2c.2.2.4 0 .4-.2-.1-.2-.4-.2-.4 0zm-92.1-63c-.3 0-.6.2-.7.1-.2 0-.7-.2-.7 0s0 .4.3.5c.2.1.6.2.7.2s.3-.3.4-.1c.1.1 0 .2-.1.5s.4.2.5.3.4-.2.7-.5c.3-.2.6-.5.8-.5.2.1.3.5.6.5s.6.3.9.1 0-.4-.4-.4S89.1 2 89 2c-.1-.1-.6-.1-.8-.3-.3-.2-.5.1-.6.1-.2-.1-.2-.2-.4-.2z"/><use xlink:href="#t" x="-1" y="-1"/><path d="M99.5 1.2c-.1.1-.1.1-.1.2s.1.2.2.2.2-.1.2-.1l.2-.2c.1 0 .2 0 .3-.1.1-.2-.1-.3-.2-.2-.2 0-.5.1-.6.2z"/><use xlink:href="#u" x="-1" y="-1"/><path d="M102.6 7.2c-.1-.1-.2-.1-.3-.1s-.1.2-.1.3.1.2.2.3c.1 0 .1 0 .2-.1s.2-.1.3-.2c.1 0 .2-.1.1-.2h-.4zm5.6-4.2c-.4.1-.8.4-1.3.4-.4 0-1.4 0-1.7.1s-1 .4-1 .6-.1.4-.2.5c-.2.1-.4.2-.5.5s-.7.5-.5.7 1 .2 1.1.3.6.3.9.3.8.1.8-.1c0-.1-1.2-.2-1.2-.8s.7-1.1.9-1.2.9-.6 1.4-.6 1.7-.2 1.8-.5c0-.3-.3-.3-.5-.2z"/><use xlink:href="#v" x="-1" y="-1"/><path d="M116.8.9c-.3.1-.9.2-.8.5s.3.1.7.1c.3 0 1 .1 1-.2s-.4-.5-.9-.4zm2.1.6c-.3 0-.4.2-.6.2s-.4-.2-.6-.2-.6.2-.6.3c.1.1.6.2.8.2.3 0 .7.2 1 .2s.5 0 .5-.2-.1-.5-.5-.5zm1.5 1c-.2 0-.4-.3-.3-.4.1-.2.4-.3.6-.2s.4.1.5.1.6.1.7.2-.1.2-.3.2c-.3 0-.5-.1-.6 0-.2 0-.3.1-.6.1z"/><use xlink:href="#w" x="-1" y="-1"/><use xlink:href="#x" x="-1" y="-1"/><use xlink:href="#y" x="-1" y="-1"/><use xlink:href="#z" x="-1" y="-1"/><use xlink:href="#AA" x="-1" y="-1"/></g><defs ><path id="B" d="M30.4 39.4c-.2-.1.8-.8 1.3-.8.4 0 1.3 0 1.5.2.3.2.5.3.7.3.3 0 .8.8 1.2.8.3 0 .6.4.9.4s.2.4-.1.5c-.3 0-1.5.1-1.5-.1s.2-.3-.1-.3c-.3-.1-.5-.7-.7-.7s-1-.4-1.2-.4c-.3 0-.6-.4-.8-.3-.3 0-.9.5-1.2.4z"/><path id="C" d="M37.9 40.8c-.2 0-.5.1-.7.1-.2-.1-.4-.1-.4 0s.3.3.3.5 0 .3-.2.4c-.1.1.3.2.4.1s.1.3.4.3c.2 0 .4-.4.6-.4s.4 0 .6-.1.3.3.5.3.3-.3.2-.5c0-.2-.6-.2-.7-.3 0-.2-.5-.5-1-.4z"/><path id="D" d="M32.4 7c-.4 0-.8 0-.8-.2s.6-.3.8-.4 1.8-.4 2-.4-.5.4-.2.4.5-.3.7-.3.5.2.3.3c-.1.1.4.1.5 0s.3-.2.5-.2c.2.1 0 .5-.1.6s.4.1.5-.1.4-.7.8-.7.5.1.5.2-.3.7-.5.8-.1.3-.1.3.7.1.7.4-.2.3-.4.3-.3 0-.3.2-.1.3-.4.3-1.2-.1-1.3-.2c-.2-.1-.3-.2-.6-.1-.2.1-1.2.4-1.6.4-.3 0-1.5.3-1.5.1s.2-.5.1-.5c-.2 0-1.1 0-1.1-.2s.6-.3.8-.3 1.8.1 1.9-.1c0-.2-2.4 0-2.4-.2s1-.2 1.2-.2c.1-.1.6-.2 0-.2z"/><path id="E" d="M41 7.1c-.2 0-.4.2-.5.4-.2.2-.5.3-.3.4.1.2.4.2.6.2.2-.1.6-.2.8-.2s.6-.1.6-.3-.1-.3 0-.5c.1-.1.1-.3-.2-.3s-.4 0-.5.1c-.1 0-.3.2-.5.2z"/><path id="F" d="M40.6 6.8c-.2 0-.5.3-.7.3s-.3-.6-.5-.6-.3-.4-.1-.4c.1 0 .4.2.7.1.3 0 .3-.2.4-.4s.5-.3.6-.3.6-.2.8 0 0 .3-.3.4c-.3.2-.5.2-.5.3s.3 0 .3.2-.2.4-.4.4h-.3z"/><path id="G" d="M42.1 6.6c-.2 0-.2-.4.1-.5.2-.2.7-.6.9-.6s.9 0 1.2.1c.2.1.4.2.2.2-.3.1-.5.3-.7.4h-.7c-.3 0-.4 0-.4.1-.2.2-.2.3-.6.3z"/><path id="H" d="M43 10.3c-.2 0-.3 0-.5.2s-.6.7-.8.8-.4.2-.4.3.5-.1.6 0c0 .1-.3.2-.1.3s.5-.2.7-.3.5-.4.8-.4.3.4.7.4.5 0 .5-.2-.5-.2-.5-.3.1-.3-.2-.3c-.3-.1-.3-.2-.5-.3-.5 0-.1-.2-.3-.2z"/><path id="I" d="M36.8 3.7c-.3 0-.7.2-1.1.2s-1.1.3-1.3.3c-.3 0-1.2.1-1.2.3 0 .1.7 0 1 .1.3 0 .6-.2.8-.3s.6 0 .9 0 1.4-.5.9-.6z"/><path id="J" d="M42.6 4.1c-.2 0-.3.4-.4.3-.1 0-.2-.1-.4-.1s-.2.2-.5.2c-.2 0-.3-.4-.5-.3s-.2.5 0 .5.6-.1.8.1.6.1.9 0c.2-.1.7-.3.8-.5 0-.1-.3-.1-.7-.2z"/><path id="K" d="M46.4 5.7c-.3 0-.7 0-1 .1l-1.6 1c-.1.1-.1.3.1.3s.8.1 1 .1c.3 0 .6-.1.6-.2s-.2-.3 0-.4c.2-.2.7-.5.8-.6.3-.2.5-.3.1-.3z"/><path id="L" d="M138.7 50.7c-.2 0-.6-.1-.8-.2s-.3.2-.2.3c.1.2.4.7.7.8.2.2.4.3.6.5s.3.6.5.7.4.3.4.5a1.08 1.08 0 0 0 .3.7c.1.2.7.9.7 1 0 .2 0 .6.2.9.2.2.7.7.8 1 .1.2.5.7.7.8s.3.5.5.5.6-.1.7-.1c.1.1.2-.1.2-.3v-1c0-.2.2-.4 0-.7-.2-.2-.4-.2-.6-.3s.1-.9-.2-.9c-.2 0-.6-.3-.6-.5s0-.5-.1-.5-.4 0-.5-.2-.5-.7-.7-.8-.3 0-.6-.2c-.2-.2-.7-.9-1-1.1-.3-.1-.4-.4-.5-.6.1 0-.1-.3-.5-.3z"/><path id="M" d="M152.2 60.8c-.1 0-.1 0-.1.1s0 .2.1.2.1.1.2.1.1.1.2.2.1.1.2.1.2 0 .2-.1 0-.1-.1-.1l-.1-.1c0-.1 0-.2-.1-.2-.3-.2-.4-.2-.5-.2z"/><path id="N" d="M152.5 60.2c-.1 0-.1.1-.1.2s.1.1.2.1h.7c.2 0 .4 0 .5-.1l.1-.1s-.1 0-.1-.1c-.2 0-.3-.1-.5-.1-.3-.1-.6-.1-.8.1z"/><path id="O" d="M155.9 60.3c-.2.1-.4.3-.6.4-.1.1-.3.1-.4.2s-.2.2-.2.4c.1.1.2.1.3.1s.2-.1.3-.2c.3-.3.8-.6 1.2-.7.1 0 .2 0 .2-.1.1-.1.1-.1 0-.2s-.3 0-.4 0-.3 0-.4.1z"/><path id="P" d="M48.2 1.9c-.5.1-.6.4-.9.4s-.9 0-.9.3.4.1.4.3 0 .3.2.4c.2 0 .6-.1 1 0 .3 0 .7-.3 1-.3s.9.1.8-.2-.3-.1-.6-.3c-.2-.2-.6-.7-1-.6z"/><path id="Q" d="M47.1 3.6c-.2.1.1.2 0 .4s.2.2.4.3.5 0 1 0c.4 0 1.3-.2 1.5 0 .3.2.2.2.6 0s.3-.5.7-.5.9-.4 1.3-.5c.5 0 .9 0 .9-.2s-.1-.5.2-.5 1.3 0 1.6-.1c.4-.1 1.3-.2 1.5-.4s.7-.3 1-.3 1.6-.1 1.8-.2.6-.1.6-.2-1-.2-1.5-.1c-.5 0-1.5-.1-2 0-.4.1-1.2.3-1.6.1s-1 .1-1.3 0-1 .2-1.2.2c-.3 0-.6-.2-.8-.2-.2.1-.7.2-.9.2s-1.4-.1-1.4.1.2.2.4.3.9.2 1.1.1c.3-.1 1-.1 1.3 0 .4.1 1.9-.3 1.6-.1-.3.1-.8.4-1.1.4s-1 0-1 .2-.4-.1-.8-.1-.9 0-.8.2.6.5.4.5-.7-.2-.9 0-.3.5-.5.4c-.2 0-.5-.1-.6 0-.2.1-.6.4-.7.4-.2 0-.5-.5-.8-.4z"/><path id="R" d="M14.5 19.8c-.3.1-.4.1-.3.3.2.2.4.4.5.6s.1.3.2.3.1.2.3.2.5-.3.3-.5-.1-.6-.4-.7c-.1.1-.3-.3-.6-.2z"/><path id="S" d="M51.8 19.4c-.3-.1-.8.6-.9.8-.2.2-.4.8-.6.8s-.5.1-.4.2-.5.3-.4.5.2.2.5.1.7.2.9.1c.2 0 .4-.1.6-.1s.4.1.3.1-.3.4-.2.4c.2 0 .7-.7.8-.7s.1-.6.2-.7c.2-.1.2-.4 0-.4s-.5.3-.7.2 0-.3-.2-.3c-.2-.1-.3-.1-.1-.3.1-.2.5-.5.2-.7z"/><path id="T" d="M77.8 16.9c-.3 0-.7-.2-.7.1-.1.3-.1.5-.4.5s-.8.1-.6.4c.2.2.5.3.4.5s-.7.4-.5.6c.1.2.6.3.9.1s.9-.1 1-.4.1-.8 0-.9c-.1-.2.5-.1.4-.5 0-.4-.2-.5-.5-.4z"/><path id="U" d="M85.7 25.3c-.1.1-.1.2-.1.3 0 0 0 .1.1.1.1.1.1.2.2.3 0 .1.1.1.2.1s.1-.1.1-.1v-.2c0-.2.1-.3.1-.5 0-.1 0-.1-.1-.2-.2-.1-.4.1-.5.2z"/><path id="V" d="M85.3 26.9c0-.1.1-.2.1-.3.1-.1.2-.2.3-.2s.2.2.3.3.1.3.1.4 0 .3-.1.4-.6.4-.6.2v-.3c0-.2-.1-.3-.1-.5z"/><path id="W" d="M93.3 28.3a.45.45 0 0 0-.5 0c-.1.1-.1.2 0 .4s.1.2.3.4.3.2.4.2c.1-.1 0-.4.1-.5.1 0 .1-.2 0-.3 0 0-.2-.2-.3-.2z"/><path id="X" d="M162.2 82.4c-.3 0-.4.1-.7-.1-.2-.1-.5-.1-.5 0 0 .2 0 .8-.2 1s-.1.4-.1.6c.1.1.4.3.6.2s.3-.4.6-.4.7-.8.9-.9.3-.3.3-.4c-.2-.2-.9 0-.9 0z"/><path id="Y" d="M172.1 84.7c-.3.2-1.5.8-1.3 1.1s.4.4.8.3 1.4-.6 1.8-1 .8-.7 1.3-.8c.4-.1.8-.5 1.2-.7s1.1-.6 1.1-.9-.2-.1-.3-.2c0-.1 0-.4-.2-.4s-1 .7-1.3.9-.5.6-1.1.8l-2 .9z"/><path id="Z" d="M177.9 82.3c.1-.1.4-.3.3-.5s-.4-.5-.1-.7c.2-.2.8-.4.9-.7.1-.4.5-.7.4-1s-.3-1 0-1.1c.3 0 .4.4.3.6-.1.3-.1.8 0 .7.2 0 .3-.3.4-.1.1.1-.3.4-.2.6s.3.4.5.3.7-.4.7-.1-.6.6-.8.9-.8.1-.9.4-.7.8-1 1c-.3.1-.6.5-.8.4-.2-.4.3-.7.3-.7z"/><path id="a" d="M154.4 18.1c-.2-.2-.3-.2-.3-.1-.1.1-.3.3 0 .6s.7.7 1 .9.7.9.8 1.1.4.9.6 1c.2.2.4.6.5.8s.2.5.4.5 0-.3.2-.3-.2-.5-.5-.7-.5-.6-.5-.8 0-.4.2-.4.3.1.4 0c0-.1-.5-.3-.9-.7s-1.2-.9-1.3-1.2-.6-.7-.6-.7z"/><path id="b" d="M157.6 23.3c.1-.1.6.5.8.5s.9.4 1.1.4.3-.1.5.2.4.5.2.5-.5.1-.5.3c0 .1 0 .4-.3.4-.2 0-.7-.5-1-.4-.2.1-.5 0-.4.1.1.2.6.2.4.3-.1.1-.2.3-.5 0s-.4-.5-.2-.6c.1-.1.4-.1.4-.3a1.8 1.8 0 0 0-.4-.9c-.1-.1-.2-.3-.1-.5z"/><path id="c" d="M155.3 31.3c-.1.1-.4.3-.2.4.1.1.4 0 .5.1.1.2.1.3.1.6s.1.2.3.5c.1.2.4.1.4-.2v-.6c0-.1-.1-.3-.3-.4-.2-.2-.6-.5-.8-.4z"/><path id="d" d="M152.4 41.6c-.2.1-.3.4-.3.6 0 .3.1 1 0 1.1s-.3.1-.2.3.2.7.4.7.3-.1.3.2.1.5.3.5.4 0 .4-.2c0-.3-.3-.4-.3-.7s.1-.5.3-.7.2-.6.1-.8-.1-.6-.2-.6-.2.1-.3 0c-.3-.3-.3-.5-.5-.4z"/><path id="e" d="M153.8 46.6c-.1.1-.1.2-.2.3 0 .1-.1.2 0 .2 0 .1.1.2.2.1 0 0 .1 0 .1-.1l.3-.3c.1 0 .1-.1.1-.2.1-.1-.3-.1-.5 0z"/><path id="f" d="M155.2 46.9s.1.1.1.2v.2c0 .1 0 .1.1.2h.2v-.2c-.1-.1-.1-.2-.1-.3s0-.2-.1-.2-.2 0-.2.1c-.2 0-.1 0 0 0z"/><path id="g" d="M154.3 47.2c-.1.1-.3.2-.3.4 0 .1 0 .3.1.3.1.1.2.1.4.1.1 0 .1 0 .1-.1v-.2c0-.1 0-.2.1-.3s.2-.1.2-.2-.1-.2-.2-.2c-.2 0-.3.1-.4.2z"/><path id="h" d="M151.2 48.2c0 .1-.1.1-.2.1-.1.1-.1.1-.1.2s.1.1.2.1.1-.1.1-.1c.1-.2.5-.2.5-.5 0-.1-.1-.2-.2-.2-.1.1-.2.3-.3.4z"/><path id="i" d="M154.8 48.6h-.3c-.1 0-.2.1-.2.1l-.3.3c0 .1-.1.1-.1.2-.1.2-.1.4 0 .7h.1c.1-.1.1-.2.1-.3v-.3c0-.1.1-.2.2-.2h.1c.1.1.3 0 .4-.1s.1-.3 0-.4z"/><path id="j" d="M152.8 54.9c-.2.1-.4.5-.4.7s-.3.4-.3.7 0 .4.2.4.1.2.1.4-.1.7-.1.9.1.3.3.3.3 0 .3-.2c0-.1-.1-1.7.2-1.8.3 0 .4.1.3.3s0 .3.1.4.2.3.2.5.2.1.3 0c.1-.2.3 0 .4-.1s-.4-.5-.3-.6c0-.2 0-.5-.2-.7s-.3-.4-.1-.4.5-.3.7-.5c.1-.2.1-.2.1-.3s-.6.2-.7.2-.4.3-.5.3c-.3-.1-.4-.6-.6-.5z"/><path id="k" d="M155.5 55.5c-.1 0-.1.1-.1.2s.1.1.2.1.2-.1.2 0c.1 0 .1.1.2.1 0 0 .1.1.2.1h.2v-.2c-.1-.1-.1-.1-.2-.1-.3-.1-.5-.2-.7-.2z"/><path id="l" d="M156.5 56.6c0 .1 0 .2.1.2s.2 0 .3.1l.1.1c.1 0 .1-.1.1-.1 0-.1-.1-.1-.1-.2s-.1-.1-.2-.1c-.1-.2-.3-.2-.3 0z"/><path id="m" d="M158 56.3c-.1-.1-.3 0-.3.1s0 .3.2.3c.1 0 .2 0 .4-.1s.4 0 .6.1c.1 0 .1.1.1.1.1 0 .1.1.2.1s.1-.1.1-.2c-.1-.2-.3-.4-.5-.4h-.4c-.1.2-.3.1-.4 0z"/><path id="n" d="M161.2 54.8c.1 0 .1 0 .1.1v.2c0 .1-.1.3-.1.5 0 .1-.1.2-.1.2-.1.1-.2.1-.2.1-.2.1-.5.2-.7 0-.3-.1-.3-.5-.6-.6h-.2c-.1 0-.1-.1-.1-.1 0-.1.1-.2.2-.2.3-.1.6-.3.8-.4h.3l.2.2c.1 0 .1.1.2.1s.1-.1.2-.1z"/><path id="o" d="M161.3 58.4v.2c0 .1-.1.1-.1.2s0 .2.1.3c0 0 .1.1.2.1s0-.1.1-.2c0-.1.1-.1.2-.2s.2-.2.1-.4c-.2-.3-.6-.4-.6 0z"/><path id="p" d="M159.3 59.8v.2c0 .1 0 .1.1.1s.1 0 .2-.1v-.2c0-.1.1-.2.2-.3.1 0 .2-.1.2-.1.1-.1.1-.2 0-.2h-.1s-.1 0-.1.1c-.1 0-.1.1-.2.1-.2 0-.3.2-.3.4z"/><path id="q" d="M161.4 56c-.2 0-.6.2-.9.2s-.4 0-.3.2.4.3.4.6.3-.1.4-.1.5 0 .7.1c.1.2.7.4 1.2.6.4.1.9.5 1 .9.1.3.4.6.2.8-.1.1-.9.6-.7.8s.7-.3.9-.2c.2 0 .7.5.9.7s.7.2 1 .2.5-.2.5-.3-.1-.2.1-.3.3-.5.6-.5.6.3.8.3.8 1.3 1.2 1.4c.5.1.8 0 1 .2.2.1.2.2.4.1s-.2-.5-.4-.6c-.2-.2-.4-.5-.6-.7s-.3-.6-.5-.7-.3-.6 0-.6.3-.2.3-.3c0-.2-.5-.3-.8-.4s-.3-.6-.5-.7l-2.1-1.1-1.4-.5c-.3-.1-.8-.5-1-.4-.3 0-.7.5-.9.5-.2.1-.3.7-.6.7-.5-.2-.5-.9-.9-.9z"/><path id="r" d="M174 58.3c-.1-.1-.2-.2-.3-.1-.1 0-.2.1-.1.2 0 .1.1.2.1.2l.2.2c0 .1.1.2.1.2 0 .1.1.2.1.2h.2c.1-.1.1-.2.1-.3s-.1-.2-.2-.3-.2-.2-.2-.3z"/><path id="s" d="M176.6 60.8c-.1 0-.2 0-.2.1s0 .1.1.2c.1 0 .1 0 .2.1.1 0 .2 0 .3.1h.1s.1 0 .1-.1v-.1s0-.1-.1-.1c-.1-.1-.1-.2-.2-.2-.1-.1-.2 0-.3 0z"/><path id="t" d="M90.5 2.3c-.2 0-.7 0-.6.2s.4 0 .4.3c0 .2.6.1.8.1.3 0 .8.2 1.1-.1.3-.2.6-.5.3-.5s-.4.1-.8.1-.7-.1-1.2-.1z"/><path id="u" d="M103.6 1.9c.2 0 .3-.1.5-.1s.4.2.6.2c.3 0 .6-.1.9-.1.1 0 .3.1.3.2s-.1.2-.3.2c-.1 0-.3-.1-.4-.1-.3-.1-.5 0-.8.1s-.6.1-1 .2c-.2 0-1 .2-.9-.2.1-.2.9-.3 1.1-.4z"/><path id="v" d="M111.4 5.9c-.1 0-.1 0-.2.1 0 0-.1.1 0 .2l.1.1h.3c.1 0 .1 0 .1-.1s0-.1-.1-.1h-.2c.1-.2.1-.2 0-.2z"/><path id="w" d="M138.5 4.6c-.2 0-.4-.1-.5-.1s-.3.1-.2.3c0 .1.2.2.3.2.2 0 .3.1.5.1.3.1.5.1.8.2h.3c.1 0 .2-.1.2-.2s-.1-.2-.2-.3l-.3-.3c-.2-.1-.2-.1-.3 0-.2.2-.4.1-.6.1z"/><path id="x" d="M140.3 4.6h-.2c-.1 0-.1.1-.1.2s.1.1.2.1.1 0 .2.1c.1 0 .1.1.1.1s.1.1.2.1.1 0 .1-.1v-.2c-.2-.1-.4-.2-.5-.3z"/><path id="y" d="M140.6 5.6h0c-.1.2-.1.3 0 .3.1.1.2 0 .3 0h.3c.1 0 .1 0 .2.1h.2c.1-.1.1-.2 0-.3s-.1-.1-.2-.1h-.6c0 0-.1-.1-.2 0z"/><path id="z" d="M142.6 4.9c-.2-.1-.5-.1-.7 0-.1 0-.1.1-.1.1 0 .1.1.1.1.2h.2c.1 0 .1-.1.2-.1.3-.1.5.2.7.2.1 0 .2 0 .2-.1 0 0 .1-.1.1-.2s-.1 0-.2 0-.3-.1-.5-.1z"/><path id="AA" d="M158.9 7c-.1 0-.2.1-.3.1-.1.1-.1.2 0 .3s.2.1.4 0c.1-.1.2-.1.4-.1s.3.2.5.2c.1 0 .2-.2.2-.3s-.2-.2-.3-.2h-.4c-.2-.1-.4-.1-.5 0z"/></defs></svg>