<svg xmlns="http://www.w3.org/2000/svg" viewBox="0 0 300 300" fill="#4e6a99" xmlns:v="https://vecta.io/nano"><path d="M219.1 134.9c-1.3 2.4-2.1 5.1-2.1 7.9-3.5-.3-6.9-.5-10.4-.7-7.5 17.4-22.6 30.9-41 36.3l-.5 13.7h-.1c-1.6 0-3.1.4-4.4 1l-3.1-12.9c-3.3.5-6.6.8-10.1.8-13.2 0-25.5-4-35.7-10.7l-5.2 3.6c-.8-1.4-2.1-2.5-3.6-3.1 1.2-1.5 2.3-3 3.3-4.5-12.1-10-20.4-24.2-22.7-40.5l-10.1-1.1c.4-.6.6-1.2.8-1.9.9-2.7 1-5.5.4-8.1l8.3-2.3c.6-10.1 3.6-19.7 8.4-28-2.9-3.9-5.9-7.9-9.1-11.7 1.5-.5 2.8-1.6 3.6-3l10.3 7.5C108 61.9 126.5 52.1 147.3 52c5 0 10 .6 14.7 1.7l3.9-9c2.1 1.8 4.7 3 7.6 3.5l-1.4 8.7c15.4 6.3 27.7 18.4 34.4 33.6 2.1-.7 4.1-1.5 6.2-2.3.7 2 2 3.7 3.5 5.1-2.4 1.3-4.7 2.7-7.1 4 1.9 6 2.9 12.4 2.9 19.1 0 5.6-.7 11-2 16.1 2.9.9 6.1 1.7 9.1 2.4z"/><path d="M217 142.9c.1-2.9.8-5.5 2.1-7.9 3.1-5.8 9.2-9.8 16.2-9.8 10.1 0 18.4 8.2 18.4 18.4s-8.3 18.4-18.4 18.4a18.35 18.35 0 0 1-18.4-18.4c0-.2 0-.5.1-.7zm-4.4-54.6c-.5-1.4-.8-2.8-.8-4.3 0-7 5.7-12.7 12.7-12.7S237.2 77 237.2 84s-5.7 12.7-12.7 12.7c-3.2 0-6.2-1.2-8.4-3.2-1.5-1.5-2.8-3.2-3.5-5.2zm-39.2-40.1c-2.9-.5-5.4-1.7-7.6-3.5-3.3-2.8-5.5-7.1-5.5-11.8 0-8.6 6.9-15.6 15.5-15.6s15.6 6.9 15.6 15.5-6.9 15.6-15.5 15.6c-.8 0-1.7 0-2.5-.2zm-6.2 77.1c5.7 0 10.4 4.6 10.4 10.4 0 5.7-4.6 10.4-10.4 10.4-5.7 0-10.3-4.6-10.3-10.4s4.6-10.4 10.3-10.4zm-2.1 66.8c5.4.1 9.7 4.4 9.7 9.8s-4.4 9.9-9.8 9.9-9.8-4.4-9.8-9.9c0-3.9 2.2-7.2 5.4-8.8 1.3-.7 2.8-1 4.4-1h.1zM123.4 81c14.7 0 26.6 11.9 26.6 26.6s-11.9 26.7-26.6 26.7-26.7-11.9-26.7-26.6c.1-14.8 12-26.7 26.7-26.7zm10.5 67.2c4.7 0 8.5 3.8 8.5 8.5s-3.8 8.5-8.5 8.5-8.5-3.8-8.5-8.5c.1-4.7 3.8-8.5 8.5-8.5zM103 170.8c1.5.6 2.8 1.7 3.6 3.1.8 1.2 1.2 2.5 1.2 4.1 0 4.3-3.5 7.8-7.8 7.8s-7.8-3.5-7.8-7.7c0-4.3 3.5-7.8 7.7-7.8 1.2-.1 2.2.1 3.1.5zm-17.1-101c-.8 1.4-2 2.5-3.6 3-.7.3-1.4.4-2.1.4-3.7 0-6.6-3-6.6-6.6 0-3.7 3-6.6 6.6-6.6s6.6 3 6.6 6.6c0 1.1-.4 2.2-.9 3.2zm-11.2 45c.6 2.6.5 5.4-.4 8.1-.2.7-.5 1.3-.8 1.9a15.21 15.21 0 0 1-18.4 7.7c-8-2.7-12.3-11.3-9.6-19.2 2.7-8 11.2-12.3 19.2-9.6 5.2 1.7 8.9 6 10 11.1zm70.7 134.7c0 16.9-13.7 30.7-30.6 30.7s-30.7-13.7-30.7-30.6 13.7-30.7 30.6-30.7c16.9-.1 30.7 13.6 30.7 30.6z"/><path d="M121.3 251.1a7.2 7.2 0 1 1 0 14.4c-4 0-7.3-3.2-7.3-7.2.1-3.9 3.3-7.1 7.3-7.2zm-17-22.5c6 0 10.8 4.8 10.8 10.8s-4.8 10.8-10.8 10.8-10.8-4.8-10.8-10.8 4.9-10.8 10.8-10.8z"/><circle cx="104.3" cy="260.9" r="4.7"/></svg>