<svg xmlns="http://www.w3.org/2000/svg" xmlns:xlink="http://www.w3.org/1999/xlink" viewBox="0 0 1000 1000" xmlns:v="https://vecta.io/nano"><style><![CDATA[.N{stroke-linejoin:round}.O{fill:none}.P{stroke:#441a36}.Q{stroke-width:6}.R{stroke-miterlimit:10}.S{stroke-linecap:round}.T{fill:#ffd7cf}.U{fill:#fff1e5}]]></style><path d="M0 0h1000v1000H0z" fill="#fff"/><ellipse cx="500" cy="823.2" rx="258.3" ry="45.2" fill="#e4e8ec"/><path d="M499.8 757.6h0c-114 0-206.6-92.3-206.6-206.6V311.2h413.2v239.7c.1 114-92.3 206.7-206.6 206.7z" class="U"/><path d="M499.8 729.1h0c-114 0-206.6-92.3-206.6-206.6V551c0 114 92.3 206.6 206.6 206.6h0c114 0 206.6-92.3 206.6-206.6v-28.5c.1 113.9-92.3 206.6-206.6 206.6z" class="T"/><path d="M499.8 757.6h0c-114 0-206.6-92.3-206.6-206.6V311.2h413.2v239.7c.1 114-92.3 206.7-206.6 206.7z" class="N O P Q R"/><path d="M708.1 335.1c-.7-11.1-1.3-22.6-1.6-33.7-137.5 6.5-275.7 5.6-412.9-6.5l-2.6 38.3 19 17 18.3 9.5c27.5 14.4 65.8 32.7 102.5 39.9 13.4 2.6 27.5 3.9 41.9 3.6 61.9-.7 114-25.2 135.9-35.4 3.3-1.6 5.9-2.9 7.5-3.3 1.3-.7 2.6-1 4.6-1 3.9 0 8.5 1 14.1 2 7.2 1.6 15.7 3.3 25.2 2.6 10.8-.7 20.6-3.9 30.1-10.2 5.6-7.7 11.8-15.2 18-22.8z" class="T"/><path d="M270.3 444.5h22.9v21.6h-22.9zm436.2 0h22.9v21.6h-22.9z" opacity=".34" fill="#231a17"/><use xlink:href="#B" fill="#d37157"/><g class="N O P Q R"><use xlink:href="#B"/><path d="M468.7 297.1s-177.5 11.5-215.1-82.8m240.3 60.2S323 263.7 278.4 169.4" class="S"/></g><path d="M706.5 440.6V548c22.9 0 41.3-23.9 41.3-53.7h0c-.1-29.8-18.4-53.7-41.3-53.7z" class="U"/><path d="M706.5 446.5v95.3c13.4-8.8 22.6-26.9 22.6-47.8h0c0-20.7-9.2-38.7-22.6-47.5z" class="T"/><path d="M706.5 440.6V548c22.9 0 41.3-23.9 41.3-53.7h0c-.1-29.8-18.4-53.7-41.3-53.7z" class="N O P Q R"/><path d="M293.5 440.6V548c-22.9 0-41.3-23.9-41.3-53.7h0c-.2-29.8 18.4-53.7 41.3-53.7z" class="U"/><path d="M293.5 448.4c-11.8 9.5-20 26.5-20 45.8h0c0 19.3 7.9 36.3 20 45.8v-91.6z" class="T"/><g class="O N"><g class="P Q R"><path d="M293.5 440.6V548c-22.9 0-41.3-23.9-41.3-53.7h0c-.2-29.8 18.4-53.7 41.3-53.7z"/><path d="M491.3 528l-13.8 44.9c0 4.9 16 1 32.4 4.9m58.7 34c4.9 34.1-39 64.2-73.3 58" class="S"/></g><ellipse cx="425.5" cy="475.3" rx="13.8" ry="14.7" stroke="#000" stroke-width="2"/></g><ellipse cx="425.5" cy="475.3" rx="13.8" ry="14.7" fill="#441a36"/><g class="N O"><path d="M378,444.2c6.9-8.2,22.9-13.8,41.9-13.8c15.1,0,28.2,3.6,36.3,9.2" class="P Q R S"/><ellipse cx="576.1" cy="475.3" rx="13.8" ry="14.7" stroke="#000" stroke-width="2"/></g><ellipse cx="576.1" cy="475.3" rx="13.8" ry="14.7" fill="#441a36"/><path d="M623.6 444.2c-6.9-8.2-22.9-13.8-41.9-13.8-15.1 0-28.2 3.6-36.3 9.2" class="N O P Q R S"/><use xlink:href="#C" fill="#a4fcef"/><g fill="#8fefdf"><path d="M499.7 683c-86.9 0-157.3-49.1-157.3-109.7v20.5c0 75.1 70.4 136 157.3 136S657 668.9 657 593.7h0v-20.5c0 60.6-70.4 109.8-157.3 109.8zM342.4 573.2h0z"/><path d="M657 573.2h0z"/></g><g class="N O Q R"><path d="M657,561.8c-104.7-9-210-9-314.6,0" opacity=".43" stroke="#fff" enable-background="new" class="S"/><g class="P"><use xlink:href="#C"/><path d="M380.4 591.1c23.8 11.8 68.3 19.7 119.3 19.7s95.5-7.9 119.3-19.7m-225.4 55.5c21.2 11.8 60.8 19.7 106.1 19.7s85-7.9 106.1-19.7m51.2-107l49.4-95.1V548s-19.4 59.9-61.8 98.6M343 539.6l-49.4-95.1V548s19.4 59.9 61.8 98.6" class="S"/></g></g><defs ><path id="B" d="M608.6 190.7s-165.4-109-302.2 12.8c-25.5 22.6-35.7 55-35.7 84.8v177.8h22.9V351.5c0-8.5 5.9-15.1 13.1-15.1h0c11.8 0 75.6 34.1 129.7 43.6 81.5 14.1 155.9-23.6 171.9-29.1 27.5-9.8 49.8 24.2 84.5-14.1h1.3c7.2 0 13.1 6.9 13.1 15.1v114.6H730V289.3c-.6-38.7-45.2-135.6-121.4-98.6z"/><path id="C" d="M657 593.7h0v-54.2a1836.21 1836.21 0 0 0-314.6 0v54.2c0 75.1 70.4 136 157.3 136S657 668.9 657 593.7h0z"/></defs></svg>