<svg xmlns="http://www.w3.org/2000/svg" viewBox="0 0 805 525" xmlns:v="https://vecta.io/nano"><g fill="#3f3d56"><path d="M214.6 120.7c-.2-2-.7-4-1.6-5.9-.2-.7-.7-1.3-1.3-1.7-.5-.1-.9-.1-1.3 0l-6.8 1.1c-.6 0-1.1.2-1.6.6-.9 1 0 2.4 0 3.8 0 1.5-1.3 2.7-2.7 3a16.21 16.21 0 0 1-4.4 0l-9.6-1.5c2.8-.9 5.4-2.6 7.2-4.9 1.2-1.5 2-4.3.1-5-.5-.1-1.1-.2-1.7-.1-4.4 0-7.8-3.5-11.8-5.1-5.4-1.8-11.2-.1-14.8 4.4l5.1.2c.5 0 1 .1 1.3.4 1.1 1-.2 2.7-.1 4.1.2 1.8 2.7 2.3 4.5 2.4s4.3 1.7 3.3 3.4c-9.4 3.3-19-6.3-28.9-5.1-2.4.2-4.9 1.2-7.3 2-14.9 3.8-30.4-6.3-45.5-4.1-3.4.6-6.7 1.5-10 2.6-2.1.7-4.3 1.5-5.7 3s-2.1 4.3-.6 6c-3.9.4-7.9 0-11.7-1.1 2.1 1.2 3.4 3.4 3.4 5.7-6.1 1-12.1 2.8-17.8 5.4 1.1 1.7 2.3 3.4 3.7 4.9l-7.8 5c2.7.6 4 4.3 2.4 6.5 2.7-1.2 4.4-4.4 7.3-5 2-.4 3.9.4 5.6 1.1s3.8 1.5 5.7.9c1.8-.6 3.3-2.9 2.1-4.5 8-2.3 16.2-3.7 24.6-3.9.6-.1 1.3 0 1.8.4 1.1.7.9 2.4.7 3.7-.1 1.2 1 3 2.2 2.4-1.3 1.2-.2 3.4 1.1 4.8 1.3 1.2 2.9 3 2.1 4.6-.2.5-.6.7-.7 1.2-.6 1.2.4 2.8 1.5 3.7s2.6 1.5 3.3 2.6c.7 1.2.5 3.3-1 3.4l-4-5.1c-1.3 1.5-2.3 3.2-2.7 5.1 4.3 3.4 4.9 10.5 1.3 14.6-1.8 2.1-4.4 3.4-6.6 5.1s-4.4 4-4.3 6.8c0 4.9-.4 9.3 1.5 13.8 3.3 8.3 7.2 16.3 11.6 24 1.1 2.1 2.6 4.3 4.9 4.6-2.9-7.1-5.6-14.4-7.9-21.7 1.5 0 3.3.1 4.1 1.3.7 1 .6 2.4.9 3.7.2 1.2.7 2.3 1.5 3.4l13.9 24.9c1.1 2.1 2.4 4.3 4.6 5.1 1.5.5 3 .5 4.4 1.2 1 .6 1.7 1.7 2.8 2.2 2.9 1.6 7.1-1.5 9.8.5.7.5 1.3 1.5 2 2.1 2.6 2.2 6.7.7 9.6 2.3 1.8 1.1 2.8 3.2 3.9 5.1 2.6 4.8 6.6 9.5 11.9 9.9 1.7.1 3.4-.2 5.1.1s3.3 1.8 3 3.5c-.5 2.9 1 6.1.6 8.9-.7 5.2-8.2 7.6-8.8 12.8-.1 1.1.1 2.3-.2 3.5-.4 1.3-1.3 2.6-1.7 3.9-.7 2.6 1.2 5.2 3.2 6.9 2.1 1.7 4.5 3.3 5.6 5.7 1.2 2.6.6 5.6 1 8.4.9 6.2 6.2 10.7 11.7 13.7 1.7.9 3.4 1.8 4.5 3.3 1.5 2.1 1.2 4.8 1.7 7.2 1.1 6 6.2 10.9 6.3 16.9.1 4.3-2.3 8.2-3.8 12.3-2.7 7.9-1.8 16.6 2.3 23.8 1.1 1.8 2.3 3.5 3.2 5.5 1.3 3.5.9 7.4 2.2 11 1.7 4.6 6.2 8.5 5.7 13.5 2.1 4.3 6.6 6.3 11.2 7.7l8.2 2.3c1.6.5 3.2.9 4.8.6 1.6-.2 3.2-1.6 3-3.3-4-.9-8.2-1.8-11.5-4.3s-5.6-6.8-4.3-10.7c.6-1.8 1.8-3.9.6-5.4-.7-.9-2-1.1-2.7-1.8-1.2-1.2-.7-3.3.1-4.8.9-1.5 2.1-2.8 2.4-4.5a4.57 4.57 0 0 0-2.2-4.9c1.5-.6 2.9-1.5 4-2.6 1.1-1.2 1.6-3 .7-4.5 2.4.4 5.5.5 7.1-1.5 1.3-1.5 1.2-3.8.7-5.7-.5-2-1.3-3.8-1.5-5.9 5.7.2 11.5.1 17.2-.6-.9-2.8-2.7-5.1-5.2-6.6 2.6-.5 5-3.5 5.7-6 .9-2.4.6-5.2.1-7.8-.2-.6-.2-1.3-.1-2.1.2-1 1.2-1.5 2.1-2l12.8-7.3c.7-.4 1.5-.9 2.1-1.5 1.3-1.6 1.1-4 .5-6-.7-2-1.8-3.8-2.1-5.9-.9-6.1 5.9-10.6 8-16.3.9-2.3 1.1-4.8 1.2-7.2.1-2.6.2-5.6-1.8-7.3-2-1.6-4.9-1.2-6.9-2.8-1.8-1.3-2.4-4-4.5-5.1-1.8-1-4.1-.4-6.1-.9-3.5-.9-5.9-5-9.5-5.4-2.1-.2-4.4.9-6.1-.4-1.5-1.1-1.6-3.2-1.8-5-1-5.7-5.5-10.2-11.2-11.3-2.1-.4-4.4-.2-6.2-1.3-1.8-1.2-2.7-3.4-4.1-5-2.3-2.7-6-3.5-9.4-4.4l-13.9-3.3c-2.4-.6-5.6-.9-6.9 1.2-.4.9-.6 1.7-.9 2.6-1 3.3-4 5.6-7.6 5.7-1.2-2-3-3.4-5.2-4-1.5-.4-2.9-.5-4.3-1-2.9-1.5-4.3-5-2.8-8 0-.1.1-.2.1-.2 1.7-2.9 1.1-6.6-1.2-9-2.3-2.1-5.9-2.7-9-2.4-.9-1.8.6-3.9 2.1-5.1s3.3-2.6 3.7-4.6c.5-3-3.4-5.5-6.5-4.5s-4.9 3.8-6.2 6.7c-.7 1.7-1.3 3.4-2.4 4.8-1.1 1.3-3 2.4-4.8 2-2.4-.6-3.4-3.5-4-6.1-.7-3.3-1.5-6.7-1.3-10.1.1-3.4 1.3-6.9 3.8-9.3 4.1-3.8 10.4-3.4 16-2.8-1.3-1.5-1-3.9.4-5.4a6.05 6.05 0 0 1 5.5-1.3c1.7.4 3.2 1.2 4.3 2.6 1.6 2 2.1 4.5 3.2 6.7 1.2 2.2 3.9 4 6.1 2.9 2-1 2.2-3.7 1.7-5.7-.5-2.1-1.5-4.1-1.3-6.2.4-4 4.5-6.6 8.3-8.2 3.8-1.7 8-3.9 8.7-8 0-.9.1-1.6.5-2.3.4-.6 1-1.2 1.7-1.6 10.9-7.2 21.9-14.5 34.4-18.4.6-.2.7 0 1.3-.1 1-.5.4-2-.6-2.6-.9-.6-2.1-1.1-2.3-2.1-.1-.7.2-1.5.4-2.3.2-2-2-3.7-3.8-2.9-1-1.3 1-2.8 2.6-3.3 4.8-1.3 9.8-2.1 14.8-2.4a3.21 3.21 0 0 1 1.7.2c.9.6.7 2 .1 2.7s-1.5 1.3-2.2 2.1c-1.6 1.6-2.3 4-1.6 6.2 2.6 1.3 5.4 2.7 8.3 2.2s5.5-3.7 4-6.2c-1.2-2.4-5-2.9-5.7-5.6-.7-3 3.7-5.9 2.7-8.9-.5-1.3-1.7-2.1-2.8-3-2.4-2.4-3.2-6.1-1.8-9.1-3.3.6-6.8-.5-9.1-2.9-2.2-2.2-3.9-5.7-7.1-5.6-2.8.1-5.4 3.4-8 2.4-.6-.2-1.3-.7-2-.5-.4.2-.7.7-.7 1.2-.7 3.3.5 6.9-1.3 9.8-2 3-6.3 3.5-8.8 6.2-1.2 1.5-1.7 3.5-2.9 5.1s-3.7 2.6-5 1.2c1.5-2.9.6-6.5-1.8-8.4-1.3-.9-2.7-1.6-4.1-2.1a25.95 25.95 0 0 1-4.6-2.6c-.7-.5-1.3-1.1-1.7-1.8-.4-1-.2-2 .1-2.9 1.5-4.1 5.1-7.2 9.4-7.8 1.8-.2 4-.1 5.2-1.6.6-.7 1-1.8 2-2.2.6-.1 1.2 0 1.8.2l6.9 2.4c.7.4 1.6.5 2.4.4.9-.1 1.5-.9 1.5-1.7-.2-1.1-2-1.7-1.8-2.9.1-.4.2-.7.6-1 5.1-5.4 12.3-8.3 19.8-7.8.9 1.5-.5 3.2-1.7 4.4-1.1 1.2-2.1 3.4-.7 4.4.6.2 1.2.5 1.8.4 1.7.2 3.4.7 4.9 1.5 2.4 1.1 4.8 2.2 7.1 3.4-.2-1.5-.4-3.2.1-4.5.6-1.5 2.2-2.6 3.7-2 1.3.5 2.1 2.3 3.5 2.6 2 .2 2.7-2.7 2-4.5s-2.4-3.3-2.6-5.2c-.1-1.3.4-2.9-.6-3.8-.4-.2-.9-.4-1.2-.5l-26.6-4.9c-1.6-.2-3.9-.1-3.9 1.6 0 .9.7 1.8.4 2.6-.4.9-1.6.9-2.6 1.1-1.3.5-2.1 2.2-2 3.7.2 1.5.9 2.8 1.7 4-1.6-.9-4.1-1-5.8-1.7zm-21.2-22.6c-3.4-1.1-7.2 0-9.4 2.8-.5.6-.9 1.3-.5 2 .5.9 1.8.5 2.8.2 1.5-.5 3-.6 4.5-.1 1 .4 1.7.9 2.7 1.2 1 .4 2 .2 2.8-.4.6-.6.7-1.7.7-2.6.1-.6-.1-1.2-.5-1.7-.4-.2-.7-.4-1.2-.4-1-.1-1.8-.7-2.4-1.5m10-2.1c-1.2-.1-2.2.9-2.3 2.1 0 .4 0 .7.2 1 1.1.4 2.3.4 3.5.2s2.2-1.1 2.4-2.3c-1.3.2-2.8 0-4-.7m32.4-4.7c-3.2.6-6.2 1.7-9 3 2.8 1.1 4.5 3.9 4.4 6.8-.1.6-.1 1.1 0 1.7.4.9 1.3 1.1 2.2 1.3 1.5.5 3.2.6 4.8.6 1.6-.1 3-1 3.9-2.4a11.33 11.33 0 0 1 .9-2c2.1-3 8 .6 10.2-2.3.7-1.1.7-2.7 1.7-3.4.5-.4 1.1-.6 1.7-.6 4.4-.9 8.8-1.5 13.3-2 2.1-.2 4.9-1 4.9-3-7.9-1.6-16.2-.5-23.4 3.2-2.6 1.3-6.1 4-8.5 2.3-1-.6-.9-2.4-2.2-3.2-1.8-.6-3.6-.4-4.9 0zm25.9 4.8l3.8.7a4.81 4.81 0 0 0-5 4.6v.6c3.5 1.2 7.3 0 11 .2s7.9 2.8 7.3 6.5c-.2 1.1-.9 2.2-.5 3.3.2.7.9 1.2 1.2 2 .7 1.5.1 3.3-.9 4.5s-2.3 2.3-3.2 3.8c-2.1 3.4-1 7.9.4 11.7.4 1.5 1.1 2.8 2 4 1.8 2 5 2.2 7.7 2.2 2 0 4.3-.1 5.6-1.6 1.7-2.1.5-5.1 1.6-7.6 1-2.2 3.5-3 5.7-3.8 4.1-1.2 8.4-2.2 12.3-4 4.9-2.2 9.5-5.7 14.9-6.1 1.5-.1 3 .1 4.5-.4 1.5-.4 2.8-1.7 2.7-3.2-.1-1.3-1.2-2.2-2.1-3.2s-1.5-2.4-.7-3.5l14.1-2.7c-1-2.7-1.8-6.3.5-8 .9-.6 2-.9 2.7-1.7 1.2-1.3.6-3.5-.7-4.8-1.3-1.1-3.3-1.3-5-1.6-6.2-.5-12.4-.1-18.7.1l-36.3 2c-2.4.1-5.2-.1-7.4.7-2 .7-3.3 2-5.4 2.4-4 1.2-8.4.6-12.1 2.9zm66.8 29.4c-.4 0-.7 0-1.1.2-.2.2-.4.5-.4.9-.2 1.3 0 2.8.9 3.9.7 1.2 2.2 1.8 3.5 1.7 1.7-.2 2.9-1.7 4.5-2.3 2.4-1.1 12.4-2.8 5.5-6.6-2.4-1.3-4-.1-5.9.7-2.1 1.3-4.5 1.8-7 1.5zm61.4-31.6c-.9.4-1.5 1-2 1.7a1.83 1.83 0 0 0 .6 2.3c.4.1.6.1 1 .1l3.3.1c1.5 0 3.2.4 3.5 1.7.2 1-.4 2.3.4 3 .4.2.7.4 1.1.5 1.1.2 2.2.4 3.3.1 2.4-.6 1.1-2.1 2-3.4 1.2-2 1-.9 3-2 1.5-.9 3.4-2.4 2.2-4.5-2.1-3.8-15.3-1.1-18.4.4zm65.4-1.9l-2 .2c-4.4.6-8.8 1.2-12.9 2.4 1.8.7 3.7 1.2 5.6 1.3 1.1 0 2.1.2 3.2.5 1.8.6 3.7 2 5.5 1.2 1.1-.5 1.5-1.6 2.4-2.2.6-.4 3-1.1 3.3-1.6 2.4-3.1-3.3-1.9-5.1-1.8zm8.6 8.8c-2.6 1.5-5 3.2-7.1 5.2-.9.9-1.8 2-1.7 3.2.1 1.7 1.8 2.6 3.4 3.3l6.2 2.6c.7-1.1.1-2.6-.7-3.5-.7-1-1.7-2.2-1.3-3.5.4-1.5 2.1-2 3.5-2.2 2.3-.4 8.8-.4 8-4.1-1.1-4.7-8-2.4-10.3-1zM462 355.3c-.6 1.7-.6 3.7.4 5.2 1.1 1.7 3.4 2.3 5.4 1.8s3.7-1.7 5-3.2c1.2-1.3 2.2-2.8 2.9-4.4a43.16 43.16 0 0 0 2.2-7.8l2-10c.5-2.2.4-9.1-3.7-6.8-1.1.6-3.8 5.5-4.9 6.8-2.1 2.4-2.4 4.9-3.5 7.9-1.7 3.6-4.6 6.7-5.8 10.5zm218 51.4c-1.3-.5-2.7-1.1-3.9-1.8-1.2 3.5-2 7.2-2 10.9l9.3-5.2c1.3-.7 2.9-1.8 2.9-3.5 0-.4-.1-.7-.5-1-.2-.1-.5-.1-.6-.1-1.3.1-2.6.7-3.9 1.2s-2.8.7-4 0m51.4 2.6c-1 .2-2 .6-2.9 1.1-2.1 1.1-3.5 3.2-5.5 4.5-1.8 1.3-4 2.1-6.2 2.8-.6.6-.4 1.7.4 2.2.7.4 1.6.6 2.4.6 2.2 0 4.6.1 6.6-1a18.56 18.56 0 0 0 3-2.4c2.3-2 5-3.2 7.8-4.4 1-.4 2-1 2.7-1.6 1.7-1.7 1.8-4.3-.6-4.9-1.9-.6-5.7 2.5-7.7 3.1z"/><path d="M750.3 395.8c.2-2.3-.6-4.6-2.3-6.3 0 2.3-.1 4.8-1.5 6.7-1 1.3-2.4 2.3-3.4 3.7-1 1.3-1.5 3.4-.2 4.5.7.6 1.7.9 2.7 1 2.4.2 5.1.5 6.8-1.3.9-1 1.3-2.3 2.4-3 .4-.1.7-.5 1.1-.7.5-.7-.2-1.7-1.1-2-.9-.2-1.7-.1-2.6-.4-.9-.2-1.6-1.2-1.2-2m-39-85.6c-1.2.2-2.6.4-3.8.2-2.1-.4-3.8-2-5.5-3.3-4-3-9-4.9-14.1-5-4.6-.1-9.4 1.2-13.9.2.2 1.7 1.7 2.9 3.3 3.7 1.5.7 3.2 1.1 4.8 1.8 2.4 1.2 4.4 3.2 5.5 5.7.5 1.1.9 2.4 1.6 3.4 1.5 2.1 4.4 2.4 6.9 2.3 3.3-.2 6.8-1.2 9.9.1 2.3 1 4 3 6 4.6s4.8 2.8 7.1 1.6c-4.9-1.6-8-6.1-8-11.1 2.2.2 8.7.1 8.3-3.7-.8-2.9-6.2-.9-8.1-.5zm-29.1 26c.4-2.2 2.6-4 1.8-6.2-.5-1.5-2.2-2.2-3.7-2.2s-3 .4-4.5.5h-2.9c-3 .5-4.9 3.7-7.7 4.8-1.7.7-3.7.6-5.5 1-4 1.1-6.7 4.9-9.5 8-4.6 5-10.6 8.5-17.2 10-2.3.5-4.8.9-6.7 2.4-2.4 2-3 5.4-3.5 8.5-1.5 8.5-3.8 16.9-6.8 25.1l9.6 1.2c1.8.2 3.8.5 5.5-.1 1.3-.5 2.6-1.1 3.7-2 4.3-2.7 9.1-4.4 14.1-5.1 2.6-.4 5.2-.4 7.6.5 2.4 1 4.4 3 4.6 5.6 2.1-.6 4.4-.1 6 1.5 1.5 1.6 2.6 3.5 2.8 5.6.2 1.3.5 2.9 1.7 3.4 1 .5 2.2 0 3.3-.1 3.8-.2 6.8 4 10.5 3.3 3.9-.9 4.9-6.7 8.8-7.8 2.2-.7 5.2.1 6.3-2 1-1.8-1-3.9-.7-5.9.2-2.4 3.2-3.5 5.5-4.6 7.8-3.7 11.5-14.1 7.7-21.9-2.2-4.6-6.6-8.2-7.4-13.3-.6-3.9.9-8.4-1.6-11.5-1.2-1.6-3.4-2.4-4.1-4.3-.5-1.2-.2-2.4-.5-3.8-.2-1.2-1.3-2.6-2.6-2.2-3.5 1-4.6 11.8-6.6 14.5-3 4.8-8.9 2.1-8-2.9zm-65.2-21.8c-1.2-.4-2.6-.7-3.7-.2s-1.8 2.2-.9 3c7.3-.2 14.5-.6 21.7.4 8.3 1.1 16.5 3.9 24.9 3.2-4.8-1.5-9.6-2.6-14.5-3.4L637 316c-2.2-.5-4.4-.9-6.6-1-4.6-.4-8.1.8-12.7-.4zm7.3-25.3c-.6 0-1.3-.1-1.7.4-.2.5 0 1.1-.1 1.7-.2.7-1.2 1-2 .9s-1.6-.4-2.3 0c-.7.5-1 1.5-.7 2.2.2.9.7 1.6 1.3 2.2 1 1.3 2.2 2.4 3.5 3.5 2.4 1.8 5.9 2.7 7.4 5.4a3.25 3.25 0 0 0 1 1.3c.7.5 1.7.1 2.6-.2l2.8-1.3c.5-.2 1-.5 1.3-.9.6-.9.2-2.2-.2-3-.5-.9-1.2-2-1.1-3 .2-2 2.7-2.7 3.8-4.4 1-1.7.4-3.8.5-5.9.1-2.3 1.6-5.2-.7-6.9-2-1.5-3.9-.1-5.2 1.5-3.3 3.2-4.7 6.9-10.2 6.5zm17.3-34.4c1 1.8 3 2.9 4 4.8 1.1 2 1 4.5 2.3 6.5 1.2 2 3.9 3 4.5 5.2.7 2.4-1 5.4.4 7.4 1.1 1.3 3 1.7 4.4.6.1 0 .1-.1.2-.1 1.2-1.3 1.2-3.4-.1-4.8-.9-.7-2.1-1.1-2.7-2-.4-.5-.6-1.1-.7-1.7-.4-1.8-.4-3.7.1-5.4.2-.5.2-1 .1-1.5-.4-1-1.6-1-2.4-1.5-2-1-2-3.8-1.6-6-.2 1.5-5.4-1-6-1.8-1.1-1.6-.5-4.8-.7-6.6-2.2 1.3-3 4.6-1.8 6.9zm-51.9 28.7c-1-1.1-2.4-2.2-3.7-1.6-1 .5-1.2 1.8-.9 2.8a6.11 6.11 0 0 0 2.1 2.4c2.7 2.2 5.5 4.1 7.8 6.7 4.1 4.5 6.3 10.7 10.9 14.9.9 1 2.1 1.6 3.4 1.8 1.3.1 2.8-.7 2.9-2.1.1-1.1-.6-2.1-1.3-2.8-1.7-2-3.7-3.7-5.4-5.6a4.59 4.59 0 0 1-1.3-2.8c0-1.1 1-2.2 2-2-1.2-.4-2.2-2.4-4-2.8-1.6-.4-2 .6-3.8-.1-3.5-1.4-6.3-6.1-8.7-8.8zM673 179.9c-1-.2-2-.6-2.9-1.1-2.6-.7-6.1 1.1-5.7 3.8.2 1.8 2 3 2.8 4.5 1.3 2.3 1 5.2.2 7.8-.1.9-.5 1.6-1 2.2-.6.7-1.5 1.2-2.3 1.7-3.5 2-6.6 4.6-9.1 7.8a2.27 2.27 0 0 0-.6 1.1c-.1.9.9 1.6 1.3 2.3 1.1 1.7.4 4 .5 6 0 .6.2 1.1.7 1.5.7.4 1.5-.2 2-1 1.2-2.3.4-5.9 2.7-6.9.5-.2 1-.2 1.2-.7.5-.6 0-1.6.2-2.3.4-1.1 1.8-1.2 3-1.1 2 .1 4-.2 6-.7.7-.1 1.5-.6 2-1.1.7-.9.6-2.1.5-3.2-.7-5.5-2.4-10.9-5.1-15.7 2.1.2 4.3.5 6.1-.6 1-.6 2.2-2.4 1.7-3.7-1-1.9-2.5-.3-4.2-.6z"/><path d="M409 210.4c.2 1.3.5 2.7 0 4-.5 1.2-1.8 2.3-3 2-1-.2-1.6-1.3-2.3-2.1-3.9-4.3-12.8-1.8-15.2-7.1-1-2.2-.4-4.8-1-6.9-.9-2.7-3.4-4.5-6.3-4.3-1.2.1-2.4.5-3.7 1.1-7.7 3-15.7 5.1-24 6-1.6.1-3.2.4-4.6.9-3.4 1.2-5.7 4.4-7.3 7.6-1.7 3.2-2.8 6.7-5.1 9.5-2.3 3-5.6 5.1-8.7 7.3-1.2.7-2.2 1.8-2.8 2.9-.6 1.3-.6 2.9-.6 4.4l.6 18.2c.1 2.3.1 4.8 1.2 6.8 1.3 2.6 3.9 4.4 5.7 6.7 1.8 2.4 2.8 5.4 2.7 8.3 0 1.2-.1 2.7.7 3.4.6.4 1.2.6 2 .6l24.6 2.1c4.4.4 9.1 1 11.9 4.3 1.3 1.6 2.4 3.8 4.5 4 .9.1 1.7-.2 2.6-.4 2.2-.1 4.1 1.5 5.4 3.4 1.8 2.8 2.7 6.2 2.4 9.5-.2 2.1-.9 4.1-1 6.3-.5 8 6.3 15 6.5 23.2.1 4.8-2.2 9.1-4.4 13.4 3.5 5.4.6 12.6 2.1 18.8 1.3 6 6.3 10.6 7.6 16.6.6 2.7.6 6.1 3 7.6 1.1.5 2.2.7 3.4.7 7.1.1 14.1-1.5 20.5-4.6 2.9-1.5 6.1-3.7 6.6-6.9.4-2.7-1-5.6.5-7.9 1.6-2.7 5.7-2.6 8.2-4.6 3.9-3.4.9-9.9 2.4-14.8 1.5-4.4 6.2-6.7 8.7-10.7 1-1.7 1.6-3.5 2-5.5a78.96 78.96 0 0 0 2.1-13.9c.1-2.8.2-5.7.6-8.5 2.6-16.1 18.4-26.8 23.7-42.2.5-1.5.7-3.4-.6-4.3-.7-.4-1.7-.5-2.4-.2l-11.3 1.5c-1.5.1-2.9.4-4.1-.2-1.3-.6-2.2-2.2-1.6-3.4 2-3.5-2.1-7.9-3.8-11.5-4.8-9.6-10.4-18.8-16.9-27.4-.4-.5-.7-1-.7-1.6l3.2.1c-1.1-3.9-2.9-8.2-6.7-9.6-2.2-.9-4.5-.5-6.8-.4-7-.2-14-1.2-20.5-2.2zm20-88c1.7 1.8 3.7 3.8 6.1 4 4.4.6 7.6-3.9 9.5-7.9.1 2.1 2 3.7 4 3.5 1.1-.1 2.1-.6 3-1.2 8.7-4.8 18.4-7.2 28.3-7.3a3.01 3.01 0 0 1 2.3-3.3c2-.4 3.8 1.3 4.8 3.2 1 1.8 1.6 3.9 3 5.2s4.5 1.3 5.1-.6c.6-1.8-1.3-3.4-3-4.6-1.6-1.1-3.3-3.2-2.2-4.8 8.3-1.8 16.6-3.7 25.1-4 1.5 0 2.9-.2 4.3-.7 1.3-.6 2.3-2.1 2-3.4-3.8.9-7.7-.6-10-3.8 11.8-1 24.3-1.8 34.7 3.8 1.2 2.7-5.1 4.9-3.4 7.3.5.7 1.6.9 2.6.9 7.2.1 14.5.2 21.7-.9 2.6-.4 5.2-1 7.9-.6 4.4.5 8.2 3.4 12.4 4.4 1.7.4 3.8.4 5.2-.6 1.5-1 2.1-3.3.9-4.6 4-4 10.9-3 16.1-1.1 5.2 2 10.4 5 16.1 5.4 4 .2 8.2-.7 12.2-.1 2.6.5 4.9 1.6 7.3 2.2 4.6 1.3 9.6 1 14.4 1.1 12.3.1 24.6 2.6 36.1 7.2 1.5.5 2.8 1.3 4 2.3 1.1 1.1 1.6 2.9.9 4.3l-11.8-1.7c1.1 2.2 4 2.6 6.3 3.3s4.8 3.3 3.4 5.4c-2.6-.9-4.9 1.7-6.1 4-1.3 2.3-2.8 5.1-5.5 5.2-2.4.1-5.2-2-6.8-.1 2.2 2.7 4 5.6 5.5 8.8 1.6 3.2 2.7 7.2.6 10.1-.4.5-.9.9-1.5 1.1-1.7.5-2.8-1.7-4-2.9-1.6-1.6-3.9-2.1-6-2.8s-4.3-2.2-4.4-4.4c-.1-1.3.6-2.7 1.1-3.9.9-2.1 1.3-4.4 1.1-6.7-.1-1.8-.6-3.8-2-5.1-1.3-1.3-3.7-1.7-5.1-.5-.6.6-1.2 1.5-2.1 1.5-1.6 0-2.7-2.6-3.9-1.7.1 1 0 2-.6 2.8-3.7 3.2-9.4 1.8-14 2.9-2.3.6-4.4 1.6-6.5 2.8-.7.4-1.3.9-1.8 1.6-.6 1.1 0 2.7 1.1 3.4s2.3 1.1 3.7 1.2c5.7 1.1 11.7 2.8 16.2 6.5s7.6 9.9 6.1 15.6L652 163c.5 4.6.7 9.1.7 13.8.1.9 0 1.8-.4 2.7-.9 1.8-3 2.4-5 2.8-2.1.4-3.5 2.4-3 4.5 0 .1.1.2.1.5.7 2.2 2.4 4 4 5.7s3 3.7 3.3 6.1c.2 2.3-1.6 5-3.9 4.8-1.8-.1-3-1.7-3.8-3.3-.7-1.6-1.2-3.4-2.3-4.8-3.4-4.1-11.1-2.3-14.3-6.7-1.6 1.8-2.2 4.3-1.5 6.6 1.5-.9 3.4-.1 4.5 1.2s1.6 2.9 2.4 4.4c1.1 2 2.9 3.8 3.2 6v2.6c.2 1.3 1.5 2.3 2.2 3.5 1.8 2.7 1.8 6.3.6 9.4s-3.4 5.6-5.5 8c-3.8 4.3-7.6 8.5-12.1 12.2-1.2 1-2.7 2.1-3.4 3.4-.7 1.5-.9 3.4.4 4.5-.9 0-2.4.5-3.3.5-.4-3.5-.4-6.9-.2-10.5-3.4-1.7-7.2 2.8-6.7 6.6s3.2 6.8 5.1 10.1c1.5 2.4 2.4 5.2 2 7.9-.5 2.8-2.9 5.2-5.7 5-4.4-.4-6.2-6.7-10.6-7.4-.4-.1-.7 0-1.1.1-.6.4-.7 1.2-.9 2-.1 3.7-.4 7.4 1.1 10.7 2.1 4.9 7.4 9 6.3 14.3-6.1-2.8-9.1-9.6-10.6-16.1s-1.7-13.4-4.3-19.5c-2 2.4-6 .5-7.8-2.2-1.7-2.4-2.7-5.4-4.4-7.8-1.6-2.6-4.1-4.8-7.2-4.9-3.2-.1-5.9 2-8.3 4-2 1.7-4 3.4-5.1 5.7-1.7 3.4-1.2 7.3-1.3 11.1-.1 4-1 8.4-3.8 11.3s-7.9 4-11 1.3c-1.6-1.3-2.3-3.5-3-5.5-3.3-9.6-6.1-19.5-8.3-29.5-.5 2.3-2.6 5.2-4.4 3.9-.5-.4-.7-.9-1-1.3-3.5-6.1-10.1-9.6-16.8-11.8s-13.7-3.2-20.4-5.6c-3.7-1.3-7.2-3-10.5-5.2-1.7 2.6-2 5.7-.5 8.5 1.5 2.6 4.8 4.1 7.6 3.2 1.5-.5 2.7-1.5 4.1-2s3.4-.2 4 1.1-.4 2.9.1 4.4c.7 2.2 3.9 2.3 5 4.3.9 1.5.1 3.4-1.1 4.5-1.2 1.2-2.8 1.8-4.3 2.6-4.8 2.7-8 7.1-12.2 10.6-4.1 3.5-10 6.1-14.9 3.8 1.2-6-6-10.4-7.2-16.2-.5-2-.2-4-.9-6-.9-2.8-3.3-4.6-5.4-6.7-4.9-5.1-7.6-12.1-7.2-19.3.1-2.4.6-5 0-7.3-.6-2.4-2.6-4.8-5-4.6-5.6.2-12.7.6-15.6-4.1-1.1-1.7-1.5-4.1 0-5.5 1.1-1 2.7-.9 4-.7l12.6 1.2c2.9.2 6.1.5 8.7-1 2.6-1.6 3.7-5.6 1.3-7.4-1.7-1.3-4.8-1.2-5.2-3.4-.4-1.7 1.6-3.8.5-5.2-.7-1.1-2.4-.7-3.4 0s-1.7 2-2.9 2.6c-2 1.1-4.4 0-6.6-.6-2.2-.7-5.1-.7-6.1 1.2-1.2 2.2 1.1 5.2-.1 7.4-1.6 2.9-6.7 1.3-8.9 3.9-2.4 2.9 1.7 7.3.9 11.1-2.2 1.1-4.8 1-6.8-.4-2-1.3-3-3.8-2.8-6.1.2-1.7 1.1-3.4.5-5-.5-1.3-1.8-2.1-2.9-2.7l-12.2-6.8c-1.1 2.1.2 4.8 2.1 6.3s4 2.8 5.2 4.9c1.6 3 .5 6.7-2.4 8.4-.4.2-.9.4-1.2.2-.4-.2-.7-.6-.7-1.1-2.2-5.5-5.4-11-10.6-13.9s-12.7-2.3-16.1 2.6c-.9 1.1-1.3 2.4-2.1 3.7-3.8 6.5-11.7 9.5-19.3 9.4-.7 0-1.5-.1-2.1-.5-1.2-.9-1.1-2.6-1-4l.7-6.2c.1-1.2.4-2.6 1.3-3.4 1.3-1.1 3.4-.4 5.1-.5 2.7-.1 5.1-2 6-4.6.7-2.7-.1-5.5-2.1-7.3-.9-.7-2-1.7-1.5-2.7.4-.6 1-1 1.6-1.1 3.2-1 6.6-1.2 9.6-2.2 3.2-1.1 6.1-3.3 6.8-6.6.2-1 .4-2.2 1.2-2.7.5-.2 1-.2 1.5-.2 3.5-.5 6.1-3.5 5.9-7.1 1.5-1.1 3.5-.2 5 .9s2.7 2.6 4.5 3c3.3.9 6.5-2.1 9.9-2.1 1.5 0 2.9.5 4.3 0 1.3-.5 2.2-1.8 3.2-2.8 1.1-1 2.9-1.6 3.9-.5l-.9-6.1c3.4.9 6.9.2 9.8-1.7l-10.6-3.5c-.4-.1-.7-.2-1-.5-.7-.9 0-2.1.6-3 1.5-2.3 1.7-6-.7-7.1-1.7-.7-3.7.1-5.2 1.1L396 131c-.2 1.5 1.6 2.3 2.7 3.3 1.8 1.7 2.1 4.5.4 6.3-.9 1-2.1 1.5-3.3 1.5 1 1.3 1.5 3 1 4.8l-5.2.4c-.6.1-1.2 0-1.7-.4-.6-.5-.5-1.3-.6-2.1-.4-1.8-2.1-3-3.8-3.3-1.8-.4-3.5.1-5.4.5-.7.2-1.6.2-2.3 0-.4-.2-.7-.7-.9-1.1-.7-1.8 0-4 1.2-5.6s2.9-2.8 4.5-4.1c3.7-3.2 6.3-7.3 7.7-11.9 2.9-1.2 5.9-2.8 8.8-4a27.4 27.4 0 0 1 14.4-2.8l9.8.2c2.9 0 5.9.1 8.5 1.2 2.7 1.1 5 3.5 5.2 6.3.1.6-.1 1.3-.6 1.8-.4.2-.9.2-1.2.2-2.4-.7-3.5.1-6.2.2zm-77.6 30.5c.7-.7 1.1-1.8.7-2.9-1.8-.7-4-.4-5.5 1.1-.6.6-1.1 1.2-1.5 2-1.2 2.1-2.4 4.6-1.7 6.9.1.5.5 1 .9 1.2.4.1.7.2 1.1.1l4.3-.2c.9-.1 1.8-.4 2.2-1.1.5-1.1-.6-2.2-.4-3.3.2-.5.5-1 .9-1.3.4-.4.6-.9.5-1.5-.1-.5-.9-.9-1.2-.4m7-10.1c-1.2-.2-2.6-.4-3.8-.2-.2 0-.6 0-.9.2-.2.1-.4.5-.5.7-.6 1.8.4 3.8 2.1 4.4.5.1.9.2 1.3.5 1.1.9.4 2.6.6 3.9.2 1.5 1.7 2.8 1.5 4.3-.2 1.2-1.5 2.2-1.3 3.3.2 1.2 1.8 1.6 3 1.7.7.1 1.5 0 2.2-.2.7-.5 1.2-1.2 1.3-2 .5-1.6.7-3.2.6-4.8a4.99 4.99 0 0 0-.5-2.1c-.4-.5-.9-1-1.2-1.5-2.3-2.7.2-6.9-4.4-8.2z"/></g><g fill="none" stroke="#4e6a99" stroke-width="2" stroke-miterlimit="10"><path d="M677.2 364.1s-185.4-106.4-265.3-86.3c0 0-169.2 18.2-188.9 58.3 0 0-53.8-168.1-73.4-173.7" opacity=".8" enable-background="new"/><path d="M223 336c31.1-82.9 311.3-174.8 311.3-174.8-39.7 10.1-122.4 116.6-122.4 116.6S237 150.6 149.6 162.3c0 0 384.9 12.6 527.6 201.7" opacity=".8" enable-background="new"/></g><g fill="#4e6a99"><circle cx="149.6" cy="162.4" r="8.2"/><circle cx="223" cy="336" r="8.2"/><circle cx="534.3" cy="161.3" r="8.2"/><circle cx="677.2" cy="364.1" r="8.2"/><circle cx="411.9" cy="277.7" r="8.2"/></g></svg>