<?xml version="1.0" encoding="utf-8"?>
<!-- Generator: Adobe Illustrator 21.0.0, SVG Export Plug-In . SVG Version: 6.00 Build 0)  -->
<svg version="1.1" id="Layer_1" xmlns="http://www.w3.org/2000/svg" xmlns:xlink="http://www.w3.org/1999/xlink" x="0px" y="0px"
	 viewBox="0 0 805 525" style="enable-background:new 0 0 805 525;" xml:space="preserve">
<style type="text/css">
	.st0{fill:#3F3D56;}
	.st1{opacity:0.8;fill:none;stroke:#4E6A99;stroke-width:2;stroke-miterlimit:10;enable-background:new    ;}
	.st2{fill:#4E6A99;}
</style>
<path class="st0" d="M214.6,120.7c-0.2-2-0.7-4-1.6-5.9c-0.2-0.7-0.7-1.3-1.3-1.7c-0.5-0.1-0.9-0.1-1.3,0l-6.8,1.1
	c-0.6,0-1.1,0.2-1.6,0.6c-0.9,1,0,2.4,0,3.8c0,1.5-1.3,2.7-2.7,3c-1.5,0.2-2.9,0.2-4.4,0l-9.6-1.5c2.8-0.9,5.4-2.6,7.2-4.9
	c1.2-1.5,2-4.3,0.1-5c-0.5-0.1-1.1-0.2-1.7-0.1c-4.4,0-7.8-3.5-11.8-5.1c-5.4-1.8-11.2-0.1-14.8,4.4l5.1,0.2c0.5,0,1,0.1,1.3,0.4
	c1.1,1-0.2,2.7-0.1,4.1c0.2,1.8,2.7,2.3,4.5,2.4s4.3,1.7,3.3,3.4c-9.4,3.3-19-6.3-28.9-5.1c-2.4,0.2-4.9,1.2-7.3,2
	c-14.9,3.8-30.4-6.3-45.5-4.1c-3.4,0.6-6.7,1.5-10,2.6c-2.1,0.7-4.3,1.5-5.7,3s-2.1,4.3-0.6,6c-3.9,0.4-7.9,0-11.7-1.1
	c2.1,1.2,3.4,3.4,3.4,5.7c-6.1,1-12.1,2.8-17.8,5.4c1.1,1.7,2.3,3.4,3.7,4.9l-7.8,5c2.7,0.6,4,4.3,2.4,6.5c2.7-1.2,4.4-4.4,7.3-5
	c2-0.4,3.9,0.4,5.6,1.1c1.7,0.7,3.8,1.5,5.7,0.9c1.8-0.6,3.3-2.9,2.1-4.5c8-2.3,16.2-3.7,24.6-3.9c0.6-0.1,1.3,0,1.8,0.4
	c1.1,0.7,0.9,2.4,0.7,3.7c-0.1,1.2,1,3,2.2,2.4c-1.3,1.2-0.2,3.4,1.1,4.8c1.3,1.2,2.9,3,2.1,4.6c-0.2,0.5-0.6,0.7-0.7,1.2
	c-0.6,1.2,0.4,2.8,1.5,3.7c1.1,0.9,2.6,1.5,3.3,2.6c0.7,1.2,0.5,3.3-1,3.4l-4-5.1c-1.3,1.5-2.3,3.2-2.7,5.1
	c4.3,3.4,4.9,10.5,1.3,14.6c-1.8,2.1-4.4,3.4-6.6,5.1c-2.2,1.7-4.4,4-4.3,6.8c0,4.9-0.4,9.3,1.5,13.8c3.3,8.3,7.2,16.3,11.6,24
	c1.1,2.1,2.6,4.3,4.9,4.6c-2.9-7.1-5.6-14.4-7.9-21.7c1.5,0,3.3,0.1,4.1,1.3c0.7,1,0.6,2.4,0.9,3.7c0.2,1.2,0.7,2.3,1.5,3.4
	l13.9,24.9c1.1,2.1,2.4,4.3,4.6,5.1c1.5,0.5,3,0.5,4.4,1.2c1,0.6,1.7,1.7,2.8,2.2c2.9,1.6,7.1-1.5,9.8,0.5c0.7,0.5,1.3,1.5,2,2.1
	c2.6,2.2,6.7,0.7,9.6,2.3c1.8,1.1,2.8,3.2,3.9,5.1c2.6,4.8,6.6,9.5,11.9,9.9c1.7,0.1,3.4-0.2,5.1,0.1s3.3,1.8,3,3.5
	c-0.5,2.9,1,6.1,0.6,8.9c-0.7,5.2-8.2,7.6-8.8,12.8c-0.1,1.1,0.1,2.3-0.2,3.5c-0.4,1.3-1.3,2.6-1.7,3.9c-0.7,2.6,1.2,5.2,3.2,6.9
	c2.1,1.7,4.5,3.3,5.6,5.7c1.2,2.6,0.6,5.6,1,8.4c0.9,6.2,6.2,10.7,11.7,13.7c1.7,0.9,3.4,1.8,4.5,3.3c1.5,2.1,1.2,4.8,1.7,7.2
	c1.1,6,6.2,10.9,6.3,16.9c0.1,4.3-2.3,8.2-3.8,12.3c-2.7,7.9-1.8,16.6,2.3,23.8c1.1,1.8,2.3,3.5,3.2,5.5c1.3,3.5,0.9,7.4,2.2,11
	c1.7,4.6,6.2,8.5,5.7,13.5c2.1,4.3,6.6,6.3,11.2,7.7l8.2,2.3c1.6,0.5,3.2,0.9,4.8,0.6c1.6-0.2,3.2-1.6,3-3.3
	c-4-0.9-8.2-1.8-11.5-4.3s-5.6-6.8-4.3-10.7c0.6-1.8,1.8-3.9,0.6-5.4c-0.7-0.9-2-1.1-2.7-1.8c-1.2-1.2-0.7-3.3,0.1-4.8
	c0.9-1.5,2.1-2.8,2.4-4.5c0.4-2-0.5-3.9-2.2-4.9c1.5-0.6,2.9-1.5,4-2.6c1.1-1.2,1.6-3,0.7-4.5c2.4,0.4,5.5,0.5,7.1-1.5
	c1.3-1.5,1.2-3.8,0.7-5.7c-0.5-2-1.3-3.8-1.5-5.9c5.7,0.2,11.5,0.1,17.2-0.6c-0.9-2.8-2.7-5.1-5.2-6.6c2.6-0.5,5-3.5,5.7-6
	c0.9-2.4,0.6-5.2,0.1-7.8c-0.2-0.6-0.2-1.3-0.1-2.1c0.2-1,1.2-1.5,2.1-2l12.8-7.3c0.7-0.4,1.5-0.9,2.1-1.5c1.3-1.6,1.1-4,0.5-6
	c-0.7-2-1.8-3.8-2.1-5.9c-0.9-6.1,5.9-10.6,8-16.3c0.9-2.3,1.1-4.8,1.2-7.2c0.1-2.6,0.2-5.6-1.8-7.3c-2-1.6-4.9-1.2-6.9-2.8
	c-1.8-1.3-2.4-4-4.5-5.1c-1.8-1-4.1-0.4-6.1-0.9c-3.5-0.9-5.9-5-9.5-5.4c-2.1-0.2-4.4,0.9-6.1-0.4c-1.5-1.1-1.6-3.2-1.8-5
	c-1-5.7-5.5-10.2-11.2-11.3c-2.1-0.4-4.4-0.2-6.2-1.3c-1.8-1.2-2.7-3.4-4.1-5c-2.3-2.7-6-3.5-9.4-4.4l-13.9-3.3
	c-2.4-0.6-5.6-0.9-6.9,1.2c-0.4,0.9-0.6,1.7-0.9,2.6c-1,3.3-4,5.6-7.6,5.7c-1.2-2-3-3.4-5.2-4c-1.5-0.4-2.9-0.5-4.3-1
	c-2.9-1.5-4.3-5-2.8-8c0-0.1,0.1-0.2,0.1-0.2c1.7-2.9,1.1-6.6-1.2-9c-2.3-2.1-5.9-2.7-9-2.4c-0.9-1.8,0.6-3.9,2.1-5.1
	c1.5-1.2,3.3-2.6,3.7-4.6c0.5-3-3.4-5.5-6.5-4.5s-4.9,3.8-6.2,6.7c-0.7,1.7-1.3,3.4-2.4,4.8c-1.1,1.3-3,2.4-4.8,2
	c-2.4-0.6-3.4-3.5-4-6.1c-0.7-3.3-1.5-6.7-1.3-10.1c0.1-3.4,1.3-6.9,3.8-9.3c4.1-3.8,10.4-3.4,16-2.8c-1.3-1.5-1-3.9,0.4-5.4
	c1.5-1.3,3.5-1.8,5.5-1.3c1.7,0.4,3.2,1.2,4.3,2.6c1.6,2,2.1,4.5,3.2,6.7c1.2,2.2,3.9,4,6.1,2.9c2-1,2.2-3.7,1.7-5.7
	c-0.5-2.1-1.5-4.1-1.3-6.2c0.4-4,4.5-6.6,8.3-8.2c3.8-1.7,8-3.9,8.7-8c0-0.9,0.1-1.6,0.5-2.3c0.4-0.6,1-1.2,1.7-1.6
	c10.9-7.2,21.9-14.5,34.4-18.4c0.6-0.2,0.7,0,1.3-0.1c1-0.5,0.4-2-0.6-2.6c-0.9-0.6-2.1-1.1-2.3-2.1c-0.1-0.7,0.2-1.5,0.4-2.3
	c0.2-2-2-3.7-3.8-2.9c-1-1.3,1-2.8,2.6-3.3c4.8-1.3,9.8-2.1,14.8-2.4c0.6-0.1,1.2,0,1.7,0.2c0.9,0.6,0.7,2,0.1,2.7s-1.5,1.3-2.2,2.1
	c-1.6,1.6-2.3,4-1.6,6.2c2.6,1.3,5.4,2.7,8.3,2.2c2.9-0.5,5.5-3.7,4-6.2c-1.2-2.4-5-2.9-5.7-5.6c-0.7-3,3.7-5.9,2.7-8.9
	c-0.5-1.3-1.7-2.1-2.8-3c-2.4-2.4-3.2-6.1-1.8-9.1c-3.3,0.6-6.8-0.5-9.1-2.9c-2.2-2.2-3.9-5.7-7.1-5.6c-2.8,0.1-5.4,3.4-8,2.4
	c-0.6-0.2-1.3-0.7-2-0.5c-0.4,0.2-0.7,0.7-0.7,1.2c-0.7,3.3,0.5,6.9-1.3,9.8c-2,3-6.3,3.5-8.8,6.2c-1.2,1.5-1.7,3.5-2.9,5.1
	c-1.2,1.6-3.7,2.6-5,1.2c1.5-2.9,0.6-6.5-1.8-8.4c-1.3-0.9-2.7-1.6-4.1-2.1c-1.6-0.7-3.2-1.6-4.6-2.6c-0.7-0.5-1.3-1.1-1.7-1.8
	c-0.4-1-0.2-2,0.1-2.9c1.5-4.1,5.1-7.2,9.4-7.8c1.8-0.2,4-0.1,5.2-1.6c0.6-0.7,1-1.8,2-2.2c0.6-0.1,1.2,0,1.8,0.2l6.9,2.4
	c0.7,0.4,1.6,0.5,2.4,0.4c0.9-0.1,1.5-0.9,1.5-1.7c-0.2-1.1-2-1.7-1.8-2.9c0.1-0.4,0.2-0.7,0.6-1c5.1-5.4,12.3-8.3,19.8-7.8
	c0.9,1.5-0.5,3.2-1.7,4.4c-1.1,1.2-2.1,3.4-0.7,4.4c0.6,0.2,1.2,0.5,1.8,0.4c1.7,0.2,3.4,0.7,4.9,1.5c2.4,1.1,4.8,2.2,7.1,3.4
	c-0.2-1.5-0.4-3.2,0.1-4.5c0.6-1.5,2.2-2.6,3.7-2c1.3,0.5,2.1,2.3,3.5,2.6c2,0.2,2.7-2.7,2-4.5c-0.7-1.8-2.4-3.3-2.6-5.2
	c-0.1-1.3,0.4-2.9-0.6-3.8c-0.4-0.2-0.9-0.4-1.2-0.5l-26.6-4.9c-1.6-0.2-3.9-0.1-3.9,1.6c0,0.9,0.7,1.8,0.4,2.6
	c-0.4,0.9-1.6,0.9-2.6,1.1c-1.3,0.5-2.1,2.2-2,3.7c0.2,1.5,0.9,2.8,1.7,4C218.8,121.5,216.3,121.4,214.6,120.7z"/>
<path class="st0" d="M193.4,98.1c-3.4-1.1-7.2,0-9.4,2.8c-0.5,0.6-0.9,1.3-0.5,2c0.5,0.9,1.8,0.5,2.8,0.2c1.5-0.5,3-0.6,4.5-0.1
	c1,0.4,1.7,0.9,2.7,1.2c1,0.4,2,0.2,2.8-0.4c0.6-0.6,0.7-1.7,0.7-2.6c0.1-0.6-0.1-1.2-0.5-1.7c-0.4-0.2-0.7-0.4-1.2-0.4
	c-1-0.1-1.8-0.7-2.4-1.5"/>
<path class="st0" d="M202.9,95.5c-1.2-0.1-2.2,0.9-2.3,2.1c0,0.4,0,0.7,0.2,1c1.1,0.4,2.3,0.4,3.5,0.2c1.2-0.2,2.2-1.1,2.4-2.3
	c-1.3,0.2-2.8,0-4-0.7"/>
<path class="st0" d="M235.1,91.1c-3.2,0.6-6.2,1.7-9,3c2.8,1.1,4.5,3.9,4.4,6.8c-0.1,0.6-0.1,1.1,0,1.7c0.4,0.9,1.3,1.1,2.2,1.3
	c1.5,0.5,3.2,0.6,4.8,0.6c1.6-0.1,3-1,3.9-2.4c0.2-0.6,0.5-1.3,0.9-2c2.1-3,8,0.6,10.2-2.3c0.7-1.1,0.7-2.7,1.7-3.4
	c0.5-0.4,1.1-0.6,1.7-0.6c4.4-0.9,8.8-1.5,13.3-2c2.1-0.2,4.9-1,4.9-3c-7.9-1.6-16.2-0.5-23.4,3.2c-2.6,1.3-6.1,4-8.5,2.3
	c-1-0.6-0.9-2.4-2.2-3.2C238.2,90.5,236.4,90.7,235.1,91.1z"/>
<path class="st0" d="M261,95.9l3.8,0.7c-2.7-0.1-4.9,2-5,4.6c0,0.2,0,0.4,0,0.6c3.5,1.2,7.3,0,11,0.2c3.7,0.2,7.9,2.8,7.3,6.5
	c-0.2,1.1-0.9,2.2-0.5,3.3c0.2,0.7,0.9,1.2,1.2,2c0.7,1.5,0.1,3.3-0.9,4.5c-1,1.2-2.3,2.3-3.2,3.8c-2.1,3.4-1,7.9,0.4,11.7
	c0.4,1.5,1.1,2.8,2,4c1.8,2,5,2.2,7.7,2.2c2,0,4.3-0.1,5.6-1.6c1.7-2.1,0.5-5.1,1.6-7.6c1-2.2,3.5-3,5.7-3.8c4.1-1.2,8.4-2.2,12.3-4
	c4.9-2.2,9.5-5.7,14.9-6.1c1.5-0.1,3,0.1,4.5-0.4c1.5-0.4,2.8-1.7,2.7-3.2c-0.1-1.3-1.2-2.2-2.1-3.2s-1.5-2.4-0.7-3.5l14.1-2.7
	c-1-2.7-1.8-6.3,0.5-8c0.9-0.6,2-0.9,2.7-1.7c1.2-1.3,0.6-3.5-0.7-4.8c-1.3-1.1-3.3-1.3-5-1.6c-6.2-0.5-12.4-0.1-18.7,0.1
	c-12.1,0.6-24.3,1.3-36.3,2c-2.4,0.1-5.2-0.1-7.4,0.7c-2,0.7-3.3,2-5.4,2.4C269.1,94.2,264.7,93.6,261,95.9z"/>
<path class="st0" d="M327.8,125.3c-0.4,0-0.7,0-1.1,0.2c-0.2,0.2-0.4,0.5-0.4,0.9c-0.2,1.3,0,2.8,0.9,3.9c0.7,1.2,2.2,1.8,3.5,1.7
	c1.7-0.2,2.9-1.7,4.5-2.3c2.4-1.1,12.4-2.8,5.5-6.6c-2.4-1.3-4-0.1-5.9,0.7C332.7,125.1,330.3,125.6,327.8,125.3z"/>
<path class="st0" d="M389.2,93.7c-0.9,0.4-1.5,1-2,1.7c-0.4,0.9-0.1,1.8,0.6,2.3c0.4,0.1,0.6,0.1,1,0.1l3.3,0.1
	c1.5,0,3.2,0.4,3.5,1.7c0.2,1-0.4,2.3,0.4,3c0.4,0.2,0.7,0.4,1.1,0.5c1.1,0.2,2.2,0.4,3.3,0.1c2.4-0.6,1.1-2.1,2-3.4
	c1.2-2,1-0.9,3-2c1.5-0.9,3.4-2.4,2.2-4.5C405.5,89.5,392.3,92.2,389.2,93.7z"/>
<path class="st0" d="M454.6,91.8l-2,0.2c-4.4,0.6-8.8,1.2-12.9,2.4c1.8,0.7,3.7,1.2,5.6,1.3c1.1,0,2.1,0.2,3.2,0.5
	c1.8,0.6,3.7,2,5.5,1.2c1.1-0.5,1.5-1.6,2.4-2.2c0.6-0.4,3-1.1,3.3-1.6C462.1,90.5,456.4,91.7,454.6,91.8z"/>
<path class="st0" d="M463.2,100.6c-2.6,1.5-5,3.2-7.1,5.2c-0.9,0.9-1.8,2-1.7,3.2c0.1,1.7,1.8,2.6,3.4,3.3l6.2,2.6
	c0.7-1.1,0.1-2.6-0.7-3.5c-0.7-1-1.7-2.2-1.3-3.5c0.4-1.5,2.1-2,3.5-2.2c2.3-0.4,8.8-0.4,8-4.1C472.4,96.9,465.5,99.2,463.2,100.6z"
	/>
<path class="st0" d="M462,355.3c-0.6,1.7-0.6,3.7,0.4,5.2c1.1,1.7,3.4,2.3,5.4,1.8c2-0.5,3.7-1.7,5-3.2c1.2-1.3,2.2-2.8,2.9-4.4
	c1-2.6,1.7-5.1,2.2-7.8l2-10c0.5-2.2,0.4-9.1-3.7-6.8c-1.1,0.6-3.8,5.5-4.9,6.8c-2.1,2.4-2.4,4.9-3.5,7.9
	C466.1,348.4,463.2,351.5,462,355.3z"/>
<path class="st0" d="M680,406.7c-1.3-0.5-2.7-1.1-3.9-1.8c-1.2,3.5-2,7.2-2,10.9l9.3-5.2c1.3-0.7,2.9-1.8,2.9-3.5
	c0-0.4-0.1-0.7-0.5-1c-0.2-0.1-0.5-0.1-0.6-0.1c-1.3,0.1-2.6,0.7-3.9,1.2c-1.3,0.5-2.8,0.7-4,0"/>
<path class="st0" d="M728.7,409.8c-1,0.2-2,0.6-2.9,1.1c-2.1,1.1-3.5,3.2-5.5,4.5c-1.8,1.3-4,2.1-6.2,2.8c-0.6,0.6-0.4,1.7,0.4,2.2
	c0.7,0.4,1.6,0.6,2.4,0.6c2.2,0,4.6,0.1,6.6-1c1.1-0.7,2.2-1.6,3-2.4c2.3-2,5-3.2,7.8-4.4c1-0.4,2-1,2.7-1.6
	c1.7-1.7,1.8-4.3-0.6-4.9C734.5,406.1,730.7,409.2,728.7,409.8z"/>
<path class="st0" d="M750.3,395.8c0.2-2.3-0.6-4.6-2.3-6.3c0,2.3-0.1,4.8-1.5,6.7c-1,1.3-2.4,2.3-3.4,3.7c-1,1.3-1.5,3.4-0.2,4.5
	c0.7,0.6,1.7,0.9,2.7,1c2.4,0.2,5.1,0.5,6.8-1.3c0.9-1,1.3-2.3,2.4-3c0.4-0.1,0.7-0.5,1.1-0.7c0.5-0.7-0.2-1.7-1.1-2
	c-0.9-0.2-1.7-0.1-2.6-0.4c-0.9-0.2-1.6-1.2-1.2-2"/>
<path class="st0" d="M712,310.4c-1.2,0.2-2.6,0.4-3.8,0.2c-2.1-0.4-3.8-2-5.5-3.3c-4-3-9-4.9-14.1-5c-4.6-0.1-9.4,1.2-13.9,0.2
	c0.2,1.7,1.7,2.9,3.3,3.7c1.5,0.7,3.2,1.1,4.8,1.8c2.4,1.2,4.4,3.2,5.5,5.7c0.5,1.1,0.9,2.4,1.6,3.4c1.5,2.1,4.4,2.4,6.9,2.3
	c3.3-0.2,6.8-1.2,9.9,0.1c2.3,1,4,3,6,4.6c2,1.6,4.8,2.8,7.1,1.6c-4.9-1.6-8-6.1-8-11.1c2.2,0.2,8.7,0.1,8.3-3.7
	C719.3,308,713.9,310,712,310.4z"/>
<path class="st0" d="M682.9,336.4c0.4-2.2,2.6-4,1.8-6.2c-0.5-1.5-2.2-2.2-3.7-2.2c-1.5,0-3,0.4-4.5,0.5c-1,0-2,0-2.9,0
	c-3,0.5-4.9,3.7-7.7,4.8c-1.7,0.7-3.7,0.6-5.5,1c-4,1.1-6.7,4.9-9.5,8c-4.6,5-10.6,8.5-17.2,10c-2.3,0.5-4.8,0.9-6.7,2.4
	c-2.4,2-3,5.4-3.5,8.5c-1.5,8.5-3.8,16.9-6.8,25.1l9.6,1.2c1.8,0.2,3.8,0.5,5.5-0.1c1.3-0.5,2.6-1.1,3.7-2c4.3-2.7,9.1-4.4,14.1-5.1
	c2.6-0.4,5.2-0.4,7.6,0.5c2.4,1,4.4,3,4.6,5.6c2.1-0.6,4.4-0.1,6,1.5c1.5,1.6,2.6,3.5,2.8,5.6c0.2,1.3,0.5,2.9,1.7,3.4
	c1,0.5,2.2,0,3.3-0.1c3.8-0.2,6.8,4,10.5,3.3c3.9-0.9,4.9-6.7,8.8-7.8c2.2-0.7,5.2,0.1,6.3-2c1-1.8-1-3.9-0.7-5.9
	c0.2-2.4,3.2-3.5,5.5-4.6c7.8-3.7,11.5-14.1,7.7-21.9c-2.2-4.6-6.6-8.2-7.4-13.3c-0.6-3.9,0.9-8.4-1.6-11.5
	c-1.2-1.6-3.4-2.4-4.1-4.3c-0.5-1.2-0.2-2.4-0.5-3.8c-0.2-1.2-1.3-2.6-2.6-2.2c-3.5,1-4.6,11.8-6.6,14.5
	C687.9,344.1,682,341.4,682.9,336.4z"/>
<path class="st0" d="M617.7,314.6c-1.2-0.4-2.6-0.7-3.7-0.2c-1.1,0.5-1.8,2.2-0.9,3c7.3-0.2,14.5-0.6,21.7,0.4
	c8.3,1.1,16.5,3.9,24.9,3.2c-4.8-1.5-9.6-2.6-14.5-3.4l-8.2-1.6c-2.2-0.5-4.4-0.9-6.6-1C625.8,314.6,622.3,315.8,617.7,314.6z"/>
<path class="st0" d="M625,289.3c-0.6,0-1.3-0.1-1.7,0.4c-0.2,0.5,0,1.1-0.1,1.7c-0.2,0.7-1.2,1-2,0.9s-1.6-0.4-2.3,0
	c-0.7,0.5-1,1.5-0.7,2.2c0.2,0.9,0.7,1.6,1.3,2.2c1,1.3,2.2,2.4,3.5,3.5c2.4,1.8,5.9,2.7,7.4,5.4c0.2,0.5,0.6,1,1,1.3
	c0.7,0.5,1.7,0.1,2.6-0.2l2.8-1.3c0.5-0.2,1-0.5,1.3-0.9c0.6-0.9,0.2-2.2-0.2-3c-0.5-0.9-1.2-2-1.1-3c0.2-2,2.7-2.7,3.8-4.4
	c1-1.7,0.4-3.8,0.5-5.9c0.1-2.3,1.6-5.2-0.7-6.9c-2-1.5-3.9-0.1-5.2,1.5C631.9,286,630.5,289.7,625,289.3z"/>
<path class="st0" d="M642.3,254.9c1,1.8,3,2.9,4,4.8c1.1,2,1,4.5,2.3,6.5c1.2,2,3.9,3,4.5,5.2c0.7,2.4-1,5.4,0.4,7.4
	c1.1,1.3,3,1.7,4.4,0.6c0.1,0,0.1-0.1,0.2-0.1c1.2-1.3,1.2-3.4-0.1-4.8c-0.9-0.7-2.1-1.1-2.7-2c-0.4-0.5-0.6-1.1-0.7-1.7
	c-0.4-1.8-0.4-3.7,0.1-5.4c0.2-0.5,0.2-1,0.1-1.5c-0.4-1-1.6-1-2.4-1.5c-2-1-2-3.8-1.6-6c-0.2,1.5-5.4-1-6-1.8
	c-1.1-1.6-0.5-4.8-0.7-6.6C641.9,249.3,641.1,252.6,642.3,254.9z"/>
<path class="st0" d="M590.4,283.6c-1-1.1-2.4-2.2-3.7-1.6c-1,0.5-1.2,1.8-0.9,2.8c0.5,1,1.2,1.8,2.1,2.4c2.7,2.2,5.5,4.1,7.8,6.7
	c4.1,4.5,6.3,10.7,10.9,14.9c0.9,1,2.1,1.6,3.4,1.8c1.3,0.1,2.8-0.7,2.9-2.1c0.1-1.1-0.6-2.1-1.3-2.8c-1.7-2-3.7-3.7-5.4-5.6
	c-0.7-0.7-1.2-1.7-1.3-2.8c0-1.1,1-2.2,2-2c-1.2-0.4-2.2-2.4-4-2.8c-1.6-0.4-2,0.6-3.8-0.1C595.6,291,592.8,286.3,590.4,283.6z"/>
<path class="st0" d="M673,179.9c-1-0.2-2-0.6-2.9-1.1c-2.6-0.7-6.1,1.1-5.7,3.8c0.2,1.8,2,3,2.8,4.5c1.3,2.3,1,5.2,0.2,7.8
	c-0.1,0.9-0.5,1.6-1,2.2c-0.6,0.7-1.5,1.2-2.3,1.7c-3.5,2-6.6,4.6-9.1,7.8c-0.2,0.2-0.5,0.6-0.6,1.1c-0.1,0.9,0.9,1.6,1.3,2.3
	c1.1,1.7,0.4,4,0.5,6c0,0.6,0.2,1.1,0.7,1.5c0.7,0.4,1.5-0.2,2-1c1.2-2.3,0.4-5.9,2.7-6.9c0.5-0.2,1-0.2,1.2-0.7
	c0.5-0.6,0-1.6,0.2-2.3c0.4-1.1,1.8-1.2,3-1.1c2,0.1,4-0.2,6-0.7c0.7-0.1,1.5-0.6,2-1.1c0.7-0.9,0.6-2.1,0.5-3.2
	c-0.7-5.5-2.4-10.9-5.1-15.7c2.1,0.2,4.3,0.5,6.1-0.6c1-0.6,2.2-2.4,1.7-3.7C676.2,178.6,674.7,180.2,673,179.9z"/>
<path class="st0" d="M409,210.4c0.2,1.3,0.5,2.7,0,4c-0.5,1.2-1.8,2.3-3,2c-1-0.2-1.6-1.3-2.3-2.1c-3.9-4.3-12.8-1.8-15.2-7.1
	c-1-2.2-0.4-4.8-1-6.9c-0.9-2.7-3.4-4.5-6.3-4.3c-1.2,0.1-2.4,0.5-3.7,1.1c-7.7,3-15.7,5.1-24,6c-1.6,0.1-3.2,0.4-4.6,0.9
	c-3.4,1.2-5.7,4.4-7.3,7.6c-1.7,3.2-2.8,6.7-5.1,9.5c-2.3,3-5.6,5.1-8.7,7.3c-1.2,0.7-2.2,1.8-2.8,2.9c-0.6,1.3-0.6,2.9-0.6,4.4
	l0.6,18.2c0.1,2.3,0.1,4.8,1.2,6.8c1.3,2.6,3.9,4.4,5.7,6.7c1.8,2.4,2.8,5.4,2.7,8.3c0,1.2-0.1,2.7,0.7,3.4c0.6,0.4,1.2,0.6,2,0.6
	l24.6,2.1c4.4,0.4,9.1,1,11.9,4.3c1.3,1.6,2.4,3.8,4.5,4c0.9,0.1,1.7-0.2,2.6-0.4c2.2-0.1,4.1,1.5,5.4,3.4c1.8,2.8,2.7,6.2,2.4,9.5
	c-0.2,2.1-0.9,4.1-1,6.3c-0.5,8,6.3,15,6.5,23.2c0.1,4.8-2.2,9.1-4.4,13.4c3.5,5.4,0.6,12.6,2.1,18.8c1.3,6,6.3,10.6,7.6,16.6
	c0.6,2.7,0.6,6.1,3,7.6c1.1,0.5,2.2,0.7,3.4,0.7c7.1,0.1,14.1-1.5,20.5-4.6c2.9-1.5,6.1-3.7,6.6-6.9c0.4-2.7-1-5.6,0.5-7.9
	c1.6-2.7,5.7-2.6,8.2-4.6c3.9-3.4,0.9-9.9,2.4-14.8c1.5-4.4,6.2-6.7,8.7-10.7c1-1.7,1.6-3.5,2-5.5c1.1-4.5,1.8-9.1,2.1-13.9
	c0.1-2.8,0.2-5.7,0.6-8.5c2.6-16.1,18.4-26.8,23.7-42.2c0.5-1.5,0.7-3.4-0.6-4.3c-0.7-0.4-1.7-0.5-2.4-0.2l-11.3,1.5
	c-1.5,0.1-2.9,0.4-4.1-0.2c-1.3-0.6-2.2-2.2-1.6-3.4c2-3.5-2.1-7.9-3.8-11.5c-4.8-9.6-10.4-18.8-16.9-27.4c-0.4-0.5-0.7-1-0.7-1.6
	l3.2,0.1c-1.1-3.9-2.9-8.2-6.7-9.6c-2.2-0.9-4.5-0.5-6.8-0.4C422.5,212.4,415.5,211.4,409,210.4z"/>
<path class="st0" d="M429,122.4c1.7,1.8,3.7,3.8,6.1,4c4.4,0.6,7.6-3.9,9.5-7.9c0.1,2.1,2,3.7,4,3.5c1.1-0.1,2.1-0.6,3-1.2
	c8.7-4.8,18.4-7.2,28.3-7.3c-0.2-1.6,0.9-3,2.3-3.3c2-0.4,3.8,1.3,4.8,3.2c1,1.8,1.6,3.9,3,5.2s4.5,1.3,5.1-0.6
	c0.6-1.8-1.3-3.4-3-4.6c-1.6-1.1-3.3-3.2-2.2-4.8c8.3-1.8,16.6-3.7,25.1-4c1.5,0,2.9-0.2,4.3-0.7c1.3-0.6,2.3-2.1,2-3.4
	c-3.8,0.9-7.7-0.6-10-3.8c11.8-1,24.3-1.8,34.7,3.8c1.2,2.7-5.1,4.9-3.4,7.3c0.5,0.7,1.6,0.9,2.6,0.9c7.2,0.1,14.5,0.2,21.7-0.9
	c2.6-0.4,5.2-1,7.9-0.6c4.4,0.5,8.2,3.4,12.4,4.4c1.7,0.4,3.8,0.4,5.2-0.6c1.5-1,2.1-3.3,0.9-4.6c4-4,10.9-3,16.1-1.1
	c5.2,2,10.4,5,16.1,5.4c4,0.2,8.2-0.7,12.2-0.1c2.6,0.5,4.9,1.6,7.3,2.2c4.6,1.3,9.6,1,14.4,1.1c12.3,0.1,24.6,2.6,36.1,7.2
	c1.5,0.5,2.8,1.3,4,2.3c1.1,1.1,1.6,2.9,0.9,4.3l-11.8-1.7c1.1,2.2,4,2.6,6.3,3.3c2.3,0.7,4.8,3.3,3.4,5.4c-2.6-0.9-4.9,1.7-6.1,4
	c-1.3,2.3-2.8,5.1-5.5,5.2c-2.4,0.1-5.2-2-6.8-0.1c2.2,2.7,4,5.6,5.5,8.8c1.6,3.2,2.7,7.2,0.6,10.1c-0.4,0.5-0.9,0.9-1.5,1.1
	c-1.7,0.5-2.8-1.7-4-2.9c-1.6-1.6-3.9-2.1-6-2.8c-2.1-0.7-4.3-2.2-4.4-4.4c-0.1-1.3,0.6-2.7,1.1-3.9c0.9-2.1,1.3-4.4,1.1-6.7
	c-0.1-1.8-0.6-3.8-2-5.1c-1.3-1.3-3.7-1.7-5.1-0.5c-0.6,0.6-1.2,1.5-2.1,1.5c-1.6,0-2.7-2.6-3.9-1.7c0.1,1,0,2-0.6,2.8
	c-3.7,3.2-9.4,1.8-14,2.9c-2.3,0.6-4.4,1.6-6.5,2.8c-0.7,0.4-1.3,0.9-1.8,1.6c-0.6,1.1,0,2.7,1.1,3.4c1.1,0.7,2.3,1.1,3.7,1.2
	c5.7,1.1,11.7,2.8,16.2,6.5c4.5,3.7,7.6,9.9,6.1,15.6L652,163c0.5,4.6,0.7,9.1,0.7,13.8c0.1,0.9,0,1.8-0.4,2.7c-0.9,1.8-3,2.4-5,2.8
	c-2.1,0.4-3.5,2.4-3,4.5c0,0.1,0.1,0.2,0.1,0.5c0.7,2.2,2.4,4,4,5.7c1.6,1.7,3,3.7,3.3,6.1c0.2,2.3-1.6,5-3.9,4.8
	c-1.8-0.1-3-1.7-3.8-3.3c-0.7-1.6-1.2-3.4-2.3-4.8c-3.4-4.1-11.1-2.3-14.3-6.7c-1.6,1.8-2.2,4.3-1.5,6.6c1.5-0.9,3.4-0.1,4.5,1.2
	s1.6,2.9,2.4,4.4c1.1,2,2.9,3.8,3.2,6c0,0.9,0,1.7,0,2.6c0.2,1.3,1.5,2.3,2.2,3.5c1.8,2.7,1.8,6.3,0.6,9.4s-3.4,5.6-5.5,8
	c-3.8,4.3-7.6,8.5-12.1,12.2c-1.2,1-2.7,2.1-3.4,3.4c-0.7,1.5-0.9,3.4,0.4,4.5c-0.9,0-2.4,0.5-3.3,0.5c-0.4-3.5-0.4-6.9-0.2-10.5
	c-3.4-1.7-7.2,2.8-6.7,6.6s3.2,6.8,5.1,10.1c1.5,2.4,2.4,5.2,2,7.9c-0.5,2.8-2.9,5.2-5.7,5c-4.4-0.4-6.2-6.7-10.6-7.4
	c-0.4-0.1-0.7,0-1.1,0.1c-0.6,0.4-0.7,1.2-0.9,2c-0.1,3.7-0.4,7.4,1.1,10.7c2.1,4.9,7.4,9,6.3,14.3c-6.1-2.8-9.1-9.6-10.6-16.1
	c-1.5-6.5-1.7-13.4-4.3-19.5c-2,2.4-6,0.5-7.8-2.2c-1.7-2.4-2.7-5.4-4.4-7.8c-1.6-2.6-4.1-4.8-7.2-4.9c-3.2-0.1-5.9,2-8.3,4
	c-2,1.7-4,3.4-5.1,5.7c-1.7,3.4-1.2,7.3-1.3,11.1c-0.1,4-1,8.4-3.8,11.3c-2.8,2.9-7.9,4-11,1.3c-1.6-1.3-2.3-3.5-3-5.5
	c-3.3-9.6-6.1-19.5-8.3-29.5c-0.5,2.3-2.6,5.2-4.4,3.9c-0.5-0.4-0.7-0.9-1-1.3c-3.5-6.1-10.1-9.6-16.8-11.8
	c-6.7-2.2-13.7-3.2-20.4-5.6c-3.7-1.3-7.2-3-10.5-5.2c-1.7,2.6-2,5.7-0.5,8.5c1.5,2.6,4.8,4.1,7.6,3.2c1.5-0.5,2.7-1.5,4.1-2
	s3.4-0.2,4,1.1s-0.4,2.9,0.1,4.4c0.7,2.2,3.9,2.3,5,4.3c0.9,1.5,0.1,3.4-1.1,4.5c-1.2,1.2-2.8,1.8-4.3,2.6c-4.8,2.7-8,7.1-12.2,10.6
	c-4.1,3.5-10,6.1-14.9,3.8c1.2-6-6-10.4-7.2-16.2c-0.5-2-0.2-4-0.9-6c-0.9-2.8-3.3-4.6-5.4-6.7c-4.9-5.1-7.6-12.1-7.2-19.3
	c0.1-2.4,0.6-5,0-7.3c-0.6-2.4-2.6-4.8-5-4.6c-5.6,0.2-12.7,0.6-15.6-4.1c-1.1-1.7-1.5-4.1,0-5.5c1.1-1,2.7-0.9,4-0.7l12.6,1.2
	c2.9,0.2,6.1,0.5,8.7-1c2.6-1.6,3.7-5.6,1.3-7.4c-1.7-1.3-4.8-1.2-5.2-3.4c-0.4-1.7,1.6-3.8,0.5-5.2c-0.7-1.1-2.4-0.7-3.4,0
	c-1,0.7-1.7,2-2.9,2.6c-2,1.1-4.4,0-6.6-0.6c-2.2-0.7-5.1-0.7-6.1,1.2c-1.2,2.2,1.1,5.2-0.1,7.4c-1.6,2.9-6.7,1.3-8.9,3.9
	c-2.4,2.9,1.7,7.3,0.9,11.1c-2.2,1.1-4.8,1-6.8-0.4c-2-1.3-3-3.8-2.8-6.1c0.2-1.7,1.1-3.4,0.5-5c-0.5-1.3-1.8-2.1-2.9-2.7l-12.2-6.8
	c-1.1,2.1,0.2,4.8,2.1,6.3s4,2.8,5.2,4.9c1.6,3,0.5,6.7-2.4,8.4c-0.4,0.2-0.9,0.4-1.2,0.2c-0.4-0.2-0.7-0.6-0.7-1.1
	c-2.2-5.5-5.4-11-10.6-13.9c-5.2-2.9-12.7-2.3-16.1,2.6c-0.9,1.1-1.3,2.4-2.1,3.7c-3.8,6.5-11.7,9.5-19.3,9.4
	c-0.7,0-1.5-0.1-2.1-0.5c-1.2-0.9-1.1-2.6-1-4l0.7-6.2c0.1-1.2,0.4-2.6,1.3-3.4c1.3-1.1,3.4-0.4,5.1-0.5c2.7-0.1,5.1-2,6-4.6
	c0.7-2.7-0.1-5.5-2.1-7.3c-0.9-0.7-2-1.7-1.5-2.7c0.4-0.6,1-1,1.6-1.1c3.2-1,6.6-1.2,9.6-2.2c3.2-1.1,6.1-3.3,6.8-6.6
	c0.2-1,0.4-2.2,1.2-2.7c0.5-0.2,1-0.2,1.5-0.2c3.5-0.5,6.1-3.5,5.9-7.1c1.5-1.1,3.5-0.2,5,0.9c1.5,1.1,2.7,2.6,4.5,3
	c3.3,0.9,6.5-2.1,9.9-2.1c1.5,0,2.9,0.5,4.3,0c1.3-0.5,2.2-1.8,3.2-2.8c1.1-1,2.9-1.6,3.9-0.5l-0.9-6.1c3.4,0.9,6.9,0.2,9.8-1.7
	l-10.6-3.5c-0.4-0.1-0.7-0.2-1-0.5c-0.7-0.9,0-2.1,0.6-3c1.5-2.3,1.7-6-0.7-7.1c-1.7-0.7-3.7,0.1-5.2,1.1l-7.8,4.4
	c-0.2,1.5,1.6,2.3,2.7,3.3c1.8,1.7,2.1,4.5,0.4,6.3c-0.9,1-2.1,1.5-3.3,1.5c1,1.3,1.5,3,1,4.8l-5.2,0.4c-0.6,0.1-1.2,0-1.7-0.4
	c-0.6-0.5-0.5-1.3-0.6-2.1c-0.4-1.8-2.1-3-3.8-3.3c-1.8-0.4-3.5,0.1-5.4,0.5c-0.7,0.2-1.6,0.2-2.3,0c-0.4-0.2-0.7-0.7-0.9-1.1
	c-0.7-1.8,0-4,1.2-5.6c1.2-1.6,2.9-2.8,4.5-4.1c3.7-3.2,6.3-7.3,7.7-11.9c2.9-1.2,5.9-2.8,8.8-4c4.4-2.2,9.4-3.2,14.4-2.8l9.8,0.2
	c2.9,0,5.9,0.1,8.5,1.2c2.7,1.1,5,3.5,5.2,6.3c0.1,0.6-0.1,1.3-0.6,1.8c-0.4,0.2-0.9,0.2-1.2,0.2C432.8,121.5,431.7,122.3,429,122.4
	z"/>
<path class="st0" d="M351.4,152.9c0.7-0.7,1.1-1.8,0.7-2.9c-1.8-0.7-4-0.4-5.5,1.1c-0.6,0.6-1.1,1.2-1.5,2c-1.2,2.1-2.4,4.6-1.7,6.9
	c0.1,0.5,0.5,1,0.9,1.2c0.4,0.1,0.7,0.2,1.1,0.1c1.5,0,2.8-0.1,4.3-0.2c0.9-0.1,1.8-0.4,2.2-1.1c0.5-1.1-0.6-2.2-0.4-3.3
	c0.2-0.5,0.5-1,0.9-1.3c0.4-0.4,0.6-0.9,0.5-1.5c-0.1-0.5-0.9-0.9-1.2-0.4"/>
<path class="st0" d="M358.7,143.4c-1.2-0.2-2.6-0.4-3.8-0.2c-0.2,0-0.6,0-0.9,0.2c-0.2,0.1-0.4,0.5-0.5,0.7
	c-0.6,1.8,0.4,3.8,2.1,4.4c0.5,0.1,0.9,0.2,1.3,0.5c1.1,0.9,0.4,2.6,0.6,3.9c0.2,1.5,1.7,2.8,1.5,4.3c-0.2,1.2-1.5,2.2-1.3,3.3
	c0.2,1.2,1.8,1.6,3,1.7c0.7,0.1,1.5,0,2.2-0.2c0.7-0.5,1.2-1.2,1.3-2c0.5-1.6,0.7-3.2,0.6-4.8c0-0.7-0.2-1.5-0.5-2.1
	c-0.4-0.5-0.9-1-1.2-1.5C360.8,148.9,363.3,144.7,358.7,143.4z"/>
<path class="st1" d="M677.2,364.1c0,0-185.4-106.4-265.3-86.3c0,0-169.2,18.2-188.9,58.3c0,0-53.8-168.1-73.4-173.7"/>
<path class="st1" d="M223,336c31.1-82.9,311.3-174.8,311.3-174.8c-39.7,10.1-122.4,116.6-122.4,116.6S237,150.6,149.6,162.3
	c0,0,384.9,12.6,527.6,201.7"/>
<circle class="st2" cx="149.6" cy="162.4" r="8.2"/>
<circle class="st2" cx="223" cy="336" r="8.2"/>
<circle class="st2" cx="534.3" cy="161.3" r="8.2"/>
<circle class="st2" cx="677.2" cy="364.1" r="8.2"/>
<circle class="st2" cx="411.9" cy="277.7" r="8.2"/>
</svg>
