<svg id="Layer_1" enable-background="new 0 0 512 512" height="512" viewBox="0 0 512 512" width="512" xmlns="http://www.w3.org/2000/svg"><g><path d="m351.31 69.756c-36.665-42.677-90.999-69.756-151.543-69.756-60.449 0-114.708 26.992-151.371 69.552l55.805 305.598c28.404 15.539 60.97 24.383 95.566 24.383 110.151 0 199.767-89.615 199.767-199.767 0-21.25-3.348-41.73-9.522-60.955z" fill="#7dd5f4"/><path d="m399.533 199.767c0-21.25-3.348-41.73-9.522-60.955l-38.701-69.056c-34.817-40.526-85.572-66.969-142.444-69.533v399.094c105.944-4.774 190.667-92.449 190.667-199.55z" fill="#6ba7ff"/><path d="m104.211 375.205c-64.279-35.103-104.211-102.328-104.211-175.438 0-47.804 17.183-94.076 48.382-130.291 2.85-3.308 6.998-5.209 11.364-5.209h67.721c25.989 0 47.133 21.144 47.133 47.133s-21.144 47.133-47.133 47.133c-9.447 0-17.134 7.686-17.134 17.133s7.687 17.133 17.134 17.133h96.399c25.806 0 47.134 20.855 47.134 47.133 0 26.036-21.053 47.134-47.134 47.134h-80.333c-9.4 0-17.133 7.609-17.133 17.133v57.84c0 11.144-12.005 18.726-22.189 13.166z" fill="#dff473"/><path d="m375.81 158.533h-87.676c-25.984 0-47.134-21-47.134-47.133 0-26.299 21.351-47.133 47.134-47.133h51.654c4.366 0 8.517 1.903 11.366 5.211 17.654 20.5 30.757 43.879 38.943 69.488 1.458 4.562.65 9.545-2.174 13.413s-7.324 6.154-12.113 6.154z" fill="#8ee26b"/><path d="m271 239.933c0-26.278-21.328-47.133-47.134-47.133h-15v94.267h15c26.081 0 47.134-21.098 47.134-47.134z" fill="#8ee26b"/><g fill="#00a08c"><path d="m497 447.733h-16.067c-8.284 0-15-6.716-15-15s6.716-15 15-15h16.067c8.284 0 15 6.716 15 15s-6.716 15-15 15z"/><path d="m384.533 447.733h-16.066c-8.284 0-15-6.716-15-15s6.716-15 15-15h16.066c8.284 0 15 6.716 15 15s-6.716 15-15 15z"/><path d="m432.733 512c-8.284 0-15-6.716-15-15v-16.067c0-8.284 6.716-15 15-15s15 6.716 15 15v16.067c0 8.284-6.715 15-15 15z"/><path d="m432.733 399.533c-8.284 0-15-6.716-15-15v-16.066c0-8.284 6.716-15 15-15s15 6.716 15 15v16.066c0 8.284-6.715 15-15 15z"/><path d="m409.273 388.039-22.172-22.151c-5.861-5.855-15.358-5.85-21.213.01-5.855 5.861-5.851 15.358.01 21.213l22.172 22.151c5.861 5.855 15.358 5.85 21.213-.01 5.856-5.861 5.851-15.358-.01-21.213z"/><path d="m456.193 388.039 22.172-22.151c5.861-5.855 15.358-5.85 21.213.01 5.855 5.861 5.851 15.358-.01 21.213l-22.172 22.151c-5.861 5.855-15.358 5.85-21.213-.01-5.855-5.861-5.85-15.358.01-21.213z"/><path d="m499.568 478.355-22.172-22.151c-5.861-5.855-15.358-5.85-21.213.01-5.855 5.861-5.851 15.358.01 21.213l22.172 22.151c5.861 5.855 15.358 5.85 21.213-.01 5.856-5.86 5.851-15.358-.01-21.213z"/><path d="m365.899 478.355 22.172-22.151c5.861-5.855 15.358-5.85 21.213.01 5.855 5.861 5.851 15.358-.01 21.213l-22.172 22.151c-5.861 5.855-15.358 5.85-21.213-.01s-5.851-15.358.01-21.213z"/></g><ellipse cx="432.733" cy="432.733" fill="#dff473" rx="63.2" ry="63.2" transform="matrix(.707 -.707 .707 .707 -179.244 432.733)"/><path d="m432.733 495.933v-126.4c34.849 0 63.2 28.352 63.2 63.2s-28.351 63.2-63.2 63.2z" fill="#8ee26b"/></g></svg>