<svg id="Layer_1" enable-background="new 0 0 512 512" height="512" viewBox="0 0 512 512" width="512" xmlns="http://www.w3.org/2000/svg"><g><path d="m312.636 132.449c-3.838 0-7.677-1.464-10.605-4.392-5.858-5.857-5.859-15.354-.002-21.213l102.424-102.449c5.857-5.858 15.355-5.859 21.213-.002s5.859 15.354.002 21.213l-102.425 102.449c-2.929 2.929-6.768 4.394-10.607 4.394z" fill="#7dd5f4"/><path d="m296.167 413.656h-200.834c-8.284 0-15-6.716-15-15v-64.267c0-8.284 6.716-15 15-15h200.833c8.284 0 15 6.716 15 15v64.267c.001 8.284-6.715 15-14.999 15z" fill="#f3e9e3"/><path d="m311.167 398.656v-64.267c0-8.284-6.716-15-15-15h-104.434v94.267h104.434c8.284 0 15-6.716 15-15z" fill="#ebdcd2"/><path d="m325.89 190.667h-268.313c-14.395 0-44.865-20.405-37.112-54.11 3.291-14.312 13.133-25.463 25.627-31.005-3.485-13.25-.899-27.92 8.275-39.417 9.166-11.479 22.872-17.264 36.57-16.827 4.059-20.921 19.809-29.624 24.563-31.911 13.246-6.373 28.109-5.635 40.239.692 8.19-10.971 21.277-18.089 35.994-18.089 14.719 0 27.805 7.116 35.995 18.089 12.128-6.326 26.991-7.065 40.238-.692 4.755 2.287 20.502 10.987 24.563 31.911 13.703-.439 27.403 5.347 36.568 16.824 9.176 11.499 11.762 26.169 8.276 39.419 12.497 5.542 22.337 16.692 25.629 31.006 7.606 33.811-22.712 54.11-37.112 54.11z" fill="#ffd845"/><path d="m363.002 136.556c-3.292-14.313-13.132-25.464-25.629-31.006 3.485-13.25.899-27.92-8.276-39.419-9.165-11.477-22.865-17.263-36.568-16.824-4.06-20.924-19.808-29.623-24.563-31.911-13.247-6.373-28.11-5.634-40.238.692-8.19-10.972-21.276-18.088-35.995-18.088v190.667h134.157c14.4 0 44.718-20.299 37.112-54.111z" fill="#ecbe00"/><path d="m288.134 351.333h-192.8c-51.766 0-95.334-41.8-95.334-95.333v-80.333c0-8.284 6.716-15 15-15h353.467c8.284 0 15 6.716 15 15v80.333c0 53.478-43.529 95.333-95.333 95.333z" fill="#faf5f5"/><path d="m383.467 256v-80.333c0-8.284-6.716-15-15-15h-176.734v190.667h96.4c51.805-.001 95.334-41.856 95.334-95.334z" fill="#f3e9e3"/><g fill="#00a08c"><path d="m497 447.733h-16.067c-8.284 0-15-6.716-15-15s6.716-15 15-15h16.067c8.284 0 15 6.716 15 15s-6.716 15-15 15z"/><path d="m384.533 447.733h-16.066c-8.284 0-15-6.716-15-15s6.716-15 15-15h16.066c8.284 0 15 6.716 15 15s-6.716 15-15 15z"/><path d="m432.733 512c-8.284 0-15-6.716-15-15v-16.067c0-8.284 6.716-15 15-15s15 6.716 15 15v16.067c0 8.284-6.715 15-15 15z"/><path d="m432.733 399.533c-8.284 0-15-6.716-15-15v-16.066c0-8.284 6.716-15 15-15s15 6.716 15 15v16.066c0 8.284-6.715 15-15 15z"/><path d="m409.273 388.039-22.172-22.151c-5.861-5.855-15.358-5.85-21.213.01-5.855 5.861-5.851 15.358.01 21.213l22.172 22.151c5.861 5.855 15.358 5.85 21.213-.01 5.856-5.861 5.851-15.358-.01-21.213z"/><path d="m456.193 388.039 22.172-22.151c5.861-5.855 15.358-5.85 21.213.01 5.855 5.861 5.851 15.358-.01 21.213l-22.172 22.151c-5.861 5.855-15.358 5.85-21.213-.01-5.855-5.861-5.85-15.358.01-21.213z"/><path d="m499.568 478.355-22.172-22.151c-5.861-5.855-15.358-5.85-21.213.01-5.855 5.861-5.851 15.358.01 21.213l22.172 22.151c5.861 5.855 15.358 5.85 21.213-.01 5.856-5.86 5.851-15.358-.01-21.213z"/><path d="m365.899 478.355 22.172-22.151c5.861-5.855 15.358-5.85 21.213.01 5.855 5.861 5.851 15.358-.01 21.213l-22.172 22.151c-5.861 5.855-15.358 5.85-21.213-.01s-5.851-15.358.01-21.213z"/></g><ellipse cx="432.733" cy="432.733" fill="#dff473" rx="63.2" ry="63.2" transform="matrix(.707 -.707 .707 .707 -179.244 432.733)"/><path d="m432.733 495.933v-126.4c34.849 0 63.2 28.352 63.2 63.2s-28.351 63.2-63.2 63.2z" fill="#8ee26b"/></g></svg>