<svg id="Layer_1" enable-background="new 0 0 512 512" height="512" viewBox="0 0 512 512" width="512" xmlns="http://www.w3.org/2000/svg"><g><g><path d="m329.092 171.617c-13.161-.498-24.026 10.064-24.026 23.116v94.909c0 8.077-6.207 15.027-14.275 15.407-8.614.406-15.725-6.458-15.725-14.983v-228.8c0-12.776-10.357-23.133-23.133-23.133s-23.133 10.357-23.133 23.134v152.109c0 8.077-6.207 15.027-14.275 15.407-8.614.406-15.725-6.458-15.725-14.983v-190.667c0-12.776-10.357-23.133-23.133-23.133s-23.133 10.357-23.133 23.133v190.243c0 8.077-6.207 15.027-14.275 15.407-8.614.406-15.725-6.458-15.725-14.983v-171.032c0-12.527-9.722-23.211-22.241-23.684-13.161-.498-24.026 10.064-24.026 23.116v171.176c0 8.077-6.207 15.027-14.275 15.407-8.614.406-15.725-6.458-15.725-14.983v-95.333c0-12.776-10.357-23.133-23.133-23.133s-23.134 10.357-23.134 23.133v172.663c0 9.436 2.23 18.929 6.45 27.453 15.613 31.091 48.834 97.579 49.168 98.247 1.04 2.082 1.582 4.377 1.582 6.704v73.466c0 8.284 6.716 15 15 15h149.733c8.284 0 15-6.716 15-15v-35.333c0-4.451 1.977-8.672 5.396-11.522l86.945-72.465c14.026-11.65 22.059-28.8 22.059-47.067v-135.31c0-12.529-9.722-23.213-22.241-23.686z" fill="#ffdcd2"/><path d="m221.933 512c8.284 0 15-6.716 15-15v-35.333c0-4.451 1.977-8.672 5.396-11.522l86.945-72.465c14.026-11.65 22.059-28.8 22.059-47.067v-135.31c0-12.527-9.722-23.211-22.241-23.684-13.161-.498-24.026 10.064-24.026 23.116v94.909c0 8.077-6.207 15.027-14.275 15.407-8.614.406-15.725-6.458-15.725-14.983v-228.8c0-12.776-10.357-23.133-23.133-23.133s-23.133 10.355-23.133 23.132v152.109c0 8.077-6.207 15.027-14.275 15.407-8.614.406-15.725-6.458-15.725-14.983v-190.667c0-12.776-10.357-23.133-23.133-23.133s-23.133 10.357-23.133 23.133v190.243c0 8.077-6.207 15.027-14.275 15.407v283.217z" fill="#ffc1c4"/></g><g fill="#00a08c"><path d="m497 447.733h-16.067c-8.284 0-15-6.716-15-15s6.716-15 15-15h16.067c8.284 0 15 6.716 15 15s-6.716 15-15 15z"/><path d="m384.533 447.733h-16.066c-8.284 0-15-6.716-15-15s6.716-15 15-15h16.066c8.284 0 15 6.716 15 15s-6.716 15-15 15z"/><path d="m432.733 512c-8.284 0-15-6.716-15-15v-16.067c0-8.284 6.716-15 15-15s15 6.716 15 15v16.067c0 8.284-6.715 15-15 15z"/><path d="m432.733 399.533c-8.284 0-15-6.716-15-15v-16.066c0-8.284 6.716-15 15-15s15 6.716 15 15v16.066c0 8.284-6.715 15-15 15z"/><path d="m409.273 388.039-22.172-22.151c-5.861-5.855-15.358-5.85-21.213.01-5.855 5.861-5.851 15.358.01 21.213l22.172 22.151c5.861 5.855 15.358 5.85 21.213-.01 5.856-5.861 5.851-15.358-.01-21.213z"/><path d="m456.193 388.039 22.172-22.151c5.861-5.855 15.358-5.85 21.213.01 5.855 5.861 5.851 15.358-.01 21.213l-22.172 22.151c-5.861 5.855-15.358 5.85-21.213-.01-5.855-5.861-5.85-15.358.01-21.213z"/><path d="m499.568 478.355-22.172-22.151c-5.861-5.855-15.358-5.85-21.213.01-5.855 5.861-5.851 15.358.01 21.213l22.172 22.151c5.861 5.855 15.358 5.85 21.213-.01 5.856-5.86 5.851-15.358-.01-21.213z"/><path d="m365.899 478.355 22.172-22.151c5.861-5.855 15.358-5.85 21.213.01 5.855 5.861 5.851 15.358-.01 21.213l-22.172 22.151c-5.861 5.855-15.358 5.85-21.213-.01s-5.851-15.358.01-21.213z"/></g><ellipse cx="432.733" cy="432.733" fill="#dff473" rx="63.2" ry="63.2" transform="matrix(.707 -.707 .707 .707 -179.244 432.733)"/><path d="m432.733 495.933v-126.4c34.849 0 63.2 28.352 63.2 63.2s-28.351 63.2-63.2 63.2z" fill="#8ee26b"/></g></svg>