<svg id="Layer_1" enable-background="new 0 0 512 512" height="512" viewBox="0 0 512 512" width="512" xmlns="http://www.w3.org/2000/svg"><g><path d="m416.667 384.533c-30.713 0-55.7-24.987-55.7-55.7s24.987-55.7 55.7-55.7 55.699 24.987 55.699 55.7-24.986 55.7-55.699 55.7z" fill="#ffdcd2"/><path d="m416.667 384.533c-52.567 0-95.334 42.767-95.334 95.334v17.133c0 8.284 6.716 15 15 15h160.667c8.284 0 15-6.716 15-15v-17.133c0-52.567-42.765-95.334-95.333-95.334z" fill="#412830"/><path d="m336.333 208.867c-7.329 0-13.42 5.259-14.73 12.207-18.62-14.753-41.496-22.763-65.603-22.763-28.272 0-54.858 11.011-74.865 31.008l-.008.008c-5.857 5.857-5.854 15.35.003 21.208 5.855 5.857 15.357 5.855 21.215 0 14.339-14.332 33.394-22.224 53.655-22.224 15.69 0 30.645 4.752 43.257 13.541-5.852 2.045-10.057 7.599-10.057 14.149 0 8.284 6.716 15 15 15h32.133c8.284 0 15-6.716 15-15v-32.133c0-8.285-6.716-15.001-15-15.001z" fill="#7dd5f4"/><g fill="#00a08c"><path d="m320.267 94.267h-16.067c-8.284 0-15-6.716-15-15s6.716-15 15-15h16.067c8.284 0 15 6.716 15 15s-6.716 15-15 15z"/><path d="m207.8 94.267h-16.066c-8.284 0-15-6.716-15-15s6.716-15 15-15h16.066c8.284 0 15 6.716 15 15s-6.716 15-15 15z"/><path d="m256 158.533c-8.284 0-15-6.716-15-15v-16.067c0-8.284 6.716-15 15-15s15 6.716 15 15v16.067c0 8.284-6.716 15-15 15z"/><path d="m256 46.066c-8.284 0-15-6.716-15-15v-16.066c0-8.284 6.716-15 15-15s15 6.716 15 15v16.066c0 8.285-6.716 15-15 15z"/><path d="m232.54 34.572-22.172-22.151c-5.861-5.855-15.358-5.85-21.213.01-5.855 5.861-5.851 15.358.01 21.213l22.172 22.151c5.861 5.855 15.358 5.85 21.213-.01s5.851-15.357-.01-21.213z"/><path d="m279.46 34.572 22.172-22.151c5.861-5.855 15.358-5.85 21.213.01 5.855 5.861 5.851 15.358-.01 21.213l-22.172 22.151c-5.861 5.855-15.358 5.85-21.213-.01s-5.851-15.357.01-21.213z"/><path d="m322.835 124.888-22.172-22.151c-5.861-5.855-15.358-5.85-21.213.01-5.855 5.861-5.851 15.358.01 21.213l22.172 22.151c5.861 5.855 15.358 5.85 21.213-.01s5.851-15.357-.01-21.213z"/><path d="m189.166 124.888 22.172-22.151c5.861-5.855 15.358-5.85 21.213.01 5.855 5.861 5.851 15.358-.01 21.213l-22.172 22.151c-5.861 5.855-15.358 5.85-21.213-.01-5.856-5.86-5.851-15.357.01-21.213z"/></g><ellipse cx="256" cy="79.266" fill="#dff473" rx="63.2" ry="63.2" transform="matrix(.707 -.707 .707 .707 18.931 204.236)"/><path d="m256 142.466v-126.4c34.849 0 63.2 28.352 63.2 63.2s-28.351 63.2-63.2 63.2z" fill="#8ee26b"/><path d="m416.667 384.533v-111.4c30.713 0 55.699 24.987 55.699 55.7s-24.986 55.7-55.699 55.7z" fill="#ffc1c4"/><path d="m416.667 512h80.333c8.284 0 15-6.716 15-15v-17.133c0-52.567-42.766-95.334-95.333-95.334z" fill="#001e28"/><path d="m95.334 384.533c-30.713 0-55.7-24.987-55.7-55.7s24.987-55.7 55.7-55.7 55.699 24.987 55.699 55.7-24.986 55.7-55.699 55.7z" fill="#ffdcd2"/><path d="m95.334 384.533c-52.567 0-95.334 42.767-95.334 95.334v17.133c0 8.284 6.716 15 15 15h160.667c8.284 0 15-6.716 15-15v-17.133c0-52.567-42.765-95.334-95.333-95.334z" fill="#412830"/><path d="m95.334 384.533v-111.4c30.713 0 55.699 24.987 55.699 55.7s-24.986 55.7-55.699 55.7z" fill="#ffc1c4"/><path d="m95.334 512h80.333c8.284 0 15-6.716 15-15v-17.133c0-52.567-42.766-95.334-95.333-95.334z" fill="#001e28"/><path d="m299.257 241.851c-5.852 2.045-10.057 7.599-10.057 14.149 0 8.284 6.716 15 15 15h32.133c8.284 0 15-6.716 15-15v-32.133c0-8.284-6.716-15-15-15-7.329 0-13.42 5.259-14.73 12.207-18.62-14.753-41.496-22.763-65.603-22.763v30c15.69 0 30.645 4.751 43.257 13.54z" fill="#6ba7ff"/></g></svg>