<?xml version="1.0" encoding="utf-8"?>
<!-- Generator: Adobe Illustrator 21.0.0, SVG Export Plug-In . SVG Version: 6.00 Build 0)  -->
<svg version="1.1" id="baf10ad2-6463-4f51-bd6b-04bf2837b3a8"
	 xmlns="http://www.w3.org/2000/svg" xmlns:xlink="http://www.w3.org/1999/xlink" x="0px" y="0px" viewBox="0 0 884.6 679"
	 style="enable-background:new 0 0 884.6 679;" xml:space="preserve">
<style type="text/css">
	.st0{fill:#E6E6E6;}
	.st1{fill:#FFFFFF;}
	.st2{fill:#4E6A99;}
</style>
<title>location_tracking</title>
<g>
	<rect x="188.5" y="245.4" class="st0" width="507.6" height="325.1"/>
	<rect x="236.1" y="281.4" class="st1" width="412.5" height="253.1"/>
	<rect x="236.1" y="330" class="st0" width="412.5" height="15.5"/>
	<rect x="236.1" y="405.9" class="st0" width="412.5" height="15.5"/>
	<rect x="293.5" y="364.5" class="st0" width="174.4" height="15.5"/>
	<rect x="236.1" y="486.2" class="st0" width="412.5" height="15.5"/>
	<rect x="285.7" y="281.4" class="st0" width="15.5" height="214.3"/>
	<rect x="575.8" y="281.4" class="st0" width="15.5" height="133.2"/>
	<rect x="458.4" y="281.4" class="st0" width="15.5" height="253.1"/>
	<rect x="369.5" y="408.5" class="st0" width="15.5" height="125.9"/>
	<circle class="st2" cx="466.1" cy="413.7" r="19.9"/>
	<path class="st2" d="M467.9,108.6c-41.5,0-75.1,33.6-75.1,75.1s75.1,198.4,75.1,198.4s75.1-156.9,75.1-198.4
		S509.3,108.6,467.9,108.6z M467.9,219.4c-19.7,0-35.7-16-35.7-35.7s16-35.7,35.7-35.7c19.7,0,35.7,16,35.7,35.7v0
		C503.6,203.4,487.6,219.4,467.9,219.4L467.9,219.4z"/>
</g>
</svg>
