<svg xmlns="http://www.w3.org/2000/svg" viewBox="0 0 884.6 679" xmlns:v="https://vecta.io/nano"><path d="M188.5 245.4h507.6v325.1H188.5z" fill="#e6e6e6"/><path d="M236.1 281.4h412.5v253.1H236.1z" fill="#fff"/><g fill="#e6e6e6"><path d="M236.1 330h412.5v15.5H236.1zm0 75.9h412.5v15.5H236.1zm57.4-41.4h174.4V380H293.5zm-57.4 121.7h412.5v15.5H236.1z"/><path d="M285.7 281.4h15.5v214.3h-15.5zm290.1 0h15.5v133.2h-15.5zm-117.4 0h15.5v253.1h-15.5zm-88.9 127.1H385v125.9h-15.5z"/></g><g fill="#4e6a99"><circle cx="466.1" cy="413.7" r="19.9"/><path d="M467.9 108.6c-41.5 0-75.1 33.6-75.1 75.1s75.1 198.4 75.1 198.4S543 225.2 543 183.7s-33.7-75.1-75.1-75.1zm0 110.8c-19.7 0-35.7-16-35.7-35.7s16-35.7 35.7-35.7 35.7 16 35.7 35.7h0c0 19.7-16 35.7-35.7 35.7h0z"/></g></svg>