<svg xmlns="http://www.w3.org/2000/svg" xmlns:xlink="http://www.w3.org/1999/xlink" viewBox="0 0 926 748" xmlns:v="https://vecta.io/nano"><linearGradient id="A" gradientUnits="userSpaceOnUse" x1="450.451" y1="706.244" x2="450.451" y2="31.907"><stop offset="0" stop-color="gray" stop-opacity=".25"/><stop offset=".535" stop-color="gray" stop-opacity=".12"/><stop offset="1" stop-color="gray" stop-opacity=".1"/></linearGradient><path d="M744.1 679.8H584.3l-272.1 26.4L38 679.8V31.9l273 19.8 279-19.8 273 37.5-7.1 497.5z" fill="url(#A)"/><path d="M738.9 670.8H582.6l-266.2 25.7-268.2-25.7V40.4l267.1 19.3 272.9-19.3 266.9 36.5-6.8 484.1z" fill="#fff"/><path d="M739.7 653.6H575.2l-251.1 24.3-253-24.3V59L323 77.2 580.4 59l251.8 34.4v467.2z" fill="#4e6a99"/><defs><path id="B" d="M739.7 653.6H575.2l-251.1 24.3-253-24.3V59L323 77.2 580.4 59l251.8 34.4v467.2z"/></defs><clipPath id="C"><use xlink:href="#B"/></clipPath><g clip-path="url(#C)"><path d="M1057 832.1l-577.9-320L625.9 24.3l-50-19.8-71.1 236.4L-62-73-85-18.4l572.4 317-130.7 434.2 50 19.8 55-182.8 572.4 317z" fill="#fff"/></g><linearGradient id="D" gradientUnits="userSpaceOnUse" x1="788.186" y1="669.811" x2="788.186" y2="547.076"><stop offset="0" stop-opacity=".12"/><stop offset=".551" stop-opacity=".1"/><stop offset="1" stop-opacity=".02"/></linearGradient><path d="M728.1 669.8l1.9-122.7 118.3 4.7z" fill="url(#D)"/><path d="M71.1 316l362.7 160.6 24.2 50-24 25L71.1 379.5zm667.8 353.8l1.7-113.2 107.7 4.4zM564 574.6L715.3 77.5l60.2 8.2L606 600.6z" fill="#fff"/><path d="M323 677.9l252-24.3V59L323 77.2" opacity=".1" enable-background="new"/><path d="M553.8 275.4c0 48-87 184-87 184s-87-136-87-184 38.9-87 87-87c48.1.1 87 39 87 87h0z" fill="#ff5252"/><g fill="#fff"><circle cx="466.8" cy="269.4" r="26.3"/><path d="M699.7 316l132.5 34v63.5L670 355.6zM194.4 438L161 669.6l38 8 50-213.7v-30.3zm-1.3-302.4l-37.6 217.8 29.1 15.7L254 135.6z"/></g><g fill="#ff5252"><circle cx="265" cy="92.6" r="8"/><circle cx="169" cy="506.6" r="8"/><circle cx="161" cy="565.6" r="8"/><circle cx="246" cy="551.6" r="8"/><circle cx="109" cy="311.6" r="8"/><circle cx="739" cy="303.6" r="8"/><circle cx="670" cy="581.6" r="8"/></g></svg>