<svg xmlns="http://www.w3.org/2000/svg" viewBox="0 0 887.6 794.7" xmlns:v="https://vecta.io/nano"><linearGradient id="A" gradientUnits="userSpaceOnUse" x1="233.377" y1="720.15" x2="233.377" y2="190.039"><stop offset="0" stop-color="gray" stop-opacity=".25"/><stop offset=".535" stop-color="gray" stop-opacity=".12"/><stop offset="1" stop-color="gray" stop-opacity=".1"/></linearGradient><path d="M341.6 699.8l-216.5 20.4V210.4L341.6 190z" fill="url(#A)"/><linearGradient id="B" gradientUnits="userSpaceOnUse" x1="449.919" y1="720.15" x2="449.919" y2="190.039"><stop offset="0" stop-color="gray" stop-opacity=".25"/><stop offset=".535" stop-color="gray" stop-opacity=".12"/><stop offset="1" stop-color="gray" stop-opacity=".1"/></linearGradient><path d="M341.6 699.8l216.6 20.4V210.4L341.6 190z" fill="url(#B)"/><linearGradient id="C" gradientUnits="userSpaceOnUse" x1="664.337" y1="720.15" x2="664.337" y2="190.039"><stop offset="0" stop-color="gray" stop-opacity=".25"/><stop offset=".535" stop-color="gray" stop-opacity=".12"/><stop offset="1" stop-color="gray" stop-opacity=".1"/></linearGradient><path d="M770.5 699.8l-212.3 20.4V210.4L770.5 190z" fill="url(#C)"/><path d="M342.4 685.7L132 705.2V215.4l210.4-19.5z" fill="#f5f5f5"/><path d="M342.4 685.7l210.4 19.5V215.4l-210.4-19.5z" fill="#fff"/><path d="M763.2 685.7l-210.4 19.5V215.4l210.4-19.5z" fill="#f5f5f5"/><path d="M342.4 240.8l-159.8 5.6V320h135.7v-26.6l24.1-.8 36.8 11.3v-51.7zm0 411.5L163 669.6V604l179.4-17.2zm-19.6-202.9l-179.4 17.3v-65.5l179.4-17.3zm125.4 152.3h78.2v59.8h-78.2zm-25.5-140.3h78.2v59.8h-78.2zm32-186.9h78.2v59.8h-78.2zm278.6 359.4l-121.8 10.4v-79.4l121.8-10.3zm-14.5-279.2l-121.9 10.4v-79.4l121.9-10.3z" opacity=".3" enable-background="new" fill="#4e6a99"/><linearGradient id="D" gradientUnits="userSpaceOnUse" x1="658.585" y1="316.304" x2="658.585" y2="155.808"><stop offset="0" stop-color="#b3b3b3" stop-opacity=".25"/><stop offset=".535" stop-color="#b3b3b3" stop-opacity=".1"/><stop offset="1" stop-color="#b3b3b3" stop-opacity=".05"/></linearGradient><path d="M708.3 207.3c0 28.4-49.7 109-49.7 109s-49.7-80.5-49.7-109 22.3-51.5 49.7-51.5 49.7 23.1 49.7 51.5z" fill="url(#D)"/><linearGradient id="E" gradientUnits="userSpaceOnUse" x1="658.585" y1="219.288" x2="658.585" y2="188.146"><stop offset="0" stop-opacity=".12"/><stop offset=".551" stop-opacity=".1"/><stop offset="1" stop-opacity=".02"/></linearGradient><ellipse cx="658.6" cy="203.7" rx="15" ry="15.6" fill="url(#E)"/><path d="M704.6 207.4c0 25.4-46 97.4-46 97.4s-46-72-46-97.4 20.6-46 46-46 46 20.5 46 46z" fill="#4e6a99"/><circle cx="658.6" cy="204.2" r="13.9" fill="#fff"/><linearGradient id="F" gradientUnits="userSpaceOnUse" x1="237.766" y1="639.391" x2="237.766" y2="477.761"><stop offset="0" stop-color="#b3b3b3" stop-opacity=".25"/><stop offset=".535" stop-color="#b3b3b3" stop-opacity=".1"/><stop offset="1" stop-color="#b3b3b3" stop-opacity=".05"/></linearGradient><path d="M289,529.6c0,28.6-51.2,109.8-51.2,109.8s-51.2-81.1-51.2-109.8s22.9-51.9,51.2-51.9S289,501,289,529.6z" fill="url(#F)"/><linearGradient id="G" gradientUnits="userSpaceOnUse" x1="237.766" y1="541.689" x2="237.766" y2="510.328"><stop offset=".005" stop-opacity=".12"/><stop offset=".551" stop-opacity=".1"/><stop offset="1" stop-opacity=".05"/></linearGradient><ellipse cx="237.8" cy="526" rx="15.5" ry="15.7" fill="url(#G)"/><path d="M283.8 529.3c0 25.4-46 97.4-46 97.4s-46-72-46-97.4 20.6-46 46-46 46 20.6 46 46h0z" fill="#4e6a99"/><circle cx="237.8" cy="526.1" r="13.9" fill="#fff"/><path d="M533.2 533c0 25.4-46 97.4-46 97.4s-46-72-46-97.4 20.6-46 46-46c25.4-.1 46 20.5 46 46 0-.1 0 0 0 0z" fill="#4e6a99"/><circle cx="487.2" cy="529.8" r="13.9" fill="#fff"/><path d="M713.5 503.9c0 25.4-46 97.4-46 97.4s-46-72-46-97.4 20.6-46 46-46 46 20.6 46 46z" fill="#4e6a99"/><circle cx="667.5" cy="500.7" r="13.9" fill="#fff"/><path d="M307 188.3c0 25.4-46 97.4-46 97.4s-46-72-46-97.4 20.6-46 46-46 46 20.6 46 46h0z" fill="#4e6a99"/><circle cx="261" cy="185.1" r="13.9" fill="#fff"/></svg>