<?xml version="1.0" encoding="utf-8"?>
<!-- Generator: Adobe Illustrator 21.0.0, SVG Export Plug-In . SVG Version: 6.00 Build 0)  -->
<svg version="1.1" id="e6acf613-1465-4206-8e97-2c0e8d4b1ea6"
	 xmlns="http://www.w3.org/2000/svg" xmlns:xlink="http://www.w3.org/1999/xlink" x="0px" y="0px" viewBox="0 0 887.6 794.7"
	 style="enable-background:new 0 0 887.6 794.7;" xml:space="preserve">
<style type="text/css">
	.st0{fill:url(#SVGID_1_);}
	.st1{fill:url(#SVGID_2_);}
	.st2{fill:url(#SVGID_3_);}
	.st3{fill:#F5F5F5;}
	.st4{fill:#FFFFFF;}
	.st5{opacity:0.3;fill:#4E6A99;enable-background:new    ;}
	.st6{fill:url(#SVGID_4_);}
	.st7{fill:url(#SVGID_5_);}
	.st8{fill:#4E6A99;}
	.st9{fill:url(#SVGID_6_);}
	.st10{fill:url(#SVGID_7_);}
</style>
<title>Map light</title>
<linearGradient id="SVGID_1_" gradientUnits="userSpaceOnUse" x1="233.3769" y1="73.8496" x2="233.3769" y2="603.9614" gradientTransform="matrix(1 0 0 -1 0 794)">
	<stop  offset="0" style="stop-color:#808080;stop-opacity:0.25"/>
	<stop  offset="0.5351" style="stop-color:#808080;stop-opacity:0.12"/>
	<stop  offset="1" style="stop-color:#808080;stop-opacity:0.1"/>
</linearGradient>
<polygon class="st0" points="341.6,699.8 125.1,720.2 125.1,210.4 341.6,190 "/>
<linearGradient id="SVGID_2_" gradientUnits="userSpaceOnUse" x1="449.9185" y1="73.8496" x2="449.9185" y2="603.9614" gradientTransform="matrix(1 0 0 -1 0 794)">
	<stop  offset="0" style="stop-color:#808080;stop-opacity:0.25"/>
	<stop  offset="0.5351" style="stop-color:#808080;stop-opacity:0.12"/>
	<stop  offset="1" style="stop-color:#808080;stop-opacity:0.1"/>
</linearGradient>
<polygon class="st1" points="341.6,699.8 558.2,720.2 558.2,210.4 341.6,190 "/>
<linearGradient id="SVGID_3_" gradientUnits="userSpaceOnUse" x1="664.3368" y1="73.8496" x2="664.3368" y2="603.9614" gradientTransform="matrix(1 0 0 -1 0 794)">
	<stop  offset="0" style="stop-color:#808080;stop-opacity:0.25"/>
	<stop  offset="0.5351" style="stop-color:#808080;stop-opacity:0.12"/>
	<stop  offset="1" style="stop-color:#808080;stop-opacity:0.1"/>
</linearGradient>
<polygon class="st2" points="770.5,699.8 558.2,720.2 558.2,210.4 770.5,190 "/>
<polygon class="st3" points="342.4,685.7 132,705.2 132,215.4 342.4,195.9 "/>
<polygon class="st4" points="342.4,685.7 552.8,705.2 552.8,215.4 342.4,195.9 "/>
<polygon class="st3" points="763.2,685.7 552.8,705.2 552.8,215.4 763.2,195.9 "/>
<polygon class="st5" points="342.4,240.8 182.6,246.4 182.6,268.3 182.6,298.2 182.6,320 318.3,320 318.3,293.4 342.4,292.6 
	379.2,303.9 379.2,252.2 "/>
<polygon class="st5" points="342.4,652.3 163,669.6 163,604 342.4,586.8 "/>
<polygon class="st5" points="322.8,449.4 143.4,466.7 143.4,401.2 322.8,383.9 "/>
<rect x="448.2" y="601.7" class="st5" width="78.2" height="59.8"/>
<rect x="422.7" y="461.4" class="st5" width="78.2" height="59.8"/>
<rect x="454.7" y="274.5" class="st5" width="78.2" height="59.8"/>
<polygon class="st5" points="733.3,633.9 611.5,644.3 611.5,564.9 733.3,554.6 "/>
<polygon class="st5" points="718.8,354.7 596.9,365.1 596.9,285.7 718.8,275.4 "/>
<linearGradient id="SVGID_4_" gradientUnits="userSpaceOnUse" x1="814.7896" y1="425.046" x2="814.7896" y2="585.542" gradientTransform="matrix(1 0 0 -1 -156.2047 741.3497)">
	<stop  offset="0" style="stop-color:#B3B3B3;stop-opacity:0.25"/>
	<stop  offset="0.5351" style="stop-color:#B3B3B3;stop-opacity:0.1"/>
	<stop  offset="1" style="stop-color:#B3B3B3;stop-opacity:5.000000e-02"/>
</linearGradient>
<path class="st6" d="M708.3,207.3c0,28.4-49.7,109-49.7,109s-49.7-80.5-49.7-109s22.3-51.5,49.7-51.5
	C686,155.8,708.3,178.9,708.3,207.3z"/>
<linearGradient id="SVGID_5_" gradientUnits="userSpaceOnUse" x1="658.5848" y1="574.7125" x2="658.5848" y2="605.8535" gradientTransform="matrix(1 0 0 -1 0 794)">
	<stop  offset="0" style="stop-color:#000000;stop-opacity:0.12"/>
	<stop  offset="0.5513" style="stop-color:#000000;stop-opacity:9.000000e-02"/>
	<stop  offset="1" style="stop-color:#000000;stop-opacity:2.000000e-02"/>
</linearGradient>
<ellipse class="st7" cx="658.6" cy="203.7" rx="15" ry="15.6"/>
<path class="st8" d="M704.6,207.4c0,25.4-46,97.4-46,97.4s-46-72-46-97.4c0-25.4,20.6-46,46-46C684,161.4,704.6,181.9,704.6,207.4
	C704.6,207.4,704.6,207.4,704.6,207.4z"/>
<circle class="st4" cx="658.6" cy="204.2" r="13.9"/>
<linearGradient id="SVGID_6_" gradientUnits="userSpaceOnUse" x1="393.9709" y1="101.9584" x2="393.9709" y2="263.5889" gradientTransform="matrix(1 0 0 -1 -156.2047 741.3497)">
	<stop  offset="0" style="stop-color:#B3B3B3;stop-opacity:0.25"/>
	<stop  offset="0.5351" style="stop-color:#B3B3B3;stop-opacity:0.1"/>
	<stop  offset="1" style="stop-color:#B3B3B3;stop-opacity:5.000000e-02"/>
</linearGradient>
<path class="st9" d="M289,529.6c0,28.6-51.2,109.8-51.2,109.8s-51.2-81.1-51.2-109.8s22.9-51.9,51.2-51.9S289,501,289,529.6z"/>
<linearGradient id="SVGID_7_" gradientUnits="userSpaceOnUse" x1="237.7661" y1="252.3107" x2="237.7661" y2="283.6719" gradientTransform="matrix(1 0 0 -1 0 794)">
	<stop  offset="5.410000e-03" style="stop-color:#000000;stop-opacity:0.12"/>
	<stop  offset="0.5513" style="stop-color:#000000;stop-opacity:9.000000e-02"/>
	<stop  offset="1" style="stop-color:#000000;stop-opacity:5.000000e-02"/>
</linearGradient>
<ellipse class="st10" cx="237.8" cy="526" rx="15.5" ry="15.7"/>
<path class="st8" d="M283.8,529.3c0,25.4-46,97.4-46,97.4s-46-72-46-97.4c0-25.4,20.6-46,46-46S283.8,503.9,283.8,529.3L283.8,529.3
	z"/>
<circle class="st4" cx="237.8" cy="526.1" r="13.9"/>
<path class="st8" d="M533.2,533c0,25.4-46,97.4-46,97.4s-46-72-46-97.4c0-25.4,20.6-46,46-46C512.6,486.9,533.2,507.5,533.2,533
	C533.2,532.9,533.2,533,533.2,533z"/>
<circle class="st4" cx="487.2" cy="529.8" r="13.9"/>
<path class="st8" d="M713.5,503.9c0,25.4-46,97.4-46,97.4s-46-72-46-97.4c0-25.4,20.6-46,46-46S713.5,478.5,713.5,503.9z"/>
<circle class="st4" cx="667.5" cy="500.7" r="13.9"/>
<path class="st8" d="M307,188.3c0,25.4-46,97.4-46,97.4s-46-72-46-97.4c0-25.4,20.6-46,46-46S307,162.9,307,188.3
	C307,188.3,307,188.3,307,188.3L307,188.3z"/>
<circle class="st4" cx="261" cy="185.1" r="13.9"/>
</svg>
