<svg xmlns="http://www.w3.org/2000/svg" width="798.681" height="647.009" xmlns:v="https://vecta.io/nano"><path fill="#f2f2f2" d="M126.832 0L74.02 103.01h10.66v84H30.953L0 247.38l383.53 196.636 126.833-247.38L126.832 0z"/><path fill="#3f3d56" d="M115.68 67.01h588v295h-588z"/><path opacity=".3" d="M198.18 173h434v1h-434zm.5 25h434v1h-434zm0 50h434v1h-434zm0 22h434v1h-434zm0-47h434v1h-434z" fill="#aab8cc"/><ellipse cx="566.681" cy="630.009" rx="186" ry="17" fill="#3f3d56"/><path fill="#aab8cc" d="M210.722 270.733l-1.38-1.448 64.6-61.573 56.946 40.962 46.05-51.056 20.193 17.164 54.93-32.958 61.014 41.01 95.76-54.47.988 1.738-96.837 55.082-60.986-40.99-55.07 33.042-19.807-16.836-45.95 50.944-57.054-41.038-63.4 60.428z"/><path d="M396.757 595.847c4.7 17.374 20.798 28.134 20.798 28.134s8.478-17.41 3.778-34.782-20.798-28.134-20.798-28.134-8.478 17.41-3.778 34.782z" fill="#3f3d56"/><g fill="#aab8cc"><path d="M403.663 592.113c12.897 12.554 14.472 31.854 14.472 31.854s-19.335-1.056-32.23-13.6-14.472-31.854-14.472-31.854 19.335 1.056 32.23 13.6z"/><circle cx="765.181" cy="53.509" r="33.5" opacity=".4"/><circle cx="703.181" cy="69.509" r="23.5" opacity=".4"/><circle cx="674.181" cy="500.509" r="12.5" opacity=".4"/><circle cx="461.181" cy="565.509" r="9.5" opacity=".4"/><circle cx="429.181" cy="439.509" r="12.5" opacity=".4"/><circle cx="608.181" cy="173.509" r="13"/></g><g fill="#2f2e41"><path d="M523.714 408.974l-11.02 1.225s-4.898 22.04 0 51.43 11.02 58.776 11.02 58.776 4.898 95.51 7.347 96.736 24.5 8.572 25.715 1.225S558 443.26 558 443.26l17.143 80.817s2.45 101.634 7.347 101.634 20.817-1.225 20.817-9.796 3.673-121.226 3.673-121.226-1.225-83.266-6.123-85.715-77.144 0-77.144 0z"/><path d="M533.5 613.466s-11.02-1.225-13.47 0-6.122 9.796 0 14.694 22.04 12.245 26.94 12.245a25.33 25.33 0 0 0 9.796-2.449l-2.45-20.817zm49 6.124l1.225 17.143s15.92 2.45 17.143 0 13.47-8.572 14.694-9.796 2.45-14.694-4.898-15.92-9.796 2.45-9.796 2.45z"/></g><g fill="#ffb8b8"><path d="M479.632 306.116s-29.388 28.164-25.715 42.858 33.062 57.55 33.062 57.55 28.164 14.694 31.837 0-19.592-11.02-19.592-11.02l-18.368-44.082 20.817-29.388zm131.313-42.846s26.77-17.216 26.152-29.043-16.758-49.12-16.758-49.12-12.625-26.25-17.645-15.522 6.597 22.147 6.597 22.147l7.497 36.582-20.376 19.44z"/><circle cx="544.53" cy="216.728" r="22.041"/><path d="M533.5 230.197l3.673 23.266 26.94-4.898-1.225-25.715c0-2.45-29.388 7.347-29.388 7.347z"/></g><g fill="#d0cde1"><path d="M532.285 253.463s30.613-7.347 34.286-4.898 22.04 4.898 22.04 4.898L609.43 285.3l-6.122 40.41s-1.225 64.9 1.225 75.92 15.92 12.245-12.245 14.694-33.062-1.225-52.654 3.674-35.51-2.45-30.613-7.347 13.47-83.266 3.674-90.613-13.47-45.307-13.47-45.307 33.062-17.143 33.062-23.265z"/><path d="M584.94 257.136l11.02-11.02s23.878 10.408 22.653 14.082-9.184 25.102-9.184 25.102l-11.02 3.673zm-71.022 22.04l-14.694-2.45s-11.02 12.245-14.694 17.143-11.02 17.143-11.02 17.143l25.715 18.368 19.592-20.817z"/></g><path d="M552.222 190.025l-.226-1.766a13.88 13.88 0 0 0-4.411.693c-.146-1.065-.053-2.15.272-3.173a14.11 14.11 0 0 0-4.083 1.775l-.9-3.222-12.24 6.033c-4.394 2.166-9.027 4.545-11.54 8.75-2.8 4.69-2.313 10.715-.4 15.83s5.095 9.64 7.645 14.47c.968 2.077 2.13 4.057 3.474 5.913 4.62 5.76 13.615 6.924 20.13 3.447a11.65 11.65 0 0 0 5.578-5.74 37.3 37.3 0 0 0 1.114-4.753c.806-3.292 1.74-10.086 4.415-12.168 1.176-.916 3.51 2.12 4.484.993 2.505-2.9 1.98-7.37.424-10.874a79.34 79.34 0 0 0-5.223-10.188c-.84-1.313-8.55-6.234-8.523-6.022z" fill="#2f2e41"/><path fill="#3f3d56" d="M12.68 115.01h64v64h-64z"/></svg>