<?xml version="1.0" encoding="utf-8"?>
<!-- Generator: Adobe Illustrator 21.0.0, SVG Export Plug-In . SVG Version: 6.00 Build 0)  -->
<svg version="1.1" id="_x34_f34ac5b-06a5-4e9f-a3b4-7a11c2245422"
	 xmlns="http://www.w3.org/2000/svg" xmlns:xlink="http://www.w3.org/1999/xlink" x="0px" y="0px" viewBox="0 0 946 662.8"
	 style="enable-background:new 0 0 946 662.8;" xml:space="preserve">
<style type="text/css">
	.st0{fill:url(#SVGID_1_);}
	.st1{fill:#3B5998;}
	.st2{fill:url(#SVGID_2_);}
	.st3{fill:#00ACED;}
	.st4{fill:url(#SVGID_3_);}
	.st5{fill:#0077B5;}
	.st6{fill:url(#SVGID_4_);}
	.st7{fill:#D34836;}
	.st8{fill:url(#SVGID_5_);}
	.st9{fill:#F5F5F5;}
	.st10{fill:#E0E0E0;}
	.st11{fill:url(#SVGID_6_);}
	.st12{fill:url(#SVGID_7_);}
	.st13{fill:#FFFFFF;}
	.st14{fill:#AAB8CC;}
	.st15{fill:url(#SVGID_8_);}
	.st16{fill:url(#SVGID_9_);}
	.st17{fill:url(#SVGID_10_);}
	.st18{fill:url(#SVGID_11_);}
	.st19{fill:url(#SVGID_12_);}
</style>
<title>pcsocial</title>
<linearGradient id="SVGID_1_" gradientUnits="userSpaceOnUse" x1="268.8444" y1="342.2248" x2="268.8444" y2="390.1084" gradientTransform="matrix(1 0 0 -1 -127 542.41)">
	<stop  offset="0" style="stop-color:#808080;stop-opacity:0.25"/>
	<stop  offset="0.54" style="stop-color:#808080;stop-opacity:0.12"/>
	<stop  offset="1" style="stop-color:#808080;stop-opacity:0.1"/>
</linearGradient>
<path class="st0" d="M137.1,164.8l2.6,3.8l6.1-4.1l3.9,7.4l-5.3,3.6l12.9,19l-8.4,5.7l-12.9-19l-3.8,2.6l-4.7-6.8l3.8-2.6l-2.6-3.8
	c0,0-5.6-6.8,0.4-12.5l8.4-5.7l4.1,6.1l-3.8,2.6C136.6,161.9,136.3,163.6,137.1,164.8z"/>
<path class="st1" d="M139,162.1l2.6,3.8l6.1-4.1l3.9,7.4l-5.3,3.6l12.9,19l-8.4,5.7l-12.9-19L134,181l-4.7-6.8l3.8-2.6l-2.6-3.8
	c0,0-5.6-6.8,0.4-12.5l8.4-5.7l4.1,6.1l-3.8,2.6C138.5,159.1,138.2,160.8,139,162.1z"/>
<linearGradient id="SVGID_2_" gradientUnits="userSpaceOnUse" x1="440.4283" y1="432.9538" x2="440.4283" y2="470.6906" gradientTransform="matrix(1 0 0 -1 -127 542.41)">
	<stop  offset="0" style="stop-color:#808080;stop-opacity:0.25"/>
	<stop  offset="0.54" style="stop-color:#808080;stop-opacity:0.12"/>
	<stop  offset="1" style="stop-color:#808080;stop-opacity:0.1"/>
</linearGradient>
<path class="st2" d="M331.8,78.2l4.6-0.9c0,0-3.9,4.3-4.6,4.6l0,0c-0.1,0.9-0.1,1.8,0,2.8c-8.8,37.9-41.4,21.2-41.4,21.2
	c11.9,0.3,12.9-4.6,12.9-4.6c-6.9-1-8.3-5.5-8.3-5.5c1.3,0.7,2.9,0.3,3.7-0.9c-7.5-1.9-6.4-9.2-6.4-9.2c1.3,1,2.9,1.6,4.5,1.7
	c-0.8-1-7.8-9.4-3.6-13.7c0,0,5.2,9.2,18.7,10l0.9-0.2c-0.2-0.7-0.2-1.3-0.2-2c0-5.3,4.3-9.7,9.7-9.7c6.4,0,7.8,3.7,7.8,3.7l4.6-2.8
	C334.6,72.6,334.1,77.2,331.8,78.2z"/>
<path class="st3" d="M333.7,75.4l4.6-0.9c0,0-3.9,4.3-4.6,4.6l0,0c-0.1,0.9-0.1,1.8,0,2.8c-8.8,37.9-41.4,21.2-41.4,21.2
	c11.9,0.3,12.9-4.6,12.9-4.6c-6.9-1-8.3-5.5-8.3-5.5c1.3,0.7,2.9,0.3,3.7-0.9c-7.5-1.9-6.4-9.2-6.4-9.2c1.3,1,2.9,1.6,4.5,1.7
	c-0.8-1-7.8-9.4-3.6-13.7c0,0,5.2,9.2,18.7,10l0.9-0.2c-0.2-0.7-0.2-1.3-0.2-2c0-5.3,4.3-9.7,9.7-9.7c6.4,0,7.8,3.7,7.8,3.7l4.6-2.8
	C336.4,69.9,336,74.5,333.7,75.4z"/>
<linearGradient id="SVGID_3_" gradientUnits="userSpaceOnUse" x1="770.593" y1="424.6384" x2="770.593" y2="477.6956" gradientTransform="matrix(1 0 0 -1 -127 542.41)">
	<stop  offset="0" style="stop-color:#808080;stop-opacity:0.25"/>
	<stop  offset="0.54" style="stop-color:#808080;stop-opacity:0.12"/>
	<stop  offset="1" style="stop-color:#808080;stop-opacity:0.1"/>
</linearGradient>
<path class="st4" d="M653.8,115.2l5-17.3c0,0,0.1-3.9-3.4-4.7c-3.5-0.8-4.8-0.6-6.9,0.8l-5.3,18.2l-8.8-2.6l8-27.4l8.8,2.6l-1.2,4.1
	c0,0,4.6-4.8,10.4-2.6c5.4,2,8.5,6.5,7.3,13.9l0.2,0.1l-5.2,17.7L653.8,115.2z M632.8,75.5c-2.9-0.9-4.6-3.9-3.8-6.8
	c0.9-2.9,3.9-4.6,6.8-3.8c2.9,0.9,4.6,3.9,3.8,6.8C638.8,74.7,635.7,76.4,632.8,75.5L632.8,75.5z M628.2,107.7l-8.8-2.6l8-27.4
	l8.8,2.6L628.2,107.7z"/>
<path class="st5" d="M655.6,112.5l5-17.3c0,0,0.1-3.9-3.4-4.7c-3.5-0.8-4.8-0.6-6.9,0.8l-5.3,18.2l-8.8-2.6l8-27.4L653,82l-1.2,4.1
	c0,0,4.6-4.8,10.4-2.6c5.4,2,8.5,6.5,7.3,13.9l0.2,0.1l-5.2,17.7L655.6,112.5z M634.6,72.8c-2.9-0.9-4.6-3.9-3.8-6.8
	c0.9-2.9,3.9-4.6,6.8-3.8c2.9,0.9,4.6,3.9,3.8,6.8C640.6,72,637.5,73.6,634.6,72.8L634.6,72.8z M630,105l-8.8-2.6l8-27.4l8.8,2.6
	L630,105z"/>
<linearGradient id="SVGID_4_" gradientUnits="userSpaceOnUse" x1="573.873" y1="470.2228" x2="618.0479" y2="470.2228" gradientTransform="matrix(1 0 0 -1 -127 542.41)">
	<stop  offset="0" style="stop-color:#808080;stop-opacity:0.25"/>
	<stop  offset="0.54" style="stop-color:#808080;stop-opacity:0.12"/>
	<stop  offset="1" style="stop-color:#808080;stop-opacity:0.1"/>
</linearGradient>
<path class="st6" d="M489.7,72.6h-6v6c0,0.8-0.6,1.4-1.4,1.4h-0.9c-0.8,0-1.4-0.6-1.4-1.4v-6h-6c-0.8,0-1.4-0.6-1.4-1.4v-0.9
	c0-0.8,0.6-1.4,1.4-1.4h6v-6c0-0.8,0.6-1.4,1.4-1.4h0.9c0.8,0,1.4,0.6,1.4,1.4v6h6c0.8,0,1.4,0.6,1.4,1.4v0.9
	C491,72,490.4,72.6,489.7,72.6z M468.9,56.5c1.2,1.6,1.9,3.6,1.9,5.6c-0.1,3.9-2.6,7.4-6.3,8.8c0.3,0.9,1.2,1.9,3.5,3.6
	c4.4,3.2,4.6,9.2,4.6,9.2l0,0v0.5c0,4.8-5.8,8.7-12.9,8.7c-7.1,0-12.9-4-12.9-8.7c0-4.6,5.2-8.4,12-8.7v-3.8
	c-5.2-0.6-9.2-4.7-9.2-9.6c0-5.3,4.7-9.7,10.6-9.7h0.5c0,0,10.6-0.8,12-0.9s0.9,1.8,0.9,1.8L468.9,56.5z M453.3,83.7
	c0,3,3.1,5.5,6.9,5.5c3.8,0,6.9-2.5,6.9-5.5c0-3-3.1-5.5-6.9-5.5C456.4,78.2,453.3,80.6,453.3,83.7z M464.5,61.1
	c-0.7-3.5-3.3-6-5.7-5.5s-3.7,3.8-2.9,7.3s3.3,6,5.7,5.5C464,67.9,465.3,64.7,464.5,61.1z"/>
<path class="st7" d="M491.5,69.9h-6v6c0,0.8-0.6,1.4-1.4,1.4h-0.9c-0.8,0-1.4-0.6-1.4-1.4v-6h-6c-0.8,0-1.4-0.6-1.4-1.4v-0.9
	c0-0.8,0.6-1.4,1.4-1.4h6v-6c0-0.8,0.6-1.4,1.4-1.4h0.9c0.8,0,1.4,0.6,1.4,1.4v6h6c0.8,0,1.4,0.6,1.4,1.4v0.9
	C492.9,69.3,492.3,69.9,491.5,69.9z M470.7,53.7c1.2,1.6,1.9,3.6,1.9,5.6c-0.1,3.9-2.6,7.4-6.3,8.8c0.3,0.9,1.2,1.9,3.5,3.6
	c4.4,3.2,4.6,9.2,4.6,9.2l0,0v0.5c0,4.8-5.8,8.7-12.9,8.7s-12.9-4-12.9-8.7c0-4.6,5.2-8.4,12-8.7v-3.8c-5.2-0.6-9.2-4.7-9.2-9.6
	c0-5.3,4.7-9.7,10.6-9.7h0.5c0,0,10.6-0.8,12-0.9s0.9,1.8,0.9,1.8L470.7,53.7z M455.2,80.9c0,3,3.1,5.5,6.9,5.5
	c3.8,0,6.9-2.5,6.9-5.5c0-3-3.1-5.5-6.9-5.5C458.3,75.4,455.2,77.9,455.2,80.9z M466.4,58.4c-0.7-3.5-3.3-6-5.7-5.5
	c-2.4,0.5-3.7,3.8-2.9,7.3c0.7,3.5,3.3,6,5.7,5.5C465.8,65.2,467.1,62,466.4,58.4z"/>
<linearGradient id="SVGID_5_" gradientUnits="userSpaceOnUse" x1="473" y1="-1.82" x2="473" y2="37.82" gradientTransform="matrix(1 0 0 -1 0 661)">
	<stop  offset="0" style="stop-color:#808080;stop-opacity:0.25"/>
	<stop  offset="0.54" style="stop-color:#808080;stop-opacity:0.12"/>
	<stop  offset="1" style="stop-color:#808080;stop-opacity:0.1"/>
</linearGradient>
<rect y="623.2" class="st8" width="946" height="39.6"/>
<rect x="3.2" y="623.2" class="st9" width="938.5" height="33.2"/>
<path class="st10" d="M548.8,495.2c0,0,12.5,84.5,86.4,112.7H335.9c73.9-28.2,86.4-112.7,86.4-112.7H548.8z"/>
<linearGradient id="SVGID_6_" gradientUnits="userSpaceOnUse" x1="485.4662" y1="35.2551" x2="485.4662" y2="53.1091" gradientTransform="matrix(1 0 0 -1 0 661)">
	<stop  offset="0" style="stop-color:#808080;stop-opacity:0.25"/>
	<stop  offset="0.54" style="stop-color:#808080;stop-opacity:0.12"/>
	<stop  offset="1" style="stop-color:#808080;stop-opacity:0.1"/>
</linearGradient>
<rect x="334.4" y="607.9" class="st11" width="302.1" height="17.9"/>
<rect x="335.9" y="607.9" class="st9" width="299.2" height="13.8"/>
<linearGradient id="SVGID_7_" gradientUnits="userSpaceOnUse" x1="612.5444" y1="16.4541" x2="612.5444" y2="351.0505" gradientTransform="matrix(1 0 0 -1 -127 542.41)">
	<stop  offset="0" style="stop-color:#808080;stop-opacity:0.25"/>
	<stop  offset="0.54" style="stop-color:#808080;stop-opacity:0.12"/>
	<stop  offset="1" style="stop-color:#808080;stop-opacity:0.1"/>
</linearGradient>
<path class="st12" d="M728.9,191.4H242.2c-5.4,0-9.8,4.5-9.8,9.9c0,0,0,0,0,0v286.5c0,21.1,16.7,38.1,37.3,38.1h431.6
	c20.6,0,37.3-17.1,37.3-38.1V201.3C738.7,195.9,734.3,191.4,728.9,191.4z"/>
<path class="st13" d="M248.5,199.4h474.2c5.5,0,9.9,4.4,9.9,9.9l0,0v263.4l0,0H238.6l0,0V209.3C238.6,203.8,243,199.4,248.5,199.4
	C248.5,199.4,248.5,199.4,248.5,199.4z"/>
<path class="st9" d="M694.7,517.7H276.5c-20.9,0-37.9-17-37.9-37.9l0,0v-7.2h494v7.2C732.5,500.8,715.6,517.7,694.7,517.7
	C694.7,517.7,694.7,517.7,694.7,517.7z"/>
<rect x="263" y="221.5" class="st14" width="447" height="220.6"/>
<linearGradient id="SVGID_8_" gradientUnits="userSpaceOnUse" x1="306.9054" y1="-81.7888" x2="306.9054" y2="7.9413" gradientTransform="matrix(1 0 0 -1 -127 542.41)">
	<stop  offset="0" style="stop-color:#808080;stop-opacity:0.25"/>
	<stop  offset="0.54" style="stop-color:#808080;stop-opacity:0.12"/>
	<stop  offset="1" style="stop-color:#808080;stop-opacity:0.1"/>
</linearGradient>
<path class="st15" d="M214.2,624.2h-68.6c-2.3,0-4.1-1.9-4.1-4.1v-85.6h76.9v85.6C218.4,622.3,216.5,624.2,214.2,624.2z"/>
<linearGradient id="SVGID_9_" gradientUnits="userSpaceOnUse" x1="269.6836" y1="-59.1124" x2="269.6836" y2="-0.949" gradientTransform="matrix(1 0 0 -1 -127 542.41)">
	<stop  offset="0" style="stop-color:#808080;stop-opacity:0.25"/>
	<stop  offset="0.54" style="stop-color:#808080;stop-opacity:0.12"/>
	<stop  offset="1" style="stop-color:#808080;stop-opacity:0.1"/>
</linearGradient>
<path class="st16" d="M142.7,601.5c-12.6,0-22.9-13-22.9-29.1s10.3-29.1,22.9-29.1c12.6,0,22.9,13,22.9,29.1
	S155.3,601.5,142.7,601.5z M142.7,548.6c-9.8,0-17.8,10.7-17.8,23.8s8,23.8,17.8,23.8c9.8,0,17.8-10.7,17.8-23.8
	S152.5,548.6,142.7,548.6z"/>
<path class="st14" d="M143.4,599.1c-12.2,0-22.2-12.2-22.2-27.1s9.9-27.1,22.2-27.1s22.2,12.2,22.2,27.1S155.7,599.1,143.4,599.1z
	 M143.4,549.8c-9.5,0-17.3,9.9-17.3,22.2s7.7,22.2,17.3,22.2c9.5,0,17.2-10,17.2-22.2S152.9,549.7,143.4,549.8L143.4,549.8z"/>
<path class="st14" d="M143.2,535.5h73.5l0,0v81.6c0,2.3-1.9,4.1-4.1,4.1h-65.2c-2.3,0-4.1-1.9-4.1-4.1L143.2,535.5L143.2,535.5z"/>
<linearGradient id="SVGID_10_" gradientUnits="userSpaceOnUse" x1="745.4167" y1="203.1138" x2="794.2369" y2="251.9339" gradientTransform="matrix(0.7071 0.7071 -0.7071 0.7071 425.7754 -545.2939)">
	<stop  offset="0" style="stop-color:#FFD600"/>
	<stop  offset="0.5" style="stop-color:#FF0100"/>
	<stop  offset="1" style="stop-color:#D800B9"/>
</linearGradient>
<path class="st17" d="M838.4,172c2.1-2.3,3.3-4.2,4.1-6c0.9-1.9,1.3-4,1.3-6.1c0-2.1-0.4-4.2-1.3-6.1c-0.8-1.8-2-3.7-4.1-6
	c-2.1-2.3-2.8-3-8.4-8.7c-5.6-5.6-6.4-6.3-8.7-8.4c-2.3-2.1-4.2-3.3-6-4.1c-1.9-0.9-4-1.3-6.1-1.3c-2.1,0-4.2,0.4-6.1,1.3
	c-1.8,0.8-3.7,2-6,4.1c-2.3,2.1-3,2.8-8.7,8.4c-5.6,5.6-6.3,6.4-8.4,8.7c-2.1,2.3-3.3,4.2-4.1,6c-0.9,1.9-1.3,4-1.3,6.1
	c0,2.1,0.4,4.2,1.3,6.1c0.8,1.8,2,3.7,4.1,6c2.1,2.3,2.8,3,8.4,8.7s6.4,6.3,8.7,8.4c2.3,2.1,4.2,3.3,6,4.1c3.9,1.7,8.3,1.7,12.1,0
	c1.8-0.8,3.7-2,6-4.1c2.3-2.1,3-2.8,8.7-8.4C835.6,175,836.3,174.3,838.4,172z M817.7,185.2c-2.1,1.9-3.6,2.7-4.6,3.1
	c-2.5,1.1-5.4,1.1-7.9,0c-1-0.4-2.5-1.2-4.6-3.1c-2.3-2.1-3-2.7-8.5-8.3c-5.5-5.5-6.2-6.2-8.3-8.5c-1.9-2.1-2.7-3.6-3.1-4.6
	c-0.6-1.2-0.9-2.6-0.8-3.9c0-1.4,0.3-2.7,0.8-3.9c0.4-1,1.2-2.5,3.1-4.6c2.1-2.3,2.7-3,8.3-8.5c5.5-5.5,6.2-6.2,8.5-8.3
	c2.1-1.9,3.6-2.7,4.6-3.1c1.2-0.6,2.6-0.9,3.9-0.8c1.4,0,2.7,0.3,3.9,0.8c1,0.4,2.5,1.2,4.6,3.1c2.3,2.1,3,2.7,8.5,8.3l0,0
	c5.5,5.5,6.2,6.2,8.3,8.5c1.9,2.1,2.7,3.6,3.1,4.6c0.6,1.2,0.9,2.6,0.8,3.9c0,1.4-0.3,2.7-0.8,3.9c-0.4,1-1.2,2.5-3.1,4.6
	c-2.1,2.3-2.7,3-8.3,8.5C820.7,182.5,820,183.1,817.7,185.2z"/>
<linearGradient id="SVGID_11_" gradientUnits="userSpaceOnUse" x1="759.1754" y1="216.873" x2="780.4777" y2="238.1753" gradientTransform="matrix(0.7071 0.7071 -0.7071 0.7071 425.7754 -545.2939)">
	<stop  offset="0" style="stop-color:#FF6400"/>
	<stop  offset="0.5" style="stop-color:#FF0100"/>
	<stop  offset="1" style="stop-color:#FD0056"/>
</linearGradient>
<path class="st18" d="M819.9,149.3c-5.9-5.9-15.4-5.9-21.3,0s-5.9,15.4,0,21.3c5.9,5.9,15.4,5.9,21.3,0
	C825.8,164.7,825.8,155.2,819.9,149.3z M802.3,166.9c-3.8-3.8-3.8-10,0-13.8c3.8-3.8,10-3.8,13.8,0c3.8,3.8,3.8,10,0,13.8
	C812.3,170.7,806.1,170.7,802.3,166.9z"/>
<linearGradient id="SVGID_12_" gradientUnits="userSpaceOnUse" x1="782.9934" y1="446.6472" x2="787.9716" y2="451.6254" gradientTransform="matrix(0.7071 0.7071 0.7071 -0.7071 -41.6222 -77.8963)">
	<stop  offset="0" style="stop-color:#F30072"/>
	<stop  offset="1" style="stop-color:#E50097"/>
</linearGradient>
<path class="st19" d="M833.9,162.4c-1.4,1.4-3.6,1.4-5,0c-1.4-1.4-1.4-3.6,0-5c1.4-1.4,3.6-1.4,5,0
	C835.2,158.8,835.2,161.1,833.9,162.4z"/>
</svg>
