<?xml version="1.0" encoding="utf-8"?>
<!-- Generator: Adobe Illustrator 19.0.0, SVG Export Plug-In . SVG Version: 6.00 Build 0)  -->
<svg version="1.1" id="Layer_1" xmlns="http://www.w3.org/2000/svg" xmlns:xlink="http://www.w3.org/1999/xlink" x="0px" y="0px"
	 viewBox="0 0 250 250" style="enable-background:new 0 0 250 250;" xml:space="preserve">
<style type="text/css">
	.st0{clip-path:url(#XMLID_27_);}
	.st1{fill:#D4E0FA;}
	.st2{fill:#FFAF9F;}
	.st3{opacity:0.6;}
	.st4{fill:#FFB1A7;}
	.st5{fill:#FFFFFF;}
	.st6{fill:#FFC0B1;}
	.st7{opacity:0.5;}
	.st8{opacity:0.4;fill:#FFB1A7;}
	.st9{opacity:0.5;fill:#FFFFFF;}
	.st10{fill:none;stroke:#678CFF;stroke-width:1.0593;stroke-linecap:round;stroke-linejoin:round;stroke-miterlimit:10;}
</style>
<g id="XMLID_25_">
	<defs>
		<circle id="XMLID_1_" cx="125" cy="124.9" r="121.5"/>
	</defs>
	<clipPath id="XMLID_27_">
		<use xlink:href="#XMLID_1_"  style="overflow:visible;"/>
	</clipPath>
	<g id="XMLID_28_" class="st0">
		<g id="XMLID_29_">
			<g id="XMLID_67_">
				<circle id="XMLID_23_" class="st1" cx="125" cy="124.9" r="121.5"/>
			</g>
			<g id="XMLID_39_">
				<g id="XMLID_59_">
					<g id="XMLID_60_">
						<g id="XMLID_65_">
							<path id="XMLID_22_" class="st2" d="M33.7,212.6L0.5,169.7c0,0,51-34.5,53.1-39.8c2.1-5.3,0.9-18.7,10.5-30.1
								c3.5-4.2,7.9-13,11.4-21c0.5-1.1,1-2.2,1.4-3.3c2.3-5.4,4.1-10,4.9-12c0,0,0,0,0,0c0.2-0.5,0.8-0.8,1.3-0.5
								c2.1,1.1,7.2,4.3,7.4,11.3c0.3,8.9-1.3,14.9-3.1,18.4c0,0-4.8,11.1-2.5,13.4c3,3,12.4-3.9,12.4-3.9
								c15.9-9.6,18.6,9.2,20.5,10.9c2.2,1.8,9.8,15.9,11.2,18c1.4,2.1,7.1,16.2,9.4,18.6c2.2,2.3,19.9,5,13.2,8.4
								c-24.3,12.1-46.5,24.3-73.7,25.1L33.7,212.6z"/>
						</g>
						<g id="XMLID_61_" class="st3">
							<path id="XMLID_21_" class="st4" d="M92.6,114.7c0,0-0.6,10.9-6.1,22.4c-4,8.5-17.6,21.6-17.6,21.6s16.1-10,21.5-18
								C98,129.3,92.6,114.7,92.6,114.7z"/>
							<path id="XMLID_20_" class="st4" d="M95.7,114.1c0,0,12.1,17.8,15.3,25.2c3.2,7.4,7.5,21.1,7.5,21.1s-13.1-21.5-15.2-26.9
								C100.6,126.3,95.7,114.1,95.7,114.1z"/>
							<path id="XMLID_19_" class="st4" d="M80,182.8c0,0-11.6-3.3-16.6-9c-5.7-6.4-7.2-11.3-7.2-11.3s1.1,10.9,8.1,16.1
								C72.2,184.5,80,182.8,80,182.8z"/>
						</g>
					</g>
				</g>
				<g id="XMLID_51_">
					<path id="XMLID_57_" class="st5" d="M112.8,164.1c-1.8,0.4-2.4,2.6-2.3,4.8c0.2,3.2,5,4.8,7,1.7
						C119.3,167.7,116.2,163.4,112.8,164.1z"/>
					<path id="XMLID_55_" class="st5" d="M97.2,116.4c-1.1-0.9-2.7-0.7-3.9,0.9c-1.4,1.9-0.5,5.2,2.2,4.8
						C98.1,121.9,99.2,118.1,97.2,116.4z"/>
					<path id="XMLID_53_" class="st5" d="M90.4,133.1c-1.7,0.5-2.6,2.3-1.7,4.6c1.1,2.8,5,4.1,6.5,1.1
						C96.7,135.9,93.5,132.2,90.4,133.1z"/>
					<path id="XMLID_15_" class="st5" d="M165.8,137.1c7.8-0.4,10.1-11.4,8.5-15.8c-2.7-7.6-9-8.9-17.3-8.4c0.1-0.1,0.1-0.1,0.2-0.2
						c4.1-2.9,6.5-8.3,5.2-13.1c-1.3-4.9-6.6-8.6-11.6-7.6c-2.6,0.5-4.7,2.1-6.3,4.2c-0.8,0.5-1.4,1.1-2,1.8
						c0.3-6.9-5.8-13.6-12.7-13.3c-11.3,0.6-8.9,11.5-9.2,18.8c-2.1-4-6.7-6.6-11.1-5.9c-4.4,0.7-8.1,5-7.7,9.5
						c0.5,5.1,5.4,8.3,10.4,10c-4.6-0.7-9.7,2.3-11.2,6.8c-1,1.5-1.5,3.3-1.3,5.1c0.3,3.5,2.8,6.1,5.9,8c0.7,0.5,1.3,0.9,2.1,1.2
						c0.4,0.2,0.9,0.3,1.4,0.4c0.4,0.1,0.7,0.3,1.1,0.4c-4.7-0.7-9.8,2.4-11.3,7c-1.7,5.4,1.5,11.8,6.8,14.1
						c5.3,2.3,11.8,0.5,15.6-3.7c-0.8,4-0.2,8.3,2.2,11.6c2.4,3.3,6.8,5.2,10.7,4.1c3.6-1,6.3-4.3,7.4-7.9c1.2-3.6,1.2-7.4,1.1-11.2
						c1.1,3.2,11.2,13.3,20.6,6.7C173.8,152.2,172.1,141.2,165.8,137.1z"/>
				</g>
				<g id="XMLID_40_">
					<g id="XMLID_49_">
						<path id="XMLID_14_" class="st6" d="M105.6,111.1c1.6,1.9,3.8,1.8,4.9,4.5c0.7,1.8-0.8,5.2-1,7.1c-0.2,2.2,0.6,4.4,2.1,6
							c1.4,1.5,4.1,2.7,5.1,4.5c1,1.7-1.7,5.8,0.2,10.7c1.8,4.6,6.6,5.4,7.1,6.2c0.9,1.5-1.8,8.3,1.8,13c0,0,0,0,0,0
							c3.1,4.8,12.4,0,14.7-1c2.9-1.2,5.8-2.4,8.6-3.6c0,0,10.6-5.5,13.1-2.3c1.9,2.4-4.8,12.4-4.8,12.4c-2.4,3.1-5.1,8.6-6.3,17.1
							c-0.9,6.7,3.6,10.3,5.6,11.5c0.5,0.3,1.1,0.1,1.4-0.3c0,0,0,0,0,0c1.1-1.7,3.7-5.9,6.9-10.8c0.7-1,1.3-2,2-3
							c4.9-7.2,10.8-15,15-18.6c11.7-9.7,12.7-22.6,15.7-27.3c3-4.8,67.4-37.3,67.4-37.3l-21.9-45.4L186,82.4
							c-2.5,1.2-5.2,1.7-8,1.5c-25.8-1.8-48.2-0.2-72,14.1c-3.9,2.4-3.6,5.1-3.1,7.6C103.3,107.6,104.2,109.6,105.6,111.1z"/>
					</g>
					<g id="XMLID_44_" class="st7">
						<path id="XMLID_13_" class="st4" d="M132.2,161.7c-0.3,0.2,0.9-3.8,0.2-5.8c0-0.1-0.1-0.2-0.1-0.3c-0.6-1.9-3.6-4.4-3.2-4.4
							c1-0.1,2.3,0.1,3.1,0.6c1.3,0.8,2.2,1.8,2.6,3.3c0,0.1,0.1,0.2,0.1,0.3c0.4,1.4,0.3,3.1-0.4,4.4
							C134.1,160.4,133.2,161.2,132.2,161.7z"/>
						<path id="XMLID_12_" class="st4" d="M125.3,145.6c-0.3,0.2,0.5-3.8-0.3-5.8c0-0.1-0.1-0.2-0.1-0.3c-0.8-1.8-4-4.1-3.6-4.1
							c1-0.2,2.3-0.1,3.1,0.3c1.4,0.7,2.4,1.6,3,3c0,0.1,0.1,0.2,0.1,0.3c0.6,1.4,0.6,3,0,4.4C127,144.2,126.2,145.1,125.3,145.6z"
							/>
						<path id="XMLID_11_" class="st4" d="M117.5,128.5c-0.3,0.2,0.5-3.8-0.3-5.8c0-0.1-0.1-0.2-0.1-0.3c-0.8-1.8-4-4.1-3.6-4.1
							c1-0.2,2.3-0.1,3.1,0.3c1.4,0.7,2.4,1.6,3,3c0,0.1,0.1,0.2,0.1,0.3c0.6,1.4,0.6,3,0,4.4C119.2,127.1,118.4,127.9,117.5,128.5z
							"/>
						<path id="XMLID_10_" class="st4" d="M112.3,112.1c-0.3,0.2,0.4-3.2-0.3-4.9c0-0.1-0.1-0.2-0.1-0.3c-0.6-1.6-3.4-3.5-3.1-3.5
							c0.8-0.1,2-0.1,2.6,0.3c1.2,0.6,2,1.3,2.5,2.6c0,0.1,0.1,0.2,0.1,0.2c0.5,1.2,0.5,2.6,0,3.7
							C113.7,110.9,113,111.6,112.3,112.1z"/>
					</g>
					<g id="XMLID_41_">
						<path id="XMLID_9_" class="st8" d="M162,182.2L162,182.2l4,2.6c-0.6,0.9-1.2,1.8-1.7,2.6c-2.8,4.2-5.1,8-6.1,9.5
							c-4.3-3.5-1.8-9.7,1.4-14.2C160.1,181.9,161.2,181.7,162,182.2z"/>
						<path id="XMLID_8_" class="st9" d="M162,182.2l4,2.5c-0.6,0.9-1.2,1.8-1.8,2.7C162.4,185.8,161.6,183.9,162,182.2z"/>
					</g>
				</g>
			</g>
			<g id="XMLID_30_">
				<g id="XMLID_35_">
					<polyline id="XMLID_7_" class="st10" points="64.2,137.8 69.4,130.6 75.5,137.4 					"/>
					<polyline id="XMLID_6_" class="st10" points="84.3,162.4 85.8,171.1 76.6,170.7 					"/>
					<path id="XMLID_5_" class="st10" d="M69.3,133.6c0,0,1.5,25.6,14.7,35.1"/>
				</g>
				<g id="XMLID_31_">
					<polyline id="XMLID_4_" class="st10" points="137,101.9 128.2,101 129.1,110 					"/>
					<polyline id="XMLID_3_" class="st10" points="140.7,134 146.8,140.3 151.9,132.7 					"/>
					<path id="XMLID_2_" class="st10" d="M130,103c0,0,18.1,18.2,16.5,34.3"/>
				</g>
			</g>
		</g>
	</g>
</g>
</svg>
