<svg xmlns="http://www.w3.org/2000/svg" xmlns:xlink="http://www.w3.org/1999/xlink" viewBox="0 0 250 250" xmlns:v="https://vecta.io/nano"><defs><circle id="A" cx="125" cy="125" r="122"/><path id="B" d="M145.7 86.6c.1.2-3.2-1.2-5.1-1.1h-.3c-1.8.1-4.7 1.6-4.6 1.4.1-.7.6-1.5 1.1-1.9 1-.7 2-1.1 3.5-1.2h.3c1.4 0 2.8.3 3.8 1 .6.4 1.1 1.1 1.3 1.8z"/></defs><clipPath id="C"><use xlink:href="#A"/></clipPath><g clip-path="url(#C)"><circle cx="125" cy="125" r="122" fill="#d4e0fa"/><path d="M139.1 257.8l-50.3-6.2s3.1-73.5.6-78.6c-2.4-5.1-12.7-13-14.6-28.1-.7-5.5-4.2-14.7-7.6-22.8-.5-1.1-1-2.2-1.4-3.3a221.4 221.4 0 0 0-5.4-11.7c-.2-.5 0-1.1.5-1.4 2.1-1 7.6-2.9 12.8 1.5 6.5 5.6 9.7 10.9 11 14.5 0 0 4.8 11.1 7.8 10.8 4-.4 4.6-9.9 4.6-9.9-.7-19.1-4.7-38.5-5.8-53.2-.1-2-.3-4.1.3-6.1.6-1.9 2.1-3.7 4-3.7 2.7-.1 4.5 3 5.6 5.7 4.2 10.5 12 45 14.3 44 2.5-1.1 5.5-39.3 9.7-57.8.6-2.4 3.8-8.2 7.7-7.8 5.5.5 5.6 10.9 5.6 14.4.4 16.7-2.6 55.7-.2 56s10.6-31.9 14.3-45.9c.6-2.4 1.3-5 2.8-7s3.9-3.5 6.1-3c2.1.5 3.5 2.6 4 4.9s.2 4.6-.1 7c-1.8 14-8.9 50.5-5.7 50.3 3.1-.3 13.8-17.2 19.3-26.5 1.6-2.7 5.8-6.4 8.2-4.9 1.9 1.2 2.5 5.1 1.5 8.8-2 7.5-13 30.7-16 37.8-10.9 25.9-13.5 31-30.4 53l-3.2 69.2z" fill="#ffaf9f"/><g fill="#fff"><path d="M169.7 131.8c-1.1-.9-2.7-.7-3.9.9-1.4 2-.5 5.2 2.2 4.9 2.6-.3 3.7-4.1 1.7-5.8zm-44.5-51.6c-1.7.5-2.6 2.3-1.7 4.6 1.1 2.8 5 4.1 6.6 1.1 1.3-2.9-1.8-6.7-4.9-5.7zm20.6 23.8c1.8 0 3.4 1.6 3.4 3.3.5-2.3 3.7-3.6 5.6-2.1 1.9 1.4 1.6 4.9-.5 5.9 1.7-.9 3.9-.1 4.8 1.5s.3 3.9-1.2 5-3.8 1-5.2-.3c.5 2.1.8 4.6-.5 6.3-1.3 1.6-4 1.9-5.6.5s-1.6-4.1-.1-5.6c-1.2.6-2.5.9-3.9.9-.7 0-1.4-.2-1.9-.6-.9-.7-1-2.1-.6-3.1.5-1 1.5-1.7 2.6-2-1.4-.1-2.9-.3-4-1.1-1.2-.8-1.8-2.5-1-3.7.6-.8 1.7-1.1 2.7-1s1.8.6 2.7 1.1c-2-1.7.4-4.9 2.7-5zm-52.9 24.2c.6 1.6-.5 3.7-2.1 4.2 2.3-.2 4.4 2.4 3.6 4.6s-4.1 2.9-5.7 1.2c1.3 1.3 1.2 3.6 0 4.9-1.3 1.3-3.6 1.4-5 .3-1.5-1.1-2-3.3-1.2-4.9-1.9 1-4.1 2.1-6 1.3-1.9-.7-2.9-3.2-2-5.1s3.4-2.7 5.2-1.7c-.9-.9-1.6-2.1-1.9-3.4-.2-.7-.2-1.4 0-2 .4-1 1.6-1.6 2.7-1.4s2 .9 2.6 1.8c-.3-1.3-.6-2.8-.2-4.1s1.8-2.4 3.1-2c.9.3 1.5 1.3 1.7 2.2.1.9-.1 1.9-.3 2.8 1.1-2 4.8-.8 5.5 1.3zm15.7-36.9c2.3-.1 4.5 2 4.5 4.4.6-3.1 4.8-4.7 7.3-2.8s2.1 6.4-.7 7.8c2.2-1.1 5.2-.2 6.4 2s.4 5.1-1.6 6.6c-2 1.4-5 1.3-6.8-.3.6 2.8 1 6-.7 8.3-1.7 2.2-5.3 2.5-7.3.6-2-1.8-2.1-5.4-.2-7.3-1.6.8-3.4 1.2-5.1 1.1-.9 0-1.8-.2-2.6-.8-1.1-.9-1.4-2.7-.7-4 .6-1.3 2-2.2 3.4-2.7-1.8-.2-3.8-.4-5.3-1.4-1.5-1.1-2.4-3.3-1.3-4.8.7-1.1 2.2-1.4 3.5-1.2 1.2.2 2.4.8 3.5 1.4-2.4-2.6.7-6.8 3.7-6.9z"/></g><path d="M156.4 94.5c-2.4 9.6-5.9 21.7-8.1 22.3-2.1.6-1-25-.8-28.4.6-4.3-4.8-7.3-7.7-6.8-2.7.4-5.7 2.4-6.7 6.3-2.3 13.2-4.9 26.6-6.4 26.7-1.6.1-2.8-14.9-4.1-31-.1-2.4-3.3-8.1-9.4-7.4-5 .5-6.9 5.9-6.9 9.5.7 15.3 1.7 29.3.3 29.9-1.3.5-5-5.5-9-15.7-.8-2-2.2-3.8-4.1-4.8-2.2-1.1-4.1-.7-5.8 0-6.4 2.8-5 8.1-5 8.1l7.5 30.2s1.7 6.9-2.7 8.2c-3 .9-12.1-8.8-12.1-8.8-2-3.4-6.2-7.9-13.7-12.1-5.9-3.3-10.9-.4-12.8 1a1.08 1.08 0 0 0-.2 1.4l7.6 10.4 2.1 3c4.9 7.2 10.2 15.5 11.9 20.8 4.9 14.5 16.5 20.1 19.9 24.7 3.4 4.5 10.4 76.7 10.4 76.7l50.5-3.9-2.3-68.2c12.2-24.9 12.1-33 13.6-61.1.3-5.7 3.7-20 5.8-30.3.5-3.3-3.7-5.8-5.8-5.9-2.1 0-5.1 2-6 5.2z" fill="#ffc0b1"/><g opacity=".5" fill="#ffb1a7"><path d="M167.2 95.7c0 .2-2.7-1.6-4.5-1.8h-.3c-1.7-.2-4.6.7-4.5.5.3-.6.8-1.2 1.4-1.5 1-.5 2.1-.7 3.4-.5h.3c1.2.2 2.5.8 3.3 1.5.5.5.8 1.2.9 1.8zm-2.1 1.7c0 .2-1.8-1.1-3.1-1.3h-.2c-1.1-.2-3.2.5-3.1.3.2-.4.6-.9 1-1.1.7-.3 1.4-.5 2.4-.4h.2c.9.1 1.7.5 2.3 1 .3.5.5 1 .5 1.5z"/><use xlink:href="#B"/><path d="M144.6 89c.1.2-2.3-.8-3.8-.8h-.2c-1.3 0-3.4 1.2-3.4 1 .1-.5.4-1.1.8-1.4.7-.5 1.5-.8 2.5-.9h.2c1 0 2 .2 2.8.7.6.4.9.9 1.1 1.4zm-25.4-7.5c.1.2-3.2-1.2-5.1-1.1h-.3c-1.8.1-4.7 1.6-4.6 1.4.1-.7.6-1.5 1.1-1.9 1-.7 2-1.1 3.5-1.2h.3c1.4 0 2.8.3 3.8 1 .6.4 1.1 1.1 1.3 1.8zm-2.3 2.8c0 .1-1.7-.6-2.7-.6h-.2c-1 0-2.5.8-2.4.7.1-.3.3-.8.6-1 .5-.4 1.1-.6 1.8-.6h.1c.7 0 1.5.2 2 .5.4.2.6.6.8 1zM93.2 98.1c.1.2-2.9-.1-4.4.4-.1 0-.1 0-.2.1-1.4.5-3.4 2.5-3.4 2.3-.1-.6.1-1.3.5-1.8.6-.8 1.4-1.4 2.5-1.8.1 0 .2-.1.2-.1 1.1-.4 2.3-.4 3.3-.2.6.1 1.1.6 1.5 1.1zm-.4 3c.1.1-1.8-.1-2.8.3 0 0-.1 0-.1.1-.9.3-2.1 1.6-2.2 1.4 0-.4.1-.8.3-1.1.4-.5.9-.9 1.6-1.2h.1c.7-.2 1.5-.3 2.1-.1.4 0 .7.3 1 .6z"/></g><path d="M61.2 132.2h0l-3.8 2.8-1.8-2.6a192.33 192.33 0 0 0-6.7-9.1c4.8-2.7 9.7 1.8 12.8 6.5.5.8.2 1.8-.5 2.4z" opacity=".4" fill="#ffb1a7"/><path d="M61.2 132.2l-3.8 2.8-1.9-2.6c2.1-1.1 4.3-1.1 5.7-.2z" opacity=".5" fill="#fff"/><g fill="none" stroke="#678cff" stroke-width="1.059" stroke-linecap="round" stroke-linejoin="round" stroke-miterlimit="10"><path d="M130.2 140.4l8.8 1.5-3.4 8.5m.5-6.5s-22.4 13.8-25.6 34.1"/><path d="M114.2 140.4l-8.8 1.5 3.4 8.5m-.4-6.5s22.4 13.8 25.5 34.1"/></g></g></svg>