<svg xmlns="http://www.w3.org/2000/svg" xmlns:xlink="http://www.w3.org/1999/xlink" viewBox="0 0 250 250" xmlns:v="https://vecta.io/nano"><circle cx="125" cy="125" r="122.5" fill="#d4e0fa"/><defs><circle id="A" cx="125" cy="125" r="122.5"/><path id="B" d="M98.9 100.9c-1.1-.9-2.7-.7-3.9.9-1.4 2-.5 5.2 2.2 4.9 2.6-.3 3.7-4.1 1.7-5.8z"/></defs><clipPath id="C"><use xlink:href="#A"/></clipPath><g clip-path="url(#C)"><path d="M56.1 244.5L8.3 198.9s72.7-79.6 73.3-85.3-4-18.4 2.4-32.1c2.3-5 4.3-14.7 5.6-23.4.2-1.2.4-2.4.5-3.6l1.6-12.9c.1-.6.6-1 1.1-.8 2.4.5 8.1 2.3 10.2 9 2.6 8.6 2.6 14.9 1.8 18.7 0 0-1.8 12.1 1 13.7 3.7 2.1 11-7.1 11-7.1 12.9-13.5 27-28.2 37.8-37.7 1.5-1.3 3-2.7 4.9-3.3s4.2-.4 5.5 1.2c1.9 2.2.6 5.6-.8 8.1-5.4 9.7-26.9 35.9-24.6 37 2.6 1.2 27.4-30.7 42-42.1 1.9-1.5 8-3.7 11-.8 4.2 4.1-2.1 12.2-4.1 14.9-9.8 13.1-35.2 40.9-33.4 42.6 1.9 1.7 25-21.9 35.6-31.2 1.8-1.6 3.8-3.3 6.1-4.1s5.2-.6 6.9 1.3c1.5 1.7 1.7 4.3.9 6.5s-2.3 4-3.8 5.7c-8.9 10.5-34.5 35.7-31.6 37.4 2.8 1.6 17.2-11.7 26.2-17.1 2.6-1.6 8.1-2.8 9.7-.2 1.3 2 .1 5.8-2.4 8.6-5 5.6-12.4 11.1-18.1 16.1-20.5 18.2-39.3 33.2-65.6 41.1l-62.9 85.4z" fill="#ffc0b1"/><g opacity=".6" fill="#ffb1a7"><path d="M115.6 88.6s2.2 10.8-.1 23.4c-1.7 9.3-11.5 25.7-11.5 25.7s13.1-13.9 16.2-23.2c4.5-13.1-4.6-25.9-4.6-25.9zm2.9-1.4s16.4 14.2 21.5 20.5 12.9 18.6 12.9 18.6-18.4-17.5-21.8-22.2l-12.6-16.9zm2.6 71s-12.1-.2-18.5-4.4c-7.2-4.8-10-9.1-10-9.1s3.9 10.3 12.1 13.6c9.3 3.6 16.4-.1 16.4-.1z"/></g><g fill="#fff"><path d="M174.9 85c-1.9.4-2.4 2.6-2.3 4.9.2 3.2 5.1 4.9 7 1.7 1.9-3.1-1.2-7.4-4.7-6.6z"/><use xlink:href="#B"/><path d="M160.3 66.6c-1.1-.9-2.7-.7-3.9.9-1.4 2-.5 5.2 2.2 4.9 2.6-.3 3.7-4.1 1.7-5.8zm-68.2 51.2c-1.7.5-2.6 2.3-1.8 4.7 1.1 2.8 5 4.1 6.6 1.1 1.5-3-1.7-6.8-4.8-5.8zm76 6.2c7.9-.4 10.2-11.5 8.6-15.9-2.7-7.6-9.1-8.9-17.4-8.4l.2-.2c4.1-2.9 6.5-8.3 5.2-13.2-1.3-5-6.7-8.7-11.7-7.7-2.7.5-4.7 2.1-6.4 4.2-.8.5-1.4 1.1-2 1.8.3-6.9-5.8-13.7-12.8-13.4-11.4.6-9 11.6-9.3 18.9-2.1-4-6.8-6.7-11.2-6-4.5.7-8.2 5-7.8 9.5.5 5.2 5.4 8.4 10.5 10.1-4.6-.7-9.7 2.3-11.3 6.9-1 1.5-1.5 3.3-1.3 5.2.3 3.6 2.8 6.2 6 8 .7.5 1.4.9 2.1 1.2.4.2.9.3 1.4.4.4.1.7.3 1.1.4-4.7-.7-9.9 2.4-11.4 7-1.8 5.5 1.5 11.9 6.8 14.2s11.9.5 15.8-3.8c-.8 4-.2 8.4 2.2 11.7s6.8 5.2 10.7 4.1c3.7-1 6.3-4.4 7.5-8s1.2-7.5 1.1-11.3c1.1 3.2 11.2 13.4 20.8 6.7 10.7-7.1 9-18.2 2.6-22.4zm-80.5 24.9c3.6-.1 6.9 3.1 6.9 6.7.9-4.7 7.4-7.1 11.2-4.3 3.8 2.9 3.2 9.8-1 11.9 3.3-1.8 7.9-.3 9.7 3.1 1.8 3.3.7 7.9-2.4 10.1s-7.6 1.9-10.5-.5c.9 4.3 1.6 9.2-1.1 12.7-2.6 3.3-8.1 3.8-11.2 1s-3.2-8.3-.3-11.2c-2.4 1.3-5.1 1.9-7.8 1.7-1.4-.1-2.8-.4-3.9-1.2-1.7-1.4-2.1-4.1-1.1-6.2 1-2 3-3.4 5.1-4.1-2.8-.2-5.8-.5-8.1-2.2-2.3-1.6-3.6-5-2-7.4 1.1-1.6 3.4-2.2 5.4-1.9 1.9.3 3.7 1.2 5.3 2.2-3.5-3.9 1.2-10.3 5.8-10.4z"/></g><path d="M219 232.8l-51.7 19.5s-15-35.5-19.9-38.8-18.7-5.1-28.1-17.5c-3.4-4.5-11.4-10.9-18.7-16.3-1-.8-2-1.5-3-2.2-5-3.6-9.2-6.5-11-7.6-.5-.3-.6-1-.2-1.4 1.6-1.9 6-6.3 13.1-5 9.1 1.7 14.8 4.7 17.9 7.3 0 0 10.1 7.4 13 5.6 3.7-2.4-1.2-13.4-1.2-13.4-6.1-18.2-12.9-38.1-16.4-52.5-.5-2-1-4-.7-6.1.3-2 1.7-4 3.7-4.4 2.9-.6 5.4 2.1 7 4.6 6.3 9.6 20 41.7 22.1 40.1 2.3-1.8-15-39.7-18.4-58.4-.4-2.5.4-9.1 4.5-10.4 5.8-1.9 10.1 7.7 11.6 10.8 7.3 15.2 20.5 51.6 22.9 50.7 2.5-.9-8-33.2-11.5-47.3-.6-2.5-1.2-5-.8-7.5s2-5 4.4-5.7c2.3-.6 4.7.5 6.3 2.3 1.6 1.7 2.5 4 3.4 6.2 5.3 13.1 16.1 48.5 19.1 46.7 2.8-1.8-2.5-21.3-3.2-32.1-.2-3.1 1.3-8.7 4.4-8.9 2.4-.2 5.4 2.7 6.7 6.2 2.8 7.3 4.2 16.6 6 24.1 6.8 27.4 11.5 51.7 6.2 79.4l12.5 32z" fill="#ffc0b1"/><g opacity=".5" fill="#ffb1a7"><path d="M133.6 157.6c-.2-.3 4.1.9 6.3.3.1 0 .2 0 .3-.1 2.1-.6 5-3.6 5-3.2 0 1-.2 2.3-.8 3.1-.9 1.3-2.1 2.2-3.7 2.6-.1 0-.2.1-.3.1-1.6.4-3.4.2-4.7-.5-.8-.4-1.6-1.3-2.1-2.3zm17.8-6.8c-.2-.3 4.1.5 6.3-.3.1 0 .2-.1.3-.1 2-.7 4.7-4 4.7-3.6.1 1 0 2.4-.5 3.1-.8 1.4-1.8 2.4-3.5 3-.1 0-.2.1-.3.1-1.5.6-3.3.5-4.8-.1a7.21 7.21 0 0 1-2.2-2.1zm19.2-7.8c-.2-.3 4.1.5 6.3-.3.1 0 .2-.1.3-.1 2-.7 4.7-4 4.7-3.6.1 1 0 2.4-.5 3.1-.8 1.4-1.8 2.4-3.5 3-.1 0-.2.1-.3.1-1.5.6-3.3.5-4.8-.1-.8-.3-1.7-1.2-2.2-2.1zm18.1-5.1c-.2-.3 3.5.5 5.4-.2.1 0 .2-.1.3-.1 1.7-.6 3.9-3.4 4-3.1.1.9 0 2-.4 2.7-.7 1.2-1.6 2-2.9 2.5-.1 0-.2.1-.3.1-1.3.5-2.8.4-4-.1-.9-.3-1.6-1-2.1-1.8z"/></g><path d="M139.3 84.8a1.08 1.08 0 0 1-.7 1.4h0l-8.1 2.7c-.6.2-1.2-.1-1.3-.7-.9-3-1.8-8.1 2.3-9.4 3.7-1.3 6.4 2.5 7.8 6z" opacity=".4" fill="#ffb1a7"/><path d="M138.6 86.2l-8.1 2.7c.1-1.3 1.5-2.7 3.4-3.4 1.9-.6 3.8-.3 4.7.7z" opacity=".5" fill="#fff"/><path d="M102.1 174.6h0l-3.2 3.9-2.7-1.9c-4.3-3.1-8.2-5.7-9.7-6.7 4.3-4.1 10.7-1.3 15.3 2.3.9.5 1 1.7.3 2.4z" opacity=".4" fill="#ffb1a7"/><path d="M102.1 174.6l-3.2 3.9-2.7-2c1.9-1.7 4.2-2.4 5.9-1.9z" opacity=".5" fill="#fff"/><path d="M165.7 84.9a1.08 1.08 0 0 1-.7 1.4h0l-8.1 2.7c-.6.2-1.2-.1-1.3-.7-.9-3-1.8-8.1 2.3-9.4 3.8-1.3 6.5 2.4 7.8 6z" opacity=".4" fill="#ffb1a7"/><path d="M165.1 86.2l-8.1 2.7c.1-1.3 1.5-2.7 3.4-3.4 1.9-.5 3.7-.2 4.7.7z" opacity=".5" fill="#fff"/><path d="M192.8 97.7c.1.4-.2.8-.6.9h0l-5.8 1.2c-.4.1-.8-.2-.9-.6-.4-2.1-.6-5.7 2.3-6.3 2.7-.6 4.3 2.2 5 4.8z" opacity=".4" fill="#ffb1a7"/><path d="M192.2 98.6l-5.8 1.2c.2-.9 1.2-1.8 2.6-2 1.4-.3 2.6 0 3.2.8z" opacity=".5" fill="#fff"/><path d="M122.1 107.4c.2.5-.1.9-.6 1.1h0l-6.6 1.9c-.5.1-.9-.1-1-.6-.6-2.4-1.1-6.5 2.2-7.4 3-1 5.1 2.1 6 5z" opacity=".4" fill="#ffb1a7"/><path d="M121.5 108.4l-6.6 1.9c.2-1.1 1.3-2.1 2.9-2.6 1.5-.4 3-.1 3.7.7z" opacity=".5" fill="#fff"/></g><g clip-path="url(#C)" fill="none" stroke="#678cff" stroke-width="1.059" stroke-linecap="round" stroke-linejoin="round" stroke-miterlimit="10"><path d="M153.7 192.3c-2.1 3.7-2.1 8.5.3 11.9 2.1 3 5.7 4.6 9.4 5.1 6.2.8 12.7-1.3 17.5-5.3s9.1-8.4 9.5-15.9c.1-2.4-.7-9.8-10.2-10.7-4.8-.4-9.5 2-13.7 4.5m6.8 1.6l-8.8.7 1.2-9.1"/></g></svg>