<?xml version="1.0" encoding="utf-8"?>
<!-- Generator: Adobe Illustrator 19.0.0, SVG Export Plug-In . SVG Version: 6.00 Build 0)  -->
<svg version="1.1" id="Layer_1" xmlns="http://www.w3.org/2000/svg" xmlns:xlink="http://www.w3.org/1999/xlink" x="0px" y="0px"
	 viewBox="0 0 250 250" style="enable-background:new 0 0 250 250;" xml:space="preserve">
<style type="text/css">
	.st0{clip-path:url(#XMLID_26_);}
	.st1{fill:#D4E0FA;}
	.st2{fill:#FFAF9F;}
	.st3{opacity:0.6;}
	.st4{fill:#FFB1A7;}
	.st5{fill:#F5FBFF;}
	.st6{fill:#FFC0B1;}
	.st7{opacity:0.5;}
	.st8{opacity:0.4;fill:#FFB1A7;}
	.st9{opacity:0.5;fill:#FFFFFF;}
</style>
<g id="XMLID_24_">
	<defs>
		<circle id="XMLID_1_" cx="125.2" cy="125.3" r="122.8"/>
	</defs>
	<clipPath id="XMLID_26_">
		<use xlink:href="#XMLID_1_"  style="overflow:visible;"/>
	</clipPath>
	<g id="XMLID_27_" class="st0">
		<g id="XMLID_28_">
			<g id="XMLID_62_">
				<circle id="XMLID_22_" class="st1" cx="125.2" cy="125.3" r="122.8"/>
			</g>
			<g id="XMLID_29_">
				<g id="XMLID_30_">
					<g id="XMLID_54_">
						<g id="XMLID_55_">
							<g id="XMLID_60_">
								<path id="XMLID_21_" class="st2" d="M55.3,262.3L4.8,219.5c0,0,68.2-83.9,68.5-89.6c0.3-5.7-5.1-18.2,0.6-32.2
									c2.1-5.1,3.4-15,4.3-23.7c0.1-1.2,0.2-2.5,0.3-3.6c0.5-5.9,0.8-11,0.9-13c0,0,0,0,0,0c0-0.6,0.5-1,1.1-0.9
									c2.4,0.3,8.2,1.8,10.7,8.5c3.1,8.4,3.5,14.8,2.8,18.6c0,0-1.1,12.2,1.8,13.6c3.8,1.9,10.6-7.7,10.6-7.7
									c12.2-14.2,25.4-29.8,35.7-40c1.4-1.4,2.9-2.8,4.7-3.6c1.8-0.7,4.2-0.6,5.6,0.8c2,2.1,0.9,5.5-0.4,8.1
									c-4.9,10-24.8,37.5-22.5,38.5c2.7,1,25.7-32.3,39.7-44.5c1.8-1.6,7.8-4.2,11-1.4c4.4,3.9-1.4,12.3-3.3,15.1
									c-9.1,13.7-32.9,42.9-30.9,44.5c2,1.6,23.8-23.3,33.8-33.2c1.8-1.7,3.6-3.5,5.9-4.5c2.3-0.9,5.2-0.9,6.9,0.9
									c1.6,1.6,1.9,4.2,1.3,6.4c-0.6,2.2-2.1,4.1-3.5,5.9c-8.3,11-32.5,37.7-29.5,39.3c2.9,1.5,16.6-12.7,25.2-18.7
									c2.5-1.7,7.9-3.3,9.7-0.8c1.4,1.9,0.4,5.8-1.9,8.7c-4.7,5.9-11.8,11.8-17.2,17.1c-19.5,19.4-37.5,35.5-63.3,44.9L55.3,262.3
									z"/>
							</g>
							<g id="XMLID_56_" class="st3">
								<path id="XMLID_20_" class="st4" d="M105.9,102.8c0,0,2.9,10.6,1.3,23.4c-1.2,9.4-10,26.4-10,26.4s12.3-14.7,14.9-24.1
									C115.6,115.1,105.9,102.8,105.9,102.8z"/>
								<path id="XMLID_19_" class="st4" d="M108.7,101.2c0,0,17.2,13.2,22.7,19.3c5.4,6.1,13.9,17.9,13.9,17.9s-19.4-16.4-23.1-21
									C117.2,111.4,108.7,101.2,108.7,101.2z"/>
								<path id="XMLID_18_" class="st4" d="M115.4,172.2c0,0-12.1,0.5-18.8-3.4c-7.5-4.4-10.5-8.6-10.5-8.6s4.5,10.1,12.9,12.9
									C108.5,176.3,115.4,172.2,115.4,172.2z"/>
							</g>
						</g>
					</g>
					<path id="XMLID_17_" class="st5" d="M110.5,212c32.2-13.8,94.9-59.6,94.8-59.8c-4.1-8.5-27.5-39.3-27.5-39.3
						s-14.8-38.1-24.5-64.6c-39.6,35.5-53,36.4-97.5,61l20.2,52.6L110.5,212z"/>
					<g id="XMLID_31_">
						<path id="XMLID_16_" class="st6" d="M243.3,265.1L198,295.4c0,0-46.1-78.3-51.3-80.7c-5.2-2.4-18.1-2.1-29.3-12.7
							c-4.1-3.9-12.6-8.9-20.4-13c-1.1-0.6-2.2-1.1-3.2-1.7c-5.3-2.7-9.8-4.9-11.6-5.7c0,0,0,0,0,0c-0.5-0.2-0.7-0.9-0.5-1.4
							c1-2.1,4.1-7.1,10.9-6.9c8.6,0.2,14.5,2.3,17.8,4.3c0,0,10.8,5.6,13,3.4c2.9-2.9-3.8-12.9-3.8-12.9
							c-9.3-16.9-19.6-35.2-25.8-48.7c-0.9-1.9-1.7-3.8-1.8-5.8c-0.1-2,0.7-4.2,2.4-4.9c2.5-1.1,5.3,1.2,7.3,3.4
							c7.7,8.4,26.8,37.6,28.4,35.7c1.7-2.1-21.8-36.4-28.7-54.2c-0.9-2.3-1.5-9,2-10.9c4.9-2.7,10.8,5.9,12.8,8.8
							c9.7,13.7,29.3,47.2,31.4,46c2.1-1.3-14.2-31.2-20.2-44.4c-1.1-2.3-2.1-4.7-2.3-7.2c-0.2-2.5,0.8-5.2,2.9-6.2
							c2-0.9,4.4-0.2,6.3,1.2c1.8,1.4,3.1,3.5,4.4,5.5c7.5,12,24.7,44.9,27,42.6c2.2-2.2-4.3-21.3-5.9-32c-0.5-3.1,0.4-8.7,3.3-9.1
							c2.2-0.3,5.2,2.4,6.8,5.9c3.2,7.1,8.8,31.4,12,38.5c11.8,25.7,15.6,32.9,16.4,60.8L243.3,265.1z"/>
						<g id="XMLID_47_" class="st7">
							<path id="XMLID_15_" class="st4" d="M122.6,162.3c-0.2-0.3,3.9,0.2,5.8-0.7c0.1,0,0.2-0.1,0.3-0.1c1.8-0.9,3.8-4.3,3.9-3.9
								c0.2,1,0.3,2.3-0.1,3.1c-0.6,1.4-1.4,2.5-2.8,3.2c-0.1,0-0.2,0.1-0.3,0.1c-1.3,0.6-3,0.8-4.4,0.3
								C124.2,163.9,123.2,163.2,122.6,162.3z"/>
							<path id="XMLID_14_" class="st4" d="M137.5,152.8c-0.2-0.3,3.9-0.1,5.7-1.3c0.1-0.1,0.2-0.1,0.3-0.2c1.7-1,3.4-4.6,3.5-4.3
								c0.3,1,0.5,2.3,0.2,3.2c-0.5,1.5-1.2,2.6-2.5,3.4c-0.1,0.1-0.2,0.1-0.3,0.2c-1.3,0.8-2.9,1-4.4,0.7
								C139.1,154.3,138.2,153.6,137.5,152.8z"/>
							<path id="XMLID_13_" class="st4" d="M153.3,142.2c-0.2-0.3,3.9-0.1,5.7-1.3c0.1-0.1,0.2-0.1,0.3-0.2c1.7-1,3.4-4.6,3.5-4.3
								c0.3,1,0.5,2.3,0.2,3.2c-0.5,1.5-1.2,2.6-2.5,3.4c-0.1,0.1-0.2,0.1-0.3,0.2c-1.3,0.8-2.9,1-4.4,0.7
								C155,143.7,154,143,153.3,142.2z"/>
							<path id="XMLID_12_" class="st4" d="M168.8,134.4c-0.2-0.2,3.3-0.1,4.9-1.1c0.1,0,0.1-0.1,0.2-0.1c1.4-0.9,2.9-3.9,3-3.6
								c0.3,0.8,0.4,2,0.2,2.7c-0.4,1.3-1,2.2-2.2,2.9c-0.1,0-0.2,0.1-0.2,0.1c-1.1,0.7-2.5,0.9-3.7,0.6
								C170.3,135.7,169.4,135.1,168.8,134.4z"/>
						</g>
						<g id="XMLID_44_">
							<path id="XMLID_11_" class="st8" d="M112.8,90.3c0.3,0.5,0.2,1.2-0.3,1.4l0,0l-6.9,3.9l0,0c-0.5,0.3-1.1,0.1-1.4-0.5
								c-1.4-2.8-3.3-7.7,0.1-9.6C107.6,83.8,110.9,87,112.8,90.3z"/>
							<path id="XMLID_10_" class="st9" d="M112.5,91.7l-6.9,3.9c-0.2-1.3,0.8-2.9,2.4-3.8C109.7,90.9,111.5,90.9,112.5,91.7z"/>
						</g>
						<g id="XMLID_41_">
							<path id="XMLID_9_" class="st8" d="M97.4,183.8L97.4,183.8l-2.1,4.3c-1-0.5-1.9-1-2.8-1.5c-4.6-2.4-8.6-4.2-10.2-5
								c3-4.7,9.5-2.9,14.5-0.2C97.5,181.9,97.8,183,97.4,183.8z"/>
							<path id="XMLID_8_" class="st9" d="M97.4,183.9l-2.1,4.3c-1-0.5-2-1-2.9-1.5C93.8,184.7,95.7,183.7,97.4,183.9z"/>
						</g>
						<g id="XMLID_38_">
							<path id="XMLID_7_" class="st8" d="M137,86.2c0.3,0.5,0.2,1.2-0.3,1.4l0,0l-6.9,3.9l0,0c-0.5,0.3-1.1,0.1-1.4-0.5
								c-1.4-2.8-3.3-7.7,0.1-9.6C131.8,79.7,135,82.9,137,86.2z"/>
							<path id="XMLID_6_" class="st9" d="M136.6,87.6l-6.9,3.9c-0.2-1.3,0.8-2.9,2.4-3.8C133.8,86.8,135.6,86.8,136.6,87.6z"/>
						</g>
						<g id="XMLID_35_">
							<path id="XMLID_5_" class="st8" d="M167.7,94.2c0.1,0.4-0.1,0.8-0.5,0.9l0,0l-5.3,1.3l0,0c-0.4,0.1-0.8-0.2-0.8-0.6
								c-0.4-2.1-0.9-5.7,1.8-6.3C165.4,88.9,167,91.7,167.7,94.2z"/>
							<path id="XMLID_4_" class="st9" d="M167.2,95.1l-5.3,1.3c0.1-0.9,1.1-1.8,2.3-2.1C165.5,94.1,166.7,94.4,167.2,95.1z"/>
						</g>
						<g id="XMLID_32_">
							<path id="XMLID_3_" class="st8" d="M101.8,115c0.2,0.4,0.1,0.9-0.3,1.1l0,0l-5.6,2.8l0,0c-0.4,0.2-0.9,0-1.1-0.4
								c-1-2.3-2.4-6.2,0.4-7.6C97.9,109.6,100.3,112.3,101.8,115z"/>
							<path id="XMLID_2_" class="st9" d="M101.5,116.1l-5.6,2.8c-0.1-1.1,0.7-2.3,2.1-3C99.3,115.4,100.7,115.5,101.5,116.1z"/>
						</g>
					</g>
				</g>
			</g>
		</g>
	</g>
</g>
</svg>
