<?xml version="1.0" encoding="utf-8"?>
<!-- Generator: Adobe Illustrator 19.0.0, SVG Export Plug-In . SVG Version: 6.00 Build 0)  -->
<svg version="1.1" id="Layer_1" xmlns="http://www.w3.org/2000/svg" xmlns:xlink="http://www.w3.org/1999/xlink" x="0px" y="0px"
	 viewBox="0 0 250 250" style="enable-background:new 0 0 250 250;" xml:space="preserve">
<style type="text/css">
	.st0{fill:#D4E0FA;}
	.st1{clip-path:url(#XMLID_2_);}
	.st2{fill:#FFC0B1;}
	.st3{opacity:0.6;}
	.st4{fill:#FFB1A7;}
	.st5{fill:#FFFFFF;}
	.st6{opacity:0.5;}
	.st7{opacity:0.4;fill:#FFB1A7;}
	.st8{opacity:0.5;fill:#FFFFFF;}
	.st9{fill:none;stroke:#678CFF;stroke-width:1.0593;stroke-linecap:round;stroke-linejoin:round;stroke-miterlimit:10;}
</style>
<g id="XMLID_60_">
	<g id="XMLID_61_">
		<g id="XMLID_62_">
			<circle id="XMLID_58_" class="st0" cx="125" cy="125" r="122.5"/>
			<g id="XMLID_63_">
				<defs>
					<circle id="XMLID_17_" cx="125" cy="125" r="122.5"/>
				</defs>
				<clipPath id="XMLID_2_">
					<use xlink:href="#XMLID_17_"  style="overflow:visible;"/>
				</clipPath>
				<g id="XMLID_68_" class="st1">
					<g id="XMLID_102_">
						<g id="XMLID_103_">
							<g id="XMLID_108_">
								<path id="XMLID_57_" class="st2" d="M56.1,244.5L8.3,198.9c0,0,72.7-79.6,73.3-85.3c0.6-5.7-4-18.4,2.4-32.1
									c2.3-5,4.3-14.7,5.6-23.4c0.2-1.2,0.4-2.4,0.5-3.6c0.8-5.9,1.4-10.9,1.6-12.9c0,0,0,0,0,0c0.1-0.6,0.6-1,1.1-0.8
									c2.4,0.5,8.1,2.3,10.2,9c2.6,8.6,2.6,14.9,1.8,18.7c0,0-1.8,12.1,1,13.7c3.7,2.1,11-7.1,11-7.1c12.9-13.5,27-28.2,37.8-37.7
									c1.5-1.3,3-2.7,4.9-3.3c1.9-0.6,4.2-0.4,5.5,1.2c1.9,2.2,0.6,5.6-0.8,8.1c-5.4,9.7-26.9,35.9-24.6,37
									c2.6,1.2,27.4-30.7,42-42.1c1.9-1.5,8-3.7,11-0.8c4.2,4.1-2.1,12.2-4.1,14.9c-9.8,13.1-35.2,40.9-33.4,42.6
									c1.9,1.7,25-21.9,35.6-31.2c1.8-1.6,3.8-3.3,6.1-4.1c2.3-0.8,5.2-0.6,6.9,1.3c1.5,1.7,1.7,4.3,0.9,6.5
									c-0.8,2.2-2.3,4-3.8,5.7c-8.9,10.5-34.5,35.7-31.6,37.4c2.8,1.6,17.2-11.7,26.2-17.1c2.6-1.6,8.1-2.8,9.7-0.2
									c1.3,2,0.1,5.8-2.4,8.6c-5,5.6-12.4,11.1-18.1,16.1c-20.5,18.2-39.3,33.2-65.6,41.1L56.1,244.5z"/>
							</g>
							<g id="XMLID_104_" class="st3">
								<path id="XMLID_56_" class="st4" d="M115.6,88.6c0,0,2.2,10.8-0.1,23.4c-1.7,9.3-11.5,25.7-11.5,25.7s13.1-13.9,16.2-23.2
									C124.7,101.4,115.6,88.6,115.6,88.6z"/>
								<path id="XMLID_55_" class="st4" d="M118.5,87.2c0,0,16.4,14.2,21.5,20.5c5.1,6.3,12.9,18.6,12.9,18.6s-18.4-17.5-21.8-22.2
									C126.4,97.8,118.5,87.2,118.5,87.2z"/>
								<path id="XMLID_54_" class="st4" d="M121.1,158.2c0,0-12.1-0.2-18.5-4.4c-7.2-4.8-10-9.1-10-9.1s3.9,10.3,12.1,13.6
									C114,161.9,121.1,158.2,121.1,158.2z"/>
							</g>
						</g>
					</g>
					<g id="XMLID_91_">
						<path id="XMLID_100_" class="st5" d="M174.9,85c-1.9,0.4-2.4,2.6-2.3,4.9c0.2,3.2,5.1,4.9,7,1.7
							C181.5,88.5,178.4,84.2,174.9,85z"/>
						<path id="XMLID_98_" class="st5" d="M98.9,100.9c-1.1-0.9-2.7-0.7-3.9,0.9c-1.4,2-0.5,5.2,2.2,4.9
							C99.8,106.4,100.9,102.6,98.9,100.9z"/>
						<path id="XMLID_96_" class="st5" d="M160.3,66.6c-1.1-0.9-2.7-0.7-3.9,0.9c-1.4,2-0.5,5.2,2.2,4.9
							C161.2,72.1,162.3,68.3,160.3,66.6z"/>
						<path id="XMLID_94_" class="st5" d="M92.1,117.8c-1.7,0.5-2.6,2.3-1.8,4.7c1.1,2.8,5,4.1,6.6,1.1
							C98.4,120.6,95.2,116.8,92.1,117.8z"/>
						<path id="XMLID_49_" class="st5" d="M168.1,124c7.9-0.4,10.2-11.5,8.6-15.9c-2.7-7.6-9.1-8.9-17.4-8.4
							c0.1-0.1,0.1-0.1,0.2-0.2c4.1-2.9,6.5-8.3,5.2-13.2c-1.3-5-6.7-8.7-11.7-7.7c-2.7,0.5-4.7,2.1-6.4,4.2c-0.8,0.5-1.4,1.1-2,1.8
							c0.3-6.9-5.8-13.7-12.8-13.4c-11.4,0.6-9,11.6-9.3,18.9c-2.1-4-6.8-6.7-11.2-6c-4.5,0.7-8.2,5-7.8,9.5
							c0.5,5.2,5.4,8.4,10.5,10.1c-4.6-0.7-9.7,2.3-11.3,6.9c-1,1.5-1.5,3.3-1.3,5.2c0.3,3.6,2.8,6.2,6,8c0.7,0.5,1.4,0.9,2.1,1.2
							c0.4,0.2,0.9,0.3,1.4,0.4c0.4,0.1,0.7,0.3,1.1,0.4c-4.7-0.7-9.9,2.4-11.4,7c-1.8,5.5,1.5,11.9,6.8,14.2
							c5.3,2.3,11.9,0.5,15.8-3.8c-0.8,4-0.2,8.4,2.2,11.7c2.4,3.3,6.8,5.2,10.7,4.1c3.7-1,6.3-4.4,7.5-8c1.2-3.6,1.2-7.5,1.1-11.3
							c1.1,3.2,11.2,13.4,20.8,6.7C176.2,139.3,174.5,128.2,168.1,124z"/>
						<path id="XMLID_48_" class="st5" d="M87.6,148.9c3.6-0.1,6.9,3.1,6.9,6.7c0.9-4.7,7.4-7.1,11.2-4.3c3.8,2.9,3.2,9.8-1,11.9
							c3.3-1.8,7.9-0.3,9.7,3.1c1.8,3.3,0.7,7.9-2.4,10.1c-3.1,2.2-7.6,1.9-10.5-0.5c0.9,4.3,1.6,9.2-1.1,12.7
							c-2.6,3.3-8.1,3.8-11.2,1s-3.2-8.3-0.3-11.2c-2.4,1.3-5.1,1.9-7.8,1.7c-1.4-0.1-2.8-0.4-3.9-1.2c-1.7-1.4-2.1-4.1-1.1-6.2
							c1-2,3-3.4,5.1-4.1c-2.8-0.2-5.8-0.5-8.1-2.2c-2.3-1.6-3.6-5-2-7.4c1.1-1.6,3.4-2.2,5.4-1.9c1.9,0.3,3.7,1.2,5.3,2.2
							C78.3,155.4,83,149,87.6,148.9z"/>
					</g>
					<g id="XMLID_69_">
						<path id="XMLID_47_" class="st2" d="M219,232.8l-51.7,19.5c0,0-15-35.5-19.9-38.8c-4.9-3.3-18.7-5.1-28.1-17.5
							c-3.4-4.5-11.4-10.9-18.7-16.3c-1-0.8-2-1.5-3-2.2c-5-3.6-9.2-6.5-11-7.6c0,0,0,0,0,0c-0.5-0.3-0.6-1-0.2-1.4
							c1.6-1.9,6-6.3,13.1-5c9.1,1.7,14.8,4.7,17.9,7.3c0,0,10.1,7.4,13,5.6c3.7-2.4-1.2-13.4-1.2-13.4
							c-6.1-18.2-12.9-38.1-16.4-52.5c-0.5-2-1-4-0.7-6.1c0.3-2,1.7-4,3.7-4.4c2.9-0.6,5.4,2.1,7,4.6c6.3,9.6,20,41.7,22.1,40.1
							c2.3-1.8-15-39.7-18.4-58.4c-0.4-2.5,0.4-9.1,4.5-10.4c5.8-1.9,10.1,7.7,11.6,10.8c7.3,15.2,20.5,51.6,22.9,50.7
							c2.5-0.9-8-33.2-11.5-47.3c-0.6-2.5-1.2-5-0.8-7.5c0.4-2.5,2-5,4.4-5.7c2.3-0.6,4.7,0.5,6.3,2.3c1.6,1.7,2.5,4,3.4,6.2
							c5.3,13.1,16.1,48.5,19.1,46.7c2.8-1.8-2.5-21.3-3.2-32.1c-0.2-3.1,1.3-8.7,4.4-8.9c2.4-0.2,5.4,2.7,6.7,6.2
							c2.8,7.3,4.2,16.6,6,24.1c6.8,27.4,11.5,51.7,6.2,79.4L219,232.8z"/>
						<g id="XMLID_85_" class="st6">
							<path id="XMLID_46_" class="st4" d="M133.6,157.6c-0.2-0.3,4.1,0.9,6.3,0.3c0.1,0,0.2,0,0.3-0.1c2.1-0.6,5-3.6,5-3.2
								c0,1-0.2,2.3-0.8,3.1c-0.9,1.3-2.1,2.2-3.7,2.6c-0.1,0-0.2,0.1-0.3,0.1c-1.6,0.4-3.4,0.2-4.7-0.5
								C134.9,159.5,134.1,158.6,133.6,157.6z"/>
							<path id="XMLID_44_" class="st4" d="M151.4,150.8c-0.2-0.3,4.1,0.5,6.3-0.3c0.1,0,0.2-0.1,0.3-0.1c2-0.7,4.7-4,4.7-3.6
								c0.1,1,0,2.4-0.5,3.1c-0.8,1.4-1.8,2.4-3.5,3c-0.1,0-0.2,0.1-0.3,0.1c-1.5,0.6-3.3,0.5-4.8-0.1
								C152.9,152.5,152,151.7,151.4,150.8z"/>
							<path id="XMLID_43_" class="st4" d="M170.6,143c-0.2-0.3,4.1,0.5,6.3-0.3c0.1,0,0.2-0.1,0.3-0.1c2-0.7,4.7-4,4.7-3.6
								c0.1,1,0,2.4-0.5,3.1c-0.8,1.4-1.8,2.4-3.5,3c-0.1,0-0.2,0.1-0.3,0.1c-1.5,0.6-3.3,0.5-4.8-0.1
								C172,144.8,171.1,143.9,170.6,143z"/>
							<path id="XMLID_42_" class="st4" d="M188.7,137.9c-0.2-0.3,3.5,0.5,5.4-0.2c0.1,0,0.2-0.1,0.3-0.1c1.7-0.6,3.9-3.4,4-3.1
								c0.1,0.9,0,2-0.4,2.7c-0.7,1.2-1.6,2-2.9,2.5c-0.1,0-0.2,0.1-0.3,0.1c-1.3,0.5-2.8,0.4-4-0.1
								C189.9,139.4,189.2,138.7,188.7,137.9z"/>
						</g>
						<g id="XMLID_82_">
							<path id="XMLID_41_" class="st7" d="M139.3,84.8c0.2,0.6-0.1,1.2-0.7,1.4l0,0l-8.1,2.7l0,0c-0.6,0.2-1.2-0.1-1.3-0.7
								c-0.9-3-1.8-8.1,2.3-9.4C135.2,77.5,137.9,81.3,139.3,84.8z"/>
							<path id="XMLID_39_" class="st8" d="M138.6,86.2l-8.1,2.7c0.1-1.3,1.5-2.7,3.4-3.4C135.8,84.9,137.7,85.2,138.6,86.2z"/>
						</g>
						<g id="XMLID_79_">
							<path id="XMLID_38_" class="st7" d="M102.1,174.6L102.1,174.6l-3.2,3.9c-0.9-0.7-1.8-1.3-2.7-1.9c-4.3-3.1-8.2-5.7-9.7-6.7
								c4.3-4.1,10.7-1.3,15.3,2.3C102.7,172.7,102.8,173.9,102.1,174.6z"/>
							<path id="XMLID_36_" class="st8" d="M102.1,174.6l-3.2,3.9c-0.9-0.7-1.9-1.3-2.7-2C98.1,174.8,100.4,174.1,102.1,174.6z"/>
						</g>
						<g id="XMLID_76_">
							<path id="XMLID_33_" class="st7" d="M165.7,84.9c0.2,0.6-0.1,1.2-0.7,1.4l0,0l-8.1,2.7l0,0c-0.6,0.2-1.2-0.1-1.3-0.7
								c-0.9-3-1.8-8.1,2.3-9.4C161.7,77.6,164.4,81.3,165.7,84.9z"/>
							<path id="XMLID_31_" class="st8" d="M165.1,86.2l-8.1,2.7c0.1-1.3,1.5-2.7,3.4-3.4C162.3,85,164.1,85.3,165.1,86.2z"/>
						</g>
						<g id="XMLID_73_">
							<path id="XMLID_30_" class="st7" d="M192.8,97.7c0.1,0.4-0.2,0.8-0.6,0.9l0,0l-5.8,1.2l0,0c-0.4,0.1-0.8-0.2-0.9-0.6
								c-0.4-2.1-0.6-5.7,2.3-6.3C190.5,92.3,192.1,95.1,192.8,97.7z"/>
							<path id="XMLID_29_" class="st8" d="M192.2,98.6l-5.8,1.2c0.2-0.9,1.2-1.8,2.6-2C190.4,97.5,191.6,97.8,192.2,98.6z"/>
						</g>
						<g id="XMLID_70_">
							<path id="XMLID_26_" class="st7" d="M122.1,107.4c0.2,0.5-0.1,0.9-0.6,1.1l0,0l-6.6,1.9l0,0c-0.5,0.1-0.9-0.1-1-0.6
								c-0.6-2.4-1.1-6.5,2.2-7.4C119.1,101.4,121.2,104.5,122.1,107.4z"/>
							<path id="XMLID_22_" class="st8" d="M121.5,108.4l-6.6,1.9c0.2-1.1,1.3-2.1,2.9-2.6C119.3,107.3,120.8,107.6,121.5,108.4z"/>
						</g>
					</g>
				</g>
				<g id="XMLID_65_" class="st1">
					<path id="XMLID_21_" class="st9" d="M153.7,192.3c-2.1,3.7-2.1,8.5,0.3,11.9c2.1,3,5.7,4.6,9.4,5.1c6.2,0.8,12.7-1.3,17.5-5.3
						c4.8-4,9.1-8.4,9.5-15.9c0.1-2.4-0.7-9.8-10.2-10.7c-4.8-0.4-9.5,2-13.7,4.5"/>
					<polyline id="XMLID_20_" class="st9" points="173.3,183.5 164.5,184.2 165.7,175.1 					"/>
				</g>
			</g>
		</g>
	</g>
</g>
</svg>
