<?xml version="1.0" encoding="utf-8"?>
<!-- Generator: Adobe Illustrator 19.0.0, SVG Export Plug-In . SVG Version: 6.00 Build 0)  -->
<svg version="1.1" id="Layer_1" xmlns="http://www.w3.org/2000/svg" xmlns:xlink="http://www.w3.org/1999/xlink" x="0px" y="0px"
	 viewBox="0 0 250 250" style="enable-background:new 0 0 250 250;" xml:space="preserve">
<style type="text/css">
	.st0{clip-path:url(#XMLID_34_);}
	.st1{fill:#D4E0FA;}
	.st2{fill:#FFC0B1;}
	.st3{opacity:0.5;}
	.st4{fill:#FFB1A7;}
	.st5{opacity:0.4;fill:#FFB1A7;}
	.st6{opacity:0.5;fill:#FFFFFF;}
	.st7{fill:#FFFFFF;}
	.st8{fill:none;stroke:#678CFF;stroke-width:1.0593;stroke-linecap:round;stroke-linejoin:round;stroke-miterlimit:10;}
</style>
<g id="XMLID_33_">
	<defs>
		<circle id="XMLID_1_" cx="125" cy="125.7" r="123"/>
	</defs>
	<clipPath id="XMLID_34_">
		<use xlink:href="#XMLID_1_"  style="overflow:visible;"/>
	</clipPath>
	<g id="XMLID_35_" class="st0">
		<g id="XMLID_36_">
			<circle id="XMLID_31_" class="st1" cx="125" cy="125.7" r="123"/>
			<g id="XMLID_41_">
				<g id="XMLID_64_">
					<path id="XMLID_30_" class="st2" d="M219.8,239.1l-51.5,18.1c0,0-25.2-87.4-29.6-91.1c-4.4-3.7-17.1-6.5-25.2-19.6
						c-3-4.8-10-11.7-16.5-17.7c-0.9-0.8-1.8-1.7-2.7-2.4c-4.4-3.9-8.3-7.1-9.8-8.5c0,0,0,0,0,0c-0.4-0.4-0.5-1-0.1-1.5
						c1.5-1.8,5.8-5.8,12.3-4c8.3,2.4,13.5,5.8,16.2,8.7c0,0,9.1,8.1,11.7,6.6c3.5-2.1-0.5-13.5-0.5-13.5
						c-4.9-18.7-10.2-39.1-12.9-53.7c-0.4-2-0.7-4.1-0.3-6.1c0.4-2,1.7-3.9,3.6-4.2c2.7-0.4,4.9,2.5,6.3,5.1
						c5.4,10,16.6,43.1,18.6,41.7c2.2-1.6-12.1-40.8-14.4-59.8c-0.3-2.5,0.8-9.1,4.6-10.1c5.4-1.4,9,8.4,10.3,11.7
						c6,15.7,16.7,53.1,19,52.4c2.3-0.7-6-33.8-8.5-48.1c-0.4-2.5-0.9-5.1-0.4-7.6c0.5-2.5,2-4.9,4.3-5.3c2.1-0.4,4.4,0.9,5.8,2.8
						c1.4,1.9,2.2,4.2,2.9,6.4c4.3,13.5,12.8,49.7,15.6,48.1c2.7-1.6,1.1-21.7,2.2-32.5c0.3-3.1,2.6-8.4,5.4-8
						c2.2,0.3,4.4,3.6,5.1,7.4c1.3,7.7,0.7,32.6,2.1,40.3c5.1,27.9,6.9,35.8,0.8,63.1L219.8,239.1z"/>
					<g id="XMLID_80_" class="st3">
						<path id="XMLID_29_" class="st4" d="M128.3,109.3c-0.1-0.3,3.7,1.2,5.8,0.8c0.1,0,0.2,0,0.3-0.1c2-0.4,4.8-3.2,4.8-2.8
							c0,1-0.3,2.3-0.9,3c-0.9,1.2-2,2.1-3.5,2.4c-0.1,0-0.2,0-0.3,0.1c-1.5,0.3-3.1,0-4.4-0.8C129.5,111.3,128.8,110.3,128.3,109.3
							z"/>
						<path id="XMLID_28_" class="st4" d="M145.1,103.8c-0.2-0.3,3.8,0.8,5.9,0.2c0.1,0,0.2-0.1,0.3-0.1c1.9-0.6,4.5-3.6,4.5-3.3
							c0.1,1-0.1,2.3-0.6,3.1c-0.8,1.3-1.8,2.2-3.3,2.7c-0.1,0-0.2,0.1-0.3,0.1c-1.4,0.4-3.1,0.3-4.4-0.4
							C146.4,105.7,145.6,104.8,145.1,103.8z"/>
						<path id="XMLID_27_" class="st4" d="M163.2,97.5c-0.2-0.3,3.8,0.8,5.9,0.2c0.1,0,0.2-0.1,0.3-0.1c1.9-0.6,4.5-3.6,4.5-3.3
							c0.1,1-0.1,2.3-0.6,3.1c-0.8,1.3-1.8,2.2-3.3,2.7c-0.1,0-0.2,0.1-0.3,0.1c-1.4,0.4-3.1,0.3-4.4-0.4
							C164.4,99.3,163.6,98.4,163.2,97.5z"/>
						<path id="XMLID_26_" class="st4" d="M180.2,93.7c-0.1-0.3,3.2,0.7,5,0.2c0.1,0,0.2,0,0.3-0.1c1.6-0.5,3.8-3.1,3.8-2.8
							c0.1,0.9-0.1,2-0.5,2.6c-0.7,1.1-1.5,1.9-2.8,2.3c-0.1,0-0.2,0.1-0.3,0.1c-1.2,0.4-2.6,0.2-3.7-0.4
							C181.2,95.3,180.6,94.6,180.2,93.7z"/>
					</g>
					<g id="XMLID_77_">
						<path id="XMLID_25_" class="st5" d="M136.8,37c0.2,0.6-0.1,1.2-0.7,1.3l0,0l-7.6,2.1l0,0c-0.5,0.1-1.1-0.2-1.2-0.8
							c-0.7-3.1-1.3-8.2,2.5-9.3C133.4,29.4,135.7,33.4,136.8,37z"/>
						<path id="XMLID_24_" class="st6" d="M136.1,38.3l-7.6,2.1c0.2-1.3,1.5-2.6,3.3-3.1C133.6,36.8,135.3,37.3,136.1,38.3z"/>
					</g>
					<g id="XMLID_74_">
						<path id="XMLID_23_" class="st5" d="M98.5,123.9L98.5,123.9l-3.1,3.6c-0.8-0.7-1.6-1.4-2.4-2.1c-3.9-3.4-7.3-6.3-8.7-7.4
							c4.1-3.8,10-0.5,14.1,3.4C99.1,122.1,99.1,123.2,98.5,123.9z"/>
						<path id="XMLID_22_" class="st6" d="M98.5,123.9l-3.1,3.6c-0.8-0.7-1.7-1.5-2.4-2.2C94.8,123.9,96.9,123.3,98.5,123.9z"/>
					</g>
					<g id="XMLID_71_">
						<path id="XMLID_21_" class="st5" d="M161.3,39c0.2,0.6-0.1,1.2-0.7,1.3l0,0l-7.6,2.1l0,0c-0.5,0.1-1.1-0.2-1.2-0.8
							c-0.7-3.1-1.3-8.2,2.5-9.3C157.8,31.4,160.2,35.4,161.3,39z"/>
						<path id="XMLID_20_" class="st6" d="M160.6,40.4l-7.6,2.1c0.2-1.3,1.5-2.6,3.3-3.1C158.1,38.9,159.8,39.3,160.6,40.4z"/>
					</g>
					<g id="XMLID_68_">
						<path id="XMLID_19_" class="st5" d="M189.1,54.5c0,0.4-0.3,0.8-0.7,0.8l0,0l-5.5-0.1l0,0c-0.4,0-0.7-0.4-0.7-0.8
							c0.1-2.2,0.6-5.7,3.3-5.7C188.1,48.8,189,51.9,189.1,54.5z"/>
						<path id="XMLID_18_" class="st6" d="M188.4,55.3l-5.5-0.1c0.4-0.9,1.5-1.5,2.8-1.4C186.9,53.8,188,54.4,188.4,55.3z"/>
					</g>
					<g id="XMLID_65_">
						<path id="XMLID_17_" class="st5" d="M120,58.2c0.1,0.5-0.1,0.9-0.6,1l0,0l-6.2,1.4l0,0c-0.4,0.1-0.9-0.2-0.9-0.7
							c-0.4-2.5-0.8-6.6,2.3-7.3C117.5,52.1,119.2,55.3,120,58.2z"/>
						<path id="XMLID_16_" class="st6" d="M119.4,59.3l-6.2,1.4c0.2-1.1,1.3-2,2.8-2.3C117.4,58,118.8,58.4,119.4,59.3z"/>
					</g>
				</g>
				<g id="XMLID_53_">
					<g id="XMLID_54_">
						<path id="XMLID_62_" class="st7" d="M148.1,97c-2.2,0.5-2.8,3.1-2.6,5.7c0.3,3.8,5.9,5.7,8.2,2
							C155.8,101.2,152.1,96.1,148.1,97z"/>
						<path id="XMLID_60_" class="st7" d="M115.1,112.5c-0.8-0.6-1.9-0.5-2.7,0.6c-1,1.4-0.4,3.7,1.6,3.4
							C115.7,116.4,116.5,113.7,115.1,112.5z"/>
						<path id="XMLID_58_" class="st7" d="M108.1,140.1c-1.2,0.4-1.9,1.7-1.2,3.3c0.7,2,3.5,2.9,4.6,0.8
							C112.5,142.1,110.3,139.4,108.1,140.1z"/>
						<path id="XMLID_12_" class="st7" d="M161.7,142.9c5.6-0.3,7.2-8.1,6.1-11.2c-1.9-5.4-6.4-6.3-12.3-5.9c0.1,0,0.1-0.1,0.1-0.1
							c2.9-2,4.6-5.9,3.7-9.3c-0.9-3.5-4.7-6.1-8.3-5.4c-1.9,0.4-3.3,1.5-4.5,3c-0.5,0.4-1,0.8-1.4,1.3c0.2-4.9-4.1-9.7-9-9.4
							c-8,0.4-6.3,8.2-6.5,13.3c-1.5-2.8-4.8-4.7-7.9-4.2c-3.1,0.5-5.8,3.6-5.5,6.7c0.3,3.6,3.8,5.9,7.4,7.1c-3.3-0.5-6.9,1.6-8,4.8
							c-0.7,1.1-1.1,2.3-0.9,3.6c0.2,2.5,2,4.4,4.2,5.7c0.5,0.3,1,0.6,1.5,0.9c0.3,0.1,0.6,0.2,1,0.3c0.3,0.1,0.5,0.2,0.8,0.3
							c-3.3-0.5-7,1.7-8,5c-1.2,3.9,1.1,8.4,4.8,10c3.7,1.6,8.4,0.4,11.1-2.6c-0.5,2.8-0.1,5.9,1.6,8.2c1.7,2.3,4.8,3.7,7.6,2.9
							c2.6-0.7,4.4-3.1,5.3-5.6c0.8-2.5,0.8-5.3,0.8-8c0.7,2.3,7.9,9.4,14.7,4.7C167.3,153.7,166.2,145.9,161.7,142.9z"/>
						<path id="XMLID_55_" class="st7" d="M121.7,93.2c-1.9,0.4-2.5,2.7-2.3,5c0.2,3.3,5.2,4.9,7.1,1.7
							C128.4,96.8,125.2,92.4,121.7,93.2z"/>
					</g>
				</g>
				<g id="XMLID_42_">
					<g id="XMLID_51_">
						<path id="XMLID_10_" class="st2" d="M74.2,99.9c2,1.5,2.1,3.7,5,4.6c1.9,0.6,5.2-1.3,7.1-1.5c2.2-0.3,4.5,0.3,6.3,1.7
							c1.6,1.3,3,4,4.9,4.8c1.8,0.8,5.8-2.2,10.8-0.7c4.8,1.5,6,6.3,6.8,6.7c1.6,0.8,8.2-2.5,13.2,0.8c0,0,0,0,0,0
							c5.1,2.8,0.9,12.5,0.2,14.9c-1,3-2,6-2.9,9c0,0-4.7,11.1-1.3,13.4c2.6,1.7,12.1-5.8,12.1-5.8c2.9-2.7,8.3-5.8,16.7-7.6
							c6.6-1.5,10.7,2.8,12.1,4.7c0.3,0.4,0.2,1.1-0.2,1.5c0,0,0,0,0,0c-1.7,1.2-5.7,4.2-10.3,7.8c-0.9,0.7-1.9,1.5-2.9,2.3
							c-6.9,5.5-14.3,12-17.6,16.6c-8.9,12.5-21.8,14.6-26.4,18c-4.6,3.4-32.3,71-32.3,71l-50.8-20.3L46,184.9c1.1-3.4,1.4-7,1-10.6
							c-3.2-25.5,1.5-48.1,13.9-72.9c2.1-4.2,4.8-4.1,7.4-3.8C70.5,97.9,72.5,98.7,74.2,99.9z"/>
					</g>
					<g id="XMLID_46_" class="st3">
						<path id="XMLID_9_" class="st4" d="M127.3,122.9c0.1-0.3-3.7,1.2-5.9,0.7c-0.1,0-0.2,0-0.3-0.1c-2-0.4-4.7-3.2-4.7-2.9
							c0,1,0.3,2.3,0.8,3c0.9,1.3,2,2.1,3.5,2.4c0.1,0,0.2,0,0.3,0.1c1.5,0.3,3.1,0,4.4-0.8C126.1,124.8,126.9,123.9,127.3,122.9z"
							/>
						<path id="XMLID_8_" class="st4" d="M110.6,117.1c0.2-0.3-3.8,0.8-5.9,0.1c-0.1,0-0.2-0.1-0.3-0.1c-1.9-0.6-4.4-3.7-4.5-3.4
							c-0.1,1,0.1,2.4,0.6,3.1c0.8,1.3,1.8,2.3,3.3,2.8c0.1,0,0.2,0.1,0.3,0.1c1.4,0.5,3.1,0.3,4.4-0.4
							C109.3,119,110.1,118.1,110.6,117.1z"/>
						<path id="XMLID_7_" class="st4" d="M92.6,110.6c0.2-0.3-3.8,0.8-5.9,0.1c-0.1,0-0.2-0.1-0.3-0.1c-1.9-0.6-4.4-3.7-4.5-3.4
							c-0.1,1,0.1,2.4,0.6,3.1c0.8,1.3,1.8,2.3,3.3,2.8c0.1,0,0.2,0.1,0.3,0.1c1.4,0.5,3.1,0.3,4.4-0.4
							C91.4,112.4,92.1,111.5,92.6,110.6z"/>
						<path id="XMLID_6_" class="st4" d="M75.7,106.6c0.1-0.3-3.2,0.7-5,0.1c-0.1,0-0.2,0-0.3-0.1c-1.6-0.5-3.8-3.1-3.8-2.8
							c-0.1,0.9,0.1,2,0.5,2.6c0.7,1.1,1.5,1.9,2.8,2.3c0.1,0,0.2,0.1,0.3,0.1c1.2,0.4,2.6,0.3,3.7-0.3
							C74.6,108.1,75.3,107.4,75.7,106.6z"/>
					</g>
					<g id="XMLID_43_">
						<path id="XMLID_5_" class="st5" d="M150.4,151.3L150.4,151.3l2.9,3.8c0.8-0.7,1.7-1.3,2.5-2c4.1-3.2,7.7-5.8,9.1-6.9
							c-3.9-4-9.9-1.1-14.3,2.6C149.9,149.4,149.8,150.5,150.4,151.3z"/>
						<path id="XMLID_4_" class="st6" d="M150.4,151.3l2.9,3.8c0.8-0.7,1.8-1.4,2.6-2C154,151.4,152,150.8,150.4,151.3z"/>
					</g>
				</g>
			</g>
			<g id="XMLID_37_">
				<g id="XMLID_39_">
					<polyline id="XMLID_3_" class="st8" points="96.6,152 99.1,143.4 107.2,147.8 					"/>
				</g>
				<path id="XMLID_2_" class="st8" d="M99.4,144.9c5,7.3,5,16.3-0.4,21.5c-6.2,5.9-17.1,4.5-24.4-3.2c-7.3-7.6-8.2-18.6-2-24.5
					c3.7-3.5,9-4.4,14.2-3"/>
			</g>
		</g>
	</g>
</g>
</svg>
