<?xml version="1.0" encoding="utf-8"?>
<!-- Generator: Adobe Illustrator 19.0.0, SVG Export Plug-In . SVG Version: 6.00 Build 0)  -->
<svg version="1.1" id="Layer_1" xmlns="http://www.w3.org/2000/svg" xmlns:xlink="http://www.w3.org/1999/xlink" x="0px" y="0px"
	 viewBox="0 0 250 250" style="enable-background:new 0 0 250 250;" xml:space="preserve">
<style type="text/css">
	.st0{fill:#D4E0FA;}
	.st1{clip-path:url(#XMLID_20_);}
	.st2{fill:#A5B7FF;}
	.st3{opacity:0.4;fill:#8E9EDC;}
	.st4{clip-path:url(#XMLID_21_);}
	.st5{fill:#FFC0B1;}
	.st6{opacity:0.6;}
	.st7{fill:#FFB1A7;}
	.st8{fill:#FFFFFF;}
</style>
<g id="XMLID_18_">
	<g id="XMLID_23_">
		<g id="XMLID_45_">
			<circle id="XMLID_16_" class="st0" cx="125.2" cy="124.2" r="120.8"/>
		</g>
		<g id="XMLID_34_">
			<defs>
				<circle id="XMLID_9_" cx="125.2" cy="124.2" r="120.8"/>
			</defs>
			<clipPath id="XMLID_20_">
				<use xlink:href="#XMLID_9_"  style="overflow:visible;"/>
			</clipPath>
			<g id="XMLID_37_" class="st1">
				<g id="XMLID_40_">
					<path id="XMLID_15_" class="st2" d="M189.7-2.1L189,56.7c0,3.2-0.6,6.5-1.8,9.5l-2.8,7.4l-58.8,11.3c-2.6,0.4-5.4,0.1-7.8-0.9
						L92.8,71.5L89.7-0.3"/>
					<path id="XMLID_14_" class="st0" d="M116.6,104.9l6.6,24.7c0.4,1.4,1.8,2.3,3.3,1.9l19.4-4.8c1.5-0.4,2.4-2,1.9-3.5l-5.4-16.1"
						/>
					<path id="XMLID_13_" class="st2" d="M159,98.9l3.2,6.3c2.5,4.6,0.3,8.4-4.7,9.7c-0.3,0.1-16.9,4.6-16.9,4.6
						c-7.3,1-14.1-6.3-14.1-13.7"/>
					<path id="XMLID_12_" class="st3" d="M159,98.9l3.2,6.3c2.5,4.6,0.3,8.4-4.7,9.7c-0.3,0.1-16.9,4.6-16.9,4.6
						c-7.3,1-14.1-6.3-14.1-13.7"/>
				</g>
				<path id="XMLID_11_" class="st2" d="M184.4,72.8v15.7c0,3.8-2.7,7.1-6.4,7.8l-48.4,10.5c-4.1,0.8-8.4,0.3-12.2-1.5L99,95.1
					c-3.7-1.7-6.1-5.5-6.1-9.6V70.7l25.1,11.9c2.6,1.1,5.5,1.4,8.2,1L184.4,72.8z"/>
				<path id="XMLID_10_" class="st3" d="M123.5-19.9v88.3c0,5.3,4.8,9.4,10.1,8.5l43.1-7.1c2.9-0.5,5.3-2.5,6.4-5.2l1.1-2.8
					c0.8-2,1.2-4.1,1.1-6.3l-1.7-70.7L123.5-19.9z"/>
			</g>
		</g>
		<g id="XMLID_24_">
			<defs>
				<circle id="XMLID_4_" cx="125.2" cy="124.2" r="120.8"/>
			</defs>
			<clipPath id="XMLID_21_">
				<use xlink:href="#XMLID_4_"  style="overflow:visible;"/>
			</clipPath>
			<g id="XMLID_27_" class="st4">
				<g id="XMLID_32_">
					<path id="XMLID_8_" class="st5" d="M236.3,186.9l-28.5,41.8c0,0-40.8-11.5-47.5-10.5c-6.8,1-16.8,11.7-34.5,10.2
						c-6.5-0.6-21.5-3.1-31.9-1.8c-1.5,0.2-2.9,0.4-4.3,0.5c-7,0.9-12.9,1.8-15.4,2.2c0,0,0,0,0,0c-0.7,0.1-1.3-0.2-1.3-0.7
						c-0.2-2,0.1-7.2,7.2-10.6c9-4.4,16.3-6.1,21-6.4c0,0,14.5-1.8,15.4-4.5c1.3-3.6-11.6-7-11.6-7c-5.5-1.9-15.6-3.7-22.9-4.9
						c-5.7-0.9-11.2-3-16.1-6.1c-5.3-3.4-12.2-7.6-16.4-9.4c-2-0.9-4-1.7-5.3-3.1c-1.3-1.4-1.8-3.3-0.4-4.7c2-2.1,6.2-2,9.6-1.5
						c2.9,0.4,9.6,3.4,14.9,5.9c5,2.4,10.4,3.8,15.8,4c8.3,0.4,19.4,0.8,19.6,0c0.2-0.9-13.2-3.1-21.7-4.4
						c-4.5-0.7-8.8-2.1-12.9-4.2c-8-4.2-21.6-11.2-27.2-14c-2.3-1.2-6.8-5.5-4.4-8.7c3.4-4.5,14.7-1.6,18.4-0.7
						c4.4,1.1,13.6,5.6,19.7,8.8c4.3,2.2,8.9,3.7,13.7,4.3c9.7,1.3,25.6,3.3,26.1,2.4c0.5-0.8-10.4-3.4-18.2-5.2
						c-5.1-1.1-9.9-3.2-14.2-6.2c-5-3.4-11.5-7.6-14.7-9c-2.5-1.1-5-2.2-6.6-3.8c-1.7-1.7-2.3-4.1-0.7-5.9c1.5-1.7,4.5-2.5,7.2-2.4
						c2.7,0,5.3,0.8,7.8,1.5c3.4,1,10.6,5.1,16,8.3c4.7,2.8,9.9,4.6,15.3,5.4c8.8,1.3,21.3,2.9,21.7,1.8c0.4-1.1-6.3-2.9-11.4-4.1
						c-3.9-0.9-7.7-2.5-11.2-4.5c-4.6-2.6-10.5-6.1-12.4-7.3c-2.6-1.7-5.8-5.8-3.3-7.7c1.9-1.5,6.7-1.6,10.6-0.4
						c2.2,0.7,7.4,3.3,11.7,5.4c4.2,2.1,8.6,3.6,13.2,4.2c5.3,0.8,12.2,1.9,14.4,2.8c27.4,11.7,42.6,20,59.9,39.1L236.3,186.9z"/>
				</g>
				<g id="XMLID_28_" class="st6">
					<path id="XMLID_7_" class="st7" d="M120.7,197.5c0,0,11.7-4.7,27-6.2c11.2-1.1,33.2,2.4,33.2,2.4s-20.1-6.8-31.8-6.9
						C132.5,186.8,120.7,197.5,120.7,197.5z"/>
					<path id="XMLID_6_" class="st7" d="M118.1,195.5c0,0,11.1-17,16.8-22.8c5.7-5.8,17.3-15.3,17.3-15.3s-14.3,19.5-18.7,23.5
						C127.9,186.3,118.1,195.5,118.1,195.5z"/>
					<path id="XMLID_5_" class="st7" d="M199.1,174.5c0,0,3.6,9.8,0.7,16.1c-3.2,7.1-7.4,10.5-7.4,10.5s10.6-5.9,11.8-13.4
						C205.6,179.2,199.1,174.5,199.1,174.5z"/>
				</g>
			</g>
		</g>
	</g>
	<g id="XMLID_19_">
		<path id="XMLID_3_" class="st8" d="M136.5,175.7c-1.8-0.8-2.9-3.1-2.3-5c-2.5,1.3-5.8,0.8-7.8-1.3c-1.9-2-2.3-5.4-0.9-7.8
			c1.4-2.4,4.5-3.7,7.3-3.1c-1.5-2.6-0.7-6.3,1.7-8.2c2.4-1.9,6-1.9,8.5-0.3c1.3,0.8,2.4,2.1,2.7,3.7c0.2,1.3-0.1,2.6-0.7,3.7
			c1.5-1,3.5-0.6,5.1,0.1c1.9,0.8,3.7,2,4.8,3.8c1,1.8,1.1,4.2-0.1,5.8c-1.3,1.6-4,2-5.4,0.5c2,1.5,3.1,4.3,2.4,6.7
			c-0.7,2.4-3.1,4.3-5.6,4.2c-2.5-0.1-4.3-4-4.3-4S138.3,176.5,136.5,175.7z"/>
		<path id="XMLID_2_" class="st8" d="M141.6,139.3c-1.3,1-3.2,0.8-4.4-0.3c-1.2-1-1.6-2.8-1.2-4.3c-0.9,1.4-2.8,1.9-4.3,1.3
			c-1.5-0.7-2.4-2.5-1.9-4.1c0.4-1.6,2.1-2.7,3.7-2.5c-1.4-0.9-2-2.7-1.5-4.2c0.5-1.5,2.2-2.6,3.8-2.5c1.6,0.1,3,1.5,3.3,3.1
			c0.6-1.8,2.4-3.2,4.3-3.2c1.9,0,3.8,1.4,4.2,3.3c0.4,1.9-0.7,4-2.5,4.6c1.5-0.6,3.4,0.6,3.6,2.2c0.3,1.6-1,3.2-2.5,3.7
			c-1.5,0.4-3.1-0.2-4.2-1.2C142.9,136.3,143.1,138.1,141.6,139.3z"/>
		<path id="XMLID_1_" class="st8" d="M153.7,150c-0.9-2.1-0.2-4.8,1.7-6c-1.1,0.2-2.2-0.6-2.8-1.6c-0.5-1-0.6-2.2-0.5-3.3
			c0.2-2,0.9-4,2.4-5.4c1.5-1.4,3.7-2,5.6-1.2c2.2,0.9,3.2,3.4,4,5.6c0.9-2.3,3.8-3.5,6.2-2.9c2.4,0.6,4.2,2.8,5,5.1
			c0.6,1.9,0.4,4.3-1.1,5.6c-1.8,1.5-4.2,0.8-6.1,0.4C167.3,152.4,156.7,156.9,153.7,150z"/>
	</g>
</g>
</svg>
