<?xml version="1.0" encoding="utf-8"?>
<!-- Generator: Adobe Illustrator 19.0.0, SVG Export Plug-In . SVG Version: 6.00 Build 0)  -->
<svg version="1.1" id="Layer_1" xmlns="http://www.w3.org/2000/svg" xmlns:xlink="http://www.w3.org/1999/xlink" x="0px" y="0px"
	 viewBox="0 0 250 250" style="enable-background:new 0 0 250 250;" xml:space="preserve">
<style type="text/css">
	.st0{clip-path:url(#XMLID_43_);}
	.st1{fill:#D4E0FA;}
	.st2{fill:#FFAF9F;}
	.st3{fill:#FFFFFF;}
	.st4{fill:#FFC0B1;}
	.st5{opacity:0.5;}
	.st6{fill:#FFB1A7;}
	.st7{opacity:0.4;fill:#FFB1A7;}
	.st8{opacity:0.5;fill:#FFFFFF;}
	.st9{fill:none;stroke:#678CFF;stroke-width:1.0593;stroke-linecap:round;stroke-linejoin:round;stroke-miterlimit:10;}
</style>
<g id="XMLID_2_">
	<g id="XMLID_3_">
		<defs>
			<circle id="XMLID_4_" cx="125" cy="125" r="122"/>
		</defs>
		<clipPath id="XMLID_43_">
			<use xlink:href="#XMLID_4_"  style="overflow:visible;"/>
		</clipPath>
		<g id="XMLID_5_" class="st0">
			<circle id="XMLID_42_" class="st1" cx="125" cy="125" r="122"/>
			<g id="XMLID_6_">
				<g id="XMLID_31_">
					<g id="XMLID_40_">
						<path id="XMLID_41_" class="st2" d="M139.1,257.8l-50.3-6.2c0,0,3.1-73.5,0.6-78.6c-2.4-5.1-12.7-13-14.6-28.1
							c-0.7-5.5-4.2-14.7-7.6-22.8c-0.5-1.1-1-2.2-1.4-3.3c-2.3-5.4-4.5-9.9-5.4-11.7c0,0,0,0,0,0c-0.2-0.5,0-1.1,0.5-1.4
							c2.1-1,7.6-2.9,12.8,1.5c6.5,5.6,9.7,10.9,11,14.5c0,0,4.8,11.1,7.8,10.8c4-0.4,4.6-9.9,4.6-9.9c-0.7-19.1-4.7-38.5-5.8-53.2
							c-0.1-2-0.3-4.1,0.3-6.1c0.6-1.9,2.1-3.7,4-3.7c2.7-0.1,4.5,3,5.6,5.7c4.2,10.5,12,45,14.3,44c2.5-1.1,5.5-39.3,9.7-57.8
							c0.6-2.4,3.8-8.2,7.7-7.8c5.5,0.5,5.6,10.9,5.6,14.4c0.4,16.7-2.6,55.7-0.2,56c2.4,0.3,10.6-31.9,14.3-45.9
							c0.6-2.4,1.3-5,2.8-7c1.5-2,3.9-3.5,6.1-3c2.1,0.5,3.5,2.6,4,4.9c0.5,2.3,0.2,4.6-0.1,7c-1.8,14-8.9,50.5-5.7,50.3
							c3.1-0.3,13.8-17.2,19.3-26.5c1.6-2.7,5.8-6.4,8.2-4.9c1.9,1.2,2.5,5.1,1.5,8.8c-2,7.5-13,30.7-16,37.8
							c-10.9,25.9-13.5,31-30.4,53L139.1,257.8z"/>
					</g>
					<g id="XMLID_32_">
						<path id="XMLID_38_" class="st3" d="M169.7,131.8c-1.1-0.9-2.7-0.7-3.9,0.9c-1.4,2-0.5,5.2,2.2,4.9
							C170.6,137.3,171.7,133.5,169.7,131.8z"/>
						<path id="XMLID_36_" class="st3" d="M125.2,80.2c-1.7,0.5-2.6,2.3-1.7,4.6c1.1,2.8,5,4.1,6.6,1.1
							C131.4,83,128.3,79.2,125.2,80.2z"/>
						<path id="XMLID_35_" class="st3" d="M145.8,104c1.8,0,3.4,1.6,3.4,3.3c0.5-2.3,3.7-3.6,5.6-2.1c1.9,1.4,1.6,4.9-0.5,5.9
							c1.7-0.9,3.9-0.1,4.8,1.5s0.3,3.9-1.2,5c-1.5,1.1-3.8,1-5.2-0.3c0.5,2.1,0.8,4.6-0.5,6.3c-1.3,1.6-4,1.9-5.6,0.5
							c-1.6-1.4-1.6-4.1-0.1-5.6c-1.2,0.6-2.5,0.9-3.9,0.9c-0.7,0-1.4-0.2-1.9-0.6c-0.9-0.7-1-2.1-0.6-3.1c0.5-1,1.5-1.7,2.6-2
							c-1.4-0.1-2.9-0.3-4-1.1c-1.2-0.8-1.8-2.5-1-3.7c0.6-0.8,1.7-1.1,2.7-1c1,0.1,1.8,0.6,2.7,1.1
							C141.1,107.3,143.5,104.1,145.8,104z"/>
						<path id="XMLID_34_" class="st3" d="M92.9,128.2c0.6,1.6-0.5,3.7-2.1,4.2c2.3-0.2,4.4,2.4,3.6,4.6c-0.8,2.2-4.1,2.9-5.7,1.2
							c1.3,1.3,1.2,3.6,0,4.9c-1.3,1.3-3.6,1.4-5,0.3c-1.5-1.1-2-3.3-1.2-4.9c-1.9,1-4.1,2.1-6,1.3c-1.9-0.7-2.9-3.2-2-5.1
							c0.9-1.9,3.4-2.7,5.2-1.7c-0.9-0.9-1.6-2.1-1.9-3.4c-0.2-0.7-0.2-1.4,0-2c0.4-1,1.6-1.6,2.7-1.4c1.1,0.2,2,0.9,2.6,1.8
							c-0.3-1.3-0.6-2.8-0.2-4.1c0.4-1.3,1.8-2.4,3.1-2c0.9,0.3,1.5,1.3,1.7,2.2c0.1,0.9-0.1,1.9-0.3,2.8
							C88.5,124.9,92.2,126.1,92.9,128.2z"/>
						<path id="XMLID_33_" class="st3" d="M108.6,91.3c2.3-0.1,4.5,2,4.5,4.4c0.6-3.1,4.8-4.7,7.3-2.8c2.5,1.9,2.1,6.4-0.7,7.8
							c2.2-1.1,5.2-0.2,6.4,2c1.2,2.2,0.4,5.1-1.6,6.6c-2,1.4-5,1.3-6.8-0.3c0.6,2.8,1,6-0.7,8.3c-1.7,2.2-5.3,2.5-7.3,0.6
							c-2-1.8-2.1-5.4-0.2-7.3c-1.6,0.8-3.4,1.2-5.1,1.1c-0.9,0-1.8-0.2-2.6-0.8c-1.1-0.9-1.4-2.7-0.7-4c0.6-1.3,2-2.2,3.4-2.7
							c-1.8-0.2-3.8-0.4-5.3-1.4c-1.5-1.1-2.4-3.3-1.3-4.8c0.7-1.1,2.2-1.4,3.5-1.2c1.2,0.2,2.4,0.8,3.5,1.4
							C102.5,95.6,105.6,91.4,108.6,91.3z"/>
					</g>
				</g>
				<g id="XMLID_16_">
					<g id="XMLID_29_">
						<path id="XMLID_30_" class="st4" d="M156.4,94.5c-2.4,9.6-5.9,21.7-8.1,22.3c-2.1,0.6-1-25-0.8-28.4c0.6-4.3-4.8-7.3-7.7-6.8
							c-2.7,0.4-5.7,2.4-6.7,6.3c-2.3,13.2-4.9,26.6-6.4,26.7c-1.6,0.1-2.8-14.9-4.1-31c-0.1-2.4-3.3-8.1-9.4-7.4
							c-5,0.5-6.9,5.9-6.9,9.5c0.7,15.3,1.7,29.3,0.3,29.9c-1.3,0.5-5-5.5-9-15.7c-0.8-2-2.2-3.8-4.1-4.8c-2.2-1.1-4.1-0.7-5.8,0
							c-6.4,2.8-5,8.1-5,8.1c2.3,9.8,5,20.2,7.5,30.2c0,0,1.7,6.9-2.7,8.2c-3,0.9-12.1-8.8-12.1-8.8c-2-3.4-6.2-7.9-13.7-12.1
							c-5.9-3.3-10.9-0.4-12.8,1c-0.4,0.3-0.5,1-0.2,1.4c0,0,0,0,0,0c1.2,1.6,4.2,5.6,7.6,10.4c0.7,1,1.4,2,2.1,3
							c4.9,7.2,10.2,15.5,11.9,20.8c4.9,14.5,16.5,20.1,19.9,24.7c3.4,4.5,10.4,76.7,10.4,76.7l50.5-3.9l-2.3-68.2
							c12.2-24.9,12.1-33,13.6-61.1c0.3-5.7,3.7-20,5.8-30.3c0.5-3.3-3.7-5.8-5.8-5.9C160.3,89.3,157.3,91.3,156.4,94.5z"/>
					</g>
					<g id="XMLID_20_" class="st5">
						<path id="XMLID_28_" class="st6" d="M167.2,95.7c0,0.2-2.7-1.6-4.5-1.8c-0.1,0-0.2,0-0.3,0c-1.7-0.2-4.6,0.7-4.5,0.5
							c0.3-0.6,0.8-1.2,1.4-1.5c1-0.5,2.1-0.7,3.4-0.5c0.1,0,0.2,0,0.3,0c1.2,0.2,2.5,0.8,3.3,1.5C166.8,94.4,167.1,95.1,167.2,95.7
							z"/>
						<path id="XMLID_27_" class="st6" d="M165.1,97.4c0,0.2-1.8-1.1-3.1-1.3c-0.1,0-0.1,0-0.2,0c-1.1-0.2-3.2,0.5-3.1,0.3
							c0.2-0.4,0.6-0.9,1-1.1c0.7-0.3,1.4-0.5,2.4-0.4c0.1,0,0.1,0,0.2,0c0.9,0.1,1.7,0.5,2.3,1C164.9,96.4,165.1,96.9,165.1,97.4z"
							/>
						<path id="XMLID_26_" class="st6" d="M145.7,86.6c0.1,0.2-3.2-1.2-5.1-1.1c-0.1,0-0.2,0-0.3,0c-1.8,0.1-4.7,1.6-4.6,1.4
							c0.1-0.7,0.6-1.5,1.1-1.9c1-0.7,2-1.1,3.5-1.2c0.1,0,0.2,0,0.3,0c1.4,0,2.8,0.3,3.8,1C145,85.2,145.5,85.9,145.7,86.6z"/>
						<path id="XMLID_25_" class="st6" d="M144.6,89c0.1,0.2-2.3-0.8-3.8-0.8c-0.1,0-0.1,0-0.2,0c-1.3,0-3.4,1.2-3.4,1
							c0.1-0.5,0.4-1.1,0.8-1.4c0.7-0.5,1.5-0.8,2.5-0.9c0.1,0,0.1,0,0.2,0c1,0,2,0.2,2.8,0.7C144.1,88,144.4,88.5,144.6,89z"/>
						<path id="XMLID_24_" class="st6" d="M119.2,81.5c0.1,0.2-3.2-1.2-5.1-1.1c-0.1,0-0.2,0-0.3,0c-1.8,0.1-4.7,1.6-4.6,1.4
							c0.1-0.7,0.6-1.5,1.1-1.9c1-0.7,2-1.1,3.5-1.2c0.1,0,0.2,0,0.3,0c1.4,0,2.8,0.3,3.8,1C118.5,80.1,119,80.8,119.2,81.5z"/>
						<path id="XMLID_23_" class="st6" d="M116.9,84.3c0,0.1-1.7-0.6-2.7-0.6c0,0-0.1,0-0.2,0c-1,0-2.5,0.8-2.4,0.7
							c0.1-0.3,0.3-0.8,0.6-1c0.5-0.4,1.1-0.6,1.8-0.6c0,0,0.1,0,0.1,0c0.7,0,1.5,0.2,2,0.5C116.5,83.5,116.7,83.9,116.9,84.3z"/>
						<path id="XMLID_22_" class="st6" d="M93.2,98.1c0.1,0.2-2.9-0.1-4.4,0.4c-0.1,0-0.1,0-0.2,0.1c-1.4,0.5-3.4,2.5-3.4,2.3
							c-0.1-0.6,0.1-1.3,0.5-1.8c0.6-0.8,1.4-1.4,2.5-1.8c0.1,0,0.2-0.1,0.2-0.1c1.1-0.4,2.3-0.4,3.3-0.2
							C92.3,97.1,92.8,97.6,93.2,98.1z"/>
						<path id="XMLID_21_" class="st6" d="M92.8,101.1c0.1,0.1-1.8-0.1-2.8,0.3c0,0-0.1,0-0.1,0.1c-0.9,0.3-2.1,1.6-2.2,1.4
							c0-0.4,0.1-0.8,0.3-1.1c0.4-0.5,0.9-0.9,1.6-1.2c0,0,0.1,0,0.1,0c0.7-0.2,1.5-0.3,2.1-0.1C92.2,100.5,92.5,100.8,92.8,101.1z"
							/>
					</g>
					<g id="XMLID_17_">
						<path id="XMLID_19_" class="st7" d="M61.2,132.2L61.2,132.2l-3.8,2.8c-0.6-0.9-1.2-1.7-1.8-2.6c-2.9-4.2-5.6-7.7-6.7-9.1
							c4.8-2.7,9.7,1.8,12.8,6.5C62.2,130.6,61.9,131.6,61.2,132.2z"/>
						<path id="XMLID_18_" class="st8" d="M61.2,132.2l-3.8,2.8c-0.6-0.9-1.3-1.8-1.9-2.6C57.6,131.3,59.8,131.3,61.2,132.2z"/>
					</g>
				</g>
				<g id="XMLID_7_">
					<g id="XMLID_12_">
						<g id="XMLID_13_">
							<polyline id="XMLID_15_" class="st9" points="130.2,140.4 139,141.9 135.6,150.4 							"/>
							<path id="XMLID_14_" class="st9" d="M136.1,143.9c0,0-22.4,13.8-25.6,34.1"/>
						</g>
					</g>
					<g id="XMLID_8_">
						<g id="XMLID_9_">
							<polyline id="XMLID_11_" class="st9" points="114.2,140.4 105.4,141.9 108.8,150.4 							"/>
							<path id="XMLID_10_" class="st9" d="M108.4,143.9c0,0,22.4,13.8,25.5,34.1"/>
						</g>
					</g>
				</g>
			</g>
		</g>
	</g>
</g>
</svg>
