<svg xmlns="http://www.w3.org/2000/svg" xmlns:xlink="http://www.w3.org/1999/xlink" viewBox="0 0 250 250" xmlns:v="https://vecta.io/nano"><defs><circle id="A" cx="125.2" cy="125.3" r="122.8"/><path id="B" d="M112.5 91.7l-6.9 3.9c-.2-1.3.8-2.9 2.4-3.8 1.7-.9 3.5-.9 4.5-.1z"/></defs><clipPath id="C"><use xlink:href="#A"/></clipPath><g clip-path="url(#C)"><circle cx="125.2" cy="125.3" r="122.8" fill="#d4e0fa"/><path d="M55.3 262.3L4.8 219.5s68.2-83.9 68.5-89.6-5.1-18.2.6-32.2c2.1-5.1 3.4-15 4.3-23.7l.3-3.6c.5-5.9.8-11 .9-13 0-.6.5-1 1.1-.9 2.4.3 8.2 1.8 10.7 8.5 3.1 8.4 3.5 14.8 2.8 18.6 0 0-1.1 12.2 1.8 13.6 3.8 1.9 10.6-7.7 10.6-7.7 12.2-14.2 25.4-29.8 35.7-40 1.4-1.4 2.9-2.8 4.7-3.6 1.8-.7 4.2-.6 5.6.8 2 2.1.9 5.5-.4 8.1-4.9 10-24.8 37.5-22.5 38.5 2.7 1 25.7-32.3 39.7-44.5 1.8-1.6 7.8-4.2 11-1.4 4.4 3.9-1.4 12.3-3.3 15.1-9.1 13.7-32.9 42.9-30.9 44.5s23.8-23.3 33.8-33.2c1.8-1.7 3.6-3.5 5.9-4.5 2.3-.9 5.2-.9 6.9.9 1.6 1.6 1.9 4.2 1.3 6.4s-2.1 4.1-3.5 5.9c-8.3 11-32.5 37.7-29.5 39.3 2.9 1.5 16.6-12.7 25.2-18.7 2.5-1.7 7.9-3.3 9.7-.8 1.4 1.9.4 5.8-1.9 8.7-4.7 5.9-11.8 11.8-17.2 17.1-19.5 19.4-37.5 35.5-63.3 44.9l-58.1 89.3z" fill="#ffaf9f"/><g opacity=".6" fill="#ffb1a7"><path d="M105.9 102.8s2.9 10.6 1.3 23.4c-1.2 9.4-10 26.4-10 26.4s12.3-14.7 14.9-24.1c3.5-13.4-6.2-25.7-6.2-25.7zm2.8-1.6s17.2 13.2 22.7 19.3c5.4 6.1 13.9 17.9 13.9 17.9s-19.4-16.4-23.1-21l-13.5-16.2zm6.7 71s-12.1.5-18.8-3.4c-7.5-4.4-10.5-8.6-10.5-8.6s4.5 10.1 12.9 12.9c9.5 3.2 16.4-.9 16.4-.9z"/></g><path d="M110.5 212c32.2-13.8 94.9-59.6 94.8-59.8-4.1-8.5-27.5-39.3-27.5-39.3l-24.5-64.6c-39.6 35.5-53 36.4-97.5 61L76 161.9l34.5 50.1z" fill="#f5fbff"/><path d="M243.3 265.1L198 295.4s-46.1-78.3-51.3-80.7-18.1-2.1-29.3-12.7c-4.1-3.9-12.6-8.9-20.4-13-1.1-.6-2.2-1.1-3.2-1.7-5.3-2.7-9.8-4.9-11.6-5.7-.5-.2-.7-.9-.5-1.4 1-2.1 4.1-7.1 10.9-6.9 8.6.2 14.5 2.3 17.8 4.3 0 0 10.8 5.6 13 3.4 2.9-2.9-3.8-12.9-3.8-12.9-9.3-16.9-19.6-35.2-25.8-48.7-.9-1.9-1.7-3.8-1.8-5.8s.7-4.2 2.4-4.9c2.5-1.1 5.3 1.2 7.3 3.4 7.7 8.4 26.8 37.6 28.4 35.7 1.7-2.1-21.8-36.4-28.7-54.2-.9-2.3-1.5-9 2-10.9 4.9-2.7 10.8 5.9 12.8 8.8 9.7 13.7 29.3 47.2 31.4 46 2.1-1.3-14.2-31.2-20.2-44.4-1.1-2.3-2.1-4.7-2.3-7.2s.8-5.2 2.9-6.2c2-.9 4.4-.2 6.3 1.2 1.8 1.4 3.1 3.5 4.4 5.5 7.5 12 24.7 44.9 27 42.6 2.2-2.2-4.3-21.3-5.9-32-.5-3.1.4-8.7 3.3-9.1 2.2-.3 5.2 2.4 6.8 5.9 3.2 7.1 8.8 31.4 12 38.5 11.8 25.7 15.6 32.9 16.4 60.8l45 72z" fill="#ffc0b1"/><g opacity=".5" fill="#ffb1a7"><path d="M122.6 162.3c-.2-.3 3.9.2 5.8-.7.1 0 .2-.1.3-.1 1.8-.9 3.8-4.3 3.9-3.9.2 1 .3 2.3-.1 3.1-.6 1.4-1.4 2.5-2.8 3.2-.1 0-.2.1-.3.1-1.3.6-3 .8-4.4.3-.8-.4-1.8-1.1-2.4-2zm14.9-9.5c-.2-.3 3.9-.1 5.7-1.3.1-.1.2-.1.3-.2 1.7-1 3.4-4.6 3.5-4.3.3 1 .5 2.3.2 3.2-.5 1.5-1.2 2.6-2.5 3.4-.1.1-.2.1-.3.2-1.3.8-2.9 1-4.4.7-.9-.2-1.8-.9-2.5-1.7zm15.8-10.6c-.2-.3 3.9-.1 5.7-1.3.1-.1.2-.1.3-.2 1.7-1 3.4-4.6 3.5-4.3.3 1 .5 2.3.2 3.2-.5 1.5-1.2 2.6-2.5 3.4-.1.1-.2.1-.3.2-1.3.8-2.9 1-4.4.7-.8-.2-1.8-.9-2.5-1.7zm15.5-7.8c-.2-.2 3.3-.1 4.9-1.1.1 0 .1-.1.2-.1 1.4-.9 2.9-3.9 3-3.6.3.8.4 2 .2 2.7-.4 1.3-1 2.2-2.2 2.9-.1 0-.2.1-.2.1a4.86 4.86 0 0 1-3.7.6c-.7-.2-1.6-.8-2.2-1.5z"/></g><path d="M112.8 90.3c.3.5.2 1.2-.3 1.4h0l-6.9 3.9c-.5.3-1.1.1-1.4-.5-1.4-2.8-3.3-7.7.1-9.6 3.3-1.7 6.6 1.5 8.5 4.8z" opacity=".4" fill="#ffb1a7"/><use xlink:href="#B" opacity=".5" fill="#fff"/><path d="M97.4 183.8h0l-2.1 4.3-2.8-1.5c-4.6-2.4-8.6-4.2-10.2-5 3-4.7 9.5-2.9 14.5-.2.7.5 1 1.6.6 2.4z" opacity=".4" fill="#ffb1a7"/><path d="M97.4 183.9l-2.1 4.3-2.9-1.5c1.4-2 3.3-3 5-2.8z" opacity=".5" fill="#fff"/><path d="M137 86.2c.3.5.2 1.2-.3 1.4h0l-6.9 3.9c-.5.3-1.1.1-1.4-.5-1.4-2.8-3.3-7.7.1-9.6 3.3-1.7 6.5 1.5 8.5 4.8z" opacity=".4" fill="#ffb1a7"/><path d="M136.6 87.6l-6.9 3.9c-.2-1.3.8-2.9 2.4-3.8 1.7-.9 3.5-.9 4.5-.1z" opacity=".5" fill="#fff"/><path d="M167.7 94.2c.1.4-.1.8-.5.9h0l-5.3 1.3c-.4.1-.8-.2-.8-.6-.4-2.1-.9-5.7 1.8-6.3 2.5-.6 4.1 2.2 4.8 4.7z" opacity=".4" fill="#ffb1a7"/><path d="M167.2 95.1l-5.3 1.3c.1-.9 1.1-1.8 2.3-2.1 1.3-.2 2.5.1 3 .8z" opacity=".5" fill="#fff"/><path d="M101.8 115c.2.4.1.9-.3 1.1h0l-5.6 2.8c-.4.2-.9 0-1.1-.4-1-2.3-2.4-6.2.4-7.6 2.7-1.3 5.1 1.4 6.6 4.1z" opacity=".4" fill="#ffb1a7"/><path d="M101.5 116.1l-5.6 2.8c-.1-1.1.7-2.3 2.1-3 1.3-.5 2.7-.4 3.5.2z" opacity=".5" fill="#fff"/></g></svg>