<?xml version="1.0" encoding="utf-8"?>
<!-- Generator: Adobe Illustrator 21.0.0, SVG Export Plug-In . SVG Version: 6.00 Build 0)  -->
<svg version="1.1" id="ecb8a146-dd8f-4f83-ab4e-53bb1469e238"
	 xmlns="http://www.w3.org/2000/svg" xmlns:xlink="http://www.w3.org/1999/xlink" x="0px" y="0px" viewBox="0 0 804.7 525.1"
	 style="enable-background:new 0 0 804.7 525.1;" xml:space="preserve">
<style type="text/css">
	.st0{fill:#F2F2F2;}
	.st1{fill:#2F2E41;}
	.st2{fill:#FFB9B9;}
	.st3{opacity:0.1;enable-background:new    ;}
	.st4{fill:#575A89;}
	.st5{opacity:0.2;enable-background:new    ;}
	.st6{fill:#4E6A99;}
	.st7{opacity:0.2;fill:none;stroke:#000000;stroke-width:2;stroke-miterlimit:10;enable-background:new    ;}
	.st8{fill:none;stroke:#3F3D56;stroke-width:2;stroke-miterlimit:10;}
	.st9{fill:#3F3D56;}
	.st10{fill:#9F616A;}
	.st11{fill:#D0CDE1;}
	.st12{fill:#57B894;}
</style>
<title>transfer money</title>
<g>
	<circle class="st0" cx="374.8" cy="254.5" r="213.8"/>
	<ellipse class="st0" cx="189.6" cy="484.4" rx="84.8" ry="13.6"/>
	<ellipse class="st0" cx="603.5" cy="463.2" rx="131.3" ry="21"/>
	<path class="st1" d="M574.3,261.3c0,0,1.1,3.7-5.2,7.1c-6.3,3.4-8.2,16-0.7,19.7c7.5,3.7,9.7,8.6,6,11.9
		c-3.7,3.4-10.4,12.3-1.5,14.5c8.9,2.2,10.1,6.7,7.5,8.6c-2.6,1.9,6-3.4,6-3.4s1.5,8.9,9.3,6.7s29.8-44.7,18.6-50.7
		C603,269.9,574.3,261.3,574.3,261.3z"/>
	<path class="st2" d="M587.8,297.3c0,0,3.9,13.5-2.9,14.5c-4.2,0.7-8.2,2.3-11.6,4.8l12.6,16.4h23.2l14.5-14.5
		c0,0-19.3-14.5-15.5-23.2C612,286.6,587.8,297.3,587.8,297.3z"/>
	<path class="st3" d="M587.8,297.3c0,0,3.9,13.5-2.9,14.5c-4.2,0.7-8.2,2.3-11.6,4.8l12.6,16.4h23.2l14.5-14.5
		c0,0-19.3-14.5-15.5-23.2C612,286.6,587.8,297.3,587.8,297.3z"/>
	<polygon class="st2" points="593.6,465.4 615.8,473.1 631.3,474.1 630.3,460.5 598.4,451.1 	"/>
	<path class="st4" d="M622.1,462.5c0,0,0,13.5,1.9,13.5c1.9,0,28-2.9,35.7,0s19.3-7.7,13.5-13.5s-15.3-14.5-21.2-12.6
		c-5.9,1.9-30.1,6.8-30.1,6.8V462.5z"/>
	<path class="st4" d="M551.1,449.9c0,0-11.6,23.2-3.9,25.1c7.7,1.9,16.4-1,17.4-1.9c1-1,14.5-4.8,16.4-2.9c1.9,1.9,1.9-7.7,1.9-7.7
		L551.1,449.9z"/>
	<path class="st1" d="M560.8,418c0,0-18.4,25.1-4.8,31.9c13.5,6.8,78.3,6.8,83.1,0c4.8-6.8,6.8-28,0-29.9
		C632.3,418,560.8,418,560.8,418z"/>
	<path class="st5" d="M560.8,418c0,0-18.4,25.1-4.8,31.9c13.5,6.8,78.3,6.8,83.1,0c4.8-6.8,6.8-28,0-29.9
		C632.3,418,560.8,418,560.8,418z"/>
	<circle class="st2" cx="595.5" cy="281.8" r="22.2"/>
	<path class="st6" d="M560.8,316.6l19.3-3.9c0,0,4.8,15.5,20.3,12.6c15.5-2.9,19.3-12.6,19.3-12.6s11.6,4.8,12.6,4.8
		s13.5,4.8,13.5,7.7s-14.5,31.9-14.5,31.9l1.9,52.2l-71.5-1.9l4.8-51.2L560.8,316.6z"/>
	<path class="st2" d="M550.1,341.7c0,0-5.8,51.2-1.9,55.1c3.9,3.9,19.3,14.5,19.3,14.5v-11.6l-7.7-14.5l7.7-33.8L550.1,341.7z"/>
	<path class="st2" d="M650.1,340.3c0,0-3.4,52.7-3.4,54.6c0,1.9-8.7,8.7-11.6,8.7c-2.9,0-4.8-4.8-4.8-4.8l6.8-7.7l-4.8-39.6
		L650.1,340.3z"/>
	<path class="st1" d="M640.9,414.2c0,0,43.5-24.2,44.4,0c1,24.2-22.2,33.8-22.2,33.8s-59.9,18-62.3,11.4c-2.4-6.6-7.2-17.2-3.4-18.2
		c3.9-1,8.7-2.9,10.6-1c1.9,1.9,26.1-14.5,26.1-14.5L640.9,414.2z"/>
	<path class="st7" d="M661.2,411.3c0,0-8.7,3.9-11.6,6.8c-2.9,2.9-15.5,7.7-15.5,7.7"/>
	<path class="st6" d="M566.6,318.5l-5.8-1.9c0,0-21.3,22.2-14.5,28c6.8,5.8,10.6,7.7,12.6,9.7c1.9,1.9,11.6,2.9,11.6,2.9
		L566.6,318.5z"/>
	<path class="st6" d="M637.1,323.4l8.7,1.9c0,0,6.8,14.5,8.7,16.4c1.9,1.9-2.9,1-5.8,4.8s-5.8,10.6-11.6,10.6
		c-5.8,0-13.5-9.7-13.5-9.7L637.1,323.4z"/>
	<path class="st1" d="M562.7,422.9c0,0-36.7-26.1-49.3-6.8c-12.6,19.3,54.1,45.4,63.8,49.3c9.7,3.9,18.4,7.7,18.4,7.7
		s8.7-21.3,8.7-25.1c0-3.9-6.8-3.9-8.7-3.9s-10.6-1.9-12.6-4.8C581,436.4,562.7,422.9,562.7,422.9z"/>
	<path class="st7" d="M542.4,416.1c0,0,9.7,7.7,18.4,9.7c8.7,1.9,11.6,6.8,11.6,6.8"/>
	<path class="st4" d="M556,379.8l0.8,40.9c0.1,2.8,2.4,5.1,5.2,5l76.1-0.9c2.7,0,4.9-2.1,5.1-4.8l2.3-40c0.2-2.8-2-5.2-4.8-5.4
		c-0.1,0-0.2,0-0.3,0h-79.2C558.3,374.6,556,376.9,556,379.8C556,379.7,556,379.7,556,379.8z"/>
	<path class="st1" d="M596.7,253.9c0,0,1.2,4.1-5.8,7.8s-9.1,17.7-0.8,21.9c8.3,4.1,10.7,9.5,6.6,13.2c-4.1,3.7-11.6,13.6-1.7,16.1
		c9.9,2.5,11.1,7.4,8.3,9.5c-2.9,2.1,6.6-3.7,6.6-3.7s1.7,9.9,10.3,7.4s17.3-47.5,7.7-59.1C618.9,256.3,596.7,253.9,596.7,253.9z"/>
	<path class="st1" d="M594.1,249.7c0-6,18.1-1.7,25.8,6.7c5.4,5.8,13.5,14.6,6.7,20.8c-6.8,6.2,11.7,14.3,16.7,16.8
		s14.8,10,5.9,15.1c-8.9,5.1-8.7,10.2-5.4,11.4c3.3,1.2-7.4-1.8-7.4-1.8s1.1,10-7.9,9.9c-9,0-34.9-49.6-28.7-63.3
		C605.6,252.4,594.1,249.7,594.1,249.7z"/>
	<path class="st1" d="M598,248.3c-24.2-1.5-26.6,16.8-26.6,16.8c0.2,10.5,16.9,5.4,21.5,7c5.6-4,16.4-11.7,24.1-17.1
		C611.5,251,604.9,248.7,598,248.3z"/>
	<path class="st8" d="M591.1,364.5c0,0-21.7-101.7-157.5-175.5"/>
	<polygon class="st9" points="439.2,186.8 439.5,188 434,189.3 435.7,194.7 434.6,195 432.5,188.5 	"/>
	<path class="st6" d="M144,468.4c0,12.9-7.7,17.4-17.1,17.4c-0.2,0-0.4,0-0.7,0c-0.4,0-0.9,0-1.3-0.1c-8.5-0.6-15.1-5.3-15.1-17.3
		c0-12.4,15.8-28,17-29.2l0,0c0,0,0.1-0.1,0.1-0.1S144,455.5,144,468.4z"/>
	<path class="st9" d="M126.3,483.8l6.3-8.7l-6.3,9.7l0,1c-0.4,0-0.9,0-1.3-0.1l0.7-12.9l0-0.1l0,0l0.1-1.2l-6.3-9.7l6.3,8.8l0,0.3
		l0.5-9.7l-5.4-10l5.4,8.3l0.5-20.2l0-0.1v0.1l-0.1,15.9l5.4-6.3l-5.4,7.7l-0.1,8.7l5-8.4l-5,9.6l-0.1,4.8l7.3-11.6l-7.3,13.3
		L126.3,483.8z"/>
	<path class="st1" d="M225.6,465.1l3.7-2.7c0,0,2.4,13.5-0.3,15.6c-2.7,2-12.8,5.4-12.8,9.5s-23,9.5-23.6,3.4c-0.7-6.1,2-9.5,2-9.5
		s10.8-10.8,12.2-12.8c1.4-2,4.7-6.1,4.7-6.1L225.6,465.1z"/>
	<path class="st1" d="M171.5,296.9c0,0,0.1,0.6,0.3,1.7c0.2,1,0.4,2.3,0.7,4c2.8,17.3,11.1,68.3,10.6,70c-0.7,2-5.4,9.5,0,11.5
		c0.5,0.2,1.1,0.8,1.7,1.8c1.2,2.2,2.1,4.4,2.9,6.7c3.2,9.3,6.7,24.3,8.7,34.7c0.9,4.6,1.5,8.2,1.6,10.1c0.1,0.4,0.1,0.9,0,1.3
		c-0.7,2.7,4.1,12.2,6.1,14.9c2,2.7,5.4,5.4,4.7,8.1s16.9,10.1,18.9,5.4c2-4.7,2-7.4,2.7-8.8s1.4-10.8-2-12.2
		c-3.4-1.4-1.4-25-4.7-29.7c-1.1-1.6-2.9-6.9-4.7-13.3c-0.7-2.5-1.4-5.2-2.1-7.9c-2.9-11-5.4-22-5.4-22l0.7-79l-37.2-4.7l-1,2.1
		l-1.9,4.2L171.5,296.9z"/>
	<path class="st1" d="M169.5,426.6c0,0-5.4-5.4-8.1,0c-2.7,5.4-5.4,26.3-10.1,31.1c-4.7,4.7-10.8,28.4-4.1,29.7
		c6.8,1.4,14.2-2,14.9-6.1c0.7-4.1,14.9-25,14.9-27c0-2-9.5-9.5-9.5-9.5L169.5,426.6z"/>
	<path class="st1" d="M252.6,259.7c0,0-8.8,79-10.8,86.5c-2,7.4-12.8,35.8-16.2,40.5c-3.4,4.7-25,43.2-27.7,45.3
		c-2.7,2-8.1,7.4-8.1,7.4s-10.1,10.1-11.5,12.2c-1.4,2-12.8-4.1-13.5-8.1c-0.7-4.1,0.7-10.8,1.4-13.5c0.7-2.7-1.4-6.8,0.7-8.8
		S179,409,179,404.3c0-4.7,17.6-32.4,24.3-38.5c6.8-6.1,5.4-16.2,5.4-16.2v-41.2l-37.2-11.5c0,0,2-32.4,6.8-32.4
		C183,264.5,245.2,253.6,252.6,259.7z"/>
	<circle class="st10" cx="197.9" cy="124.6" r="22.3"/>
	<path class="st10" d="M205.3,142.2c0,0,2.7,10.1,6.1,12.8c3.4,2.7-8.8,14.2-8.8,14.2l-23,1.4l-4.1-12.8c0,0,7.4-14.9,5.4-24.3
		C179,123.9,205.3,142.2,205.3,142.2z"/>
	<path class="st6" d="M214.8,153.7c0,0-6.1,0.7-7.4,2.7c-1.4,2-10.8,8.1-18.2,6.8c-7.4-1.4-12.2-3.4-13.5-2.7s-4.1,14.9-4.1,14.9
		l7.4,21.6l-1.4,59.4l-2,16.2c0,0-4.1-5.4,12.2-2s37.2-2.7,43.9-3.4s18.2-2.7,18.9-6.8s-2-18.9-2-18.9l-10.8-45.3l-6.8-24.3
		L214.8,153.7z"/>
	<path class="st11" d="M208.4,150.6c0,0,5.7-3,7.7-0.3c2,2.7,27.7,6.8,27.7,8.8s5.4,56.7,4.1,61.5s2.7,10.1,2.7,10.1l4.7,20.3
		c0,0,12.8,38.5,7.4,39.9c-5.4,1.4-10.1,0-12.2,0s-1.4-25.7-6.8-32.4c-5.4-6.8-12.8-23.6-14.2-27c-1.4-3.4-18.2-50-17.6-55.4
		C212.8,170.6,208.4,150.6,208.4,150.6z"/>
	<path class="st11" d="M180.3,153.7c0,0-5.4,0-6.1,1.4s-7.4,10.1-10.1,12.2S152,178,152,180c0,2,19.6,16.9,19.6,16.9
		s8.1,39.9,4.1,53.4c-4.1,13.5-10.1,45.9-7.4,48c2.7,2,8.8,2.7,8.8,0s4.1-31.8,7.4-37.8s13.5-44.6,9.5-55.4
		C189.8,194.2,180.3,153.7,180.3,153.7z"/>
	<path class="st10" d="M269.5,220.5c0,0,0.7,20.9-6.8,31.8c-7.4,10.8-12.2,23-12.2,23s-12.2-3.4-14.2-7.4c-2-4.1-14.9-0.7-14.9-2
		s15.5-8.1,16.9-9.5c1.4-1.4,6.1-1.4,8.8-4.1c2.7-2.7,3.4-8.8,3.4-8.8l2.7-17.6L269.5,220.5z"/>
	<path class="st1" d="M213.2,110.9c1.7-0.2,3.5-0.3,5-1.1c3.4-1.8,4.3-7,1.7-9.9c-0.7-0.7-1.5-1.4-2.4-1.9l-5.1-3.5
		c-2.3-1.5-4.6-3.1-7.2-3.8c-2.4-0.7-4.9-0.6-7.4-0.4c-4.8,0.3-9.7,0.9-14.2,2.6c-4.5,1.7-8.8,4.4-11.5,8.4c-4.3,6.3-4.4,14.8-2,22
		c2.4,7.3,6.9,13.6,11.4,19.8l2.3-11.3c0.2-1,0.5-2.1,1.3-2.7c2.1-1.5,4.6,1.6,7.2,1.5c1.6,0,3-1.4,3.7-2.9c0.6-1.5,0.7-3.2,0.8-4.9
		c0.3-3.5,1.5-8.3,4.8-10.2C204.7,110.7,209.8,111.2,213.2,110.9z"/>
	<path class="st3" d="M212,297.4c0,0-2.3,66-3.6,68s0-68.2,0-68.2L212,297.4z"/>
	<path class="st11" d="M238.4,159.1h5.4c0,0,23,31.1,20.3,33.1s0,7.4,0,7.4l5.4,10.1c0,0,6.8,6.1,4.7,7.4c-2,1.4-4.7,6.8-4.7,6.8
		s-13.5-2-17.6,6.1l-8.8-11.1L238.4,159.1z"/>
	
		<rect x="228.2" y="171.5" transform="matrix(0.9243 -0.3817 0.3817 0.9243 -54.5539 105.3115)" class="st1" width="20.1" height="37.4"/>
	<ellipse transform="matrix(0.9243 -0.3817 0.3817 0.9243 -53.0423 104.439)" class="st6" cx="236.8" cy="185.9" rx="4" ry="3.7"/>
	<path class="st10" d="M224.9,213.1c0,0-48.6,40.5-56.7,27.7c-8.1-12.8,8.8-23.6,8.8-23.6s14.9,0.7,31.8-10.1l16.9-7.4
		c0,0,15.4-22,20.7-13.6C251.5,194.4,237.3,208.9,224.9,213.1z"/>
	<path class="st11" d="M159.4,177.3L152,180v20.3l-2.7,4.1c0,0,0.7,8.1,2.7,10.1s6.1,1.4,4.7,6.1c-0.8,3.1-1,6.3-0.7,9.5
		c0,0,12.2,15.5,12.8,13.5s10.1-27,11.5-27c1.4,0-13.5-39.2-13.5-39.2H159.4z"/>
	<path class="st1" d="M248.2,279.7c0,0,7-6.8,3.5-7.1c-3.5-0.3-15.7-7.1-17.7-3.7C232,272.2,248.2,279.7,248.2,279.7z"/>
	<ellipse class="st12" cx="381.1" cy="145.6" rx="9.7" ry="5.2"/>
	<path class="st8" d="M418.3,162.8c-22-8.3-43.9-8.3-65.9,0v-26.9c21.5-6.5,44.4-6.5,65.9,0V162.8z"/>
	<path class="st8" d="M409.1,157.3c-15.9-6-31.7-6-47.6,0v-19.4c15.5-4.7,32.1-4.7,47.6,0V157.3z"/>
	<ellipse class="st8" cx="384.5" cy="143.3" rx="9.7" ry="5.2"/>
	<ellipse transform="matrix(0.9798 -0.2 0.2 0.9798 -27.7837 81.0254)" class="st12" cx="387.2" cy="178" rx="9.7" ry="5.2"/>
	<path class="st8" d="M427.1,187.4c-23.2-3.7-44.7,0.7-64.6,13.2l-5.4-26.4c19.8-10.7,42.2-15.2,64.6-13.2L427.1,187.4z"/>
	<path class="st8" d="M417,183.8c-16.7-2.7-32.3,0.5-46.6,9.5l-3.9-19.1c14.3-7.7,30.5-11,46.6-9.5L417,183.8z"/>
	<ellipse transform="matrix(0.9798 -0.2 0.2 0.9798 -27.1381 81.5484)" class="st8" cx="390.1" cy="175.1" rx="9.7" ry="5.2"/>
	
		<ellipse transform="matrix(6.941868e-02 -0.9976 0.9976 6.941868e-02 148.8305 579.7715)" class="st12" cx="385.2" cy="210.1" rx="5.2" ry="9.7"/>
	<path class="st8" d="M421.2,229.9c-21.3-9.8-43.3-11.3-65.8-4.6l1.9-26.9c21.9-5,44.8-3.4,65.8,4.6L421.2,229.9z"/>
	<path class="st8" d="M412.4,223.7c-15.4-7.1-31.2-8.2-47.5-3.3l1.3-19.4c15.8-3.6,32.3-2.4,47.5,3.3L412.4,223.7z"/>
	
		<ellipse transform="matrix(6.941868e-02 -0.9976 0.9976 6.941868e-02 154.2153 581.4467)" class="st8" cx="388.8" cy="208.1" rx="5.2" ry="9.7"/>
	<path class="st8" d="M342.6,163.5c0,0-42.1-5.8-72.2,11.9"/>
	<polygon class="st9" points="271.4,169.4 272.5,169.7 270.8,175.1 276.3,176.4 276,177.6 269.3,176 	"/>
</g>
</svg>
