<svg xmlns="http://www.w3.org/2000/svg" xmlns:xlink="http://www.w3.org/1999/xlink" viewBox="0 0 207 207" xmlns:v="https://vecta.io/nano"><style><![CDATA[.H{enable-background:new}.I{opacity:.4}.J{fill:#b8b8b8}.K{opacity:.8}.L{opacity:.57}]]></style><g class="J K"><use xlink:href="#B"/><use xlink:href="#B" class="H I"/><ellipse transform="matrix(.975 -.2224 .2224 .975 -.613 18.7407)" cx="82.9" cy="12.1" rx="10.8" ry="5.7"/><ellipse transform="matrix(.975 -.2223 .2223 .975 -.444 17.8804)" cx="79.2" cy="10.9" rx="4.1" ry="2.2" class="H I"/></g><g class="J K"><use xlink:href="#C"/><use xlink:href="#C" class="H I"/><ellipse transform="matrix(.975 -.2224 .2224 .975 -39.7927 32.4316)" cx="124.1" cy="192.9" rx="10.8" ry="5.7"/><ellipse transform="matrix(.975 -.2223 .2223 .975 -40.4446 31.8796)" cx="121.4" cy="195.6" rx="4.1" ry="2.2" class="H I"/></g><g class="J K"><use xlink:href="#D"/><use xlink:href="#D" class="H I"/><ellipse transform="matrix(.975 -.2224 .2224 .975 -27.0492 5.9858)" cx="13.1" cy="123.1" rx="5.7" ry="10.8"/><ellipse transform="matrix(.975 -.2224 .2224 .975 -27.882 5.8218)" cx="11.9" cy="126.7" rx="2.2" ry="4.1" class="H I"/></g><g class="J K"><use xlink:href="#E"/><use xlink:href="#E" class="H I"/><ellipse transform="matrix(.975 -.2224 .2224 .975 -13.3535 45.1809)" cx="193.9" cy="81.9" rx="5.7" ry="10.8"/><ellipse transform="matrix(.975 -.2223 .2223 .975 -13.8932 45.8117)" cx="196.6" cy="84.6" rx="2.2" ry="4.1" class="H I"/></g><g class="J K"><use xlink:href="#F"/><use xlink:href="#F" class="H I"/><ellipse transform="matrix(.5322 -.8466 .8466 .5322 -127.9523 130.5651)" cx="54.2" cy="181.1" rx="5.7" ry="10.8"/><ellipse transform="matrix(.5322 -.8466 .8466 .5322 -130.0659 133.5392)" cx="55.8" cy="184.5" rx="2.2" ry="4.1" class="H I"/></g><g class="J K"><use xlink:href="#G"/><use xlink:href="#G" class="H I"/><ellipse transform="matrix(.5322 -.8466 .8466 .5322 51.2236 140.5876)" cx="152.8" cy="23.9" rx="5.7" ry="10.8"/><ellipse transform="matrix(.5322 -.8466 .8466 .5322 52.9003 143.8852)" cx="156.7" cy="24.1" rx="2.2" ry="4.1" class="H I"/></g><g class="J K"><use xlink:href="#H"/><use xlink:href="#H" class="H I"/><ellipse transform="matrix(.5322 -.8466 .8466 .5322 -43.3901 225.0938)" cx="182" cy="151.8" rx="10.8" ry="5.7"/><ellipse transform="matrix(.5322 -.8466 .8466 .5322 -40.3165 227.2701)" cx="185.5" cy="150.1" rx="4.1" ry="2.2" class="H I"/></g><g class="J K"><use xlink:href="#I"/><use xlink:href="#I" class="H I"/><ellipse transform="matrix(.5322 -.8466 .8466 .5322 -33.329 46.0526)" cx="25" cy="53.2" rx="10.8" ry="5.7"/><ellipse transform="matrix(.5322 -.8466 .8466 .5322 -29.9942 44.2892)" cx="25.1" cy="49.3" rx="4.1" ry="2.2" class="H I"/></g><g class="J K"><use xlink:href="#J"/><use xlink:href="#J" class="H I"/><ellipse transform="matrix(.8316 -.5553 .5553 .8316 -70.9018 112.7104)" cx="150.4" cy="173.3" rx="9.5" ry="5"/><ellipse transform="matrix(.8316 -.5553 .5553 .8316 -70.2903 114.5603)" cx="153.8" cy="173.2" rx="3.6" ry="1.9" class="H I"/></g><g class="J K"><use xlink:href="#K"/><use xlink:href="#K" class="H I"/><ellipse transform="matrix(.1785 -.9839 .9839 .1785 74.0787 133.5095)" cx="117" cy="22.4" rx="5" ry="9.5"/><ellipse transform="matrix(.1785 -.9839 .9839 .1785 74.1818 129.2399)" cx="114.5" cy="20.2" rx="1.9" ry="3.6" class="H I"/></g><g class="J K"><use xlink:href="#L"/><use xlink:href="#L" class="H I"/><ellipse transform="matrix(.8316 -.5553 .5553 .8316 -9.8897 36.6499)" cx="55.5" cy="34.6" rx="6.6" ry="3.5"/><ellipse transform="matrix(.8316 -.5553 .5553 .8316 -8.5605 36.8342)" cx="56.5" cy="32.5" rx="2.5" ry="1.3" class="H I"/></g><g class="J K"><use xlink:href="#M"/><use xlink:href="#M" class="H I"/><ellipse transform="matrix(.7356 -.6774 .6774 .7356 -93.2912 66.5352)" cx="38.6" cy="152.8" rx="3.5" ry="6.6"/><ellipse transform="matrix(.7356 -.6774 .6774 .7356 -93.4184 64.8911)" cx="36.4" cy="152.1" rx="1.3" ry="2.5" class="H I"/></g><g class="J K"><use xlink:href="#N"/><use xlink:href="#N" class="H I"/><ellipse transform="matrix(.8079 -.5893 .5893 .8079 .484 111.4916)" cx="171.3" cy="55" rx="3.5" ry="6.6"/><ellipse transform="matrix(.8079 -.5893 .5893 .8079 .3549 112.9517)" cx="173.4" cy="55.9" rx="1.3" ry="2.5" class="H I"/></g><g class="J K"><use xlink:href="#O"/><use xlink:href="#O" class="H I"/><ellipse transform="matrix(.1381 -.9904 .9904 .1381 -102.6794 248.6049)" cx="91.5" cy="183.3" rx="3.5" ry="6.6"/><ellipse transform="matrix(.1381 -.9904 .9904 .1381 -105.3816 247.3087)" cx="89.4" cy="184.2" rx="1.3" ry="2.5" class="H I"/></g><g class="J K"><use xlink:href="#P"/><use xlink:href="#P" class="H I"/><ellipse transform="matrix(.1909 -.9816 .9816 .1909 35.4518 276.2341)" cx="185.3" cy="116.6" rx="6.6" ry="3.5"/><ellipse transform="matrix(.1909 -.9816 .9816 .1909 33.9699 278.8122)" cx="186.1" cy="118.8" rx="2.5" ry="1.3" class="H I"/></g><g class="J K"><use xlink:href="#Q"/><use xlink:href="#Q" class="H I"/><ellipse transform="matrix(.1521 -.9884 .9884 .1521 -67.1008 94.6289)" cx="21.6" cy="86.4" rx="9.5" ry="5"/><ellipse transform="matrix(.1521 -.9884 .9884 .1521 -71.5774 94.6203)" cx="19.4" cy="89" rx="3.6" ry="1.9" class="H I"/></g><circle cx="103.1" cy="102.3" r="67.5" class="J"/><defs><circle id="A" cx="103.1" cy="102.3" r="67.5"/><path id="B" d="M77.5 17.1s7.4 10.8 5.9 21.6l9.4-2.1s-6.5-17.4-2.9-22.5c0 0-9.1.2-12.4 3z"/><path id="C" d="M117.1 190.7s2-13-4-22l9.4-2.1s1.7 18.5 7.1 21.5c0 0-8.3 3.8-12.5 2.6z"/><path id="D" d="M18.1 128.5s10.8-7.4 21.6-5.9l-2.1-9.4s-17.4 6.5-22.5 2.9c0 0 .1 9.1 3 12.4z"/><path id="E" d="M191.7 88.9s-13-2-22 4l-2.1-9.4s18.5-1.7 21.5-7.1c0 0 3.8 8.3 2.6 12.5z"/><path id="F" d="M61.5 181.3s2.4-12.9 11.1-19.5l-8.2-5.1s-7.7 16.9-13.8 18c0 0 6.6 6.3 10.9 6.6z"/><path id="G" d="M156.3 30.5s-10.6 7.8-12.7 18.4l-8.2-5.1s11.9-14.3 10.2-20.2c0 0 8.5 3.1 10.7 6.9z"/><path id="H" d="M182.3 144.5s-12.9-2.4-19.5-11.1l-5.1 8.2s16.9 7.7 18 13.8c0 0 6.3-6.6 6.6-10.9z"/><path id="I" d="M31.5 49.7s7.8 10.6 18.4 12.7l-5.1 8.2S30.5 58.7 24.6 60.4c0 0 3.1-8.5 6.9-10.7z"/><path id="J" d="M153.3 167.5s-9.5-6.6-11.6-15.9l-7 4.7s10.8 12.3 9.4 17.5c0 0 7.3-2.9 9.2-6.3z"/><path id="K" d="M111 24.6s2.2 11.3-2.7 19.5l8.3 1.5s.8-16.3 5.4-19.2c0 0-7.4-3-11-1.8z"/><path id="L" d="M59.9 34.3s1.7 7.8 7.1 11.6l-4.9 3.2s-5-10.1-8.7-10.7c0 .1 3.9-3.8 6.5-4.1z"/><path id="M" d="M37.6 148.4s7.4-2.9 10.4-8.8l4 4.3s-9.2 6.5-9.2 10.2c0 .1-4.5-3.1-5.2-5.7z"/><path id="N" d="M171.8 59.4s-7.7 2-11.3 7.5l-3.4-4.7s9.9-5.4 10.3-9.1c-.1 0 4 3.7 4.4 6.3z"/><path id="O" d="M88 180.6s3.9-6.9 2.5-13.4l5.8.8s-3 10.9-.6 13.7c-.1.1-5.6.4-7.7-1.1z"/><path id="P" d="M182.4 120s-6.7-4.3-13.2-3.2l1.1-5.7s10.7 3.6 13.7 1.3c0 0 0 5.5-1.6 7.6z"/><path id="Q" d="M23.9 92.5s11.2-2.5 19.5 2.2l1.3-8.4s-16.3-.3-19.3-4.9c0 0-2.7 7.5-1.5 11.1z"/></defs><use xlink:href="#A" class="J"/><clipPath id="R"><use xlink:href="#A"/></clipPath><g class="J H"><circle cx="115.5" cy="87.7" r="61.1" opacity=".48" clip-path="url(#R)"/><ellipse transform="matrix(.2949 -.9555 .9555 .2949 .4376 158.1739)" cx="107.4" cy="78.8" rx="32.3" ry="40.5" class="I"/><circle cx="107" cy="58.9" r="8.3" class="L"/><circle cx="69.5" cy="123.8" r="15.4" class="L"/><circle cx="119.6" cy="148.8" r="5.7" class="L"/><circle cx="74.6" cy="63" r="2.5" class="L"/><circle cx="127.1" cy="101.4" r="12.1" class="L"/><circle cx="85.5" cy="88" r="7.6" class="L"/><circle cx="136.8" cy="72.4" r="7.6" class="L"/><circle cx="142.9" cy="130.4" r="4.5" class="L"/><circle cx="48.3" cy="99.7" r="4.5" class="L"/><ellipse transform="matrix(.2949 -.9555 .9555 .2949 8.1784 152.8168)" cx="107.6" cy="70.9" rx="16.1" ry="20.1" opacity=".34"/></g></svg>