<svg xmlns="http://www.w3.org/2000/svg" height="512" width="512" xmlns:v="https://vecta.io/nano"><path d="M474.396 181.95l-48.65 13.036c-8.002 2.144-12.75 10.37-10.606 18.37 2.22 8.28 10.652 12.676 18.37 10.606l48.65-13.036.347 1.296c2.22 8.28 10.652 12.676 18.37 10.606 8.002-2.144 12.75-10.37 10.606-18.37l-8.46-31.57a15 15 0 0 0-18.371-10.606c-8.002 2.144-12.75 10.37-10.606 18.37zm26.484 107.215c-7.72-2.07-16.152 2.326-18.37 10.606l-.347 1.296-48.65-13.036c-7.72-2.07-16.152 2.326-18.37 10.606a15 15 0 0 0 10.606 18.37l48.65 13.036-.347 1.296a15 15 0 1 0 28.977 7.764l8.46-31.57a15 15 0 0 0-10.606-18.37z" fill="#821eb4"/><path d="M11.12 222.83c7.72 2.07 16.152-2.326 18.37-10.606l.347-1.296 48.65 13.036c7.72 2.07 16.152-2.326 18.37-10.606 2.144-8.002-2.604-16.227-10.606-18.37l-48.65-13.036.347-1.296c2.144-8.002-2.604-16.227-10.606-18.37a15 15 0 0 0-18.371 10.606l-8.46 31.57c-2.144 8.002 2.604 16.227 10.606 18.37z" fill="#b450c8"/><path d="M339.106 8.974l-31.57-8.46a15 15 0 0 0-18.37 10.606c-2.142 8 2.604 16.227 10.606 18.37l1.296.347-13.036 48.65a15 15 0 0 0 10.606 18.37c8.314 2.228 16.314-2.928 18.37-10.606l13.036-48.65 1.296.347c8.314 2.228 16.314-2.928 18.37-10.606a15 15 0 0 0-10.606-18.37zM393.7 139.502l35.614-35.614.95.95c5.856 5.857 15.355 5.86 21.213 0s5.858-15.355 0-21.213l-23.1-23.1c-5.857-5.858-15.355-5.858-21.213 0s-5.858 15.355 0 21.213l.95.95L372.5 118.3c-5.858 5.858-5.858 15.355 0 21.213a15 15 0 0 0 21.212-.001z" fill="#821eb4"/><path d="M210.932 29.84l1.296-.347c8.002-2.144 12.75-10.37 10.606-18.37A15 15 0 0 0 204.464.515l-31.57 8.46c-8.002 2.144-12.75 10.37-10.606 18.37 2.057 7.68 10.057 12.835 18.37 10.606l1.296-.347L195 86.254c2.057 7.68 10.057 12.835 18.37 10.606 8.002-2.144 12.75-10.37 10.606-18.37zM103.888 82.676l.95-.95c5.858-5.858 5.858-15.355 0-21.213s-15.355-5.858-21.213 0l-23.1 23.1c-5.858 5.858-5.858 15.355 0 21.213s15.357 5.857 21.213 0l.95-.95 35.614 35.614c5.858 5.86 15.357 5.857 21.213 0s5.858-15.355 0-21.213zm-66.284 247.37l48.65-13.036c8.002-2.144 12.75-10.37 10.606-18.37-2.22-8.28-10.652-12.676-18.37-10.606L29.84 301.07l-.347-1.296c-2.22-8.28-10.652-12.676-18.37-10.606C3.12 291.3-1.63 299.535.515 307.537l8.46 31.57a15 15 0 0 0 18.371 10.606c8.002-2.144 12.75-10.37 10.606-18.37z" fill="#b450c8"/><path d="M331.34 474.048l-1.296.347-13.036-48.65c-2.057-7.68-10.057-12.835-18.37-10.606-8.002 2.144-12.75 10.37-10.606 18.37l13.036 48.65-1.296.347c-8.002 2.144-12.75 10.37-10.606 18.37s10.368 12.75 18.37 10.606l31.57-8.46c8.002-2.144 12.75-10.37 10.606-18.37-2.057-7.678-10.057-12.834-18.37-10.606zm98.933-66.885l-.95.95L393.71 372.5c-5.858-5.86-15.357-5.857-21.213 0s-5.858 15.355 0 21.213l35.614 35.614-.95.95c-5.858 5.858-5.858 15.355 0 21.213s15.355 5.858 21.213 0l23.1-23.1c5.858-5.858 5.858-15.355 0-21.213a15 15 0 0 0-21.212-.001z" fill="#821eb4"/><path d="M213.36 415.14c-8.314-2.228-16.314 2.928-18.37 10.606l-13.036 48.65-1.296-.347c-8.314-2.228-16.314 2.928-18.37 10.606a15 15 0 0 0 10.606 18.37l31.57 8.46a15 15 0 0 0 18.37-10.606c2.142-8-2.604-16.227-10.606-18.37l-1.296-.347 13.036-48.65a15 15 0 0 0-10.606-18.37zm-95.07-42.642l-35.614 35.614-.95-.95c-5.856-5.857-15.355-5.86-21.213 0s-5.858 15.355 0 21.213l23.1 23.1c5.857 5.858 15.355 5.858 21.213 0s5.858-15.355 0-21.213l-.95-.95L139.5 393.7c5.858-5.858 5.858-15.355 0-21.213a15 15 0 0 0-21.212.001z" fill="#b450c8"/><circle cx="256" cy="256" fill="#dff473" r="194.757"/><path d="M256 450.757V61.243c107.39 0 194.757 87.368 194.757 194.757S363.39 450.757 256 450.757z" fill="#8ee26b"/><g fill-rule="evenodd"><g fill="#8ee26b"><circle cx="256" cy="143.533" r="15"/><circle cx="256" cy="368.467" r="15"/><circle cx="223.867" cy="288.133" r="15"/></g><g fill="#00a08c"><circle cx="288.133" cy="288.133" r="15"/><circle cx="288.133" cy="223.867" r="15"/></g><circle cx="223.867" cy="223.867" fill="#8ee26b" r="15"/><circle cx="368.467" cy="256" fill="#00a08c" r="15"/><circle cx="143.533" cy="256" fill="#8ee26b" r="15"/><circle cx="335.526" cy="176.478" fill="#00a08c" r="15"/><circle cx="176.474" cy="335.53" fill="#8ee26b" r="15"/><circle cx="335.526" cy="335.53" fill="#00a08c" r="15"/><circle cx="176.474" cy="176.478" fill="#8ee26b" r="15"/></g><path d="M271 368.467a15.01 15.01 0 0 0-15-15v30a15.01 15.01 0 0 0 15-15zm0-224.934a15.01 15.01 0 0 0-15-15v30a15.01 15.01 0 0 0 15-15z" fill="#00a08c"/></svg>