<?xml version="1.0" encoding="utf-8"?>
<!-- Generator: Adobe Illustrator 21.0.0, SVG Export Plug-In . SVG Version: 6.00 Build 0)  -->
<svg version="1.1" id="Layer_1" xmlns="http://www.w3.org/2000/svg" xmlns:xlink="http://www.w3.org/1999/xlink" x="0px" y="0px"
	 viewBox="0 0 300 300" style="enable-background:new 0 0 300 300;" xml:space="preserve">
<style type="text/css">
	.st0{fill:#4E6A99;}
</style>
<g>
	<g>
		<path class="st0" d="M219.1,134.9c-1.3,2.4-2.1,5.1-2.1,7.9c-3.5-0.3-6.9-0.5-10.4-0.7c-7.5,17.4-22.6,30.9-41,36.3
			c-0.1,4.6-0.2,9.1-0.5,13.7H165c-1.6,0-3.1,0.4-4.4,1c-1-4.3-2-8.6-3.1-12.9c-3.3,0.5-6.6,0.8-10.1,0.8c-13.2,0-25.5-4-35.7-10.7
			c-1.7,1.2-3.4,2.4-5.2,3.6c-0.8-1.4-2.1-2.5-3.6-3.1c1.2-1.5,2.3-3,3.3-4.5c-12.1-10-20.4-24.2-22.7-40.5
			c-3.3-0.4-6.7-0.7-10.1-1.1c0.4-0.6,0.6-1.2,0.8-1.9c0.9-2.7,1-5.5,0.4-8.1c2.8-0.8,5.5-1.6,8.3-2.3c0.6-10.1,3.6-19.7,8.4-28
			c-2.9-3.9-5.9-7.9-9.1-11.7c1.5-0.5,2.8-1.6,3.6-3c3.4,2.5,6.9,5,10.3,7.5C108,61.9,126.5,52.1,147.3,52c5,0,10,0.6,14.7,1.7
			c1.3-3,2.6-6,3.9-9c2.1,1.8,4.7,3,7.6,3.5c-0.5,2.9-0.9,5.8-1.4,8.7c15.4,6.3,27.7,18.4,34.4,33.6c2.1-0.7,4.1-1.5,6.2-2.3
			c0.7,2,2,3.7,3.5,5.1c-2.4,1.3-4.7,2.7-7.1,4c1.9,6,2.9,12.4,2.9,19.1c0,5.6-0.7,11-2,16.1C212.9,133.4,216.1,134.2,219.1,134.9z"
			/>
		<path class="st0" d="M217,142.9c0.1-2.9,0.8-5.5,2.1-7.9c3.1-5.8,9.2-9.8,16.2-9.8c10.1,0,18.4,8.2,18.4,18.4
			c0,10.2-8.3,18.4-18.4,18.4c-10.2,0-18.4-8.2-18.4-18.4C216.9,143.4,216.9,143.1,217,142.9z"/>
		<path class="st0" d="M212.6,88.3c-0.5-1.4-0.8-2.8-0.8-4.3c0-7,5.7-12.7,12.7-12.7S237.2,77,237.2,84s-5.7,12.7-12.7,12.7
			c-3.2,0-6.2-1.2-8.4-3.2C214.6,92,213.3,90.3,212.6,88.3z"/>
		<path class="st0" d="M173.4,48.2c-2.9-0.5-5.4-1.7-7.6-3.5c-3.3-2.8-5.5-7.1-5.5-11.8c0-8.6,6.9-15.6,15.5-15.6
			s15.6,6.9,15.6,15.5s-6.9,15.6-15.5,15.6C175.1,48.4,174.2,48.4,173.4,48.2z"/>
		<path class="st0" d="M167.2,125.3c5.7,0,10.4,4.6,10.4,10.4c0,5.7-4.6,10.4-10.4,10.4c-5.7,0-10.3-4.6-10.3-10.4
			C156.9,129.9,161.5,125.3,167.2,125.3z"/>
		<path class="st0" d="M165.1,192.1c5.4,0.1,9.7,4.4,9.7,9.8c0,5.4-4.4,9.9-9.8,9.9c-5.4,0-9.8-4.4-9.8-9.9c0-3.9,2.2-7.2,5.4-8.8
			c1.3-0.7,2.8-1,4.4-1C165,192.1,165.1,192.1,165.1,192.1z"/>
		<path class="st0" d="M123.4,81c14.7,0,26.6,11.9,26.6,26.6s-11.9,26.7-26.6,26.7c-14.7,0-26.7-11.9-26.7-26.6
			C96.8,92.9,108.7,81,123.4,81z"/>
		<path class="st0" d="M133.9,148.2c4.7,0,8.5,3.8,8.5,8.5s-3.8,8.5-8.5,8.5s-8.5-3.8-8.5-8.5C125.5,152,129.2,148.2,133.9,148.2z"
			/>
		<path class="st0" d="M103,170.8c1.5,0.6,2.8,1.7,3.6,3.1c0.8,1.2,1.2,2.5,1.2,4.1c0,4.3-3.5,7.8-7.8,7.8s-7.8-3.5-7.8-7.7
			c0-4.3,3.5-7.8,7.7-7.8C101.1,170.2,102.1,170.4,103,170.8z"/>
		<path class="st0" d="M85.9,69.8c-0.8,1.4-2,2.5-3.6,3c-0.7,0.3-1.4,0.4-2.1,0.4c-3.7,0-6.6-3-6.6-6.6c0-3.7,3-6.6,6.6-6.6
			s6.6,3,6.6,6.6C86.8,67.7,86.4,68.8,85.9,69.8z"/>
		<path class="st0" d="M74.7,114.8c0.6,2.6,0.5,5.4-0.4,8.1c-0.2,0.7-0.5,1.3-0.8,1.9c-3.3,6.7-11.1,10.1-18.4,7.7
			c-8-2.7-12.3-11.3-9.6-19.2c2.7-8,11.2-12.3,19.2-9.6C69.9,105.4,73.6,109.7,74.7,114.8z"/>
	</g>
	<g>
		<path class="st0" d="M145.4,249.5c0,16.9-13.7,30.7-30.6,30.7s-30.7-13.7-30.7-30.6s13.7-30.7,30.6-30.7
			C131.6,218.8,145.4,232.5,145.4,249.5z"/>
		<path class="st0" d="M121.3,251.1c4,0,7.2,3.2,7.2,7.2c0,4-3.2,7.2-7.2,7.2s-7.3-3.2-7.3-7.2C114.1,254.4,117.3,251.2,121.3,251.1
			z"/>
		<path class="st0" d="M104.3,228.6c6,0,10.8,4.8,10.8,10.8s-4.8,10.8-10.8,10.8s-10.8-4.8-10.8-10.8
			C93.5,233.4,98.4,228.6,104.3,228.6z"/>
		<circle class="st0" cx="104.3" cy="260.9" r="4.7"/>
	</g>
</g>
</svg>
