<svg xmlns="http://www.w3.org/2000/svg" xmlns:xlink="http://www.w3.org/1999/xlink" width="840.5" height="757.831" xmlns:v="https://vecta.io/nano"><path fill="#3f3d56" d="M534.25 438.618l-116-138-232.846 2.128-141.248 137.58L47 442.16h-1.02v286.165h487.946V442.16l.313-3.54z"/><path fill="#4e6a99" d="M418.37 300.912l-144.916 169.9v257.513h260.482V438.49L418.37 300.912z"/><path d="M378.015 585.915h53.197v47.02h-53.197zm0-81.385h53.197v46.275h-53.197zm-236.413 68.9H194.8v47.02h-53.197zm0-81.388H194.8v46.275h-53.197z" fill="#fff"/><path fill="#3f3d56" d="M0 727.43h840.5v2H0z"/><path d="M713.92 695.83l4 20-20 4 3-25 13 1zm63-4l-5 25h-24l10-30 19 5z" fill="#a0616a"/><path d="M798.92 517.83l4 27-5 59-4 22-17 72s-19 0-22-8l5-41s4-33 3-37l-16-68-25 110c-3 9-7 48-7 48s-17 3-18 0-2-74-2-85 2-17 2-19-7.88-97.472-7.88-97.472zm-41 194s5 1 8 0 0-7 0-7h11s12 27 17 29 21 24 2 24c-11.724-.15-23.165-3.618-33-10 0 0-2-9-11-10s-15-12-15-12l13-24s3 11 8 10zm-47-1s-2 4-4 2-4-7-4-7-6-3-7 0-5 19-7 21-23 23-2 27 25-5 25-5-3-5 3-7 7-9 7-9l-4-30s-4 10-7 8z" fill="#2f2e41"/><g fill="#a0616a"><path d="M821.92 447.83l3 52s14 33-5 32-7-33-7-33l-18.602-46.4zm-154-15l-3 52s-14 33 5 32 7-33 7-33l18.602-46.4z"/><circle cx="747.919" cy="293.831" r="26"/><path d="M768.42 304.33s-7 28 7 35-44 17-48 0l2-8s8-10 6-19z"/></g><g fill="#e6e6e6"><path d="M752.92 339.83s-17.255 1.61-22.628-9.694c0 0-40.372 2.694-49.372 39.694l15 96s-16 28-14 31c0 0-10 28 82 29l40-2c.54-5.684.204-11.418-1-17-2-9-13-72-13-72s30-47 27-54-7.804-34.6-46.402-45.8c0 0-.598 5.8-17.598 4.8z"/><path d="M803.92 363.83l13 17s13 71 9 72-28 9-32 6-22-62-22-62zm-106-5l-17 11s-25 70-18 73 46 1 46 1z"/></g><path d="M776.34 270.563s-9.006-19.512-26.267-15.01-27.017 11.257-27.767 18.01.375 16.886.375 16.886 1.876-13.884 13.884-10.882c6.387 1.597 14.684 1.707 21.053 1.46 2.523-.104 4.978.835 6.788 2.595s2.816 4.188 2.782 6.713l-.315 21.493s25-16 9.467-41.268z" fill="#2f2e41"/><path d="M653.7 278.13H300.524a6.55 6.55 0 0 1-6.54-6.54v-162.17a6.55 6.55 0 0 1 6.54-6.54H653.7a6.55 6.55 0 0 1 6.54 6.54V271.6a6.55 6.55 0 0 1-6.54 6.54zM300.524 105.494a3.93 3.93 0 0 0-3.924 3.924V271.6a3.93 3.93 0 0 0 3.924 3.924H653.7a3.93 3.93 0 0 0 3.924-3.924v-162.17a3.93 3.93 0 0 0-3.924-3.924z" fill="#e6e6e6"/><circle cx="352.786" cy="160.326" r="26.642" fill="#4e6a99"/><g fill="#e6e6e6"><path d="M414.317 142.565a4.44 4.44 0 1 0 0 8.881H623.65a4.441 4.441 0 1 0 0-8.881zm0 26.642a4.44 4.44 0 1 0 0 8.881h90.077a4.44 4.44 0 1 0 0-8.881z"/><use xlink:href="#B"/><use xlink:href="#B" y="26.643"/></g><g fill="#4e6a99"><circle cx="590.1" cy="47.382" r="47.382"/><path d="M590.1 124.408l-29.63-51.322h59.26l-29.63 51.322z"/></g><circle cx="590.482" cy="47.086" r="17" fill="#fff"/><ellipse cx="768.872" cy="293.831" rx="4" ry="5" fill="#a0616a"/><defs ><path id="B" d="M332.35 211.8c-3.378 0-6.126 1.992-6.126 4.44s2.75 4.44 6.126 4.44h288.815c3.378 0 6.126-1.992 6.126-4.44s-2.75-4.44-6.126-4.44z"/></defs></svg>